<svg version="1.2" xmlns="http://www.w3.org/2000/svg" viewBox="0 0 681 478" width="681" height="478"><defs><linearGradient id="P" gradientUnits="userSpaceOnUse"/><linearGradient id="g1" x1="527.9" y1="296.8" x2="510" y2="213.7" href="#P"><stop stop-color="#fff"/><stop offset=".9" stop-color="#493d40"/></linearGradient><linearGradient id="g2" x1="517.7" y1="193.5" x2="512" y2="159" href="#P"><stop stop-color="#fff"/><stop offset=".5" stop-color="#c4c4bc"/></linearGradient></defs><style>tspan{white-space:pre}.a{fill:#e6e7e8}.b{fill:#fff}.c{fill:#a7a9ac}.d{fill:#d1d3d4}.e{fill:#bcbec0}.f{opacity:.5;fill:#bcbec0}.g{mix-blend-mode:multiply;fill:none;stroke:#f1f2f2}.h{opacity:.1;fill:#1f3c88}.i{fill:#808285}.j{fill:#f1f2f2}.k{fill:#f9b384}.l{fill:#231f20}.m{fill:#414042}.n{fill:#f73e3e}.o{fill:#102048}.p{fill:#e28b6d}.q{fill:#e59b6a}.r{fill:#352836}.s{opacity:.5;mix-blend-mode:multiply;fill:#bcbec0}.t{fill:#172c56}.u{fill:#151823}.v{fill:#58595b}.w{fill:#c7d3e0}.x{fill:#282a35}.y{fill:#6d6e71}.z{fill:#96a6bc}.A{fill:#d62929}.B{opacity:.3;mix-blend-mode:multiply;fill:#6d6e71}.C{fill:#333}.D{mix-blend-mode:multiply;fill:url(#g1)}.E{fill:#404040}.F{mix-blend-mode:multiply;fill:url(#g2)}.G{fill:#ff6e49}.H{fill:#ff3700}.I{opacity:.2}.J{fill:#2e2e2e}.K{fill:#b50f00}.L{fill:#191919}</style><g style="opacity:.6"><path class="a" d="m655 366.4c-29.3 34.6-77.4 65.6-123.1 58.3-41.8-6.7-50.9-2.1-93-5-40.2-2.8-93.8 16.6-133.7 20.6-92 9.4-155.9-32.3-219.8-60.5-21.7-9.5-45.2-26.5-43.4-49.5 1.7-22.1 25.6-35.5 35.5-55.3 11.6-23.3 2.2-51.6-12.3-73.4-14.6-21.8-34.1-40.5-45.5-64-9-18.8-12-40-9.2-60.5 3.3-24 27.3-39.9 51.5-34.1 11.1 2.6 21.9 7.3 31.5 13 24.3 14.6 45.9 34.9 73.3 42.6 27.5 7.6 57.2 1.2 83.3-10.1 26-11.3 49.5-27.2 74.8-40 51.3-26 109.9-38.4 167.8-35.7 28 1.3 56.3 6.3 80.9 19.5 24.5 13.1 45 35.4 50.8 62 6.8 31.1-6.4 64.8 5.2 94.5 7.6 19.5 24.6 33.9 36 51.6 24.5 38.3 18.7 91.3-10.6 126z"/></g><path class="b" d="m88.7 343.1l0.1-2.3c0-0.2 0.2-0.4 0.4-0.4 0.2 0 0.4 0.2 0.4 0.4v0.1l-0.1 2.2c0 0.2-0.2 0.4-0.4 0.4-0.2-0.1-0.4-0.2-0.4-0.4z"/><path class="b" d="m89.5 335.6l0.4-2.2c0.1-0.3 0.3-0.4 0.5-0.4 0.3 0.1 0.4 0.3 0.4 0.5v0.1l-0.5 2.1c-0.1 0.3-0.3 0.4-0.5 0.4-0.2-0.1-0.4-0.3-0.3-0.5z"/><path class="b" d="m91.4 328.3l0.8-2.1c0.1-0.3 0.4-0.4 0.6-0.3 0.3 0.1 0.4 0.4 0.3 0.6q0 0 0 0l-0.8 2.1c-0.1 0.3-0.4 0.4-0.6 0.3-0.3-0.1-0.4-0.4-0.3-0.6z"/><path class="b" d="m94.4 321.4l1.1-2c0.1-0.3 0.5-0.4 0.7-0.2 0.3 0.1 0.4 0.5 0.3 0.7q0 0 0 0h-0.1l-1.1 2c-0.1 0.3-0.4 0.3-0.7 0.2-0.3-0.2-0.4-0.5-0.2-0.7z"/><path class="b" d="m98.3 314.9l1.4-1.8c0.2-0.2 0.6-0.3 0.9-0.1 0.2 0.2 0.3 0.6 0.1 0.9q0 0 0 0l-1.4 1.7v0.1c-0.2 0.2-0.6 0.3-0.8 0.1-0.3-0.2-0.3-0.6-0.2-0.9z"/><path class="b" d="m103.1 309.1l1.6-1.6c0.3-0.3 0.7-0.3 1 0 0.2 0.2 0.2 0.7 0 0.9q0 0 0 0h-0.1l-1.5 1.6c-0.3 0.3-0.7 0.3-0.9 0-0.3-0.2-0.3-0.6-0.1-0.9z"/><path class="b" d="m108.7 304l1.8-1.4c0.3-0.3 0.7-0.2 1 0.1 0.2 0.3 0.1 0.7-0.2 1q0 0 0 0l-1.8 1.3v0.1c-0.3 0.2-0.7 0.1-0.9-0.2-0.3-0.3-0.2-0.7 0.1-0.9z"/><path class="b" d="m114.9 299.6l1.9-1.1c0.4-0.2 0.8-0.1 1 0.2 0.2 0.4 0.1 0.8-0.2 1q0 0 0 0.1h-0.1l-1.9 1.1c-0.4 0.2-0.8 0-1-0.3-0.2-0.3-0.1-0.8 0.3-1z"/><path class="b" d="m121.6 296.1l2.1-0.8c0.4-0.2 0.9 0 1 0.4 0.2 0.4 0 0.9-0.4 1q0 0 0 0l-2.1 0.8v0.1c-0.4 0.1-0.9-0.1-1-0.5-0.2-0.4 0-0.8 0.4-1z"/><path class="b" d="m128.8 293.7l2.2-0.6c0.4-0.1 0.9 0.2 1 0.6 0.1 0.5-0.2 0.9-0.6 1q0 0 0 0h-0.1l-2.1 0.5h-0.1c-0.4 0.1-0.8-0.1-0.9-0.6-0.1-0.4 0.1-0.8 0.6-0.9z"/><path class="b" d="m136.2 292.3l2.3-0.1c0.5-0.1 0.9 0.3 0.9 0.8 0.1 0.4-0.3 0.8-0.8 0.9q0 0 0 0l-2.2 0.1c-0.5 0-0.9-0.3-0.9-0.8-0.1-0.4 0.3-0.8 0.7-0.9z"/><path class="b" d="m143.8 292.2l2.3 0.2c0.5 0 0.9 0.5 0.8 1 0 0.5-0.4 0.8-0.9 0.8h-0.1l-2.2-0.2c-0.5-0.1-0.9-0.5-0.8-1 0-0.5 0.5-0.8 0.9-0.8z"/><path class="b" d="m151.4 293.2l2.2 0.5c0.5 0.1 0.8 0.6 0.7 1.1-0.1 0.5-0.6 0.8-1.1 0.7q0 0 0 0l-2.2-0.5c-0.5-0.1-0.9-0.6-0.7-1.1 0.1-0.5 0.6-0.8 1.1-0.7z"/><path class="b" d="m158.7 295.1l2.2 0.7c0.5 0.2 0.8 0.7 0.6 1.3-0.2 0.5-0.8 0.8-1.3 0.6l-2.1-0.8c-0.5-0.1-0.8-0.7-0.6-1.2 0.1-0.5 0.7-0.8 1.2-0.6z"/><path class="b" d="m165.8 297.7l2.1 0.9c0.5 0.3 0.7 0.9 0.5 1.4-0.2 0.5-0.8 0.8-1.4 0.5q0 0 0 0l-2-0.9c-0.6-0.2-0.8-0.8-0.6-1.4 0.3-0.5 0.9-0.7 1.4-0.5z"/><path class="b" d="m172.6 300.9l2 1.1c0.5 0.3 0.7 0.9 0.5 1.5-0.3 0.5-1 0.7-1.5 0.4q0 0 0 0l-2-1.1c-0.5-0.3-0.7-0.9-0.4-1.4 0.3-0.5 0.9-0.7 1.4-0.5z"/><path class="b" d="m179.2 304.6l2 1.1c0.5 0.3 0.7 1 0.4 1.5-0.4 0.6-1 0.7-1.6 0.4l-1.9-1.1c-0.5-0.3-0.7-1-0.4-1.6 0.3-0.5 1-0.6 1.5-0.3z"/><path class="b" d="m185.6 308.5l1.9 1.2c0.6 0.3 0.7 1 0.4 1.5-0.4 0.6-1.1 0.7-1.6 0.4l-1.9-1.2c-0.5-0.4-0.7-1.1-0.3-1.6 0.3-0.5 1-0.7 1.5-0.3z"/><path class="b" d="m191.9 312.5l1.9 1.2c0.6 0.4 0.7 1.1 0.4 1.7-0.4 0.5-1.1 0.6-1.7 0.3l-1.8-1.2c-0.6-0.4-0.7-1.1-0.4-1.7 0.4-0.5 1.1-0.6 1.6-0.3z"/><path class="b" d="m198.2 316.6l1.9 1.2c0.5 0.4 0.7 1.1 0.3 1.7-0.3 0.5-1.1 0.7-1.6 0.3l-1.9-1.2c-0.6-0.4-0.7-1.1-0.3-1.7 0.3-0.5 1-0.6 1.6-0.3z"/><path class="b" d="m204.5 320.6l1.9 1.2c0.5 0.4 0.7 1.1 0.4 1.7-0.4 0.6-1.1 0.7-1.7 0.4l-1.9-1.2c-0.6-0.4-0.8-1.1-0.4-1.7 0.3-0.6 1.1-0.7 1.7-0.4z"/><path class="b" d="m210.8 324.5l1.9 1.1h0.1c0.6 0.4 0.8 1.1 0.4 1.7-0.3 0.6-1.1 0.8-1.7 0.5l-1.9-1.2c-0.6-0.3-0.8-1.1-0.5-1.7 0.4-0.6 1.1-0.8 1.7-0.4z"/><path class="b" d="m217.3 328.2l1.9 1h0.1c0.6 0.4 0.8 1.2 0.5 1.8-0.4 0.6-1.1 0.8-1.8 0.5l-1.9-1.1c-0.7-0.4-0.9-1.1-0.5-1.7 0.3-0.6 1.1-0.9 1.7-0.5z"/><path class="b" d="m223.8 331.7l2 1h0.1c0.6 0.3 0.8 1.1 0.5 1.7-0.3 0.6-1.1 0.9-1.7 0.6l-2-1c-0.7-0.4-0.9-1.2-0.6-1.8 0.3-0.6 1.1-0.9 1.7-0.6z"/><path class="b" d="m230.5 334.9l2 1h0.1c0.6 0.3 0.9 1.1 0.6 1.7-0.3 0.7-1.1 1-1.8 0.7l-2-1c-0.7-0.3-0.9-1.1-0.6-1.7 0.3-0.7 1.1-1 1.7-0.7z"/><path class="b" d="m237.3 338l2.1 0.8c0.7 0.3 1 1.1 0.7 1.8-0.3 0.7-1.1 1-1.8 0.7l-2.1-0.9c-0.6-0.3-1-1.1-0.7-1.7 0.3-0.7 1.1-1 1.8-0.7z"/><path class="b" d="m244.2 340.7l2.1 0.8c0.7 0.3 1 1.1 0.8 1.8-0.3 0.7-1.1 1.1-1.8 0.8l-2.1-0.8c-0.7-0.3-1.1-1.1-0.8-1.8 0.3-0.7 1.1-1 1.8-0.8z"/><path class="b" d="m251.2 343.3l2.1 0.7c0.7 0.2 1.1 1 0.9 1.7-0.3 0.8-1.1 1.2-1.8 0.9l-2.1-0.7c-0.8-0.3-1.2-1-0.9-1.8 0.2-0.7 1-1.1 1.7-0.8z"/><path class="b" d="m258.2 345.5l2.2 0.6c0.7 0.2 1.2 1 1 1.7-0.2 0.8-1 1.2-1.8 1l-2.2-0.6c-0.7-0.2-1.2-1-0.9-1.8 0.2-0.7 1-1.1 1.7-0.9z"/><path class="b" d="m265.4 347.4l2.2 0.5c0.8 0.2 1.2 1 1.1 1.7-0.2 0.8-1 1.3-1.8 1.1l-2.2-0.5c-0.8-0.2-1.2-1-1.1-1.8 0.2-0.7 1-1.2 1.8-1z"/><path class="b" d="m272.6 348.9l2.2 0.4c0.8 0.2 1.4 1 1.2 1.8-0.1 0.8-0.9 1.3-1.7 1.1l-2.2-0.4c-0.8-0.1-1.4-0.9-1.2-1.7 0.2-0.8 0.9-1.3 1.7-1.2z"/><path class="b" d="m279.9 350.1l2.2 0.3h0.1c0.8 0.1 1.4 0.9 1.2 1.7-0.1 0.8-0.8 1.4-1.6 1.3l-2.3-0.3c-0.8-0.1-1.4-0.9-1.3-1.7 0.1-0.8 0.9-1.4 1.7-1.3z"/><path class="b" d="m287.3 350.9l2.2 0.2c0.9 0 1.5 0.8 1.4 1.6 0 0.9-0.8 1.5-1.6 1.4l-2.3-0.1c-0.8-0.1-1.4-0.8-1.4-1.7 0.1-0.8 0.8-1.4 1.6-1.4z"/><path class="b" d="m294.6 351.3h2.3c0.8 0.1 1.5 0.8 1.5 1.6 0 0.9-0.7 1.6-1.6 1.6v-0.1h-2.2c-0.9 0-1.6-0.7-1.5-1.6 0-0.8 0.7-1.5 1.5-1.5z"/><path class="b" d="m302 351.3l2.2-0.1h0.1c0.8-0.1 1.6 0.6 1.6 1.5 0.1 0.8-0.6 1.6-1.5 1.6l-2.3 0.1c-0.8 0-1.6-0.6-1.6-1.5 0-0.9 0.6-1.6 1.5-1.6z"/><path class="b" d="m309.4 350.8l2.2-0.3c0.9-0.1 1.7 0.5 1.8 1.4 0.1 0.9-0.5 1.7-1.4 1.8l-2.3 0.2c-0.9 0.1-1.7-0.5-1.8-1.4-0.1-0.9 0.6-1.6 1.4-1.7z"/><path class="b" d="m316.7 349.7l2.1-0.4h0.1c0.8-0.1 1.7 0.4 1.9 1.3 0.1 0.9-0.5 1.8-1.3 1.9l-2.3 0.4c-0.9 0.2-1.7-0.4-1.9-1.3-0.1-0.9 0.5-1.7 1.3-1.9z"/><path class="b" d="m323.9 348.2l2.1-0.5c0.9-0.3 1.8 0.3 2 1.1 0.2 0.9-0.3 1.8-1.2 2l-2.2 0.6c-0.8 0.2-1.7-0.3-1.9-1.2-0.3-0.9 0.3-1.8 1.1-2z"/><path class="b" d="m330.9 346.2l2.1-0.7h0.1c0.8-0.3 1.8 0.2 2 1 0.3 0.9-0.1 1.8-1 2.1l-2.2 0.7c-0.8 0.3-1.7-0.2-2-1-0.3-0.9 0.2-1.8 1-2.1z"/><path class="b" d="m337.9 343.7l2-0.8c0.9-0.4 1.8 0 2.2 0.9 0.3 0.8-0.1 1.8-0.9 2.1l-2.1 0.9c-0.9 0.3-1.8-0.1-2.2-0.9-0.3-0.9 0.1-1.8 0.9-2.2z"/><path class="b" d="m344.6 340.8l2-1c0.8-0.4 1.8-0.1 2.2 0.7 0.4 0.8 0.1 1.8-0.7 2.2l-2.1 1c-0.8 0.4-1.8 0.1-2.2-0.7-0.4-0.8 0-1.8 0.8-2.2z"/><path class="b" d="m351.1 337.3l1.9-1.1c0.8-0.5 1.8-0.2 2.3 0.6 0.5 0.8 0.2 1.8-0.6 2.3l-1.9 1.1c-0.8 0.5-1.9 0.2-2.3-0.6-0.5-0.8-0.2-1.8 0.6-2.3z"/><path class="b" d="m357.3 333.4l1.8-1.2 0.1-0.1c0.7-0.5 1.8-0.3 2.3 0.5 0.5 0.7 0.3 1.8-0.4 2.3l-1.9 1.3c-0.8 0.5-1.8 0.3-2.3-0.4-0.5-0.8-0.4-1.8 0.4-2.4z"/><path class="b" d="m363.2 329.1l1.7-1.4h0.1c0.7-0.6 1.8-0.5 2.3 0.2 0.6 0.7 0.5 1.8-0.2 2.4l-1.8 1.4c-0.7 0.6-1.7 0.5-2.3-0.2-0.6-0.8-0.5-1.8 0.2-2.4z"/><path class="b" d="m368.8 324.3l1.6-1.6c0.7-0.6 1.7-0.6 2.4 0 0.6 0.7 0.6 1.8-0.1 2.4l-1.6 1.6c-0.7 0.7-1.7 0.7-2.4 0-0.6-0.7-0.6-1.8 0-2.4z"/><path class="b" d="m373.9 319l1.4-1.6 0.1-0.1c0.6-0.7 1.6-0.8 2.4-0.1 0.7 0.6 0.7 1.6 0.1 2.4l-1.5 1.7c-0.6 0.7-1.7 0.8-2.4 0.1-0.7-0.6-0.8-1.6-0.1-2.4z"/><path class="b" d="m378.5 313.3l1.3-1.7v-0.1c0.6-0.7 1.6-0.9 2.4-0.4 0.8 0.6 0.9 1.7 0.4 2.4l-1.4 1.9c-0.5 0.7-1.6 0.9-2.3 0.4-0.8-0.6-1-1.7-0.4-2.4z"/><path class="b" d="m382.6 307.3l1.1-1.9v-0.1c0.5-0.8 1.5-1.1 2.4-0.6 0.8 0.5 1 1.5 0.6 2.4l-1.2 1.9c-0.5 0.9-1.5 1.1-2.3 0.7-0.9-0.5-1.1-1.6-0.6-2.4z"/><path class="b" d="m386 300.8l0.9-2h0.1c0.3-0.9 1.4-1.3 2.2-0.9 0.9 0.4 1.3 1.5 0.9 2.3l-1 2.1c-0.4 0.9-1.4 1.3-2.2 0.9-0.9-0.4-1.3-1.4-0.9-2.3z"/><path class="b" d="m388.8 294.1q0.4-1 0.7-2.1c0.3-0.9 1.3-1.4 2.2-1.1 0.9 0.3 1.4 1.3 1.1 2.2q-0.3 1.1-0.7 2.2c-0.4 0.9-1.3 1.3-2.2 1-0.9-0.3-1.4-1.3-1.1-2.2z"/><path class="b" d="m390.9 287.1l0.5-2.1v-0.1c0.3-0.9 1.2-1.5 2.1-1.3 1 0.2 1.5 1.2 1.3 2.1l-0.5 2.3c-0.2 0.9-1.2 1.5-2.1 1.2-0.9-0.2-1.5-1.1-1.3-2z"/><path class="b" d="m392.4 279.9l0.3-2.1v-0.1c0.1-0.9 1-1.6 2-1.5 0.9 0.2 1.6 1.1 1.4 2l-0.3 2.3c-0.1 0.9-1 1.6-2 1.5-0.9-0.2-1.6-1.1-1.4-2z"/><path class="b" d="m393.2 272.7l0.1-2.2v-0.1c0.1-0.9 0.9-1.7 1.9-1.6 0.9 0 1.7 0.9 1.6 1.8l-0.1 2.3c-0.1 1-0.9 1.7-1.9 1.7-0.9-0.1-1.7-0.9-1.6-1.9z"/><path class="b" d="m393.4 265.3v-2.2c0-1 0.7-1.8 1.7-1.8 1 0 1.8 0.8 1.8 1.7v2.3c0.1 1-0.7 1.8-1.7 1.8-1 0-1.8-0.8-1.8-1.7z"/><path class="b" d="m393.1 258l-0.2-2.2c-0.1-1 0.7-1.9 1.7-2 0.9 0 1.8 0.7 1.9 1.7l0.2 2.2c0 1-0.7 1.9-1.7 1.9-1 0.1-1.8-0.6-1.9-1.6z"/><path class="b" d="m392.4 250.7l-0.4-2.2v-0.1c-0.1-0.9 0.6-1.8 1.6-2 0.9-0.1 1.8 0.6 2 1.5v0.1l0.3 2.2c0.1 1-0.6 1.9-1.5 2-1 0.1-1.9-0.5-2-1.5z"/><path class="b" d="m391.2 243.4l-0.4-2.2c-0.2-1 0.4-1.9 1.4-2.1 1-0.2 1.9 0.4 2.1 1.4l0.4 2.2c0.2 1-0.4 1.9-1.4 2.1-1 0.2-1.9-0.4-2.1-1.4z"/><path class="b" d="m389.7 236.1l-0.5-2.1c-0.2-1 0.4-2 1.3-2.2 1-0.2 2 0.4 2.2 1.3l0.5 2.2c0.2 1-0.4 2-1.3 2.2-1 0.2-2-0.4-2.2-1.3z"/><path class="b" d="m387.9 228.9l-0.6-2.1c-0.2-1 0.3-2 1.3-2.2 1-0.3 2 0.3 2.2 1.2l0.6 2.2c0.3 1-0.3 2-1.3 2.2-0.9 0.3-1.9-0.3-2.2-1.2z"/><path class="b" d="m385.9 221.8l-0.7-2.1c-0.2-1 0.3-2 1.3-2.3 0.9-0.3 1.9 0.2 2.2 1.2l0.7 2.2c0.3 0.9-0.3 1.9-1.2 2.2-1 0.3-2-0.2-2.3-1.2z"/><path class="b" d="m383.7 214.7l-0.7-2.1c-0.3-1 0.2-2 1.2-2.3 0.9-0.3 2 0.2 2.3 1.1l0.7 2.2c0.3 0.9-0.2 2-1.2 2.3-1 0.3-2-0.2-2.3-1.2z"/><path class="b" d="m381.3 207.6l-0.7-2.1c-0.3-0.9 0.2-2 1.2-2.3 0.9-0.3 2 0.2 2.3 1.1l0.7 2.2c0.3 0.9-0.2 2-1.1 2.3-1 0.3-2-0.2-2.4-1.2z"/><path class="b" d="m378.9 200.6l-0.7-2.1c-0.4-1 0.1-2 1.1-2.4 0.9-0.3 2 0.2 2.3 1.2l0.8 2.1c0.3 0.9-0.2 2-1.2 2.3-0.9 0.4-2-0.1-2.3-1.1z"/><path class="b" d="m376.4 193.6l-0.8-2.1c-0.3-1 0.2-2.1 1.2-2.4 0.9-0.4 2 0.1 2.3 1.1l0.8 2.1c0.3 1-0.2 2-1.1 2.4-1 0.3-2.1-0.2-2.4-1.1z"/><path class="b" d="m373.9 186.5l-0.7-2.1c-0.4-1 0.1-2 1.1-2.4 1-0.3 2 0.2 2.3 1.2l0.8 2.1c0.3 1-0.2 2-1.2 2.3-0.9 0.4-2-0.1-2.3-1.1z"/><path class="b" d="m371.5 179.4l-0.7-2.1c-0.3-1 0.2-2 1.2-2.4 0.9-0.3 2 0.3 2.3 1.2l0.7 2.1v0.1c0.3 0.9-0.2 2-1.2 2.3-1 0.3-2-0.2-2.3-1.2z"/><path class="b" d="m369.2 172.2l-0.6-2.1c-0.3-1 0.2-2 1.2-2.3 0.9-0.3 2 0.3 2.2 1.2l0.7 2.2c0.3 0.9-0.2 2-1.2 2.3-1 0.3-2-0.3-2.3-1.2z"/><path class="b" d="m367.1 165l-0.6-2.1c-0.3-1 0.3-2 1.3-2.3 0.9-0.2 1.9 0.3 2.2 1.3l0.6 2.1v0.1c0.3 0.9-0.3 1.9-1.3 2.2-0.9 0.3-1.9-0.3-2.2-1.3z"/><path class="b" d="m365.2 157.7l-0.6-2.2c-0.2-0.9 0.4-1.9 1.4-2.1 1-0.3 1.9 0.3 2.2 1.3l0.5 2.2c0.2 1-0.4 2-1.3 2.2-1 0.2-2-0.4-2.2-1.3z"/><path class="b" d="m363.5 150.4l-0.4-2.2c-0.2-1 0.4-2 1.4-2.1 1-0.2 1.9 0.4 2.1 1.4l0.5 2.2c0.2 1-0.5 1.9-1.5 2.1-0.9 0.2-1.9-0.4-2.1-1.4z"/><path class="b" d="m362.2 143l-0.4-2.3c-0.1-1 0.6-1.9 1.5-2 1-0.2 1.9 0.5 2.1 1.5l0.3 2.2c0.2 1-0.5 1.9-1.5 2.1-1 0.1-1.9-0.6-2-1.5z"/><path class="b" d="m361.2 135.5l-0.2-2.3c-0.1-1 0.6-1.9 1.6-2 0.9 0 1.8 0.7 1.9 1.7l0.2 2.2c0.1 1-0.6 1.9-1.6 2-1 0.1-1.8-0.7-1.9-1.6z"/><path class="b" d="m360.6 127.9l-0.1-2.3c0-1 0.8-1.8 1.8-1.8 0.9 0 1.8 0.7 1.8 1.7l0.1 2.2v0.1c0 1-0.8 1.8-1.7 1.8-1 0.1-1.9-0.7-1.9-1.7z"/><path class="b" d="m360.6 120.3v-2.3c0.1-1 0.9-1.7 1.9-1.7 0.9 0.1 1.7 0.9 1.7 1.9l-0.1 2.2c0 1-0.9 1.8-1.8 1.7-1 0-1.8-0.8-1.7-1.8z"/><path class="b" d="m361.1 112.7l0.2-2.3c0.1-0.9 1-1.6 2-1.5 1 0.1 1.6 1 1.5 2l-0.2 2.2c-0.2 1-1 1.7-2 1.6-1-0.1-1.7-1-1.5-2z"/><path class="b" d="m362.2 105.2l0.5-2.3c0.2-0.9 1.1-1.5 2-1.3 1 0.2 1.6 1.1 1.4 2.1l-0.5 2.1v0.1c-0.2 0.9-1.1 1.5-2 1.3-1-0.2-1.6-1.1-1.4-2z"/><path class="b" d="m364 97.8l0.7-2.2c0.3-1 1.3-1.5 2.2-1.2 0.9 0.3 1.4 1.3 1.1 2.2v0.1l-0.6 2v0.1c-0.3 0.9-1.3 1.4-2.2 1.1-0.9-0.2-1.5-1.2-1.2-2.1z"/><path class="b" d="m366.6 90.5q0.4-1 0.9-2.1c0.4-0.8 1.4-1.2 2.3-0.8 0.8 0.3 1.2 1.4 0.8 2.2q-0.4 1-0.8 2.1c-0.4 0.9-1.4 1.3-2.3 0.9-0.9-0.3-1.3-1.4-0.9-2.3z"/><path class="b" d="m369.8 83.6l1.2-2c0.4-0.8 1.5-1.1 2.3-0.6 0.9 0.4 1.2 1.5 0.7 2.3v0.1l-1.1 1.9c-0.5 0.8-1.6 1.1-2.4 0.7-0.8-0.5-1.1-1.5-0.7-2.4z"/><path class="b" d="m373.8 77.1l1.4-1.9c0.5-0.8 1.6-0.9 2.4-0.4 0.7 0.6 0.9 1.6 0.4 2.4h-0.1l-1.2 1.8-0.1 0.1c-0.5 0.8-1.6 0.9-2.4 0.4-0.7-0.5-0.9-1.6-0.4-2.4z"/><path class="b" d="m378.5 71l1.5-1.7c0.6-0.7 1.7-0.8 2.4-0.2 0.7 0.6 0.8 1.7 0.2 2.4l-0.1 0.1-1.4 1.6v0.1c-0.7 0.7-1.7 0.8-2.5 0.1-0.7-0.6-0.8-1.7-0.1-2.4z"/><path class="b" d="m383.7 65.4l1.6-1.5c0.7-0.7 1.8-0.7 2.4 0 0.7 0.7 0.7 1.8 0 2.4h-0.1l-1.5 1.6h-0.1c-0.7 0.6-1.7 0.6-2.4-0.1-0.6-0.6-0.6-1.7 0.1-2.4z"/><path class="b" d="m389.4 60.4l1.7-1.5c0.8-0.6 1.8-0.4 2.4 0.3 0.6 0.7 0.5 1.8-0.3 2.4l-1.7 1.4c-0.8 0.6-1.8 0.5-2.4-0.3-0.6-0.7-0.5-1.8 0.3-2.3z"/><path class="b" d="m395.5 55.8l1.9-1.3c0.7-0.5 1.8-0.3 2.3 0.5 0.5 0.8 0.3 1.8-0.5 2.4l-1.8 1.2h-0.1c-0.7 0.5-1.8 0.3-2.3-0.5-0.5-0.7-0.3-1.8 0.5-2.3z"/><path class="b" d="m401.9 51.8l2-1.1c0.8-0.5 1.9-0.2 2.3 0.6 0.5 0.9 0.2 1.9-0.7 2.3l-1.9 1.1h-0.1c-0.8 0.5-1.8 0.2-2.2-0.6-0.5-0.8-0.2-1.9 0.6-2.3z"/><path class="b" d="m408.7 48.3l2.1-0.9c0.8-0.4 1.8 0 2.2 0.8 0.4 0.8 0 1.8-0.9 2.2l-2 0.9v0.1c-0.9 0.3-1.9 0-2.2-0.9-0.4-0.8-0.1-1.8 0.8-2.2z"/><path class="b" d="m415.7 45.4l2.1-0.8c0.9-0.3 1.9 0.1 2.2 1 0.3 0.9-0.2 1.8-1 2.1h-0.1l-2 0.8h-0.1c-0.8 0.3-1.8-0.1-2.1-1-0.3-0.9 0.1-1.8 1-2.1z"/><path class="b" d="m422.9 43l2.2-0.6c0.9-0.3 1.8 0.3 2.1 1.1 0.2 0.9-0.3 1.8-1.2 2.1l-2.2 0.6c-0.9 0.2-1.8-0.3-2-1.2-0.3-0.8 0.2-1.8 1.1-2z"/><path class="b" d="m430.3 41.2l2.2-0.5c0.9-0.1 1.8 0.4 2 1.3 0.1 0.9-0.4 1.8-1.3 2h-0.1l-2.1 0.4h-0.1c-0.9 0.2-1.7-0.4-1.9-1.3-0.2-0.9 0.4-1.8 1.3-1.9z"/><path class="b" d="m437.8 39.9l2.3-0.3c0.9-0.1 1.7 0.6 1.8 1.5 0.1 0.9-0.6 1.7-1.5 1.8l-2.2 0.3c-0.9 0.1-1.7-0.6-1.8-1.5-0.2-0.9 0.5-1.7 1.4-1.8z"/><path class="b" d="m445.4 39.2h2.2c0.9-0.1 1.7 0.6 1.7 1.5 0.1 0.9-0.6 1.7-1.5 1.7h-0.1l-2.2 0.1c-0.9 0-1.7-0.7-1.7-1.6 0-0.9 0.7-1.6 1.6-1.7z"/><path class="b" d="m452.9 39.1l2.3 0.1c0.9 0 1.6 0.8 1.6 1.7 0 0.9-0.8 1.6-1.7 1.5h-2.2-0.1c-0.8 0-1.6-0.8-1.5-1.7 0-0.9 0.7-1.6 1.6-1.6z"/><path class="b" d="m460.5 39.6l2.3 0.2c0.9 0.1 1.5 0.8 1.4 1.7-0.1 0.9-0.9 1.5-1.7 1.5h-0.1l-2.2-0.3c-0.9 0-1.5-0.8-1.4-1.7 0-0.9 0.8-1.5 1.7-1.4z"/><path class="b" d="m468 40.5l2.3 0.3c0.8 0.2 1.4 1 1.3 1.8-0.2 0.9-1 1.5-1.8 1.3h-0.1l-2.1-0.3h-0.1c-0.8-0.2-1.4-1-1.3-1.8 0.2-0.9 1-1.5 1.8-1.3z"/><path class="b" d="m475.5 41.8l2.2 0.5c0.8 0.2 1.3 1 1.2 1.9-0.2 0.8-1.1 1.3-1.9 1.1l-2.2-0.4c-0.8-0.2-1.4-1-1.2-1.9 0.2-0.8 1-1.3 1.9-1.2z"/><path class="b" d="m482.8 43.6l2.2 0.7c0.8 0.2 1.3 1 1 1.8-0.2 0.8-1 1.3-1.8 1.1h-0.1l-2.1-0.6c-0.8-0.3-1.3-1.1-1.1-1.9 0.2-0.8 1.1-1.3 1.9-1.1z"/><path class="b" d="m490 45.8l2.2 0.8c0.8 0.2 1.2 1.1 0.9 1.9-0.3 0.7-1.1 1.2-1.9 0.9l-2.1-0.7c-0.8-0.3-1.2-1.1-1-1.9 0.3-0.8 1.1-1.2 1.9-1z"/><path class="b" d="m497.1 48.4l2.1 0.8c0.8 0.3 1.2 1.2 0.9 2-0.3 0.7-1.2 1.1-1.9 0.8h-0.1l-2-0.8h-0.1c-0.7-0.3-1.1-1.2-0.8-2 0.3-0.7 1.2-1.1 1.9-0.8z"/><path class="b" d="m504.1 51.3l2 1c0.8 0.3 1.1 1.1 0.8 1.9-0.4 0.7-1.2 1-1.9 0.7h-0.1l-2-0.9c-0.7-0.4-1.1-1.2-0.7-2 0.3-0.7 1.1-1 1.9-0.7z"/><path class="b" d="m510.9 54.5l2 1.1c0.7 0.3 1 1.2 0.6 1.9-0.3 0.7-1.2 1-1.9 0.6l-2-1c-0.7-0.4-1-1.2-0.6-1.9 0.3-0.7 1.2-1 1.9-0.7z"/><path class="b" d="m517.6 58.1l1.9 1.1c0.7 0.4 0.9 1.2 0.6 1.9-0.4 0.7-1.3 0.9-1.9 0.5h-0.1l-1.9-1.1c-0.7-0.4-0.9-1.2-0.6-1.9 0.4-0.7 1.3-0.9 2-0.5z"/><path class="b" d="m524.1 61.9l1.9 1.2c0.6 0.4 0.8 1.2 0.4 1.9-0.4 0.6-1.2 0.8-1.9 0.4l-1.9-1.2c-0.6-0.4-0.8-1.2-0.4-1.9 0.4-0.6 1.2-0.8 1.9-0.4z"/><path class="b" d="m530.4 65.9l1.9 1.3c0.6 0.4 0.7 1.3 0.3 1.9-0.4 0.6-1.2 0.7-1.8 0.3l-1.9-1.2c-0.6-0.4-0.8-1.3-0.4-1.9 0.4-0.6 1.3-0.8 1.9-0.4z"/><path class="b" d="m536.6 70.2l1.8 1.4c0.6 0.4 0.7 1.2 0.3 1.8-0.4 0.6-1.3 0.7-1.9 0.3l-1.8-1.3c-0.6-0.5-0.7-1.3-0.3-1.9 0.4-0.6 1.3-0.7 1.9-0.3z"/><path class="b" d="m542.6 74.8l1.7 1.4c0.6 0.4 0.7 1.2 0.2 1.8-0.4 0.6-1.2 0.7-1.8 0.2l-1.7-1.4c-0.6-0.4-0.7-1.2-0.3-1.8 0.5-0.6 1.3-0.7 1.9-0.2z"/><path class="b" d="m548.4 79.6l1.7 1.4c0.5 0.5 0.6 1.3 0.1 1.8-0.4 0.6-1.2 0.6-1.8 0.2l-1.7-1.5c-0.5-0.5-0.6-1.3-0.1-1.8 0.4-0.5 1.3-0.6 1.8-0.1z"/><path class="b" d="m554 84.6l1.6 1.5c0.5 0.5 0.5 1.3 0.1 1.8-0.5 0.5-1.3 0.5-1.8 0.1v-0.1l-1.6-1.5c-0.5-0.5-0.6-1.3-0.1-1.8 0.5-0.5 1.3-0.5 1.8 0z"/><path class="b" d="m559.4 89.9l1.5 1.6c0.5 0.5 0.5 1.3 0 1.7-0.5 0.5-1.3 0.5-1.7 0h-0.1l-1.5-1.6c-0.5-0.5-0.5-1.3 0-1.8 0.5-0.4 1.3-0.4 1.7 0.1z"/><path class="b" d="m564.5 95.4l1.4 1.7c0.5 0.5 0.4 1.3-0.1 1.7-0.5 0.4-1.2 0.4-1.7-0.1l-1.4-1.7h-0.1c-0.4-0.5-0.3-1.3 0.2-1.7 0.5-0.4 1.2-0.4 1.7 0.1z"/><path class="b" d="m569.3 101.2l1.4 1.8c0.3 0.5 0.2 1.3-0.3 1.7-0.5 0.3-1.2 0.3-1.6-0.3l-1.4-1.7c-0.4-0.5-0.3-1.3 0.2-1.7 0.5-0.4 1.3-0.3 1.7 0.2z"/><path class="b" d="m573.8 107.3l1.2 1.8c0.4 0.6 0.3 1.3-0.3 1.6-0.5 0.4-1.2 0.3-1.6-0.3l-1.2-1.8c-0.4-0.5-0.3-1.3 0.2-1.6 0.6-0.4 1.3-0.3 1.6 0.3z"/><path class="b" d="m577.9 113.6l1.1 1.9c0.3 0.6 0.2 1.3-0.4 1.6-0.5 0.3-1.2 0.1-1.5-0.4l-1.2-1.9c-0.3-0.6-0.1-1.3 0.4-1.6 0.6-0.3 1.2-0.1 1.6 0.4z"/><path class="b" d="m581.6 120.2l1 2c0.3 0.5 0.1 1.2-0.5 1.5-0.5 0.2-1.2 0-1.4-0.5l-1.1-2c-0.3-0.6 0-1.2 0.5-1.5 0.5-0.3 1.2-0.1 1.5 0.5q0 0 0 0z"/><path class="b" d="m584.8 127l0.9 2.1c0.2 0.5 0 1.1-0.6 1.3-0.5 0.3-1.1 0-1.3-0.5l-0.9-2.1c-0.3-0.5 0-1.1 0.5-1.4 0.6-0.2 1.2 0 1.4 0.6q0 0 0 0z"/><path class="b" d="m587.6 134l0.7 2.2c0.2 0.5-0.1 1.1-0.7 1.2-0.5 0.2-1-0.1-1.2-0.6l-0.8-2.1c-0.1-0.6 0.1-1.1 0.7-1.3 0.5-0.2 1.1 0.1 1.3 0.6q0 0 0 0z"/><path class="b" d="m589.8 141.2l0.5 2.2c0.1 0.6-0.2 1.1-0.7 1.2-0.5 0.1-1-0.2-1.2-0.7l-0.5-2.2c-0.2-0.5 0.1-1 0.7-1.2 0.5-0.1 1 0.2 1.2 0.7q0 0 0 0z"/><path class="b" d="m591.4 148.6l0.3 2.3c0.1 0.5-0.2 0.9-0.7 1-0.5 0.1-1-0.2-1.1-0.7v-0.1l-0.4-2.2c-0.1-0.5 0.3-1 0.8-1.1 0.5 0 1 0.3 1.1 0.8q0 0 0 0z"/><path class="b" d="m592.3 156.1l0.1 2.3c0.1 0.5-0.3 0.9-0.8 0.9-0.5 0-0.9-0.3-0.9-0.8l-0.2-2.2v-0.1c0-0.5 0.4-0.9 0.8-0.9 0.5-0.1 1 0.3 1 0.8q0 0 0 0z"/><path class="b" d="m592.5 163.7v2.2c0 0.5-0.4 0.9-0.9 0.8-0.4 0-0.8-0.3-0.8-0.8v-2.2-0.1c0-0.4 0.4-0.8 0.9-0.8 0.5 0 0.9 0.4 0.8 0.9q0 0 0 0z"/><path class="b" d="m592.1 171.2l-0.2 2.2c-0.1 0.5-0.5 0.8-0.9 0.7-0.5 0-0.8-0.4-0.7-0.8l0.2-2.3c0-0.4 0.4-0.8 0.9-0.7 0.4 0 0.8 0.4 0.7 0.9z"/><path class="b" d="m591 178.7l-0.4 2.2c-0.1 0.4-0.5 0.7-0.9 0.6-0.4-0.1-0.7-0.5-0.6-0.9l0.4-2.2c0.1-0.5 0.5-0.7 0.9-0.7 0.4 0.1 0.7 0.5 0.6 1z"/><path class="b" d="m589.3 186l-0.7 2.2c-0.1 0.3-0.5 0.6-0.9 0.4-0.4-0.1-0.6-0.5-0.5-0.8v-0.1l0.7-2.1c0.1-0.4 0.5-0.6 0.9-0.5 0.4 0.1 0.6 0.5 0.5 0.9q0 0 0 0z"/><path class="b" d="m586.9 193.1l-0.9 2.1c-0.1 0.4-0.5 0.5-0.9 0.4-0.3-0.1-0.5-0.5-0.3-0.9l0.8-2.1c0.1-0.3 0.5-0.5 0.9-0.4 0.3 0.2 0.5 0.6 0.4 0.9q0 0 0 0z"/><path class="b" d="m583.8 200l-1.1 2c-0.1 0.3-0.5 0.4-0.8 0.3-0.3-0.2-0.5-0.6-0.3-0.9l1-2c0.2-0.3 0.6-0.4 0.9-0.3 0.3 0.2 0.5 0.6 0.3 0.9q0 0 0 0z"/><path class="b" d="m580 206.6l-1.2 1.8c-0.2 0.3-0.6 0.4-0.8 0.2-0.3-0.2-0.4-0.5-0.2-0.8l1.2-1.9c0.2-0.3 0.6-0.4 0.9-0.2 0.3 0.2 0.3 0.6 0.1 0.8q0 0 0 0.1z"/><path class="b" d="m575.6 212.6l-1.5 1.8c-0.1 0.2-0.5 0.2-0.7 0-0.2-0.1-0.3-0.5-0.1-0.7l1.4-1.7 0.1-0.1c0.2-0.2 0.5-0.2 0.7 0 0.3 0.2 0.3 0.5 0.1 0.7q0 0 0 0z"/><path class="b" d="m570.5 218.2l-1.6 1.5c-0.2 0.2-0.5 0.2-0.7 0-0.2-0.2-0.2-0.5 0-0.7l1.6-1.5c0.2-0.2 0.5-0.2 0.7 0 0.2 0.2 0.2 0.5 0 0.7q0 0 0 0z"/><path class="b" d="m564.8 223.1l-1.8 1.3c-0.2 0.2-0.5 0.1-0.6-0.1-0.2-0.2-0.1-0.4 0.1-0.6l1.8-1.3c0.2-0.2 0.4-0.1 0.6 0.1 0.1 0.2 0.1 0.4-0.1 0.6q0 0 0 0z"/><path class="b" d="m558.5 227.2l-2 1.1c-0.2 0.1-0.4 0-0.5-0.2-0.1-0.1 0-0.4 0.2-0.5l1.9-1.1c0.2-0.1 0.5 0 0.6 0.2 0.1 0.2 0 0.4-0.2 0.5q0 0 0 0z"/><path class="c" d="m455.5 276.3q42-155.9 138.4-235.6c6.5-5.3 18.9-2.1 21.8 5.6 19.7 52.1 59.6 208.5-160.2 230z"/><path class="d" d="m597.3 89.4c0.1-0.3 0.8-0.1 0.7 0.2-24.8 115.2-101.8 168.1-121.9 178.6-0.6 0.3-1.2-0.4-0.8-0.7 76.2-54.4 113.1-151.6 122-178.1z"/><path class="e" d="m157.4 407.5q-105.2-36-155.5-105.9c-3.4-4.7-0.7-13 4.8-14.7 36.7-11.1 146-31.4 150.7 120.6z"/><path class="a" d="m35.5 301.5c-0.3-0.1-0.1-0.5 0.2-0.5 77.9 22.3 110.8 77.7 117.1 92 0.2 0.4-0.3 0.8-0.5 0.4-33.9-54.8-99.1-84.5-116.8-91.9z"/><path class="f" d="m200.6 397.5l-115.7-10.1q-50.7-17.1-29.7-63.5c21-46.4 19.4-47.1 2.6-70.5-16.9-23.4-42.8-75.4-7.1-93.7 35.7-18.3 46.2 12.7 50 34.1 3.8 21.4 9.7 23.2 26.2 8.3 16.5-14.8 40.3 16 37.8 50q-2.6 34 35.9 145.4z"/><path class="d" d="m466.7 347.7q39.2-90.2 115.4-106.6c54.3-11.7 82.2-20.8 93.7-25 2.4-0.9 4.6 1.6 3.4 3.9-15.2 29-84.6 144.7-212.5 127.7z"/><path class="c" d="m482.7 336.4q35.6-40.1 86.3-62.6c3.3-1.5 5.5 3.3 2.4 5-23.6 12-55.1 30.6-88.7 57.6z"/><g style="mix-blend-mode:multiply"><path class="g" d="m361.4 104q-13.6 1.5-26.8 6-5.9-12.6-14.3-23.5 13.7-1.5 26.9-6 5.9 12.6 14.2 23.5z"/></g><g style="mix-blend-mode:multiply"><path class="g" d="m642.7 314.7q-3.7 13.2-4.5 27.1-13.9 0.7-27.1 4.4 3.7-13.2 4.5-27.2 13.9-0.7 27.1-4.3z"/></g><g style="mix-blend-mode:multiply"><path class="g" d="m436.6 131.2c4.8 3.5 4.9 9 4.5 12.1 1.9-3.1 5.1-8.7 5.9-11.8l6.2 5.1c-2.9 1.4-7.7 5.7-10.4 8.1 2.9-1 8.4-2 12.7 2 7 6.5 4.2 20.6-11.4 20.4-9.9-0.1-15-0.3-24.1 3.6 2.1-9.6 0.9-14.6-1.1-24.3-3.3-15.2 10-20.7 17.7-15.2z"/></g><g style="mix-blend-mode:multiply"><path class="g" d="m526.9 58.1c4.8 4.2 5.3 11.4 1.2 16.2-3.6 3.9-9.1 4.8-13.6 2.6 3.6 2.4 11.7 7.6 15.9 8.9l-6.9 7.8c-1.8-4.1-7.8-11.5-10.7-14.8 2.7 4.2 2.4 9.8-0.9 13.8-4.3 4.6-11.6 5-16.3 0.8-4.8-4.2-5.3-11.5-1.2-16.3 1.2-1.3 2.5-2.2 4-2.8-3.2 0.4-6.5-0.5-9.2-2.9-4.7-4.2-5.2-11.4-1.1-16.2 4.3-4.7 11.5-5 16.3-0.8 2.6 2.3 3.9 5.5 3.9 8.8 0.5-1.6 1.2-3.1 2.3-4.4 4.3-4.6 11.6-5 16.3-0.7z"/></g><g style="mix-blend-mode:multiply"><path class="g" d="m86.5 113.5c-3.6 4.7-10.2 5.5-14.9 2-3.7-3-4.9-8-3.2-12.2-2 3.4-6.2 11.1-7.2 15.1l-7.5-5.9c3.6-1.9 10.1-7.9 12.9-10.7-3.7 2.7-8.8 2.8-12.7 0-4.5-3.7-5.2-10.3-1.6-14.9 3.6-4.6 10.2-5.5 14.8-2 1.2 0.9 2.2 2.2 2.8 3.5-0.5-2.9 0.1-6.1 2.1-8.6 3.6-4.6 10.2-5.5 14.9-2 4.5 3.7 5.2 10.3 1.6 14.9-1.9 2.5-4.8 3.9-7.8 4.1 1.4 0.3 2.8 0.9 4.1 1.9 4.5 3.6 5.2 10.2 1.7 14.8z"/></g><path class="h" d="m231.7 457.6c0 6.4-27.7 11.6-61.8 11.6q-4.1 0-8.2-0.1-10.2-0.2-10.2-0.4c-25.1-1.5-43.3-5.9-43.3-11.1 0-6.5 27.7-11.7 61.7-11.7 34.1 0 61.8 5.2 61.8 11.7z"/><path class="b" d="m426.9 411.1h-258v-382.5h258z"/><path class="i" d="m168 28.6v-15.5c0-6.7 5.5-12.1 12.2-12.1h234.3c6.7 0 12.1 5.4 12.1 12.1v15.5z"/><circle class="b" cx="186.6" cy="16.5" r="4.8"/><circle class="b" cx="202.2" cy="16.5" r="4.8"/><circle class="b" cx="218.2" cy="16.5" r="4.8"/><path class="j" d="m403.9 78.5h-128v-4.8h128z"/><path class="j" d="m403.9 90.7h-128v-4.8h128z"/><path class="j" d="m403.9 103.8h-128v-4.8h128z"/><path class="j" d="m403.9 168.6h-128v-4.8h128z"/><path class="j" d="m403.9 180.8h-128v-4.8h128z"/><path class="j" d="m403.9 193.9h-128v-4.8h128z"/><path class="j" d="m403.9 249.9h-128v-4.8h128z"/><path class="j" d="m403.9 262h-128v-4.8h128z"/><path class="j" d="m403.9 275.1h-128v-4.8h128z"/><path class="j" d="m403.9 341.9h-128v-4.8h128z"/><path class="j" d="m403.9 354h-128v-4.8h128z"/><path class="j" d="m403.9 367.1h-128v-4.8h128z"/><path class="k" d="m135.1 437.9c0.4 2.8 0.6 6 0.6 9.1q0.1 1.5 0 3.1c-3.7 4.6-12.1 4.8-16.3 1.7q-0.6-0.3-1.1-0.8-0.3-0.3-0.5-0.6-0.2-0.2-0.3-0.4-0.1 0-0.1-0.1-0.1-0.2-0.2-0.5-0.1-0.2-0.2-0.4-0.2-0.4-0.2-0.8c3.4-7.4 6.3-14.8 6.3-20.4 0-3.6-2.1-13.2-4.4-26 6.1 0.2 12.2 0.9 17.9 1.1q0.2 0 0.4 0c-1.5 15.4-2.6 30.4-1.9 35z"/><path class="l" d="m113.9 454.1q1.5-2.9 2.9-5.9c1.2 6.5 14.4 7.8 18.9-1.2 0.9 8.6-1.9 13.9-5 15-4.1 1.4-11.9 1.1-15.7-1.5-1.5-1.1-1.8-4.8-1.1-6.4z"/><path class="k" d="m146.3 398.8q0.2-0.1 0.4-0.1c5.9-0.2 12.4-1 18.7-1.1-2.4 13.3-4.5 23.4-4.5 27.2 0 5.8 2.9 13.5 6.5 21.2q-0.1 0.5-0.2 0.8-0.1 0.3-0.2 0.5-0.1 0.3-0.3 0.5 0 0.1-0.1 0.2-0.1 0.1-0.2 0.3-0.2 0.3-0.6 0.7-0.5 0.4-1.1 0.8c-4.4 3.2-13.2 3-17-1.8q-0.1-1.6-0.1-3.2c0-3.2 0.3-6.6 0.7-9.5 0.8-4.8-0.4-20.5-2-36.5z"/><path class="l" d="m169.3 458.8c-4 2.8-12.1 3.1-16.4 1.6-3.3-1.1-6.2-6.6-5.3-15.6 4.8 9.4 18.6 8 19.8 1.2q1.5 3.1 3 6.2c0.8 1.7 0.4 5.6-1.1 6.6z"/><path class="l" d="m174.6 227.8q8.2 34.5-4.2 105.4 1.6 71.1-7.8 99.4l-16.2-1.7-3.3-128.2 0.7-45.5-7.5 172.4-3.7 0.8-4.3 0.1-4.4 0.1-2.9-0.6q-8.1-68.5-5.2-102-14.9-73.4-4.9-96.2z"/><path class="m" d="m117.9 406c-2-17.4-3.8-60.2-2.2-79q-14.9-73.5-4.8-96.2l11.1-0.7q-8.6 25.5-0.9 90.8c-3.7 20.9-3.7 67.5-3.2 85.1z"/><path class="l" d="m124.2 427.3q0.2-0.3 0.8-0.3 3.8-0.3 3.9-0.3 0.1 0 4.9 0.9l2.5 2q-9.8 3.2-15.3 0.4 3-2.5 3.2-2.7z"/><path class="l" d="m151 428.3c0.4-0.2 2.2-0.2 2.4-0.2q0.2 0 5.9 0.9l3.3 3.6q-10.5 1.8-16.2-1.7 4.2-2.4 4.6-2.6z"/><path class="m" d="m143.5 259.9q4.9 164.7 8.3 172.8-4.4-1.1-5.4-1.8-4.1-127.8-2.9-171z"/><path class="n" d="m121.9 148.2c0.8 8.5-0.2 17.7-1.4 22.2-1.3 4.5-5.5 14.7-6.4 18.9-0.9 4.2-1.1 23.7-1.4 27.7-0.4 5.6-5.5 37.8-5.6 43.5-0.1 4.7 3.9 24 3.7 26.8-0.3 2.8-4 0.9-4.4 0-0.6 0-4.9 0.2-6.5-0.5-1.2-1.2-6.8-5.8-6.6-8.1 0.1-2.3 1.7-15.1 1.4-19.9-0.4-4.8-1.3-29.1-1.4-35.5-0.2-6.4 4.6-26.6 6-33 1.5-6.4 2.8-35.3 4.8-45.7 2-10.5 7.4-12.5 13.2-14 2.7 2.9 3.8 9 4.6 17.6z"/><path class="k" d="m107.1 260.5c-0.1 4.7 3.9 24 3.7 26.8-0.3 2.8-4 0.9-4.4 0-0.6 0-4.9 0.2-6.5-0.5-1.2-1.2-6.8-5.8-6.6-8.1 0.1-2.3 1.7-15.1 1.4-19.9-0.1-0.9-0.2-2.4-0.3-4.3h13.2c-0.3 2.8-0.5 4.9-0.5 6z"/><path class="o" d="m164 80.5c1.4 9.2-2.2 21.6-3.6 26-1.5 4.5-6.4 12.9-8.3 14.2-2 1.3-22.2 10.8-24.8 8.4-2.7-2.5-15.9-20.7-11.7-45 1.7-9.6 8.9-18.4 16-21.5 7.1-3.1 17-2 20.2 2.8 6.5 0.8 10.9 6 12.2 15.1z"/><path class="k" d="m117.3 146.8c0-5.8-0.3-12.1-0.4-14.8v-0.2q0 0 0.1 0 0 0 0 0 0.4-0.2 1.1-0.5c2.5-0.8 6.8-2 9.4-3.2h0.1c0.9-0.4 1.6-0.8 1.9-1.2q1-1.1 1.7-2.5c0.6-1.2 1.1-2.6 1.4-4 0.3-1.4 0.6-2.8 0.7-4.2v-0.1c0.1-1.7 0.2-3.3 0.2-4.7q0-0.4-0.1-0.7v-0.3q0-0.2 0-0.4 0 0 0 0c0-0.5-0.1-0.9-0.1-1.2h8.5q0.5 0 0.8 0 0.8 0 2 0h7.8q-0.1 0.5-0.2 1.1-0.2 0.6-0.3 1.2 0 0.4-0.1 0.8 0 0.3-0.1 0.7c-0.4 2.4-0.7 5.1-0.9 7.3-0.1 0.4-0.1 0.8-0.2 1.2-0.1 1.1-0.1 2-0.1 2.5 0.1 1.9 1.5 5.6 5.6 6.7q0.7 0.2 1.5 0.3 0.7 0.1 1.5 0.1c1.5 0.2 3.1 0.3 4.6 0.4 3.7 0.3 7 0.5 7.6 0.7 0.8 0.2-0.3 9.6-0.5 15.1-7.2-1.6-13.1 0.2-19.8 3.1 8.1-3.6-0.5-0.2-2.6 0.4q-1.8 0.5-3.8 0.8c-9 0.8-18.1 0.4-27.2 0.2 0-1.8-0.1-3.4-0.1-4.6z"/><path class="p" d="m142.6 108.8q6.8 0 9.8 0-0.2 1-0.5 2.3-0.1 0.7-0.2 1.5c-2.2 2.9-5 9.1-8.7 9.1-4.3 0-7.3-6.8-9.5-10.3-0.1-1-0.1-1.9-0.2-2.6q3 0 9.3 0z"/><path class="k" d="m157.1 104.2c-2.5 4.4-6.8 12-13.9 12-7.1 0-11.3-7.7-13.8-12.2-2.5-4.5-2.7-15.7-1.1-22.7 1.5-6.6 10.3-8.5 14.9-8.5 4.7 0 13.4 1.9 14.9 8.5 1.6 7 1.5 18.4-1 22.9z"/><path class="a" d="m116.2 200.4c2.7-4.1 5.2-8 5.3-9.8 0.1-0.9 0.1-2 0-3.4-0.3-3.7-0.6-8.9-1.9-13.5 0-0.1 0-0.4 0-0.5-1.6-6.1-2.3-20.1-2.3-26.4 0-5.1-0.2-10.6-0.3-13.6l-0.5-1.8 0.5 0.1c0.9-0.4 2.2-0.8 4-1.4 2-0.6 4.4-1.8 6.1-2.6 5.1 7.3 16.3 16.7 29.6 2.2q0.4 0.1 1 0.2c2.4 0.2 5.4 0.4 8 0.6 3.4 0.3 5.2 0.4 5.8 0.6 0.9 0.2 1 1.4 0.3 10-0.2 3.5-0.5 7.2-0.3 8.7 0 0.7 0.2 1.7 0.4 2.8 0.7 4.9 2 13.1-0.2 19q-0.2 0.5-0.4 1.1c-2.2 6.1-4.1 16.1-4.5 22.6-0.2 1.5-0.2 2.9-0.1 3.9 0.3 3.6 5.8 24.6 7.1 30.1-15.4 7.5-57 7.4-65.1-1 1.2-1.9 6.4-26.1 7.5-27.9z"/><path class="n" d="m179.5 239.8c-6.7 3.3-19.7 6.3-33.6 6.2 1.5-4.6 2.1-16.8 2.8-21.6 1.5-9.2 1.7-18.3 2.1-27.6 1-20.3-6.3-40.2-3.2-60.4 2.9-1.1 5.9-3.2 9.1-6.7q0.4 0.1 1 0.2c2.4 0.2 5.4 0.4 8 0.6 3.4 0.3 5.2 0.4 5.8 0.6 0.9 0.2 1 1.4 0.3 10-0.2 3.5-0.5 7.2-0.3 8.7 0 0.7 0.2 1.7 0.4 2.8 0.7 4.9 2 13.1-0.2 19q-0.2 0.5-0.4 1.1c-2.2 6.1-4.1 16.1-4.5 22.6-0.2 1.5-0.2 2.9-0.1 3.9 0.3 3.6 11.5 35.2 12.8 40.6z"/><path class="n" d="m163.7 130.9c6.8-1.8 13.5 0.8 15.2 2.1 1.6 1.3 12.2 25.1 13.9 29.4 1.8 4.3 9.1 23.1 9.6 26.1 1.2 7.5-7.8 38.5-11.1 47.7-3.3 9.1-4.5 11.1-8 10.9-3.4-0.2-6.9-0.1-8.4 1.4-1.6 1.6-3.9 2.7-4.8 1.7-1-0.9-0.7-1.8-0.7-2.3-0.7 0.6-2.8 0.3-3.1-1.1-0.9 0-1.9-1-2.2-2.6-1-0.1-2.2-2-2-2.9 0.3-1 3.9-9.4 5.6-10.4 1.7-0.9 7-0.7 8.6 0.3 1.5 0.9 4.6 2 5.5-2 0.8-3.9 5.8-33.6 5-36.6-0.8-2.9-7.4-18.7-11.5-23.7q-4-4.9-8.4-25.5z"/><path class="k" d="m193.3 230.2c-0.8 2.4-1.5 4.5-2 6-3.3 9.1-4.5 11.1-8 10.9-3.4-0.2-6.9-0.1-8.4 1.4-1.6 1.6-3.9 2.7-4.8 1.7-1-0.9-0.7-1.8-0.7-2.3-0.7 0.6-2.8 0.3-3.1-1.1-0.9 0-1.9-1-2.2-2.6-1-0.1-2.2-2-2-2.9 0.3-1 3.9-9.4 5.6-10.4 1.7-0.9 7-0.7 8.6 0.3 1.5 0.9 4.6 2 5.5-2q0.1-0.4 0.2-1.4 1.3 0.4 2.6 0.5c-2.3-0.3 2.3 0.5 2.2 0.5 1.4 0.2 2.8 0.6 4.2 0.9q1.2 0.2 2.3 0.5z"/><path class="o" d="m164.1 155c-15 47-32.3-21.2-12.1-43.4q1.5-1.8 3.2-4.3c0.7-1 2-3.1 2.1-4 0.7-4.1 1.2-6.8-0.4-11.6-1.6-4.8-0.6-9.7-1.4-12-0.8-2.2-4.3-6.1-6.6-6.6 2.4-2.3 5.8-1.9 9.1-0.7 1.1 0.4 4.4 4 6 8.1q0.5 1.2 0.9 2.5c2.8 6.1 12.2 31.4-0.8 72z"/><path class="q" d="m144.3 94q0.5 0.6 0.8 1.2 0.3 0.7 0.5 1.3 0.4 1.3 0.4 2.7v0.4l-0.1 0.2q-0.6 0.5-1.2 0.9c-0.5 0.3-0.9 0.6-1.3 0.8 0.2-0.5 0.4-0.9 0.7-1.3q0.4-0.7 0.9-1.3l-0.2 0.6q-0.5-1.3-0.6-2.7-0.1-0.7-0.1-1.4 0-0.7 0.2-1.4z"/><path class="q" d="m139.5 106.4c-2-0.1 5 2.2 9.2-0.6q-1.6 0.8-9.2 0.6z"/><path class="r" d="m155 87.8q-0.6-0.3-1.4-0.8c-0.2-0.1-0.4-0.3-0.6-0.4q-0.4-0.1-0.7-0.3c-0.3-0.1-0.6-0.2-0.8-0.3-0.3 0-0.6-0.1-0.9-0.1h-0.4-0.4c-0.3 0-0.5 0.1-0.8 0.1-0.3 0.1-0.5 0.2-0.7 0.3-0.3 0.1-0.5 0.2-0.7 0.3-0.4 0.2-0.7 0.5-0.9 0.6q-0.3 0.2-0.4 0.3 0.1-0.2 0.2-0.4c0.2-0.2 0.4-0.6 0.8-0.9 0.2-0.2 0.3-0.4 0.6-0.5 0.3-0.2 0.5-0.4 0.8-0.5 0.3-0.1 0.6-0.2 1-0.3h0.5 0.5c0.4 0 0.7 0.1 1 0.2 0.3 0.1 0.7 0.2 0.9 0.4q0.5 0.2 0.8 0.5c0.2 0.2 0.4 0.4 0.6 0.5q0.7 0.7 1 1.3z"/><path class="r" d="m137.8 87.8q-0.6-0.3-1.4-0.8c-0.2-0.1-0.4-0.3-0.6-0.4q-0.4-0.1-0.7-0.3c-0.3-0.1-0.6-0.2-0.8-0.3-0.3 0-0.6-0.1-0.9-0.1h-0.4-0.4c-0.3 0-0.5 0.1-0.8 0.1-0.3 0.1-0.5 0.2-0.7 0.3-0.3 0.1-0.5 0.2-0.7 0.3-0.4 0.2-0.7 0.5-0.9 0.6q-0.3 0.2-0.4 0.3 0.1-0.2 0.2-0.4c0.2-0.2 0.4-0.6 0.8-0.9 0.2-0.2 0.3-0.4 0.6-0.5 0.3-0.2 0.5-0.4 0.8-0.5 0.3-0.1 0.6-0.2 1-0.3h0.5 0.5c0.4 0 0.7 0.1 1 0.2 0.3 0.1 0.7 0.2 0.9 0.4q0.5 0.2 0.8 0.5c0.2 0.2 0.4 0.4 0.6 0.5q0.7 0.7 1 1.3z"/><circle class="l" cx="135.1" cy="92.4" r="1.1"/><circle class="l" cx="149.7" cy="92.4" r="1.1"/><path class="o" d="m151 72.6c0 0.2-5.3 12.1-25.5 9.1l2.2-7.4q4.9-3.9 5.4-3.9c0.6 0 8.9-1.1 9.3-1.1 0.4 0 3.2 0.5 3.6 0.7q0.4 0.1 5 2.6z"/><path class="n" d="m121.5 190.6c0.1-0.9 0.1-2 0-3.4-0.3-3.7-1.1-8.9-2.4-13.5q-0.1-0.2-0.1-0.3c-1.7-6.1-2.3-20.3-2.3-26.6 0-5.1-0.3-10.7-0.4-13.7l-0.1-1.8 0.4-0.2c0.9-0.4 2.5-0.8 4.3-1.4 2-0.6 4.5-1.4 6.2-2.2 2.6 3.8 6.9 8.1 12.2 9.4-2.2 18.4 2.8 36.5 3.3 54.9 0.3 9.3-2.1 18.2-3.5 27.3-1 6.5-2.3 20.4-4.8 26.5-14.8-0.8-24.9 1.1-28.8-2.8-0.1-18.5 9.6-40.6 10.7-42.4 2.7-4.1 5.2-8 5.3-9.8z"/><path class="s" d="m167.6 187.7c-0.1-10.4-10.4-13.7-18.3-13.9-0.1-1.2-0.1-0.4-0.1-1.6 0 0-0.1-0.1-0.1-0.2q24.8 8.2 25.1-14.8 0.9 8.7-6.6 30.5z"/><path class="t" d="m150 72q-35.5 4-21.3 52.8-16.9-35.1-2.1-47.8 5.7-6.4 19-8.3-14.5-0.7-22.4 9.4-11.6 15.8 3.9 47.8-19.6-32-6.6-51.2 15.5-19.5 29.6-9.1z"/><path class="t" d="m152.8 66.5q8.6 2.5 10.3 15.8 15.7 36.1-3.6 79.5 15.2-40.5 1.3-77.9-2.6-11.6-8.2-14.2 5.7 4.9 7.3 14.6 11.9 41.2 0.1 72.7 9.1-32-1.3-71.6-2.2-9.1-7.2-11.9-1.3-8.2 1.3-7z"/><path class="t" d="m150.8 154.4q1.7-3.1 6.2-28.4 0.8 11.6-3.1 27.3 4.8-5.8 6.7-36.8 2.5 12.4-2.8 43.7-5.5 17.1-11.1-3-8.8-25.4 10.6-50-11.9 25.3-6.5 47.2z"/><path class="s" d="m117 155.6q-3.5 27.5 24.2 17.7l-0.1 2q-20.6 0.8-16.6 12 3.4 6.5-1.1 10.3c-11.8 9.9-9.2 45.7 10.9 48q-23.9 1.4-28.8-2.8-0.5-12.7 5.7-30.1 2.7-9.1 9.7-20.1 1.6-1.9-0.5-12.9-5.4-19.8-3.4-24.1z"/><ellipse class="u" cx="483.2" cy="379.6" rx="6.4" ry=".8"/><path class="e" d="m479 322.4c0-1.5 0.8-2.7 1.9-2.7h3.8c1 0 1.9 1.2 1.9 2.7v59c0 1.5-0.9 2.7-1.9 2.7h-3.8c-1.1 0-1.9-1.2-1.9-2.7z"/><path class="v" d="m483.2 380.3c3.3 0 6-0.3 6.3-0.7v43.6h-12.7v-43.7h0.1c0.1 0.5 2.9 0.8 6.3 0.8z"/><path class="v" d="m483.9 415.7q8 0.4 12.8 0.2c11.1-0.4 48.8 4.9 51.5 7.6q2.7 2.7 2 11.6l-5.5 0.8c-0.3-1.9-1-2.9-1.2-5.5-0.1-1.6-0.8-1.8-2.8-2.3-4-0.9-46.8-1.8-50.2-1.6z"/><circle class="w" cx="542" cy="434.9" r="5.4"/><circle class="x" cx="540.8" cy="435.3" r="3.8"/><path class="v" d="m482.2 420q6.8-4 12.5-1.7c5.7 2.3 39.1 20.9 42.3 24.5q2.6 3 1.6 11l-7.2 0.5q-1.6-1-1.8-4.1c-0.1-2-0.3-1.3-2.1-2.9-4.1-3.4-40.3-17.6-44.6-17.3z"/><circle class="w" cx="527.8" cy="452" r="6.8"/><circle class="x" cx="526.3" cy="452.6" r="4.9"/><path class="y" d="m491.6 418c2.9 1.1 36.7 15.3 45.9 24.6q1.6 1.7 1.6 11.2-1.2 0.2-2.3 0.2-0.1-9.4-2-10.7c-18.1-13.2-50-24.4-52.5-23.9q4.4-2 9.3-1.4z"/><path class="v" d="m477.2 426.5c-3.4-0.2-45.9 1.7-49.4 3.9-1.3 0.9-2 1.5-2.1 3q-0.1 2.5-0.4 5.2l-7-1.2q-0.7-8.9 2-11.6c2.7-2.7 35.8-7.9 50.7-9.9q4.8-0.6 12.8-0.2z"/><circle class="z" cx="426.5" cy="437.1" r="5.4"/><circle class="x" cx="427.7" cy="437.6" r="3.8"/><path class="v" d="m484.8 429.9c-4.3-0.2-38.6 14.7-42.6 18.1-1.8 1.6-2.5 3.3-2.6 5.3q-0.3 3.1-0.5 3.6l-9-1.4q0-8.9 2.6-11.9c3.2-3.6 34.6-23 40.3-25.3q5.7-2.3 12.5 1.7z"/><circle class="z" cx="436.7" cy="452.3" r="6.8"/><circle class="x" cx="438.1" cy="452.9" r="4.8"/><path class="y" d="m485.4 419.4c-2.4-0.5-32.3 13.5-50.4 26.6q-1.9 1.4-1.7 8.9-1.1-0.2-2.3-0.5-0.3-11.1 1.1-10c8.9-10.7 41.1-25.3 44-26.4q4.9-0.6 9.3 1.4z"/><path class="A" d="m421.7 323.7c5.1-14.6 70.2 7 121-1.1 6.7-1 16.5 7.7 3.8 18.8-15.1 13.2-107.8 7.6-119.8 0.9q-10.1-4-5-18.6z"/><path class="n" d="m507.1 310.6q29.5 1 32.3 1.5 2.9 0.6 11.6 14.2-29.2 13.4-103.2 3.8c-41-5.3-8.1-14.4-4.1-14.4q4 0 63.4-5.1z"/><path class="n" d="m464.3 191.6c17.4-4.9 69.2-5 78.1 3.3 4.4 4.1 6.8 6.8 7.4 13.9 0.7 7.1 5 73.1 2.3 83.6-2.4 9.1-7.7 9.1-13.5 9.9-5.7 0.7-73-3.5-82.2-4.2-9.6-0.8-15.7-3.2-15.3-18.2 0.4-15.1 12.8-67.7 13-74.4q0.2-8.8 10.2-13.9z"/><path class="B" d="m475.7 302.3c7.7-3.4 45.9-10 51.9-4 6 6-0.3 20.2-13.1 24-10.6 3.1-37.3-1.6-50.1-5.9q3.6-10.7 11.3-14.1z"/><path class="k" d="m437.9 422.3c-0.7 4.2-4.4 9.5-2.3 19.1 1.8 8.6 1.4 9.3 1 14.7-0.2 2.5-18.9 6.6-22.6 6.4-3.8-0.3-15.6-0.4-5-9 10.7-8.8 11.7-26.9 11.5-36.1q18 0.7 17.4 4.9z"/><path class="u" d="m421.9 469.9c-7.8 5.3-27.5 10.5-31.8 4.3q-6.5-9.5 10.5-17.4 3.5-0.5 6.4-6.4c4.1-8.2 18.2 0.1 16.5 7.5q5.8 7-1.6 12z"/><path class="u" d="m436.7 446.5c4.1 8 2.9 15.7 0.6 16.8-2.3 1-7-1-17.1 7.1q-3.1 2.5-7.2-6.9 12.7-8.8 17.6-9.7 4.1-0.7 6.1-7.3z"/><path class="l" d="m483 313.2l-34.3 14.8q-1.1 1.9 2.3 27.1c3.3 25.2 0.6 66.8 0.1 73.2-0.5 6.1-0.3 1.7-1.7 21.6q-12.4-1.4-38.6-7.3 0 0 1.1-14.2c0.8-10 8.3-56.9 2.4-88.1-1.3-6.9-0.1-23.1 0.3-25.7 2.3-14.1 15.6-24.5 41.6-29.5 2.7-0.5 15.3-12.7 18.5-13.1l30.9 3.2z"/><path class="C" d="m427.4 435.5c0.1 5 0.1 8.3 0.1 10.6q-9.3-1.5-16.7-3.3 0 0 1.1-14.2c0.8-10 8.3-56.9 2.4-88.1-1.3-6.9-0.1-23.1 0.3-25.7 1.3-8.5 6.7-15.6 16.4-21-7.1 6-10.8 13-11.4 20.7-0.2 2.8 0.1 20.1 2.1 27.3 9.2 32.6 5.6 83.1 5.7 93.7z"/><path class="D" d="m477.5 259.4c5-0.7 39.1 10.5 42.3 12.5 3.3 2-1.3 9.3-1.7 18.9q-0.4 9.6-8 18.9l-15.1-3.8-29.6-35.4q7.1-10.5 12.1-11.1z"/><path class="E" d="m510 190.6q26.6 7.8 33.2 14.1-8.7 34.1-8.9 37.8c-0.2 3.7-2.2 19.9-1.5 35.9 0.9 16.9 4.9 11.8 1.5 20.9-0.9 2.4-3 4.2-3.1 8.1-4.8-0.7-13.3-3.2-19.6-10.2-7.6-8.4-35.1-8.4-40.6-9.2q-14.4-1.9-20.4 1.8c1.9-8.2 3.2-15.6 8.8-29.3 5.3-13-2.4-24.4-1.6-30.8 0.9-6.4-2.1-23.7 0.8-27.8 2.9-4.1 14-9.4 27.4-11.6q6-0.9 24 0.3z"/><path class="k" d="m508.7 166.1c0 12.5 0.7 18.6 1.5 21.5q0.1 0.3 0.2 0.6 0.8 2.5 2 3 3.7 19.6-18.4 17.4c-6.4-0.6-12.3-10-10.2-14.2 2-4.1 2.1-13.4 1.1-18.4q23.8-13.7 23.8-9.9z"/><path class="F" d="m508.6 169.4c0 0.8-1.8 21.7 7.4 26.2-2.2 2.3-11.4 9.1-14.9 9.1-4.1 0-13.7-15.6-15.8-18.9q2.3-4.1 23.3-16.4z"/><path class="B" d="m445.8 302.8c6.1-0.3 46.4-3.5 58.3-7.7 11.8-4.3 31.6 16.5 28.4 30.2q-3.2 13.7-76.2 5.3l-38.7-22.7q22.2-4.8 28.2-5.1z"/><path class="k" d="m476.6 170.9c-0.8-4-1.5-7.1 1.1-7.8-1.4-10.1-0.6-18.8 13.7-20.9 2.2-0.3 4.1-0.4 5.8-0.3q0-0.1 0-0.1c10.3 0.4 14.8 4.6 16.2 13.2 0.3-0.1-0.6 3-0.3 2.9 2.8-0.2 2.5 2.8 2.4 6.7-0.1 3.5-1.9 6.3-2.7 6.7-0.4 2.8-2.3 6.8-3.3 9.2q-0.1 0.3-0.2 0.6-0.3 0.6-0.7 1.3-0.3 0.7-0.7 1.3c-0.1 0.2-0.3 0.5-0.4 0.8q-0.7 1.1-1.5 2-0.1 0.1-0.1 0.1c-2 2.3-4.4 3.9-7.1 4.4-6.9 1.1-13.5-6.8-17.3-15.4-2.1-0.7-4.3-1.7-4.9-4.7z"/><path class="u" d="m480.4 166.2q4.3 11.2 6.4 14.3c1.1 1.4 4.8 3.7 6.2 4.4 1.3 0.6 4.3 1.3 7.8 1.6q1.1 0.1 0.5 9-3.7 0.5-4.8 0.3c-2.9-0.7-10-5-11.7-7.6q-1.8-2.6-4.7-18.2z"/><path class="u" d="m513.4 170.9c0.3 1-0.6 12.9-1.3 14.6-0.8 1.8-10 10.1-10.8 10q-0.8-0.1-3.4-9.3 6.3-1.7 10.3-6c3.6-3.9 3.2-18.2 4-19.2q0.8-1 1.2 9.9z"/><path class="h" d="m648.1 446.8c0 6.4-57.3 11.6-127.9 11.6q-8.7 0-17.1-0.1-21.1-0.2-21.2-0.4c-52-1.5-89.6-5.9-89.6-11.1 0-6.5 57.2-11.7 127.9-11.7 70.6 0 127.9 5.2 127.9 11.7z"/><path class="b" d="m467.5 226.6q-0.1-0.9-0.3-1.7c5.9-15.6 15.6-31.1 17.7-35-3.9 15 9.7 18.4 12.9 18.2 3.1 0.5 16.9-1.5 14.6-16.9 1.8 4.3 10.4 21.8 14.5 38.3-5.1 9.6-7.2 20.5-10.1 30.8-1.9 6.6-3.3 13.2-4.2 20-0.6 4.4-0.8 8.8-1.1 13.2-8.6 0.1-17.3 0.2-25.9 0.6-3.1-9.8-6.2-19.5-9-29.4-1.7-6.3-3.1-12.6-4.5-18.9-1.5-6.4-3.8-12.7-4.6-19.2z"/><path class="G" d="m485.9 300.4l8.7-85.4 5.5 0.2 0.2 85.5q-7.2-0.2-14.4-0.3z"/><path class="H" d="m500.2 215.2l-5.6-0.2-2.8-7.2 11.9 0.6z"/><path class="I" d="m497.8 208.1c3.4-1.4 15.1-4.4 14.6-16.9 3.2 5.6 5.2 24.1-5.6 35.5-2.5-5.8-5.9-13-9-18.6z"/><path class="b" d="m497.8 208.1c3.4-1.3 15.2-5.1 14.6-16.9 3.2 5.3 5.2 21.2-5.5 32-2.5-5.5-6.3-13.3-9.1-15.1z"/><path class="J" d="m469.2 214.8c0.2-1-2.1-3.3-3.5-4.2 0.4-3.5 10.4-11.5 16.3-16.5q0.1 0 0.1 0 0.5-0.5 0.9-0.8c-1.8 5.4-4.3 39-4.1 52.1 0.3 20.2 8.1 47.5 8.6 50.7q0.2 1.1 0.4 4.3-0.8 0-1.6 0c-2.5-4.2-6.5-12.7-9.7-19.9-10.6-24.5-14.3-57.6-14.4-62.1 0.9-0.7 6.7-2.6 7-3.6z"/><path class="I" d="m487.4 226.1c-9.5-12.4-6.3-31-2.5-36.2-1.8 12.3 9.5 16.5 12.9 18.2-3.7 5.3-7.3 12.6-10.4 18z"/><path class="b" d="m487.1 222.2c-9.6-11.8-6-27.4-2.2-32.3-1.8 11.6 9.5 16.5 12.9 18.2-3.1 1.5-7.6 8.9-10.7 14.1z"/><path class="J" d="m498.3 300.6c0.3-1.9 0.6-3.2 0.8-3.9 0.9-3.2 11.3-29.6 13.7-49.6 1.5-13 2-47.9 0.7-53.5 0.3 0.3 0.9 1.8 1.2 2.1q0.1 0 0.1 0c5.3 5.6 14.6 14.6 14.6 18.1-1.5 0.8-4 2.8-3.9 3.9 0.2 1 5.8 3.5 6.5 4.2-0.5 4.5-7.5 37.1-20.5 60.3-3.7 6.7-8.4 14.4-11.3 18.5q-1-0.1-1.9-0.1z"/><path class="k" d="m412.9 316.1c-5.7-0.2-28.5 13.3-34.2 13.7-5.7 0.4-8 5.7-5.4-2.7 1.5-5 4.6-16.6 8.4-19.1 2.7-1.8 10.8-2.7 11.6-3.1 1.7-1.1 5.2-3 16-2.7q9.3 14 3.6 13.9z"/><path class="m" d="m510.1 315.1c-16.6-0.6-67 0.9-84.1 0.8-5.6-0.1-13.5 5.7-16.8 8.2-5.4 4.2-10.5 8-11.5 7.1q-4.5-4.3-10.1-29.7c15.5-11.1 100.2-17.9 108.4-20.8 15.3-5.5 28-3.4 32.3 3.6q17.2 31.9-18.2 30.8z"/><path class="l" d="m532.4 295.3c1.6 9.1-0.6 20.5-22 19.8-16.6-0.6-67 0.9-84.1 0.8-5.5-0.1-13.5 5.7-16.8 8.3-5.3 4.1-10.5 8-11.5 7q-0.2-0.2-0.4-0.5c2.1-1.7 4.8-4.2 7.6-6.9 3.3-3.1 11.2-10.2 17.2-10.8 18.5-1.7 72.7-9 90.6-10.2 10.3-0.8 16.2-3.6 19.4-7.5z"/><path class="u" d="m365 324c1.1-1.9 10.1-8.2 11.3-10.6 2.7-5.6 3.2-6.9 5-7.7 1.7-0.8 5.3-0.3 7 0.1l-6.2 2.9c-3.7 4.5-7.4 11.6-4.9 9.8 5-3.5 9.5-3.8 14.2 1 5 5.2 2.3 13.4-3.6 14.2-3.4 0.4-4.9 3.5-10.6 7.9-7.3 5.6-13.6 4.4-16.3 1.9-6.2-5.6 0.1-14.5 4.1-19.5z"/><path class="x" d="m480.5 143.3c-0.8-5.8 3.8-5.4 8.2-6.2 4.3-0.8 9.8-6.6 17.2-3 0.8 0.4 3.9 2.5 6.1 6.2 2.8 4.8 2.4 15.4 2.3 18-0.1 6-1.8 9.3-1.8 11.1-0.5-4.9-5.3-18.3-5-21-1 0.7-5.8 2.7-8.6 3.3-3.7 0.8-11.6 1.6-15.1-0.3 1.3 4.6-1.2 7.6-1.8 9.3-0.7 1.6-1.9 6.1-1.3 10.7-2.2-5.2-3.2-9.5-3.3-11.9-0.2-2.4-1.2-9.3-0.6-12.3 0.6-3 2.7-4.1 3.7-3.9z"/><path class="p" d="m498.6 169q0.5 0.5 0.8 1.1 0.2 0.6 0.4 1.2 0.4 1.2 0.4 2.5l0.1 0.4-0.2 0.2q-0.6 0.4-1.1 0.8c-0.4 0.3-0.8 0.5-1.3 0.7 0.2-0.4 0.4-0.8 0.7-1.2q0.4-0.6 0.8-1.2l-0.2 0.6q-0.5-1.2-0.6-2.5-0.1-0.6 0-1.3 0-0.6 0.2-1.3z"/><path class="p" d="m502.5 181.1c-1.9 2.7-5 2.4-8.1 0.7q4.3 0.7 8.1-0.7z"/><path class="r" d="m508.4 163.3q-0.5-0.4-1.2-0.8-0.3-0.1-0.6-0.3-0.3-0.2-0.7-0.3c-0.2-0.1-0.5-0.1-0.7-0.2-0.3-0.1-0.5-0.2-0.8-0.2h-0.4-0.3c-0.3 0-0.5 0.1-0.8 0.2-0.2 0-0.4 0.1-0.6 0.2-0.3 0.1-0.4 0.2-0.6 0.3-0.4 0.2-0.7 0.4-0.9 0.5q-0.2 0.2-0.4 0.3 0.1-0.2 0.2-0.4c0.2-0.2 0.4-0.6 0.7-0.9 0.2-0.1 0.4-0.3 0.6-0.4 0.2-0.2 0.5-0.4 0.7-0.5 0.3 0 0.6-0.2 0.9-0.2l0.5-0.1h0.5c0.3 0.1 0.6 0.2 1 0.2 0.2 0.1 0.5 0.3 0.8 0.4q0.4 0.2 0.7 0.5c0.2 0.1 0.4 0.3 0.5 0.5q0.7 0.6 0.9 1.2z"/><path class="r" d="m492.5 163.3q-0.5-0.4-1.2-0.8-0.3-0.1-0.6-0.3-0.3-0.2-0.7-0.3c-0.2-0.1-0.4-0.1-0.7-0.2-0.2-0.1-0.5-0.2-0.8-0.2h-0.3-0.4c-0.3 0-0.5 0.1-0.7 0.2-0.3 0-0.5 0.1-0.7 0.2-0.2 0.1-0.4 0.2-0.6 0.3-0.4 0.2-0.7 0.4-0.9 0.5q-0.2 0.2-0.3 0.3 0-0.2 0.2-0.4c0.1-0.2 0.3-0.6 0.6-0.9 0.2-0.1 0.4-0.3 0.6-0.4 0.3-0.2 0.5-0.4 0.8-0.5 0.3 0 0.5-0.2 0.9-0.2l0.5-0.1h0.4c0.4 0.1 0.7 0.2 1 0.2 0.3 0.1 0.6 0.3 0.8 0.4q0.4 0.2 0.7 0.5c0.2 0.1 0.4 0.3 0.6 0.5q0.6 0.6 0.8 1.2z"/><path class="u" d="m488.1 181.9l2.8-3.9 7.2-1.4 6.9 0.3 3.4 4-3.9 4.1-2.5-5.2-7.4 0.8-1.8 5-4.4-0.7z"/><path class="u" d="m500.8 182.6l1 3.7q-2 1.9-2.1 1.9-0.2 0-4.3-0.9l1.4-4.5q2.5 0.9 4-0.2z"/><path class="u" d="m490.3 165.4c0 0.5-0.4 0.9-0.9 0.9-0.5 0-1-0.4-1-0.9 0-0.5 0.5-0.9 1-0.9 0.5 0 0.9 0.4 0.9 0.9z"/><path class="u" d="m504.5 165.2c0 0.5-0.4 0.9-0.9 0.9-0.5 0-1-0.4-1-0.9 0-0.6 0.5-1 1-1 0.5 0 0.9 0.4 0.9 1z"/><path class="k" d="m416.9 209.2l-7.8 9.8q-1-3.8-7.5-2.6c-6.5 1.2-15.4-2-16.2-2.9-0.8-0.9-3.6-4.4-4.3-8.4-0.6-4.1 1.5-2.5 2.9-0.1 1.4 2.5 10.9 1.5 13.3 1.6 2.4 0.1 1.5-2.5-0.1-2.4-1.5 0-5.4-1.2-6.8-2.8-1.4-1.7 0.7-2.3 1.9-1.7 1.2 0.6 7.2 1.1 8.4 0.7 1.2-0.3 7.7 3.8 9.4 5.6z"/><path class="E" d="m458.8 258.8c-1.8 5.9-4.9 12.6-10 15-10.9-2.1-38.2-48.8-43-56.4 0.1-0.2 0.3-0.5 0.6-0.9q0.1-0.2 0.3-0.4 0.6-0.8 1.4-1.9c1.2-1.6 2.7-3.4 4.5-5.1q0.6-0.6 1.3-1.2 0.1 0 0.1-0.1c0.2-0.2 0.4-0.3 0.6-0.5 0.4-0.3 0.8-0.6 1.2-0.8 1.4 1 19.4 24.6 27 30.2q3.4-20.5 3.5-21.2c1-6.5 5.7-14.9 9.1-16.1 1.9-0.7 8.1-2.4 14-4.6q0 2.1-0.2 4.2c-1.4 8-4.1 15.7-6.3 23.5-3.1 11-1.1 15-1.2 26.4 0 0.9-3 9.1-2.9 9.9z"/><rect class="m" x="476.4" y="238.9" width="17.4" height="32.7" rx="1.8"></rect><path class="k" d="m502.9 262.1c-0.3 3.7 3.1 6.5-3.3 6.6-2 0.6-10.1-1.2-9.4-2.2q1.7-2.4-1.5-13.2c0.6-0.2 3.8 0.2 5.1 1.4 7.6 5.8 9.5 3.5 9.1 7.4z"/><path class="k" d="m493.2 258.4c1 3.4 1.6 7.4 0 7.8-3.3 1-9.2 1.7-10.7 0.6q-1.5-1.1 7.5-2.7-2.1-0.1-4.2 0.1c-2.4 0.2-5.4 0.9-5.6 0.1-0.1-0.8 2.4-1.6 4.6-2.6q2.1-0.9 4.1-1.6-2.6 0.6-4.7 1.1c-2.2 0.4-4.9 2.4-5.4 1.3-0.7-1.5 3.4-3 4.9-3.6q2-0.8 4.3-1.6c-0.7-0.3-0.8-0.5-3.6 0.6-2.6 1-5.2 2.7-5.6 1.9-0.4-0.9 3.7-3.6 5-4.4 1.4-0.8 3-1.8 4.3-2.1q3.5-0.5 5.1 5.1z"/><path class="k" d="m500.3 259.5c5.1 0.2 15.2 2.1 18.2 1.9 2.9-0.2 6.3 12.5 3.2 13.5-3.2 1-21.8-5-23.5-6.7q-1.8-1.8 2.1-8.7z"/><path class="b" d="m520.2 275.3q-5.7 1.8-10.7-0.3 1.6-0.7 2.3-14.7 5.1 0.2 5.9 0.4z"/><path class="E" d="m539 203.5c3.5-1.2 6.4 4.7 10 11.6 3.6 6.9 16.6 54.9 10.3 61.7-4.4 4.9-42.6 2.4-45.3 2.4 0.5-4 3.9-19.2 0-19.5q13 0.2 24-1.4-1.5-5.2-3.7-12.5-6.3-21.3 4.7-42.3z"/><rect class="j" x="206.1" y="225" width="50.4" height="76.1" rx="3.8"></rect><path class="n" d="m212.8 237.5c-0.4 0-2.3 1.9-2.3 2.4 0-0.5-1.9-2.3-2.3-2.3 0.4 0 2.3-1.9 2.3-2.3 0 0.4 1.9 2.2 2.3 2.2z"/><path class="n" d="m254.7 286.7c-0.5 0-2.3 1.9-2.3 2.3 0-0.4-1.9-2.3-2.3-2.3 0.4 0 2.3-1.9 2.3-2.3 0 0.4 1.8 2.3 2.3 2.3z"/><path fill-rule="evenodd" class="K" d="m210.8 231.9q0-0.1-0.1-0.1h-0.6q-0.1 0-0.1 0l-0.1 0.8q0 0.1 0 0.1l0.2 0.2c0 0 0.1 0.1 0.1 0.1q0 0-0.1 0h-1q0 0 0 0 0 0 0-0.1l0.3-0.2q0 0 0-0.2l0.8-4.7q0.1-0.1 0.1-0.1h0.3q0.1 0 0.1 0.1l0.9 4.8q0 0.1 0.1 0.1l0.2 0.2q0.1 0.1 0.1 0.1 0 0-0.1 0h-1.3q0 0 0 0 0 0 0-0.1l0.3-0.2q0 0 0-0.1zm-0.1-0.4q0 0 0-0.1l-0.3-1.7-0.3 1.7q0 0.1 0 0.1z"/><path fill-rule="evenodd" class="n" d="m210.8 231.9q0-0.1-0.1-0.1h-0.6q-0.1 0-0.1 0l-0.1 0.8q0 0.1 0 0.1l0.2 0.2c0 0 0.1 0.1 0.1 0.1q0 0-0.1 0h-1q0 0 0 0 0 0 0-0.1l0.3-0.2q0 0 0-0.2l0.8-4.7q0.1-0.1 0.1-0.1h0.3q0.1 0 0.1 0.1l0.9 4.8q0 0.1 0.1 0.1l0.2 0.2q0.1 0.1 0.1 0.1 0 0-0.1 0h-1.3q0 0 0 0 0 0 0-0.1l0.3-0.2q0 0 0-0.1zm-0.1-0.4q0 0 0-0.1l-0.3-1.7-0.3 1.7q0 0.1 0 0.1z"/><path fill-rule="evenodd" class="n" d="m252.1 293.6q0 0.1 0.1 0.1h0.7q0 0 0-0.1l0.1-0.8q0.1 0 0-0.1l-0.2-0.2c0 0-0.1 0-0.1 0q0-0.1 0.1-0.1h1q0.1 0 0.1 0.1-0.1 0-0.1 0l-0.3 0.2q0 0.1 0 0.2l-0.8 4.8q0 0.1-0.1 0.1h-0.3q-0.1 0-0.1-0.1l-0.9-4.8q0-0.1-0.1-0.2l-0.2-0.2q-0.1 0-0.1 0 0-0.1 0.1-0.1h1.3q0 0 0 0.1 0 0 0 0l-0.3 0.2q0 0.1 0 0.2zm0.1 0.4q0 0 0 0l0.3 1.8 0.3-1.8q0 0 0 0z"/><path class="n" d="m240 263.1c-1.6 0-8.7 7.2-8.7 8.8 0-1.6-7.2-8.8-8.8-8.8 1.6 0 8.8-7.2 8.8-8.8 0 1.6 7.1 8.8 8.7 8.8z"/><rect class="j" x="207.8" y="316.6" width="50.4" height="76.1" rx="3.8"></rect><path class="L" d="m214.1 328.8c0 0.4-0.4 0.8-0.9 0.8-0.3 0-0.6-0.2-0.7-0.5-0.1-0.1-0.3-0.2-0.5-0.2 0 0.1 0 0.5 0.1 0.6 0.1 0.5 0.5 1.1 0.8 1.3-0.3-0.3-1.6-0.3-1.9 0 0.2-0.2 0.7-0.8 0.8-1.3 0.1-0.1 0.1-0.4 0.1-0.6-0.2 0-0.3 0.1-0.4 0.2-0.2 0.3-0.5 0.5-0.8 0.5-0.5 0-0.8-0.4-0.8-0.9 0-0.4 0.3-0.8 0.8-0.8 0.3 0 0.6 0.2 0.7 0.5 0.1 0.1 0.3 0.2 0.5 0.2-0.1-0.2-0.1-0.4-0.3-0.5-0.2-0.2-0.4-0.4-0.4-0.8 0-0.4 0.3-0.8 0.8-0.8 0.5 0 0.8 0.4 0.8 0.9 0 0.3-0.2 0.6-0.5 0.7-0.1 0.1-0.2 0.3-0.2 0.5 0.1 0 0.3-0.1 0.4-0.2 0.2-0.3 0.4-0.4 0.8-0.4 0.4 0 0.8 0.3 0.8 0.8z"/><path class="L" d="m252 378.7c0-0.5 0.4-0.8 0.8-0.8 0.3 0 0.7 0.2 0.8 0.5 0.1 0.1 0.3 0.1 0.4 0.2 0-0.2 0-0.5 0-0.7-0.1-0.4-0.6-1-0.8-1.2 0.3 0.3 1.5 0.2 1.8 0-0.2 0.2-0.6 0.7-0.8 1.2 0 0.2 0 0.4 0 0.7 0.2-0.1 0.3-0.1 0.4-0.2 0.1-0.3 0.5-0.5 0.8-0.5 0.4 0 0.8 0.3 0.8 0.8 0 0.4-0.4 0.8-0.8 0.8-0.3 0-0.6-0.2-0.8-0.5-0.1-0.1-0.2-0.1-0.4-0.2 0.1 0.2 0.1 0.5 0.3 0.6 0.2 0.1 0.4 0.4 0.4 0.7 0 0.5-0.3 0.8-0.8 0.8-0.4 0-0.8-0.3-0.8-0.8 0-0.3 0.2-0.6 0.5-0.7 0.1-0.2 0.1-0.4 0.2-0.6-0.2 0.1-0.3 0.1-0.4 0.2-0.2 0.3-0.5 0.5-0.8 0.5-0.4 0-0.8-0.4-0.8-0.8z"/><path fill-rule="evenodd" d="m212.4 323.5q0-0.1-0.1-0.1h-0.7q0 0 0 0l-0.1 0.8q-0.1 0.1 0 0.2l0.2 0.1c0 0.1 0.1 0.1 0.1 0.1q0 0-0.1 0h-1q0 0-0.1 0 0.1 0 0.1-0.1l0.3-0.2q0 0 0-0.1l0.8-4.8q0-0.1 0.1-0.1h0.3q0.1 0 0.1 0.1l0.9 4.8q0 0.1 0.1 0.2l0.2 0.1q0.1 0.1 0.1 0.1 0 0-0.1 0h-1.3q0 0 0 0 0 0 0-0.1l0.3-0.2q0 0 0-0.1zm-0.1-0.4q0 0 0-0.1l-0.3-1.7-0.3 1.7q0 0.1 0 0.1z"/><path fill-rule="evenodd" d="m212.4 323.5q0-0.1-0.1-0.1h-0.7q0 0 0 0l-0.1 0.8q-0.1 0.1 0 0.2l0.2 0.1c0 0.1 0.1 0.1 0.1 0.1q0 0-0.1 0h-1q0 0-0.1 0 0.1 0 0.1-0.1l0.3-0.2q0 0 0-0.1l0.8-4.8q0-0.1 0.1-0.1h0.3q0.1 0 0.1 0.1l0.9 4.8q0 0.1 0.1 0.2l0.2 0.1q0.1 0.1 0.1 0.1 0 0-0.1 0h-1.3q0 0 0 0 0 0 0-0.1l0.3-0.2q0 0 0-0.1zm-0.1-0.4q0 0 0-0.1l-0.3-1.7-0.3 1.7q0 0.1 0 0.1z"/><path fill-rule="evenodd" d="m253.7 385.2q0 0.1 0.1 0.1h0.6q0.1 0 0.1-0.1l0.1-0.8q0 0 0-0.1l-0.2-0.2c0 0-0.1 0-0.1 0q0-0.1 0.1-0.1h1q0 0 0 0.1 0 0 0 0l-0.3 0.2q0 0.1 0 0.2l-0.8 4.8q-0.1 0.1-0.1 0.1h-0.3q-0.1 0-0.1-0.1l-0.9-4.8q0-0.1-0.1-0.2l-0.2-0.2q-0.1 0-0.1 0 0-0.1 0.1-0.1h1.3q0 0 0 0.1 0 0 0 0l-0.3 0.2q0 0.1 0 0.2zm0.1 0.4q0 0 0 0.1l0.3 1.7 0.3-1.8q0 0 0 0z"/><path  d="m243.1 355.3c0 2.2-1.8 3.9-4 3.9-1.5 0-3-1-3.7-2.4-0.5-0.6-1.2-0.7-2.1-0.9 0 0.6 0 2.2 0.2 3.1 0.7 2.1 2.8 5 3.9 5.9-1.5-1.2-7.4-1.2-8.9 0 1.1-0.9 3.1-3.7 3.9-5.9 0.2-0.8 0.2-2 0.2-3.1-0.9 0.2-1.6 0.3-2.1 0.9-0.6 1.4-2.1 2.4-3.7 2.4-2.2 0-4-1.7-4-3.9 0-2.2 1.8-4 4-4 1.6 0 2.9 0.9 3.5 2.3 0.5 0.6 1.3 0.8 2.1 1-0.2-1-0.5-2.2-1.1-2.6-1.4-0.7-2.3-2-2.3-3.6 0-2.2 1.8-3.9 4-3.9 2.1 0 3.9 1.7 3.9 3.9 0 1.6-0.9 2.9-2.2 3.6-0.8 0.6-1 1.6-1.2 2.6 0.8-0.2 1.6-0.4 2.1-1 0.6-1.4 2-2.3 3.5-2.3 2.2 0 4 1.8 4 4z"/><rect class="j" x="206.8" y="52" width="50.4" height="76.1" rx="3.8"></rect><path class="n" d="m213.2 63.6c0 1.2-1.6 1.9-2.2 3.1-0.6-1.2-2.2-1.9-2.2-3.2 0-1.1 1.6-1.5 2.2-0.4 0.7-1.1 2.3-0.7 2.2 0.5z"/><path class="n" d="m252.9 116.2c-0.6 1.2-2.2 0.7-2.2-0.4 0-1.3 1.6-1.9 2.2-3.1v-0.1 0.1c0.6 1.2 2.2 1.8 2.2 3.1 0 1.1-1.6 1.6-2.2 0.4z"/><path fill-rule="evenodd" class="K" d="m211.4 58.8q0 0-0.1 0h-0.6q-0.1 0-0.1 0l-0.1 0.8q0 0.1 0 0.1l0.2 0.2c0.1 0 0.1 0.1 0.1 0.1q0 0 0 0h-1.1q0 0 0 0 0 0 0-0.1l0.3-0.2q0.1-0.1 0.1-0.2l0.8-4.8q0 0 0 0h0.4q0 0 0 0.1l0.9 4.7q0 0.2 0.1 0.2l0.2 0.2q0.1 0.1 0.1 0.1 0 0-0.1 0h-1.2q-0.1 0-0.1 0 0 0 0.1-0.1l0.2-0.2q0.1 0 0-0.1zm-0.1-0.4q0.1-0.1 0.1-0.1l-0.4-1.7-0.3 1.7q0 0.1 0.1 0.1z"/><path fill-rule="evenodd" class="n" d="m211.4 58.8q0 0-0.1 0h-0.6q-0.1 0-0.1 0l-0.1 0.8q0 0.1 0 0.1l0.2 0.2c0.1 0 0.1 0.1 0.1 0.1q0 0 0 0h-1.1q0 0 0 0 0 0 0-0.1l0.3-0.2q0.1-0.1 0.1-0.2l0.8-4.8q0 0 0 0h0.4q0 0 0 0.1l0.9 4.7q0 0.2 0.1 0.2l0.2 0.2q0.1 0.1 0.1 0.1 0 0-0.1 0h-1.2q-0.1 0-0.1 0 0 0 0.1-0.1l0.2-0.2q0.1 0 0-0.1zm-0.1-0.4q0.1-0.1 0.1-0.1l-0.4-1.7-0.3 1.7q0 0.1 0.1 0.1z"/><path fill-rule="evenodd" class="n" d="m252.7 120.6q0.1 0.1 0.1 0.1h0.7q0 0 0-0.1l0.2-0.8q0 0-0.1-0.1l-0.2-0.2c0 0-0.1 0-0.1-0.1q0 0 0.1 0h1q0.1 0 0.1 0 0 0.1-0.1 0.1l-0.2 0.2q-0.1 0.1-0.1 0.2l-0.8 4.8q0 0.1-0.1 0.1h-0.3q-0.1-0.1-0.1-0.1l-0.8-4.8q0-0.1-0.1-0.2l-0.3-0.2q0 0 0-0.1 0 0 0 0h1.3q0.1 0 0.1 0-0.1 0.1-0.1 0.1l-0.2 0.2q-0.1 0-0.1 0.1zm0.1 0.5q0 0 0 0l0.3 1.8 0.3-1.8q0 0 0 0z"/><path class="n" d="m240 86.8c0 4.6-6 6.2-8 10.5v0.1-0.1c-2-4.3-8-5.9-8-10.5 0-4.2 5.7-5.8 8-1.6 2.3-4.2 8-2.6 8 1.6z"/><rect class="j" x="206.7" y="140.5" width="50.4" height="76.1" rx="3.8"></rect><path  d="m211 154.4q0 0.2 0.1 0.5c0.2 0.6 0.8 1.4 1 1.6-0.4-0.3-2-0.3-2.5 0 0.3-0.2 1-1 1.1-1.6 0.1-0.2 0.1-0.5 0.1-0.5-0.7 0.9-2.2 0.5-2.2-0.6 0-1.3 1.7-2 2.3-3.2 0.6 1.2 2.3 1.9 2.3 3.2 0 1.1-1.5 1.6-2.2 0.6z"/><path  d="m255.4 202.8c0 1.3-1.7 2-2.2 3.2-0.6-1.2-2.3-1.9-2.3-3.2 0-1.1 1.4-1.5 2.1-0.6 0.1 0 0-0.3 0-0.5-0.2-0.6-0.8-1.4-1.1-1.6 0.4 0.3 2.1 0.3 2.5 0-0.3 0.2-0.9 1-1.1 1.6q0 0.3-0.1 0.5c0.7-1 2.2-0.5 2.2 0.6z"/><path fill-rule="evenodd" d="m211.4 147.4q0-0.1-0.1-0.1h-0.7q0 0 0 0.1l-0.1 0.8q-0.1 0 0 0.1l0.2 0.2c0 0 0.1 0 0.1 0q0 0.1-0.1 0.1h-1q0 0 0-0.1 0 0 0 0l0.3-0.2q0-0.1 0-0.2l0.8-4.8q0-0.1 0.1-0.1h0.3q0.1 0 0.1 0.1l0.9 4.8q0 0.1 0.1 0.2l0.2 0.2q0.1 0 0.1 0 0 0.1-0.1 0.1h-1.3q0 0 0-0.1 0 0 0 0l0.3-0.2q0-0.1 0-0.2zm-0.1-0.4q0 0 0-0.1l-0.3-1.7-0.3 1.8q0 0 0 0z"/><path fill-rule="evenodd" d="m211.4 147.4q0-0.1-0.1-0.1h-0.7q0 0 0 0.1l-0.1 0.8q-0.1 0 0 0.1l0.2 0.2c0 0 0.1 0 0.1 0q0 0.1-0.1 0.1h-1q0 0 0-0.1 0 0 0 0l0.3-0.2q0-0.1 0-0.2l0.8-4.8q0-0.1 0.1-0.1h0.3q0.1 0 0.1 0.1l0.9 4.8q0 0.1 0.1 0.2l0.2 0.2q0.1 0 0.1 0 0 0.1-0.1 0.1h-1.3q0 0 0-0.1 0 0 0 0l0.3-0.2q0-0.1 0-0.2zm-0.1-0.4q0 0 0-0.1l-0.3-1.7-0.3 1.8q0 0 0 0z"/><path fill-rule="evenodd" d="m252.7 209.1q0 0.1 0.1 0.1h0.7q0 0 0 0l0.1-0.8q0-0.1 0-0.2l-0.2-0.1c0-0.1-0.1-0.1-0.1-0.1q0 0 0.1 0h1q0 0 0 0 0 0 0 0.1l-0.3 0.2q0 0 0 0.1l-0.8 4.8q-0.1 0.1-0.1 0.1h-0.3q-0.1 0-0.1-0.1l-0.9-4.8q0-0.1-0.1-0.2l-0.2-0.1q-0.1-0.1-0.1-0.1 0 0 0.1 0h1.3q0 0 0 0 0 0 0 0.1l-0.3 0.1q0 0.1 0 0.2zm0.1 0.4q0 0 0 0.1l0.3 1.7 0.3-1.7q0-0.1 0-0.1z"/><path  d="m232.1 181.5q0.1 0.9 0.3 1.7c0.7 2 2.7 4.8 3.7 5.7-1.4-1.3-7.1-1.3-8.5 0 1-0.9 3.1-3.8 3.7-5.7 0.1-0.6 0.2-1.8 0.1-1.7-2.4 3.2-7.4 1.8-7.4-2 0-4.5 5.8-6.8 7.8-11.1h0.1c1.9 4.3 7.8 6.6 7.8 11.1 0 3.8-5.2 5.4-7.6 2z"/></svg>