<?xml version="1.0" encoding="utf-8"?>
<svg version="1.2" viewBox="83.807 35.072 345.465 380.418" width="748" height="563" xmlns="http://www.w3.org/2000/svg" xmlns:bx="https://boxy-svg.com">
  <title>home_page-svg</title>
  <defs>
    <bx:grid x="0.799" y="5.285" width="208.169" height="226.356"/>
  </defs>
  <style>
		.s0 { fill: #e6e7e8 } 
		.s1 { fill: #ffffff } 
		.s2 { fill: #a7a9ac } 
		.s3 { fill: #d1d3d4 } 
		.s4 { fill: #bcbec0 } 
		.s5 { opacity: .5;fill: #bcbec0 } 
		.s6 { fill: #414042 } 
		.s7 { fill: url(#g1) } 
		.s8 { fill: url(#g2) } 
		.s9 { fill: url(#g3) } 
		.s10 { fill: url(#g4) } 
		.s11 { fill: url(#g5) } 
		.s12 { opacity: .1;fill: #1f3c88 } 
		.s13 { fill: #58595b } 
		.s14 { opacity: .3;mix-blend-mode: multiply;fill: #6d6e71 } 
		.s15 { fill: #f9b384 } 
		.s16 { fill: #f73e3e } 
		.s17 { fill: #102048 } 
		.s18 { fill: #e28b6d } 
		.s19 { fill: #d62929 } 
		.s20 { fill: #b76821 } 
		.s21 { fill: #231f20 } 
		.s22 { fill: #b72020 } 
		.s23 { fill: #808285 } 
		.s24 { fill: #172c56 } 
		.s25 { opacity: .5;mix-blend-mode: multiply;fill: #bcbec0 } 
		.s26 { fill: #ffb67f } 
		.s27 { opacity: .2;fill: #000000 } 
		.s28 { fill: #aaa60a } 
		.s29 { fill: #e33364 } 
		.s30 { fill: #f9437d } 
		.s31 { fill: #ec8940 } 
		.s32 { fill: #60100e } 
		.s33 { fill: #9fa24b } 
		.s34 { fill: #000000 } 
		.s35 { fill: #261113 } 
		.s36 { fill: #e59b6a } 
		.s37 { fill: #352836 } 
		.s38 { mix-blend-mode: multiply;fill: none;stroke: #f1f2f2 } 
	</style>
  <g id="Layer" style="" transform="matrix(1.148654, 0, 0, 1.148654, -381.099243, -67.353653)">
    <path id="Layer" fill-rule="evenodd" class="s38" d="m704 230.6q-1.9 11.6-1.4 23.5-11.7 1.9-22.6 6.2 2-11.5 1.4-23.5 11.8-1.8 22.6-6.2z"/>
  </g>
  <g id="Layer" transform="matrix(0.873688, 0, 0, 0.873688, 107.546028, 85.847862)" style="">
    <path id="Layer" fill-rule="evenodd" class="s38" d="m43.1 115q-2.3-9.5 3.2-14.6c5.9-5.5 16.4 2.5 16.6 17.1 0.1 10.5-2.1 19.5-3.4 23.7-3.8 0.2-11.7 0.2-20.2-3-11.7-4.5-15.2-18.6-9-23.7q5.7-4.8 12.8 0.5z"/>
  </g>
  <g id="Layer" transform="matrix(1.196875, 0, 0, 1.196875, -613.328308, 63.035065)" style="">
    <path id="Layer" fill-rule="evenodd" class="s38" d="m599.9 27.1c4.7 2.7 5.3 7.9 5.3 10.7 1.3-3 3.8-8.5 4.2-11.4l6.2 4c-2.4 1.6-6.5 6-8.8 8.6 2.7-1.2 7.6-2.7 12 0.6 7.1 5.3 5.8 18.5-8.5 19.8-9.1 0.9-13.9 1.2-21.8 5.7 1-9.1-0.7-13.5-3.5-22.3-4.5-13.7 7.2-20 14.9-15.7z"/>
  </g>
  <g id="Layer" transform="matrix(0.495658, 0.502054, -0.502054, 0.495658, 179.155624, -18.972113)" style="">
    <path id="Layer" fill-rule="evenodd" class="s38" d="m563.7 92.4c5.3 3.9 6.5 11.1 3 16.4-3.3 4.3-8.7 5.9-13.5 4.1 3.9 2 12.6 6.4 17.1 7.3l-6.2 8.6c-2.2-3.9-9.2-10.7-12.4-13.8 3.1 4 3.5 9.7 0.5 14.1-3.9 5.2-11.2 6.3-16.4 2.5-5.3-3.7-6.5-11-3-16.4 1-1.3 2.4-2.4 3.8-3.2-3.2 0.7-6.7 0.2-9.6-1.8-5.3-3.9-6.6-11.2-2.9-16.4 3.8-5.2 11.1-6.3 16.4-2.6 2.9 2 4.6 5.2 4.9 8.4 0.3-1.6 0.9-3.1 1.9-4.6 3.9-5.1 11.2-6.3 16.4-2.6z"/>
  </g>
  <g id="Layer" transform="matrix(1, 0, 0, 1, 47.537193, 84.219322)">
    <path id="Layer" fill-rule="evenodd" class="s38" d="m80.7 187.5c-2.3 3.8-7.3 5-11.2 2.7-3.1-2-4.4-5.7-3.4-9.1-1.3 2.8-3.9 9-4.3 12.1l-6.3-3.9c2.7-1.7 7.1-6.8 9.1-9.2-2.7 2.4-6.6 2.9-9.8 1-3.7-2.5-4.8-7.5-2.5-11.3 2.4-3.8 7.4-5 11.3-2.8 1 0.7 1.8 1.5 2.4 2.5-0.7-2.2-0.4-4.6 0.9-6.7 2.4-3.9 7.4-5.1 11.2-2.8 3.8 2.5 4.9 7.5 2.5 11.3-1.3 2.1-3.4 3.4-5.6 3.8 1.1 0.1 2.2 0.5 3.3 1.1 3.7 2.4 4.8 7.4 2.4 11.3z"/>
  </g>
  <path id="Layer" fill-rule="evenodd" class="s38" d="M 202.11 55.729 C 194.328 57.48 186.764 60.034 179.419 63.39 C 175.187 56.532 170.347 50.209 164.9 44.419 C 172.682 42.718 180.222 40.14 187.518 36.686 C 191.75 43.642 196.613 49.99 202.11 55.729 Z" style=""/>
  <g id="g-1" style="" transform="matrix(1.148654, 0, 0, 1.148654, -559.55603, 114.608002)">
    <path id="g-1" fill-rule="evenodd" class="s38" d="m704 230.6q-1.9 11.6-1.4 23.5-11.7 1.9-22.6 6.2 2-11.5 1.4-23.5 11.8-1.8 22.6-6.2z"/>
  </g>
  <g id="g-3" transform="matrix(-0.137213, -0.990542, 0.990542, -0.137213, 165.68959, 960.390808)">
    <path id="g-3" fill-rule="evenodd" class="s38" d="m599.9 27.1c4.7 2.7 5.3 7.9 5.3 10.7 1.3-3 3.8-8.5 4.2-11.4l6.2 4c-2.4 1.6-6.5 6-8.8 8.6 2.7-1.2 7.6-2.7 12 0.6 7.1 5.3 5.8 18.5-8.5 19.8-9.1 0.9-13.9 1.2-21.8 5.7 1-9.1-0.7-13.5-3.5-22.3-4.5-13.7 7.2-20 14.9-15.7z"/>
  </g>
  <g id="g-2" transform="matrix(0.492441, -0.588691, 0.588691, 0.492441, 224.223389, 33.713318)" style="">
    <path id="g-2" fill-rule="evenodd" class="s38" d="m80.7 187.5c-2.3 3.8-7.3 5-11.2 2.7-3.1-2-4.4-5.7-3.4-9.1-1.3 2.8-3.9 9-4.3 12.1l-6.3-3.9c2.7-1.7 7.1-6.8 9.1-9.2-2.7 2.4-6.6 2.9-9.8 1-3.7-2.5-4.8-7.5-2.5-11.3 2.4-3.8 7.4-5 11.3-2.8 1 0.7 1.8 1.5 2.4 2.5-0.7-2.2-0.4-4.6 0.9-6.7 2.4-3.9 7.4-5.1 11.2-2.8 3.8 2.5 4.9 7.5 2.5 11.3-1.3 2.1-3.4 3.4-5.6 3.8 1.1 0.1 2.2 0.5 3.3 1.1 3.7 2.4 4.8 7.4 2.4 11.3z"/>
  </g>
  <g id="g-4" transform="matrix(-0.390084, 0.679441, -0.679441, -0.390084, 629.703186, -234.066544)" style="">
    <path id="g-4" fill-rule="evenodd" class="s38" d="m599.9 27.1c4.7 2.7 5.3 7.9 5.3 10.7 1.3-3 3.8-8.5 4.2-11.4l6.2 4c-2.4 1.6-6.5 6-8.8 8.6 2.7-1.2 7.6-2.7 12 0.6 7.1 5.3 5.8 18.5-8.5 19.8-9.1 0.9-13.9 1.2-21.8 5.7 1-9.1-0.7-13.5-3.5-22.3-4.5-13.7 7.2-20 14.9-15.7z"/>
  </g>
  <g id="g-5" transform="matrix(0.343122, 0.524177, -0.524177, 0.343122, 397.41333, 309.311676)" style="">
    <path id="g-5" fill-rule="evenodd" class="s38" d="m43.1 115q-2.3-9.5 3.2-14.6c5.9-5.5 16.4 2.5 16.6 17.1 0.1 10.5-2.1 19.5-3.4 23.7-3.8 0.2-11.7 0.2-20.2-3-11.7-4.5-15.2-18.6-9-23.7q5.7-4.8 12.8 0.5z"/>
  </g>
</svg>