<?xml version="1.0" encoding="utf-8"?>
<svg version="1.2" viewBox="0 0 219.948 79.378" width="681" height="478" xmlns="http://www.w3.org/2000/svg">
  <style>tspan{white-space:pre}.a{fill:#e6e7e8}.b{fill:#fff}.c{fill:#a7a9ac}.d{fill:#d1d3d4}.e{fill:#bcbec0}.f{opacity:.5;fill:#bcbec0}.g{mix-blend-mode:multiply;fill:none;stroke:#f1f2f2}.h{opacity:.1;fill:#1f3c88}.i{fill:#808285}.j{fill:#f1f2f2}.k{fill:#f9b384}.l{fill:#231f20}.m{fill:#414042}.n{fill:#f73e3e}.o{fill:#102048}.p{fill:#e28b6d}.q{fill:#e59b6a}.r{fill:#352836}.s{opacity:.5;mix-blend-mode:multiply;fill:#bcbec0}.t{fill:#172c56}.u{fill:#151823}.v{fill:#58595b}.w{fill:#c7d3e0}.x{fill:#282a35}.y{fill:#6d6e71}.z{fill:#96a6bc}.A{fill:#d62929}.B{opacity:.3;mix-blend-mode:multiply;fill:#6d6e71}.C{fill:#333}.D{mix-blend-mode:multiply;fill:url(#g1)}.E{fill:#404040}.F{mix-blend-mode:multiply;fill:url(#g2)}.G{fill:#ff6e49}.H{fill:#ff3700}.I{opacity:.2}.J{fill:#2e2e2e}.K{fill:#b50f00}.L{fill:#191919}</style>
  <g transform="matrix(1, 0, 0, 1, -94.992607, -225)">
    <rect class="j" x="206.1" y="225" width="50.4" height="76.1" rx="3.8"/>
    <path class="n" d="M 212.8 237.5 C 212.4 237.5 210.5 239.4 210.5 239.9 C 210.5 239.4 208.6 237.6 208.2 237.6 C 208.6 237.6 210.5 235.7 210.5 235.3 C 210.5 235.7 212.4 237.5 212.8 237.5 L 212.8 237.5 Z"/>
    <path class="n" d="M 254.7 286.7 C 254.2 286.7 252.4 288.6 252.4 289 C 252.4 288.6 250.5 286.7 250.1 286.7 C 250.5 286.7 252.4 284.8 252.4 284.4 C 252.4 284.8 254.2 286.7 254.7 286.7 Z"/>
    <path fill-rule="evenodd" class="K" d="M 210.8 231.9 C 210.8 231.833 210.767 231.8 210.7 231.8 L 210.1 231.8 C 210.033 231.8 210 231.8 210 231.8 L 209.9 232.6 C 209.9 232.667 209.9 232.7 209.9 232.7 L 210.1 232.9 C 210.1 232.9 210.2 233 210.2 233 C 210.2 233 210.167 233 210.1 233 L 209.1 233 C 209.1 233 209.1 233 209.1 233 C 209.1 233 209.1 232.967 209.1 232.9 L 209.4 232.7 C 209.4 232.7 209.4 232.633 209.4 232.5 L 210.2 227.8 C 210.267 227.733 210.3 227.7 210.3 227.7 L 210.6 227.7 C 210.667 227.7 210.7 227.733 210.7 227.8 L 211.6 232.6 C 211.6 232.667 211.633 232.7 211.7 232.7 L 211.9 232.9 C 211.967 232.967 212 233 212 233 C 212 233 211.967 233 211.9 233 L 210.6 233 C 210.6 233 210.6 233 210.6 233 C 210.6 233 210.6 232.967 210.6 232.9 L 210.9 232.7 C 210.9 232.7 210.9 232.667 210.9 232.6 L 210.8 231.9 Z M 210.7 231.5 C 210.7 231.5 210.7 231.467 210.7 231.4 L 210.4 229.7 L 210.1 231.4 C 210.1 231.467 210.1 231.5 210.1 231.5 L 210.7 231.5 Z"/>
    <path fill-rule="evenodd" class="n" d="M 210.8 231.9 C 210.8 231.833 210.767 231.8 210.7 231.8 L 210.1 231.8 C 210.033 231.8 210 231.8 210 231.8 L 209.9 232.6 C 209.9 232.667 209.9 232.7 209.9 232.7 L 210.1 232.9 C 210.1 232.9 210.2 233 210.2 233 C 210.2 233 210.167 233 210.1 233 L 209.1 233 C 209.1 233 209.1 233 209.1 233 C 209.1 233 209.1 232.967 209.1 232.9 L 209.4 232.7 C 209.4 232.7 209.4 232.633 209.4 232.5 L 210.2 227.8 C 210.267 227.733 210.3 227.7 210.3 227.7 L 210.6 227.7 C 210.667 227.7 210.7 227.733 210.7 227.8 L 211.6 232.6 C 211.6 232.667 211.633 232.7 211.7 232.7 L 211.9 232.9 C 211.967 232.967 212 233 212 233 C 212 233 211.967 233 211.9 233 L 210.6 233 C 210.6 233 210.6 233 210.6 233 C 210.6 233 210.6 232.967 210.6 232.9 L 210.9 232.7 C 210.9 232.7 210.9 232.667 210.9 232.6 L 210.8 231.9 Z M 210.7 231.5 C 210.7 231.5 210.7 231.467 210.7 231.4 L 210.4 229.7 L 210.1 231.4 C 210.1 231.467 210.1 231.5 210.1 231.5 L 210.7 231.5 Z"/>
    <path fill-rule="evenodd" class="n" d="M 252.1 293.6 C 252.1 293.667 252.133 293.7 252.2 293.7 L 252.9 293.7 C 252.9 293.7 252.9 293.667 252.9 293.6 L 253 292.8 C 253.067 292.8 253.067 292.767 253 292.7 L 252.8 292.5 C 252.8 292.5 252.7 292.5 252.7 292.5 C 252.7 292.433 252.733 292.4 252.8 292.4 L 253.8 292.4 C 253.867 292.4 253.9 292.433 253.9 292.5 C 253.833 292.5 253.8 292.5 253.8 292.5 L 253.5 292.7 C 253.5 292.767 253.5 292.833 253.5 292.9 L 252.7 297.7 C 252.7 297.767 252.667 297.8 252.6 297.8 L 252.3 297.8 C 252.233 297.8 252.2 297.767 252.2 297.7 L 251.3 292.9 C 251.3 292.833 251.267 292.767 251.2 292.7 L 251 292.5 C 250.933 292.5 250.9 292.5 250.9 292.5 C 250.9 292.433 250.933 292.4 251 292.4 L 252.3 292.4 C 252.3 292.4 252.3 292.433 252.3 292.5 C 252.3 292.5 252.3 292.5 252.3 292.5 L 252 292.7 C 252 292.767 252 292.833 252 292.9 L 252.1 293.6 Z M 252.2 294 C 252.2 294 252.2 294 252.2 294 L 252.5 295.8 L 252.8 294 C 252.8 294 252.8 294 252.8 294 L 252.2 294 Z"/>
    <path class="n" d="M 240 263.1 C 238.4 263.1 231.3 270.3 231.3 271.9 C 231.3 270.3 224.1 263.1 222.5 263.1 C 224.1 263.1 231.3 255.9 231.3 254.3 C 231.3 255.9 238.4 263.1 240 263.1 Z"/>
  </g>
  <g transform="matrix(1, 0, 0, 1, -41.460804, -316.600006)">
    <rect class="j" x="207.8" y="316.6" width="50.4" height="76.1" rx="3.8"/>
    <path class="L" d="M 214.1 328.8 C 214.1 329.2 213.7 329.6 213.2 329.6 C 212.9 329.6 212.6 329.4 212.5 329.1 C 212.4 329 212.2 328.9 212 328.9 C 212 329 212 329.4 212.1 329.5 C 212.2 330 212.6 330.6 212.9 330.8 C 212.6 330.5 211.3 330.5 211 330.8 C 211.2 330.6 211.7 330 211.8 329.5 C 211.9 329.4 211.9 329.1 211.9 328.9 C 211.7 328.9 211.6 329 211.5 329.1 C 211.3 329.4 211 329.6 210.7 329.6 C 210.2 329.6 209.9 329.2 209.9 328.7 C 209.9 328.3 210.2 327.9 210.7 327.9 C 211 327.9 211.3 328.1 211.4 328.4 C 211.5 328.5 211.7 328.6 211.9 328.6 C 211.8 328.4 211.8 328.2 211.6 328.1 C 211.4 327.9 211.2 327.7 211.2 327.3 C 211.2 326.9 211.5 326.5 212 326.5 C 212.5 326.5 212.8 326.9 212.8 327.4 C 212.8 327.7 212.6 328 212.3 328.1 C 212.2 328.2 212.1 328.4 212.1 328.6 C 212.2 328.6 212.4 328.5 212.5 328.4 C 212.7 328.1 212.9 328 213.3 328 C 213.7 328 214.1 328.3 214.1 328.8 L 214.1 328.8 Z"/>
    <path class="L" d="M 252 378.7 C 252 378.2 252.4 377.9 252.8 377.9 C 253.1 377.9 253.5 378.1 253.6 378.4 C 253.7 378.5 253.9 378.5 254 378.6 C 254 378.4 254 378.1 254 377.9 C 253.9 377.5 253.4 376.9 253.2 376.7 C 253.5 377 254.7 376.9 255 376.7 C 254.8 376.9 254.4 377.4 254.2 377.9 C 254.2 378.1 254.2 378.3 254.2 378.6 C 254.4 378.5 254.5 378.5 254.6 378.4 C 254.7 378.1 255.1 377.9 255.4 377.9 C 255.8 377.9 256.2 378.2 256.2 378.7 C 256.2 379.1 255.8 379.5 255.4 379.5 C 255.1 379.5 254.8 379.3 254.6 379 C 254.5 378.9 254.4 378.9 254.2 378.8 C 254.3 379 254.3 379.3 254.5 379.4 C 254.7 379.5 254.9 379.8 254.9 380.1 C 254.9 380.6 254.6 380.9 254.1 380.9 C 253.7 380.9 253.3 380.6 253.3 380.1 C 253.3 379.8 253.5 379.5 253.8 379.4 C 253.9 379.2 253.9 379 254 378.8 C 253.8 378.9 253.7 378.9 253.6 379 C 253.4 379.3 253.1 379.5 252.8 379.5 C 252.4 379.5 252 379.1 252 378.7 L 252 378.7 Z"/>
    <path fill-rule="evenodd" d="M 212.4 323.5 C 212.4 323.433 212.367 323.4 212.3 323.4 L 211.6 323.4 C 211.6 323.4 211.6 323.4 211.6 323.4 L 211.5 324.2 C 211.433 324.267 211.433 324.333 211.5 324.4 L 211.7 324.5 C 211.7 324.6 211.8 324.6 211.8 324.6 C 211.8 324.6 211.767 324.6 211.7 324.6 L 210.7 324.6 C 210.7 324.6 210.667 324.6 210.6 324.6 C 210.667 324.6 210.7 324.567 210.7 324.5 L 211 324.3 C 211 324.3 211 324.267 211 324.2 L 211.8 319.4 C 211.8 319.333 211.833 319.3 211.9 319.3 L 212.2 319.3 C 212.267 319.3 212.3 319.333 212.3 319.4 L 213.2 324.2 C 213.2 324.267 213.233 324.333 213.3 324.4 L 213.5 324.5 C 213.567 324.567 213.6 324.6 213.6 324.6 C 213.6 324.6 213.567 324.6 213.5 324.6 L 212.2 324.6 C 212.2 324.6 212.2 324.6 212.2 324.6 C 212.2 324.6 212.2 324.567 212.2 324.5 L 212.5 324.3 C 212.5 324.3 212.5 324.267 212.5 324.2 L 212.4 323.5 Z M 212.3 323.1 C 212.3 323.1 212.3 323.067 212.3 323 L 212 321.3 L 211.7 323 C 211.7 323.067 211.7 323.1 211.7 323.1 L 212.3 323.1 Z"/>
    <path fill-rule="evenodd" d="M 212.4 323.5 C 212.4 323.433 212.367 323.4 212.3 323.4 L 211.6 323.4 C 211.6 323.4 211.6 323.4 211.6 323.4 L 211.5 324.2 C 211.433 324.267 211.433 324.333 211.5 324.4 L 211.7 324.5 C 211.7 324.6 211.8 324.6 211.8 324.6 C 211.8 324.6 211.767 324.6 211.7 324.6 L 210.7 324.6 C 210.7 324.6 210.667 324.6 210.6 324.6 C 210.667 324.6 210.7 324.567 210.7 324.5 L 211 324.3 C 211 324.3 211 324.267 211 324.2 L 211.8 319.4 C 211.8 319.333 211.833 319.3 211.9 319.3 L 212.2 319.3 C 212.267 319.3 212.3 319.333 212.3 319.4 L 213.2 324.2 C 213.2 324.267 213.233 324.333 213.3 324.4 L 213.5 324.5 C 213.567 324.567 213.6 324.6 213.6 324.6 C 213.6 324.6 213.567 324.6 213.5 324.6 L 212.2 324.6 C 212.2 324.6 212.2 324.6 212.2 324.6 C 212.2 324.6 212.2 324.567 212.2 324.5 L 212.5 324.3 C 212.5 324.3 212.5 324.267 212.5 324.2 L 212.4 323.5 Z M 212.3 323.1 C 212.3 323.1 212.3 323.067 212.3 323 L 212 321.3 L 211.7 323 C 211.7 323.067 211.7 323.1 211.7 323.1 L 212.3 323.1 Z"/>
    <path fill-rule="evenodd" d="M 253.7 385.2 C 253.7 385.267 253.733 385.3 253.8 385.3 L 254.4 385.3 C 254.467 385.3 254.5 385.267 254.5 385.2 L 254.6 384.4 C 254.6 384.4 254.6 384.367 254.6 384.3 L 254.4 384.1 C 254.4 384.1 254.3 384.1 254.3 384.1 C 254.3 384.033 254.333 384 254.4 384 L 255.4 384 C 255.4 384 255.4 384.033 255.4 384.1 C 255.4 384.1 255.4 384.1 255.4 384.1 L 255.1 384.3 C 255.1 384.367 255.1 384.433 255.1 384.5 L 254.3 389.3 C 254.233 389.367 254.2 389.4 254.2 389.4 L 253.9 389.4 C 253.833 389.4 253.8 389.367 253.8 389.3 L 252.9 384.5 C 252.9 384.433 252.867 384.367 252.8 384.3 L 252.6 384.1 C 252.533 384.1 252.5 384.1 252.5 384.1 C 252.5 384.033 252.533 384 252.6 384 L 253.9 384 C 253.9 384 253.9 384.033 253.9 384.1 C 253.9 384.1 253.9 384.1 253.9 384.1 L 253.6 384.3 C 253.6 384.367 253.6 384.433 253.6 384.5 L 253.7 385.2 Z M 253.8 385.6 C 253.8 385.6 253.8 385.633 253.8 385.7 L 254.1 387.4 L 254.4 385.6 C 254.4 385.6 254.4 385.6 254.4 385.6 L 253.8 385.6 Z"/>
    <path d="M 243.1 355.3 C 243.1 357.5 241.3 359.2 239.1 359.2 C 237.6 359.2 236.1 358.2 235.4 356.8 C 234.9 356.2 234.2 356.1 233.3 355.9 C 233.3 356.5 233.3 358.1 233.5 359 C 234.2 361.1 236.3 364 237.4 364.9 C 235.9 363.7 230 363.7 228.5 364.9 C 229.6 364 231.6 361.2 232.4 359 C 232.6 358.2 232.6 357 232.6 355.9 C 231.7 356.1 231 356.2 230.5 356.8 C 229.9 358.2 228.4 359.2 226.8 359.2 C 224.6 359.2 222.8 357.5 222.8 355.3 C 222.8 353.1 224.6 351.3 226.8 351.3 C 228.4 351.3 229.7 352.2 230.3 353.6 C 230.8 354.2 231.6 354.4 232.4 354.6 C 232.2 353.6 231.9 352.4 231.3 352 C 229.9 351.3 229 350 229 348.4 C 229 346.2 230.8 344.5 233 344.5 C 235.1 344.5 236.9 346.2 236.9 348.4 C 236.9 350 236 351.3 234.7 352 C 233.9 352.6 233.7 353.6 233.5 354.6 C 234.3 354.4 235.1 354.2 235.6 353.6 C 236.2 352.2 237.6 351.3 239.1 351.3 C 241.3 351.3 243.1 353.1 243.1 355.3 L 243.1 355.3 Z"/>
  </g>
  <g transform="matrix(1, 0, 0, 1, -206.800003, -52.000004)">
    <rect class="j" x="206.8" y="52" width="50.4" height="76.1" rx="3.8"/>
    <path class="n" d="M 213.2 63.6 C 213.2 64.8 211.6 65.5 211 66.7 C 210.4 65.5 208.8 64.8 208.8 63.5 C 208.8 62.4 210.4 62 211 63.1 C 211.7 62 213.3 62.4 213.2 63.6 Z"/>
    <path class="n" d="M 252.9 116.2 C 252.3 117.4 250.7 116.9 250.7 115.8 C 250.7 114.5 252.3 113.9 252.9 112.7 L 252.9 112.6 L 252.9 112.7 C 253.5 113.9 255.1 114.5 255.1 115.8 C 255.1 116.9 253.5 117.4 252.9 116.2 Z"/>
    <path fill-rule="evenodd" class="K" d="M 211.4 58.8 C 211.4 58.8 211.367 58.8 211.3 58.8 L 210.7 58.8 C 210.633 58.8 210.6 58.8 210.6 58.8 L 210.5 59.6 C 210.5 59.667 210.5 59.7 210.5 59.7 L 210.7 59.9 C 210.8 59.9 210.8 60 210.8 60 C 210.8 60 210.8 60 210.8 60 L 209.7 60 C 209.7 60 209.7 60 209.7 60 C 209.7 60 209.7 59.967 209.7 59.9 L 210 59.7 C 210.067 59.633 210.1 59.567 210.1 59.5 L 210.9 54.7 C 210.9 54.7 210.9 54.7 210.9 54.7 L 211.3 54.7 C 211.3 54.7 211.3 54.733 211.3 54.8 L 212.2 59.5 C 212.2 59.633 212.233 59.7 212.3 59.7 L 212.5 59.9 C 212.567 59.967 212.6 60 212.6 60 C 212.6 60 212.567 60 212.5 60 L 211.3 60 C 211.233 60 211.2 60 211.2 60 C 211.2 60 211.233 59.967 211.3 59.9 L 211.5 59.7 C 211.567 59.7 211.567 59.667 211.5 59.6 L 211.4 58.8 Z M 211.3 58.4 C 211.367 58.333 211.4 58.3 211.4 58.3 L 211 56.6 L 210.7 58.3 C 210.7 58.367 210.733 58.4 210.8 58.4 L 211.3 58.4 Z"/>
    <path fill-rule="evenodd" class="n" d="M 211.4 58.8 C 211.4 58.8 211.367 58.8 211.3 58.8 L 210.7 58.8 C 210.633 58.8 210.6 58.8 210.6 58.8 L 210.5 59.6 C 210.5 59.667 210.5 59.7 210.5 59.7 L 210.7 59.9 C 210.8 59.9 210.8 60 210.8 60 C 210.8 60 210.8 60 210.8 60 L 209.7 60 C 209.7 60 209.7 60 209.7 60 C 209.7 60 209.7 59.967 209.7 59.9 L 210 59.7 C 210.067 59.633 210.1 59.567 210.1 59.5 L 210.9 54.7 C 210.9 54.7 210.9 54.7 210.9 54.7 L 211.3 54.7 C 211.3 54.7 211.3 54.733 211.3 54.8 L 212.2 59.5 C 212.2 59.633 212.233 59.7 212.3 59.7 L 212.5 59.9 C 212.567 59.967 212.6 60 212.6 60 C 212.6 60 212.567 60 212.5 60 L 211.3 60 C 211.233 60 211.2 60 211.2 60 C 211.2 60 211.233 59.967 211.3 59.9 L 211.5 59.7 C 211.567 59.7 211.567 59.667 211.5 59.6 L 211.4 58.8 Z M 211.3 58.4 C 211.367 58.333 211.4 58.3 211.4 58.3 L 211 56.6 L 210.7 58.3 C 210.7 58.367 210.733 58.4 210.8 58.4 L 211.3 58.4 Z"/>
    <path fill-rule="evenodd" class="n" d="M 252.7 120.6 C 252.767 120.667 252.8 120.7 252.8 120.7 L 253.5 120.7 C 253.5 120.7 253.5 120.667 253.5 120.6 L 253.7 119.8 C 253.7 119.8 253.667 119.767 253.6 119.7 L 253.4 119.5 C 253.4 119.5 253.3 119.5 253.3 119.4 C 253.3 119.4 253.333 119.4 253.4 119.4 L 254.4 119.4 C 254.467 119.4 254.5 119.4 254.5 119.4 C 254.5 119.467 254.467 119.5 254.4 119.5 L 254.2 119.7 C 254.133 119.767 254.1 119.833 254.1 119.9 L 253.3 124.7 C 253.3 124.767 253.267 124.8 253.2 124.8 L 252.9 124.8 C 252.833 124.733 252.8 124.7 252.8 124.7 L 252 119.9 C 252 119.833 251.967 119.767 251.9 119.7 L 251.6 119.5 C 251.6 119.5 251.6 119.467 251.6 119.4 C 251.6 119.4 251.6 119.4 251.6 119.4 L 252.9 119.4 C 252.967 119.4 253 119.4 253 119.4 C 252.933 119.467 252.9 119.5 252.9 119.5 L 252.7 119.7 C 252.633 119.7 252.6 119.733 252.6 119.8 L 252.7 120.6 Z M 252.8 121.1 C 252.8 121.1 252.8 121.1 252.8 121.1 L 253.1 122.9 L 253.4 121.1 C 253.4 121.1 253.4 121.1 253.4 121.1 L 252.8 121.1 Z"/>
    <path class="n" d="M 240 86.8 C 240 91.4 234 93 232 97.3 L 232 97.4 L 232 97.3 C 230 93 224 91.4 224 86.8 C 224 82.6 229.7 81 232 85.2 C 234.3 81 240 82.6 240 86.8 Z"/>
  </g>
  <g transform="matrix(1, 0, 0, 1, -150.978561, -140.5)">
    <rect class="j" x="206.7" y="140.5" width="50.4" height="76.1" rx="3.8"/>
    <path d="M 211 154.4 C 211 154.533 211.033 154.7 211.1 154.9 C 211.3 155.5 211.9 156.3 212.1 156.5 C 211.7 156.2 210.1 156.2 209.6 156.5 C 209.9 156.3 210.6 155.5 210.7 154.9 C 210.8 154.7 210.8 154.4 210.8 154.4 C 210.1 155.3 208.6 154.9 208.6 153.8 C 208.6 152.5 210.3 151.8 210.9 150.6 C 211.5 151.8 213.2 152.5 213.2 153.8 C 213.2 154.9 211.7 155.4 211 154.4 L 211 154.4 Z"/>
    <path d="M 255.4 202.8 C 255.4 204.1 253.7 204.8 253.2 206 C 252.6 204.8 250.9 204.1 250.9 202.8 C 250.9 201.7 252.3 201.3 253 202.2 C 253.1 202.2 253 201.9 253 201.7 C 252.8 201.1 252.2 200.3 251.9 200.1 C 252.3 200.4 254 200.4 254.4 200.1 C 254.1 200.3 253.5 201.1 253.3 201.7 C 253.3 201.9 253.267 202.067 253.2 202.2 C 253.9 201.2 255.4 201.7 255.4 202.8 Z"/>
    <path fill-rule="evenodd" d="M 211.4 147.4 C 211.4 147.333 211.367 147.3 211.3 147.3 L 210.6 147.3 C 210.6 147.3 210.6 147.333 210.6 147.4 L 210.5 148.2 C 210.433 148.2 210.433 148.233 210.5 148.3 L 210.7 148.5 C 210.7 148.5 210.8 148.5 210.8 148.5 C 210.8 148.567 210.767 148.6 210.7 148.6 L 209.7 148.6 C 209.7 148.6 209.7 148.567 209.7 148.5 C 209.7 148.5 209.7 148.5 209.7 148.5 L 210 148.3 C 210 148.233 210 148.167 210 148.1 L 210.8 143.3 C 210.8 143.233 210.833 143.2 210.9 143.2 L 211.2 143.2 C 211.267 143.2 211.3 143.233 211.3 143.3 L 212.2 148.1 C 212.2 148.167 212.233 148.233 212.3 148.3 L 212.5 148.5 C 212.567 148.5 212.6 148.5 212.6 148.5 C 212.6 148.567 212.567 148.6 212.5 148.6 L 211.2 148.6 C 211.2 148.6 211.2 148.567 211.2 148.5 C 211.2 148.5 211.2 148.5 211.2 148.5 L 211.5 148.3 C 211.5 148.233 211.5 148.167 211.5 148.1 L 211.4 147.4 Z M 211.3 147 C 211.3 147 211.3 146.967 211.3 146.9 L 211 145.2 L 210.7 147 C 210.7 147 210.7 147 210.7 147 L 211.3 147 Z"/>
    <path fill-rule="evenodd" d="M 211.4 147.4 C 211.4 147.333 211.367 147.3 211.3 147.3 L 210.6 147.3 C 210.6 147.3 210.6 147.333 210.6 147.4 L 210.5 148.2 C 210.433 148.2 210.433 148.233 210.5 148.3 L 210.7 148.5 C 210.7 148.5 210.8 148.5 210.8 148.5 C 210.8 148.567 210.767 148.6 210.7 148.6 L 209.7 148.6 C 209.7 148.6 209.7 148.567 209.7 148.5 C 209.7 148.5 209.7 148.5 209.7 148.5 L 210 148.3 C 210 148.233 210 148.167 210 148.1 L 210.8 143.3 C 210.8 143.233 210.833 143.2 210.9 143.2 L 211.2 143.2 C 211.267 143.2 211.3 143.233 211.3 143.3 L 212.2 148.1 C 212.2 148.167 212.233 148.233 212.3 148.3 L 212.5 148.5 C 212.567 148.5 212.6 148.5 212.6 148.5 C 212.6 148.567 212.567 148.6 212.5 148.6 L 211.2 148.6 C 211.2 148.6 211.2 148.567 211.2 148.5 C 211.2 148.5 211.2 148.5 211.2 148.5 L 211.5 148.3 C 211.5 148.233 211.5 148.167 211.5 148.1 L 211.4 147.4 Z M 211.3 147 C 211.3 147 211.3 146.967 211.3 146.9 L 211 145.2 L 210.7 147 C 210.7 147 210.7 147 210.7 147 L 211.3 147 Z"/>
    <path fill-rule="evenodd" d="M 252.7 209.1 C 252.7 209.167 252.733 209.2 252.8 209.2 L 253.5 209.2 C 253.5 209.2 253.5 209.2 253.5 209.2 L 253.6 208.4 C 253.6 208.333 253.6 208.267 253.6 208.2 L 253.4 208.1 C 253.4 208 253.3 208 253.3 208 C 253.3 208 253.333 208 253.4 208 L 254.4 208 C 254.4 208 254.4 208 254.4 208 C 254.4 208 254.4 208.033 254.4 208.1 L 254.1 208.3 C 254.1 208.3 254.1 208.333 254.1 208.4 L 253.3 213.2 C 253.233 213.267 253.2 213.3 253.2 213.3 L 252.9 213.3 C 252.833 213.3 252.8 213.267 252.8 213.2 L 251.9 208.4 C 251.9 208.333 251.867 208.267 251.8 208.2 L 251.6 208.1 C 251.533 208.033 251.5 208 251.5 208 C 251.5 208 251.533 208 251.6 208 L 252.9 208 C 252.9 208 252.9 208 252.9 208 C 252.9 208 252.9 208.033 252.9 208.1 L 252.6 208.2 C 252.6 208.267 252.6 208.333 252.6 208.4 L 252.7 209.1 Z M 252.8 209.5 C 252.8 209.5 252.8 209.533 252.8 209.6 L 253.1 211.3 L 253.4 209.6 C 253.4 209.533 253.4 209.5 253.4 209.5 L 252.8 209.5 Z"/>
    <path d="M 232.1 181.5 C 232.167 182.1 232.267 182.667 232.4 183.2 C 233.1 185.2 235.1 188 236.1 188.9 C 234.7 187.6 229 187.6 227.6 188.9 C 228.6 188 230.7 185.1 231.3 183.2 C 231.4 182.6 231.5 181.4 231.4 181.5 C 229 184.7 224 183.3 224 179.5 C 224 175 229.8 172.7 231.8 168.4 L 231.9 168.4 C 233.8 172.7 239.7 175 239.7 179.5 C 239.7 183.3 234.5 184.9 232.1 181.5 Z"/>
  </g>
</svg>