<svg version="1.2" xmlns="http://www.w3.org/2000/svg" viewBox="0 0 628 593" width="628" height="593">
	<title>vote</title>
	<defs>
		<linearGradient id="g1" x1="87.8" y1="252.9" x2="93.1" y2="220.6" gradientUnits="userSpaceOnUse">
			<stop offset="0" stop-color="#ffffff"/>
			<stop offset=".5" stop-color="#c5c0b8"/>
		</linearGradient>
		<clipPath clipPathUnits="userSpaceOnUse" id="cp1">
			<path d="m340.46 454.2c0 18.47-15.77 33.45-35.22 33.45-19.45 0-35.22-14.98-35.22-33.45 0-18.47 15.77-33.45 35.22-33.45 19.45 0 35.22 14.98 35.22 33.45z"/>
		</clipPath>
		<clipPath clipPathUnits="userSpaceOnUse" id="cp2">
			<path d="m339.1 323.1c-2.7 18.27-20.48 30.78-39.73 27.95-19.24-2.84-32.65-19.95-29.96-38.23 2.69-18.27 20.47-30.79 39.72-27.95 19.24 2.84 32.66 19.95 29.97 38.23z"/>
		</clipPath>
		<clipPath clipPathUnits="userSpaceOnUse" id="cp3">
			<path d="m340.89 176.87c0 18.47-15.77 33.45-35.23 33.45-19.44 0-35.21-14.98-35.21-33.45 0-18.47 15.77-33.45 35.21-33.45 19.46 0 35.23 14.98 35.23 33.45z"/>
		</clipPath>
	</defs>
	<style>
		tspan { white-space:pre } 
		.s0 { fill: #a7a9ac } 
		.s1 { fill: #d1d3d4 } 
		.s2 { fill: #f1f2f2 } 
		.s3 { fill: #bbdbf3 } 
		.s4 { fill: #808285 } 
		.s5 { fill: #ffffff } 
		.s6 { fill: #e6e7e8 } 
		.s7 { fill: #f74242 } 
		.s8 { fill: #bcbec0 } 
		.s9 { fill: #f73e3e } 
		.s10 { opacity: .1;fill: #1f3c88 } 
		.s11 { fill: #f9b384 } 
		.s12 { mix-blend-mode: multiply;fill: url(#g1) } 
		.s13 { fill: #151823 } 
		.s14 { fill: #282a35 } 
		.s15 { fill: #e28b6d } 
		.s16 { fill: #352836 } 
		.s17 { fill: #231f20 } 
		.s18 { fill: #eda472 } 
		.s19 { fill: #ff3700 } 
		.s20 { fill: #ff6e49 } 
		.s21 { fill: #d62929 } 
		.s22 { fill: #12123c } 
		.s23 { fill: #fdb3b1 } 
		.s24 { fill: #fc9492 } 
		.s25 { fill: #fad465 } 
		.s26 { fill: #eabf54 } 
		.s27 { fill: #29474b } 
		.s28 { fill: #9595c1 } 
		.s29 { fill: #fda271 } 
		.s30 { fill: #de7f50 } 
		.s31 { fill: #c1bfdf } 
		.s32 { fill: #964c38 } 
		.s33 { fill: #291912 } 
		.s34 { fill: #150a06 } 
		.s35 { fill: #486e73 } 
		.s36 { fill: #bbdae7 } 
		.s37 { fill: #7fb2c7 } 
		.s38 { fill: #d0e8f0 } 
		.s39 { fill: #e9f9ff } 
		.s40 { fill: #492d24 } 
		.s41 { fill: #1b0e09 } 
		.s42 { opacity: .5;mix-blend-mode: multiply;fill: #bcbec0 } 
		.s43 { fill: #102048 } 
		.s44 { fill: #e59b6a } 
		.s45 { fill: #172c56 } 
		.s46 { fill: #bababa } 
	</style>
	<g id="Layer 1">
		<g id="&lt;Group&gt;">
			<g id="&lt;Group&gt;">
				<path id="&lt;Path&gt;" class="s0" d="m117 347.9c3.4-5.6 14.7-7 19.9-2.4 78 67.9 100.5 189 100.5 189-193-33.9-142.7-148.9-120.4-186.6z"/>
				<path id="&lt;Path&gt;" class="s1" d="m220.6 526.3c0.4 0.3-0.2 0.7-0.7 0.5-16.8-9.6-80.2-55.8-91.3-144.8 0-0.2 0.6-0.3 0.7 0 5.4 20.6 28.9 97.1 91.3 144.3z"/>
			</g>
			<g id="&lt;Group&gt;">
				<path id="&lt;Path&gt;" class="s1" d="m47.4 463.9c-1-1.7 1-3.6 3.1-3 10.1 3.2 34.8 10.1 82.9 19 67.5 12.4 100.1 81 100.1 81-114.4 13-173.3-75-186.1-97z"/>
				<path id="&lt;Path&gt;" class="s0" d="m142 508.5c-2.8-1.2-0.6-4.9 2.2-3.8 44.6 17.1 75.3 47.6 75.3 47.6-29.2-20.5-56.8-34.6-77.5-43.8z"/>
			</g>
			<g id="&lt;Group&gt;">
				<path id="&lt;Path&gt;" class="s2" d="m312 157.8c0 15.8-2.4 31-6.9 45.4-5.8 18.7-15.2 36-27.3 50.9q0 0 0 0c-15.6 19.2-35.7 34.5-58.8 44.3q-5.6 2.4-11.4 4.3c-15.2 5.1-31.5 7.9-48.4 7.9-63.8 0-118.4-39.1-141.3-94.6-7.4-17.9-11.5-37.6-11.5-58.2 0-10.9 1.1-21.5 3.3-31.8q0.3-1.4 0.6-2.7c3.7-16.2 10-31.3 18.4-45.1 14.5-23.6 35.2-43.1 59.9-56q1.7-0.8 3.4-1.7 3.8-1.8 7.7-3.5c8.1-3.4 16.6-6.2 25.4-8.2 11-2.5 22.4-3.8 34.1-3.8q3.6 0 7.2 0.2c69.8 3.2 127.5 53.4 142 119.7q0.2 0.8 0.4 1.6c1.8 8.9 2.9 18.1 3.1 27.5q0.1 1.9 0.1 3.8z"/>
				<path id="&lt;Path&gt;" class="s3" d="m312 157.8c0 15.8-2.4 31-6.9 45.4-1.3-2.1-1.4-5.2-1.6-6.4-0.2-1.6-2.6 2.7-3 1.3-0.3-1.3 1.4-7.8-0.1-8.4-1.4-0.6-2.1 0.9-3.4 1.5-1.3 0.6-1.2 3.4-2.6 3.6-1.5 0.2-3.3 3.6-4.2 5.2-1 1.7-3.3 2.5-4.8 3.1-1.4 0.6-2.6 3.1-3.1 4.7-0.4 1.5-2.1 2.1-3.8 1.8-1.6-0.4 0.1-8.1 0.1-9.7 0-1.5-0.2-2.6-1.5-4-1.3-1.4-1.3-6.7-1.7-7.6-0.3-1-1-1.8-1.6-2.8-0.6-0.9 1-2.2 0.9-3.8-0.1-1.5 0.1-2.8 1.8-4 1.7-1.2 0.8-1.9 1.1-3.1 0.2-1.2 2.1-1.7 2.7-2.3 0.6-0.6-0.1-1.4 1.6-1.9 1.6-0.5 3.7-4.5 3.4-5.7-0.2-1.2 1-2.6 1.3-2.6 0.4 0 1-0.7 0.9-1.4-0.2-0.8-0.4-1.5 0.5-2.4 1-1 2.3-3 1.9-4.2-0.3-1.2 0.2-2.6 0.5-4.3 0.4-1.6 0.6-1.8 1.5-1.5 0.8 0.2 2 2.1 2.9 2.1 1 0 1.1-0.7 1-2.6-0.1-1.9-1.1-3.2-1-4.5 0.2-1.2 1.9-1.7 2.3-2.3 0.3-0.6 0.5-2.2 1.2-2 0.7 0.2 1.6 0 3.1 0.1 1.4 0.1-0.7 5.7 0 6.9 0.7 1.2 5.1 3.6 5.1 3.6 0 0 0.3-6.2-0.2-8.7-0.6-2.5-1-9.5-0.6-8.2 0.3 1.3 0.9 4 2.3 6.4 1.5 2.4 1.3 5.1 1.8 8 0.5 2.6 1.8 6.2 2.1 6.9q0.1 1.9 0.1 3.8z"/>
				<path id="&lt;Path&gt;" class="s1" d="m100.2 285.2c-3.1 0.7-12.2-2.3-17.1-6.2-4.9-3.7-24.3-18.5-27.1-19.9-2.9-1.5-5.4-11.5-8.3-16.2-2.8-4.8-7.7-10.2-10.3-12.4-2.5-2.2-6.5-7.3-7.6-9.8-1.1-2.6-4.6-5.9-6-6.5-1.5-0.7-1.3-6.7-3.8-7.3-1.6-0.4-2 4.8-2.1 9.1-7.4-17.9-11.5-37.6-11.5-58.2 0-10.9 1.1-21.5 3.3-31.8 1.5-1.7 3.5-2.7 8.2-3.5 4.7-0.8 0.8 2.8 0 4.9-0.9 2.1-0.8 3.6 0 6 0.7 2.4 6 3.2 8.9 4 2.9 0.8-0.5-3.4 0-6.4 0.5-3 5.9-0.9 7.3-0.3 1.4 0.7 5.2 0 6.8-0.1 1.6-0.2 3.8-1.5 7-2 3.2-0.4 1.9 1.8 0.9 4.3-0.9 2.6-1.1 3.4-0.8 6.1 0.4 2.7 5.4 10 6.4 10.7 0.9 0.8 1.9 2 2.5 4.5 0.7 2.5 1.3 6.2 2.6 6 1.2-0.1 1.5 2.6 4.7 5.3 0.8 0.6 1.4 1 2 1.3q1.4 4.2 3.1 8.3c4.4 10.7 10 20.7 16.5 30q-0.6 1-1.1 1.8c-1.9 2.8-2.2 10.4-1.1 12.2 1.1 1.7 2.2 3.1 4.1 6.2 1.9 3 2.9 1.7 4.8 2.8 1.9 1.1 4.3 6 6.3 8.6 2.1 2.5 2.4 5.4-0.5 6.7-2.8 1.2-2.7 6.5-3.3 8.7-0.6 2.2 3.5 2.4 4.5 4.6 0.9 2.2 3.1 2.2 3.4 3.5 0.4 1.2-3 4.1-2 5.5 0.9 1.4 4.1 4.6 3.3 6.7-0.8 2.1 0.5 5.5 1.1 8.4 0.6 2.9-1.9 3.8-5.1 4.4z"/>
				<path id="&lt;Path&gt;" class="s1" d="m95.6 176.3c-0.6 3.9-0.4 6.3-0.3 9.3 0.2 3-2.2 5.6-3.6 9-1.2 2.9-3.9 7.4-5.9 10.5-6.5-9.3-12.1-19.3-16.5-30q-1.7-4.1-3.1-8.3c1.8 1 2.9 0.6 4.1 0.7 1.5 0.2 3.3 3.8 4.7 6.2 1.4 2.4 4 3.3 5.1 4 1.1 0.6 2.4-1.4 4.8-2.9 2.3-1.4 3.4-1.9 5.8-3 2.4-1.1 2.6-3.2 4.6-3.3 2.1-0.2 1 3.8 0.3 7.8z"/>
				<path id="&lt;Path&gt;" class="s1" d="m82 34.3q-0.9 1.5-1.9 3c-8.4 13.8-14.7 28.9-18.4 45.1q-0.3 1.3-0.6 2.7c-2.1 10.2-3.3 20.9-3.3 31.8 0 11.5 1.3 22.8 3.7 33.7q-1-1.2-2-2.6c-2.6-3.3-6.1-7.1-7.4-10.6-1.3-3.5 0.4-5.1 0.8-8.9 0.5-3.8-0.4-4.3-0.7-5.4-0.3-1.1 2-9.7 1.6-10-1.9-1.1-5.4 2-8.3 3.5-2.8 1.6-5.9 0.7-6.9-1.2-0.9-1.9 1.8-3.2 3-7.5 1.2-4.2-1.8-2.7-3.2-2.6-1.4 0.1-2.5 1.6-4.7 4-2.3 2.3 0.3 6.4-0.8 8.9-1 2.5-2-1.5-3.3-3.8-1.3-2.4 0.1-2.6 0.6-6.6 0.5-3.9-0.4-6.5-2.2-10.2-1.7-3.7-2.9 7-5.8 7.7-2.8 0.7-3.2 4.2-4.9 7.1-1.6 2.8-1.3 5.3-2 7.7-0.6 2.1-2.5 3.6-5 3.2 3.7-16.2 10-31.3 18.4-45.1 4.7-0.5 6.7-3.6 7.9-3.7 1.3-0.1 2.5-0.3 5.7-1.3 3.3-1 0.9-1.9 1.3-2.9 0.4-1.1 4-1.5 5.7-2.1 1.7-0.6 0.6-2.1 1-5.1 0.4-3 1.5-1.2 3.5-2.4 1.9-1.1 2.4-1.9 2-2.5-0.4-0.5-2.8 1-3.3 0.2-0.6-0.7 0.9-3.4-0.1-3-0.9 0.5-2 2.4-2 4.2 0 1.9-1.7 2.7-3.1 5.4-1.5 2.7-2.1 2-4.2 2.4-2 0.4-2.7-0.3-3.9-0.4-1.1-0.1 1.2-2.5 3.1-4.9 2-2.4 3.1-4.4 5.5-6.3 2.4-1.8 2.1-3.1 4.3-5 2.1-1.9 5-4.5 8.8-6.4 3.8-1.9 4.8 0.5 4.8 0.5 0 0 1.7 1.3 5.7-3.2 3.9-4.4 1.9-1.9 5.5-3.6 3.3-1.6 3.6-2.3 5.1-3.8z"/>
				<path id="&lt;Path&gt;" class="s1" d="m239.9 133.4c0.1 1.1-3.2 1.9-6.9-0.9-3.6-2.7-5.5-2.4-8.2-4.2-2.7-1.7-4-2.7-6.4-6.8-2.3-4.1-1.7-5.5-2.8-8.5-1.1-3.1-3.7-1.5-4.8 0.4-1.1 1.9-4.9 1.3-7.4 0.5-2.6-0.8-2.6-3.5-7.2-5.9-4.6-2.4-6-0.6-9.6-0.3-3.7 0.3-7.2 4-9.9 5.4-2.7 1.4-1.9 2.5-2 4.9-0.2 2.4-4.3 8.6-6.6 10.6-2.2 2.1-0.3 2.6 1.6 6.1 1.9 3.5 1.8 2.2 1.3 4.6-0.5 2.4-1.6 4.3-1.7 7.6-0.2 3.3-1.5 5.4-3.2 5.4-1.8 0-4.5-3.5-6-6.8-1.6-3.4-4.7-4.3-9.6-7-4.9-2.7-3.3-3.7-5.7-7.9-2.4-4.3-3.9-5.8-4.6-3.9-0.6 1.9-3 0-7.3-0.7-4.3-0.8-4.6-3.2-8.2-5.4-3.7-2.3-6 1.1-8.3 1.8-2.2 0.6-5.4 2.8-7.9 3.9-2.6 1.1-6.5 0.3-9 0.8-2.6 0.4-6.7 0.1-9.9 0-3.2-0.2-4.3-2.7-7.4-4.7-3.2-2.1-4 0.2-5.3 1.5-1.2 1.3 0.6 2.1 3.2 4.4 2.4 2.4 3.5 1.8 6 4.2 2.6 2.3 4.9 4.1 7 1.7 2.1-2.4 3.3-1.9 6-1.7 2.7 0.1 6.4-1 8.1-0.8 1.8 0.1 1.6 5.4-0.1 8.4-1.8 3 0.8 7.3 0 8.1-0.8 0.8-3.5 1.1-5.3 2.5-1.7 1.4-2.7 3.3-5.8 4.4-3.2 1.2-2.6 3.2-3.2 5.4-0.6 2.3-4.8 4-8.4 6.1-3.7 2-4.5 5.8-6.9 6-2.3 0.1-1.5-3.8-2.6-7.6-1.2-3.8-5.9-3.2-8.1-7.2-1.7-3-3.4-5-5.3-7.2-2.4-10.9-3.7-22.2-3.7-33.7 0-10.9 1.2-21.6 3.3-31.8q0.3-1.4 0.6-2.7c3.7-16.2 10-31.3 18.4-45.1q1-1.5 1.9-3 0-0.1 0 0 0.3-0.3 0.6-0.7c2.1-2 4.2-1.9 7.3-1.9 3.2 0 4.9-0.6 7.8-2 2.9-1.5-0.6-4.3 1.3-7.2 1.9-2.8 7.3-1.7 9-3.2 1.8-1.4 3-2.5 6.5-3.6 3.5-1.1 5.3-2.1 7.3-3.8 0.8-0.7 2.1-1.9 3.3-3.1 11-2.5 22.4-3.8 34.1-3.8q3.6 0 7.2 0.2c1.7 1 3.3 1.7 4.1 1.8 2.7 0.1 4.2 0.6 8.4 2 4.3 1.5 4.2 2.4 5.7 3.8 1.6 1.5 2.3-0.1 6.4-1.2 4.1-1.1 3 2.5 8.4 3.1 5.4 0.7 9.8 5.7 13.2 7.8 3.3 2.1 4.1 2.2 2.7 4.8-1.5 2.5-1 3 0.1 5.7 1.1 2.7 3.7 1.7 5 2.1 1.2 0.4 3.7 2.2 5.8 3.3 2.1 1.1 3.5 4.1 2.4 5.5-1.1 1.5-4.8 0.2-5.1-2.5-0.3-2.7-3.5-2.4-6.2-5.2-2.7-2.8-2.8 0.7-3.9 2.3-1.2 1.6-2.1 1-4.2-1.4-2-2.4-1.9 0.3-3.1 2.4-1.3 2.1 0.6 3.3 2.5 4.9 1.9 1.6 2.4-0.3 3.3-0.9 1-0.7 2.9-2.4 2.4 0-0.5 2.3 0.7 4.4 2.4 3.4 1.7-0.9 2.2 1.3 4.3 3.7 2 2.4 4.3 2.8 7.9 4.3 3.7 1.4 2.2 3.2 3.5 6.6 1.3 3.5 2.2 7 2.1 10-0.2 3.1 0.3 4.6-2.1 7.8-2.4 3.2-2.7 3.5-6.8 5.1-4.1 1.6-1.6 0.2-3.4 0.9-1.7 0.8-1.4 2.6-1.8 5.9-0.5 3.3 1.2 2.7 3.7 4.8 2.6 2 5.3 1.6 8.8 2.7 3.5 1.1 3.3 2.2 4.6 4.7 1.2 2.6 1.6 3.7 0.1 5.7-1.4 2.1-0.6 4.3-0.4 7.5 0.1 3.2-2.4 2.7-3.1-1.6-0.6-4.3-2.2-1.3-4.6-1.3-2.3 0-3.4-1.9-6.3-2.7-2.8-0.8-2.4 0.5-4.1 2.9-1.8 2.4 1.4 5.2 2.4 7.8 0.9 2.5 3.9 2.2 8 3.5 4.2 1.2 3.4 0.8 5.8 3.6 2.3 2.9 4.4 3.5 4.6 4.6z"/>
				<path id="&lt;Path&gt;" class="s1" d="m124.4 256.8c-1.9 0.5-5.4-1.4-8.5-3-3-1.6-0.8-2.3-1-5.6-0.1-3.3-2-3.5-3.7-5.1-1.8-1.6-3-3.4-4.1-5.1-0.9-1.4 1.1-3.2 4.2-5q6 5.2 12.6 9.7 0.3 1 0.5 2.1c0.3 2.8 2.3 5.1 2.7 8.1 0.4 2.9-0.9 3.3-2.7 3.9z"/>
				<path id="&lt;Path&gt;" class="s3" d="m123.9 242.7q-6.6-4.5-12.6-9.7 0.8-0.6 1.8-1.1c4.1-2.2-1.4-7.8 1.8-7.6 2.3 0.2 2.6 1.4 3.8 3.1 1.1 1.8 2.4 2.7 3.4 4.6 0.9 1.9 0.3 2.8 0.4 5.4 0.1 1.9 0.9 3.5 1.4 5.3z"/>
				<path id="&lt;Path&gt;" class="s1" d="m215.2 135.4c-0.9-2.6 5.3-3.2 7.6-1.6 2.4 1.5 4 3.4 7.3 4 3.3 0.6 3.7 0.5 5.7 0 2-0.5 4.8-2.8 5.1-0.5 0.4 2.4-0.8 4 1.2 4.7 2 0.7 4.4 0.7 6.1 1.5 1.7 0.9 1.3 0.7 1.8 2.6 0.4 1.9 1.6 5.3-0.3 5.3-1.9 0-3.5-1.2-7.5-1.7-3.9-0.5-4.7-0.3-7.5-3-2.7-2.6 0.2-1.9-4.7-3.4-4.9-1.6-5.7-3.3-8.5-5-2.7-1.7-5.4-0.5-6.3-2.9z"/>
				<path id="&lt;Path&gt;" class="s3" d="m258.8 146.3c3-1.1 3.2-1.1 5.3-1.8 2.2-0.7 5.5 1.9 3.5 1.6-2-0.2-2.6 2.7-5.1 3.1-2.5 0.5-2.1 0-4.2 0.6-2.1 0.6-4.5 3.9-5.6 1.6-0.9-2 3.1-4.1 6.1-5.1z"/>
				<path id="&lt;Path&gt;" class="s3" d="m308.8 126.5c-0.9-0.4-1.7-0.8-1.8-1-0.3-0.6-1.5-3.4-2.5-4.1-1-0.8-0.5 2.1-0.1 3.8 0.5 1.8 0.3 2.5-0.5 2-0.9-0.4-1.4-0.3-2.3 0.6-1 0.9-1.7 0.7-1.2-3 0.5-3.8-1-3.6-3.4-4.6-1.4-0.6-3.1-0.4-4.8-0.7-1.7-0.2-2.9-1.4-3.9-3-0.9-1.6 1.1-3.2 2.5-3.3 1.4-0.2 0.8 2.4 3.6 3.9 2.7 1.6 0.4-1.7 0.7-4.5 0.2-2.9 2.6-0.8 5.3-0.4 2.7 0.3 2.5 3 3.4 4.9 0.9 1.8 1.6 2.8 2.1 4.6 0.3 0.8 1.4 2 2.5 3.2q0.2 0.8 0.4 1.6z"/>
				<path id="&lt;Path&gt;" class="s3" d="m255.9 123.8c0.9-1.5-0.7-4.7 1.2-6.1 1.8-1.3 2-2.9 1.7-5.2-0.3-2.4 2-2.4 4.8-3.1 2.8-0.7 1.9 1.1 1.2 2.4-0.6 1.2-1.2 2.3-1.1 4.2 0.2 2 2 2.3 3.4 2.6 1.3 0.3 3 0.8 1.1 2.2-1.9 1.4 0 1.9 0.9 3.3 0.8 1.5-0.8 4.2-0.9 6.4 0 2.1 0.4 2.4-0.5 5.1-0.9 2.7-2.3 0.1-4.9 0-2.6-0.2-2.6 1.1-4.1 2.2-1.4 1.1-2.3 0.5-2.8-0.6-0.6-1-1.7-2.6-2.8-3.7-1.1-1.1-2.9-2.9-2.1-5.3 0.6-1.4 3.9-2.9 4.9-4.4z"/>
				<path id="&lt;Path&gt;" class="s1" d="m230.6 29.2c1.9 2 3.1 1.4 4.7 3.3 1.7 1.9 1.5 4.2 0.6 5.6-0.8 1.4-0.6 2.4 1 5.4 1.5 2.9 1.5 5.1-0.3 2.8-1.7-2.3-4-1.7-5.8-1.7-1.8 0 0.4-1.7-0.3-3.8-0.8-2 0.1-1.5 1.6-4.8 1.6-3.4-2.1-3.1-3.8-5.8-1.6-2.6-7.8-3.9-5.1-4.4 1.5-0.2 5.5 1.4 7.4 3.4z"/>
				<path id="&lt;Path&gt;" class="s1" d="m177.2 145.5c1.3 1.4 2.1 1.5 3.8 3.4 1.7 2-1.6 3.3-2.7 4.2-1 1-2.9-1-4.2-2.4-1.4-1.3-0.2-2.2-0.9-3.7-0.6-1.4-1.7-3.6 0-4.3 1.8-0.8 2.7 1.4 4 2.8z"/>
				<path id="&lt;Path&gt;" class="s3" d="m270 119c-0.8-1.1 1.1-1.2 3.1-2.6 2-1.3 2.1-0.9 4.6-3.5 2.5-2.7 2.2 1.1 1.9 2.9-0.3 1.8-2.6 1.7-5.3 2.5-2.7 0.8-2.1 1.8-1.6 4.1 0.5 2.3 1.7-0.3 4.8-2.4 3.2-2.1 0.5 2.1-0.8 3.8-1.2 1.6 2.1 4.1 1.9 5.4-0.3 1.3-1.4 0.2-2.4-2-1-2.1-1.5 3.8-2.6 3.8-1 0-0.9-1.7-0.3-4.1 0.5-2.4-1.1-2.5-1.4-5.9-0.1-1.6-1.1-0.9-1.9-2z"/>
				<path id="&lt;Path&gt;" class="s3" d="m252.6 80.2c1.3 1.2 0.7 3.5 2.3 5.9 1.5 2.5 2.3 2.2 3.5 1.4 1.3-0.9 1-1 3.5 0 2.5 0.9 2.8 1.6 5.2 3.2 2.4 1.5 0.1 3.2-0.5 2.2-0.6-1.1-1.9-1-3.1-2.2-1.2-1.2-3.5-1.9-3.4-0.2 0 1.6-1.8 3.3-2.3 1.7-0.5-1.5-2.7-2.2-4.6-4-1.9-1.8-2.2-3.7-3.6-5.4-1.4-1.6-1.7-3.2 0.6-3.3 2.4-0.1 1.1-0.5 2.4 0.7z"/>
			</g>
			<path id="&lt;Compound Path&gt;" fill-rule="evenodd" class="s4" d="m496.7 107.6v422.3c0 28.8-23.6 52.4-52.4 52.4h-181.8c-28.9 0-52.4-23.6-52.4-52.4v-422.3c0-28.8 23.5-52.4 52.4-52.4h181.8c28.8 0 52.4 23.6 52.4 52.4zm-37.5-0.4c0-8.3-6.7-15-14.9-15h-181.8c-8.3 0-15 6.7-15 15v9.6h211.7z"/>
			<path id="&lt;Compound Path&gt;" fill-rule="evenodd" class="s5" d="m478 107.2v422.3c0 18.5-15.2 33.7-33.7 33.7h-181.8c-18.6 0-33.7-15.2-33.7-33.7v-422.3c0-18.6 15.1-33.7 33.7-33.7h181.8c18.5 0 33.7 15.1 33.7 33.7zm-18.8 0c0-8.3-6.7-15-14.9-15h-181.8c-8.3 0-15 6.7-15 15v9.6h211.7z"/>
			<g id="&lt;Group&gt;">
				<path id="&lt;Path&gt;" class="s6" d="m459.2 107.2v9.6h-211.7v-9.6c0-8.3 6.7-15 15-15h181.8c8.2 0 14.9 6.7 14.9 15z"/>
			</g>
			<path id="&lt;Path&gt;" class="s5" d="m459.2 116.8v412.7c0 8.2-6.7 14.9-14.9 14.9h-181.8c-8.3 0-15-6.7-15-14.9v-412.7z"/>
			<path id="&lt;Path&gt;" class="s0" d="m274.2 104.5c0 3.4-2.8 6.1-6.1 6.1-3.4 0-6.1-2.7-6.1-6.1 0-3.3 2.7-6.1 6.1-6.1 3.3 0 6.1 2.8 6.1 6.1z"/>
			<path id="&lt;Path&gt;" class="s5" d="m291.3 104.5c0 3.4-2.7 6.1-6.1 6.1-3.3 0-6.1-2.7-6.1-6.1 0-3.3 2.8-6.1 6.1-6.1 3.4 0 6.1 2.8 6.1 6.1z"/>
			<path id="&lt;Path&gt;" class="s7" d="m308.5 104.5c0 3.4-2.7 6.1-6.1 6.1-3.3 0-6.1-2.7-6.1-6.1 0-3.3 2.8-6.1 6.1-6.1 3.4 0 6.1 2.8 6.1 6.1z"/>
			<path id="&lt;Path&gt;" class="s6" d="m347.5 367.1h-84.9v-6.2h84.9z"/>
			<g id="&lt;Group&gt;">
				<g id="&lt;Group&gt;">
					<path id="&lt;Path&gt;" class="s8" d="m599.1 248.2h-242.3v-119.5h242.3z"/>
				</g>
				<g id="&lt;Group&gt;">
					<path id="&lt;Path&gt;" class="s5" d="m451.4 146.3h-82.9v-4.8h82.9z"/>
					<path id="&lt;Path&gt;" class="s5" d="m537.6 146.3h-82.9v-4.8h82.9z"/>
					<path id="&lt;Path&gt;" class="s5" d="m587.4 146.3h-47v-4.8h47z"/>
					<path id="&lt;Path&gt;" class="s5" d="m421.1 156.2h-52.6v-4.8h52.6z"/>
					<path id="&lt;Path&gt;" class="s5" d="m499.3 156.2h-75.4v-4.8h75.4z"/>
					<path id="&lt;Path&gt;" class="s5" d="m587.4 156.2h-86v-4.8h86z"/>
					<path id="&lt;Path&gt;" class="s5" d="m440.2 166.1h-71.7v-4.8h71.7z"/>
					<path id="&lt;Path&gt;" class="s5" d="m514.5 166.1h-71.7v-4.8h71.7z"/>
					<path id="&lt;Path&gt;" class="s5" d="m587.4 166.1h-70.6v-4.8h70.6z"/>
					<path id="&lt;Path&gt;" class="s5" d="m410 176h-41.5v-4.9h41.5z"/>
					<path id="&lt;Path&gt;" class="s5" d="m483.1 176h-70.4v-4.9h70.4z"/>
					<path id="&lt;Path&gt;" class="s5" d="m556.3 176h-70.4v-4.9h70.4z"/>
					<path id="&lt;Path&gt;" class="s5" d="m587.4 176h-28.6v-4.9h28.6z"/>
					<path id="&lt;Path&gt;" class="s5" d="m451.4 186.4h-82.9v-4.9h82.9z"/>
					<path id="&lt;Path&gt;" class="s5" d="m537.6 186.4h-82.9v-4.9h82.9z"/>
					<path id="&lt;Path&gt;" class="s5" d="m587.4 186.4h-47v-4.9h47z"/>
					<path id="&lt;Path&gt;" class="s5" d="m421.1 196.2h-52.6v-4.8h52.6z"/>
					<path id="&lt;Path&gt;" class="s5" d="m499.3 196.2h-75.4v-4.8h75.4z"/>
					<path id="&lt;Path&gt;" class="s5" d="m587.4 196.2h-86v-4.8h86z"/>
					<path id="&lt;Path&gt;" class="s5" d="m440.2 206.1h-71.7v-4.8h71.7z"/>
					<path id="&lt;Path&gt;" class="s5" d="m514.5 206.1h-71.7v-4.8h71.7z"/>
					<path id="&lt;Path&gt;" class="s5" d="m587.4 206.1h-70.6v-4.8h70.6z"/>
					<path id="&lt;Path&gt;" class="s5" d="m410 216h-41.5v-4.8h41.5z"/>
					<path id="&lt;Path&gt;" class="s5" d="m482.4 216h-70.5v-4.8h70.5z"/>
					<path id="&lt;Path&gt;" class="s5" d="m555.6 216h-70.4v-4.8h70.4z"/>
					<path id="&lt;Path&gt;" class="s5" d="m586.7 216h-28.6v-4.8h28.6z"/>
					<path id="&lt;Path&gt;" class="s5" d="m410 226.2h-41.5v-4.9h41.5z"/>
					<path id="&lt;Path&gt;" class="s5" d="m482.4 226.2h-70.5v-4.9h70.5z"/>
					<path id="&lt;Path&gt;" class="s5" d="m555.6 226.2h-70.4v-4.9h70.4z"/>
					<path id="&lt;Path&gt;" class="s5" d="m586.7 226.2h-28.6v-4.9h28.6z"/>
					<path id="&lt;Path&gt;" class="s5" d="m450 235.4h-81.5v-4.9h81.5z"/>
				</g>
			</g>
			<g id="&lt;Group&gt;">
				<g id="&lt;Group&gt;">
					<path id="&lt;Path&gt;" class="s8" d="m599.1 483.9h-242.3v-80.5h242.3z"/>
				</g>
				<g id="&lt;Group&gt;">
					<path id="&lt;Path&gt;" class="s5" d="m451.4 421.1h-82.9v-4.9h82.9z"/>
					<path id="&lt;Path&gt;" class="s5" d="m537.6 421.1h-82.9v-4.9h82.9z"/>
					<path id="&lt;Path&gt;" class="s5" d="m587.4 421.1h-47v-4.9h47z"/>
					<path id="&lt;Path&gt;" class="s5" d="m421.1 431h-52.6v-4.9h52.6z"/>
					<path id="&lt;Path&gt;" class="s5" d="m499.3 431h-75.4v-4.9h75.4z"/>
					<path id="&lt;Path&gt;" class="s5" d="m587.4 431h-86v-4.9h86z"/>
					<path id="&lt;Path&gt;" class="s5" d="m440.2 440.9h-71.7v-4.9h71.7z"/>
					<path id="&lt;Path&gt;" class="s5" d="m514.5 440.9h-71.7v-4.9h71.7z"/>
					<path id="&lt;Path&gt;" class="s5" d="m587.4 440.9h-70.6v-4.9h70.6z"/>
					<path id="&lt;Path&gt;" class="s5" d="m410 450.8h-41.5v-4.9h41.5z"/>
					<path id="&lt;Path&gt;" class="s5" d="m483.1 450.8h-70.4v-4.9h70.4z"/>
					<path id="&lt;Path&gt;" class="s5" d="m556.3 450.8h-70.4v-4.9h70.4z"/>
					<path id="&lt;Path&gt;" class="s5" d="m587.4 450.8h-28.6v-4.9h28.6z"/>
					<path id="&lt;Path&gt;" class="s5" d="m451.4 461.1h-82.9v-4.9h82.9z"/>
					<path id="&lt;Path&gt;" class="s5" d="m537.6 461.1h-82.9v-4.9h82.9z"/>
					<path id="&lt;Path&gt;" class="s5" d="m587.4 461.1h-47v-4.9h47z"/>
					<path id="&lt;Path&gt;" class="s5" d="m421.1 471h-52.6v-4.9h52.6z"/>
				</g>
			</g>
			<g id="&lt;Group&gt;">
				<g id="&lt;Group&gt;">
					<path id="&lt;Path&gt;" class="s9" d="m599.1 322.4h-242.3v-54.1h242.3z"/>
				</g>
				<g id="&lt;Group&gt;">
					<path id="&lt;Path&gt;" class="s5" d="m451.4 282.9h-82.9v-4.9h82.9z"/>
					<path id="&lt;Path&gt;" class="s5" d="m537.6 282.9h-82.9v-4.9h82.9z"/>
					<path id="&lt;Path&gt;" class="s5" d="m587.4 282.9h-47v-4.9h47z"/>
					<path id="&lt;Path&gt;" class="s5" d="m421.1 292.8h-52.6v-4.9h52.6z"/>
					<path id="&lt;Path&gt;" class="s5" d="m499.3 292.8h-75.4v-4.9h75.4z"/>
					<path id="&lt;Path&gt;" class="s5" d="m587.4 292.8h-86v-4.9h86z"/>
					<path id="&lt;Path&gt;" class="s5" d="m440.2 302.7h-71.7v-4.9h71.7z"/>
					<path id="&lt;Path&gt;" class="s5" d="m514.5 302.7h-71.7v-4.9h71.7z"/>
					<path id="&lt;Path&gt;" class="s5" d="m587.4 302.7h-70.6v-4.9h70.6z"/>
					<path id="&lt;Path&gt;" class="s5" d="m410 312.6h-41.5v-4.9h41.5z"/>
				</g>
			</g>
			<path id="&lt;Path&gt;" class="s6" d="m347.5 226.4h-84.9v-6.2h84.9z"/>
			<path id="&lt;Path&gt;" class="s6" d="m347.5 503.1h-84.9v-6.2h84.9z"/>
			<path id="&lt;Path&gt;" class="s10" d="m179.4 580.6c0 6.2-37.3 11.3-83.3 11.3q-5.6 0-11.1-0.1c0 0-13.7-0.2-13.8-0.4-33.8-1.4-58.3-5.7-58.3-10.8 0-6.3 37.3-11.4 83.2-11.4 46 0 83.3 5.1 83.3 11.4z"/>
			<g id="&lt;Group&gt;">
				<path id="&lt;Path&gt;" class="s6" d="m92.9 251.6c0.9-1.8 1.6-3.3 3.6-3.1 2 0.3 22.1 3.6 22.7 7.2 0.6 3.6-4.5 7.2-7.8 7.7-3.4 0.5-18.5-11.8-18.5-11.8z"/>
				<g id="&lt;Group&gt;">
					<g id="&lt;Group&gt;">
						<path id="&lt;Path&gt;" class="s11" d="m118.6 236.5c-0.9 4.7-2.2 14-0.3 17.9 1.9 3.9-2.2 12.1-8.2 12.7-20.7 2-17.2-16.3-17.2-16.3 0 0 1.1-0.5 1.9-2.9q0.1-0.2 0.1-0.5c0.8-2.8 1.5-8.4 1.5-20.1 0-3.6 22.2 9.2 22.2 9.2z"/>
						<g id="&lt;Group&gt;">
							<path id="&lt;Path&gt;" class="s12" d="m118.3 245.7c-2 3-11 17.6-14.9 17.7-3.2 0-11.9-6.4-13.9-8.6 8.6-4.2 7-23.7 7-24.5 0 0 19.6 11.5 21.8 15.4z"/>
						</g>
					</g>
					<g id="&lt;Group&gt;">
						<path id="&lt;Path&gt;" class="s11" d="m121.8 236.2c-3.5 8-9.7 15.4-16.2 14.3-2.6-0.4-4.8-1.9-6.6-4.1q-0.1 0-0.1-0.1-0.7-0.8-1.4-1.9-0.2-0.3-0.4-0.7-0.4-0.6-0.7-1.2-0.3-0.6-0.6-1.2-0.1-0.3-0.2-0.6c-0.9-2.3-2.7-6-3.1-8.6-0.8-0.4-2.4-3-2.5-6.3-0.2-3.6-0.4-6.4 2.2-6.2 0.3 0-0.5-2.8-0.3-2.7 1.3-8.1 5.6-12 15.2-12.4q0 0 0 0.1c1.6-0.1 3.4 0 5.4 0.3 13.4 2 14.1 10.1 12.9 19.5 2.4 0.7 1.7 3.6 1 7.3-0.6 2.8-2.6 3.8-4.6 4.5z"/>
						<g id="&lt;Group&gt;">
							<path id="&lt;Path&gt;" class="s13" d="m123.1 230.9c0 0-2.7 14.6-4.4 17.1-1.6 2.4-8.2 6.3-10.9 7-1 0.3-4.6-0.3-4.6-0.3 0 0-0.5-8.3 0.5-8.3 3.3-0.3 6.1-1 7.4-1.6 1.2-0.6 4.7-2.7 5.7-4.1 2-2.9 6-13.3 6-13.3z"/>
						</g>
						<g id="&lt;Group&gt;">
							<path id="&lt;Path&gt;" class="s13" d="m93.1 222.5c0.7 0.9 0.3 14.3 3.7 18 3.8 4 9.6 5.5 9.6 5.5 0 0-2.4 8.6-3.2 8.7-0.7 0.2-9.3-7.6-10-9.3-0.7-1.6-1.6-12.8-1.3-13.7 0 0 0.5-10.1 1.2-9.2z"/>
						</g>
					</g>
					<g id="&lt;Group&gt;">
						<path id="&lt;Path&gt;" class="s14" d="m126.2 209.6c0.5 2.8-0.4 9.2-0.6 11.4-0.1 2.3-1 6.3-3 11.2 0.5-4.3-0.6-8.5-1.2-10-0.7-1.6-3-4.4-1.8-8.7-3.3 1.8-10.6 1-14 0.3-2.8-0.6-7.2-2.4-8.1-3.1 0.2 2.5-4.2 15.1-4.7 19.6 0-1.7-1.6-4.8-1.7-10.3-0.1-2.5-0.5-12.4 2.2-16.9 2-3.5 5-5.4 5.7-5.8 6.9-3.3 12 2 16.1 2.8 4 0.8 8.3 0.4 7.6 5.8 0.9-0.2 3 0.9 3.5 3.7z"/>
					</g>
					<g id="&lt;Group&gt;">
						<path id="&lt;Path&gt;" class="s15" d="m106 231.2q0 0.6 0 1.2-0.1 1.2-0.6 2.3l-0.2-0.5q0.4 0.5 0.8 1c0.2 0.4 0.4 0.8 0.6 1.2-0.4-0.2-0.8-0.4-1.1-0.6q-0.6-0.4-1.1-0.8l-0.2-0.2 0.1-0.4q0-1.2 0.3-2.3 0.2-0.6 0.5-1.1 0.3-0.6 0.7-1.1 0.2 0.7 0.2 1.3z"/>
						<path id="&lt;Path&gt;" class="s15" d="m102.1 241.3c1.8 2.5 4.7 2.2 7.6 0.7 0 0-4 0.6-7.6-0.7z"/>
						<g id="&lt;Group&gt;">
							<path id="&lt;Path&gt;" class="s16" d="m96.6 224.6c0 0 0.2-0.5 0.8-1.1 0.3-0.3 0.7-0.7 1.2-1q0.3-0.2 0.8-0.3c0.3-0.1 0.5-0.2 0.9-0.2h0.4l0.5 0.1c0.3 0 0.5 0.1 0.8 0.2 0.3 0.1 0.5 0.3 0.7 0.4 0.2 0.1 0.4 0.3 0.6 0.5 0.3 0.2 0.5 0.6 0.6 0.8q0.2 0.3 0.2 0.3 0 0-0.4-0.2c-0.2-0.1-0.4-0.3-0.8-0.5-0.2-0.1-0.3-0.2-0.5-0.3-0.3 0-0.5-0.1-0.7-0.2-0.2 0-0.4-0.1-0.7-0.1h-0.3-0.4c-0.2 0-0.4 0.1-0.7 0.1-0.2 0.1-0.4 0.1-0.6 0.2q-0.4 0.2-0.7 0.3-0.3 0.2-0.5 0.3c-0.7 0.4-1.2 0.7-1.2 0.7z"/>
						</g>
						<g id="&lt;Group&gt;">
							<path id="&lt;Path&gt;" class="s16" d="m111.5 224.6c0 0 0.2-0.5 0.8-1.1 0.3-0.3 0.6-0.7 1.1-1q0.4-0.2 0.8-0.3c0.3-0.1 0.6-0.2 0.9-0.2h0.5l0.4 0.1c0.3 0 0.6 0.1 0.9 0.2 0.2 0.1 0.5 0.3 0.7 0.4 0.2 0.1 0.3 0.3 0.5 0.5 0.3 0.2 0.5 0.6 0.6 0.8q0.2 0.3 0.2 0.3 0 0-0.3-0.2c-0.2-0.1-0.5-0.3-0.8-0.5-0.2-0.1-0.4-0.2-0.6-0.3-0.2 0-0.4-0.1-0.6-0.2-0.2 0-0.5-0.1-0.7-0.1h-0.3-0.4c-0.2 0-0.5 0.1-0.7 0.1-0.2 0.1-0.5 0.1-0.7 0.2q-0.3 0.2-0.6 0.3-0.3 0.2-0.6 0.3c-0.7 0.4-1.1 0.7-1.1 0.7z"/>
						</g>
					</g>
					<g id="&lt;Group&gt;">
						<path id="&lt;Path&gt;" class="s13" d="m115.4 244.8l-4.2 0.6-1.7-4.6-6.9-0.7-2.3 4.8-3.7-3.8 3.2-3.8 6.5-0.3 6.7 1.4 2.6 3.6z"/>
					</g>
					<path id="&lt;Path&gt;" class="s13" d="m107.5 242.9l1.3 4.2c0 0-3.9 0.8-4 0.8-0.2 0-2-1.8-2-1.8l0.9-3.4c0 0 1.4 1 3.8 0.2z"/>
					<path id="&lt;Path&gt;" class="s13" d="m114.4 225.7c0.5 0 0.9 0.4 0.9 0.9 0 0.5-0.4 0.9-0.9 0.9-0.5 0-0.9-0.4-0.9-0.9 0-0.5 0.4-0.9 0.9-0.9z"/>
					<path id="&lt;Path&gt;" class="s13" d="m101.1 225.5c0.5 0 0.9 0.4 0.9 0.9 0 0.4-0.4 0.8-0.9 0.8-0.5 0-0.9-0.4-0.9-0.8 0-0.5 0.4-0.9 0.9-0.9z"/>
				</g>
				<g id="&lt;Group&gt;">
					<path id="&lt;Path&gt;" class="s5" d="m73.5 565.7c0 0.2-0.6 1.6-0.7 1.9-0.1 0.2-1.8 1-3.2 1.7-1.5 0.7-4 1.4-4.4 1.4-0.3 0-5.1-1-5.1-1l-1.7-8.2 3.7-11.3c10.3-0.2 14.3 3.2 14.3 3.2l-2.5 9c0 0-0.4 3-0.4 3.3z"/>
					<g id="&lt;Group&gt;">
						<path id="&lt;Path&gt;" class="s4" d="m36.5 579.8c0.9-0.8 9.5-7.8 11.9-9.8 2.4-1.9 6.9-7.3 7.9-9 1-1.7 2.6-3.3 4.3-3.6 1.8-0.2 4.7 0.6 5.8 1.7 1.1 1 2.5 4.6 3.2 5.4 0.6 0.7 3 0.2 4.3-2.1 2.1 2.5 0.7 9.2 0.6 10.4-1.4 1.4-5.7 3.3-7.9 3.5-2.2 0.2-5.3 2.9-8.1 5.1-2.8 2.2-10.8 2.9-14.2 2.2-3.5-0.7-7.4-1.7-8.2-3.4q0.2-0.3 0.4-0.4z"/>
						<path id="&lt;Path&gt;" class="s17" d="m74.8 578.2c-0.8 1.2-6.9 2.8-8.3 2.9-1.5 0.1-7 4.5-8.9 5.7-2 1.2-10.4 2.1-13.9 1.7-2.4-0.2-4.8-1.3-6.3-2.4q-0.8-0.5-1.2-1.1-0.1-0.3-0.2-0.5c-0.4-1.3-0.5-3.3 0.1-4.3 0.8 1.7 4.3 2.6 7.7 3.3q0.2 0.1 0.5 0.1c3.4 0.7 11.4 0 14.2-2.2 2.8-2.2 5.9-4.9 8.1-5.1 1.5-0.1 4.2-1.1 6-2.2 0.8-0.5 1.5-0.9 1.9-1.4 1 1.2 1 4.4 0.3 5.5z"/>
					</g>
				</g>
				<g id="&lt;Group&gt;">
					<path id="&lt;Path&gt;" class="s5" d="m107.9 557.3l-2.5-9c0 0 4-3.4 14.3-3.3l3.8 11.3-1.8 8.3c0 0-4.7 1-5.1 1-0.4 0-2.9-0.8-4.3-1.5-1.5-0.7-3.2-1.4-3.3-1.7-0.1-0.3-0.7-1.6-0.7-1.9 0-0.3-0.4-3.2-0.4-3.2z"/>
					<g id="&lt;Group&gt;">
						<path id="&lt;Path&gt;" class="s4" d="m145.7 575c-0.8 1.8-4.7 2.8-8.1 3.4-3.5 0.7-11.5 0-14.3-2.2-2.8-2.2-5.9-4.9-8.1-5.1-2.2-0.2-6.5-2.1-7.9-3.5-0.1-1.2-1.5-7.9 0.6-10.3 1.3 2.3 3.7 2.8 4.3 2 0.7-0.8 2.2-4.3 3.2-5.4 1.1-1 4.1-1.9 5.8-1.6 1.7 0.3 3.4 1.8 4.3 3.5 1 1.8 5.5 7.1 7.9 9.1 2.4 1.9 11 8.9 12 9.7q0.2 0.2 0.3 0.4z"/>
						<path id="&lt;Path&gt;" class="s17" d="m107.3 567.6c0.4 0.4 1.1 0.9 1.9 1.3 1.9 1.1 4.5 2.1 6 2.2 2.2 0.2 5.3 2.9 8.1 5.1 2.8 2.2 10.8 2.9 14.3 2.2q0.2 0 0.5-0.1c3.3-0.6 6.8-1.6 7.6-3.3 0.6 1 0.6 3 0.1 4.3q0 0.3-0.2 0.5-0.4 0.6-1.2 1.1c-1.4 1.2-3.9 2.2-6.3 2.5-3.5 0.3-11.9-0.6-13.8-1.8-2-1.1-7.5-5.6-9-5.7-1.4-0.1-7.5-1.7-8.2-2.8-0.8-1.2-0.7-4.4 0.2-5.5z"/>
					</g>
				</g>
				<g id="&lt;Group&gt;">
					<path id="&lt;Path&gt;" class="s11" d="m137.5 272.7c4.1 1.6 19.3 37.5 21.3 38 0.8 0.3 19.6-0.7 34.5 0.6 0 0 0.9 7.4 0.2 7.6-13.3 3.5-13.2 6.5-29.4 8.6-6.7 0.9-11.6 0.2-13.2 0-1.5-0.2-8.9-7.9-10.1-11.7 0 0-7.4-44.7-3.3-43.1z"/>
					<g id="&lt;Group&gt;">
						<g id="&lt;Group&gt;">
							<path id="&lt;Path&gt;" class="s2" d="m147.6 327.6c-3.4-1-17.6-16.1-18.1-21.1-0.5-4.9 7.2-39.4 7.2-39.4 1.5 0.5 4.9 4.5 6.6 11.5 0.7 2.9 11.7 27.4 13.3 30.1 1.1 2-9 18.9-9 18.9z"/>
						</g>
						<path id="&lt;Path&gt;" class="s6" d="m143.5 325c0 0-10.6-11.2-11.2-13.3-0.6-2.1 1.1-11.9 1.1-11.9 0 0 4.7 9 4.9 7 0.1-2.1 2.6-4.7 2.6-4.7l1.1 12.9c0 0 1.8-16.7 2.5-13.1 0.8 3.6-2 17.2-0.3 20.9z"/>
					</g>
					<g id="&lt;Group&gt;">
						<path id="&lt;Path&gt;" class="s18" d="m202.6 309.5c2.7-0.6 12.8-0.4 12.9 0.7 0.2 1.2-6.2 1-9.3 1.9 0 0 8.9-1 8.8 0.1-0.1 1.9-9.2 1.4-9.2 1.4 0 0 6.8-0.1 6.9 0.8 0.2 1.4-6.4-0.1-15.2 3.7-2.3 0.9 5.1-8.6 5.1-8.6z"/>
						<path id="&lt;Path&gt;" class="s11" d="m193.2 310.6c2.9-1.5 9.3-2.8 9.3-2.8l6.6-0.6 5.6 0.1c0 0 1 1.5-2.1 1.9-0.9 0.2-3.7 0.2-4.9 0.6-2.7 0.8-5 1.9-6.3 4-2 3.1 4.1 4.4 6.4 6.1 1 0.8 0.4 1.5-2.6 0.8-4.2-1.1-9.8 1.3-15.8-1.7-6-3-6.3-4.7-3.9-5.4 2.3-0.6 7.7-3 7.7-3z"/>
					</g>
					<path id="&lt;Path&gt;" class="s6" d="m158.7 309.8c-3.9 0.4-10.3 15-10 19.3-3.8 0-8.8-6.9-8.8-6.9 0 0 14.3-19.5 16.9-18.9 2.6 0.7 1.9 6.5 1.9 6.5z"/>
				</g>
				<g id="&lt;Group&gt;">
					<g id="&lt;Group&gt;">
						<path id="&lt;Path&gt;" class="s13" d="m135.1 358.2c2.1 6.4 3 14.5 3 16.1 0.2 10.5 0.3 19.7 0.3 24.5 0 5.3-1.3 64.1-5.3 77.4-3.9 13.2-4.9 65.9-2.2 69.9 2.6 4 1.9 15.4 1.9 15.4 0 0-27.1-2.7-27.8 2.6 0 0-1-5.6-1.6-17.2-1.3-22.9-1.5-39.1 1.1-70.6 1.8-22.7 0.5-53.5 0.5-61.4 0-6-13.2 58.6-18.5 77.1 0 0-8.7 39.2-6.5 56.2 2 15.4-2.7 19.4-2.7 19.4 0 0-16.6-8.5-25.8-3.3-0.4-5.2-1-5.9 0.2-15.4 1.5-11.9 4.3-40.6 9.4-63 4.4-19.3 4.5-63.8 5.8-87.6 1.3-23.8 9.9-44.7 12.6-49.5 2.7-4.7 55.6 9.4 55.6 9.4z"/>
					</g>
					<g id="&lt;Group&gt;">
						<path id="&lt;Path&gt;" class="s14" d="m138.1 390.3c1.5 8.5-2.7 84.9-6.6 97.8-4 12.9 0 48.6 0.6 53.8 0.7 5.3 1.9 13.6 0.9 14.1-1 0.5-20.2 0-20.2 0 0 0 11.2-3.8 11.2-5.3 0-1.5-6.6 0-15.4 4-3.2 1.5 13-12.6 13-15.1 0-2.4-0.5-37.6 0.9-44.6 1.5-6.9 3.4-14.7 6.4-26.6 2.9-11.9 6.7-39.5 7.7-66.6 0 0 0-19.9 1.5-11.5z"/>
					</g>
					<g id="&lt;Group&gt;">
						<path id="&lt;Path&gt;" class="s14" d="m96.2 452.8c-2 13.9-5.2 26.8-10.2 42.7-4.9 15.9-6 46.3-6 52.7 0 6.5-1 14.9-1 14.9l-16.9-8.9c0 0 13.4 1 12.9-1.5-0.5-2.5-5.4-1.5-10.4-2-1.5-6.9 9.7-46.6 11.7-49.1 1.9-2.5 6.1-9.6 8.6-17.5 2.4-7.9 13.9-65.3 19.3-76.2 0 0-6 31-8 44.9z"/>
					</g>
				</g>
				<g id="&lt;Group&gt;">
					<path id="&lt;Path&gt;" class="s2" d="m130.5 330.2c0 14.3 2.2 17.4 2.2 17.4l-21.9 0.2-1.9-76.4c0 0-1.5-6.1 1.8-5.7 3.3 0.4 7.6-7.1 8.7-8.5l18.4 8.9-6.5 31.7c1.7 11.8-0.8 27.9-0.8 32.4z"/>
				</g>
				<g id="&lt;Group&gt;">
					<path id="&lt;Path&gt;" class="s2" d="m112.1 347.8c-8.6 1.1-35.7-0.1-35.7-0.1 0 0 3.6-11 4-16.6 0.6-9.9-8.2-30.8-9.2-41.2-0.8-8.5-3.3-28.7-3.3-28.7-0.7-2.1 11.4-2.1 24.7-7.6l0.8 1.5c1.1 2.4 11.3 9.1 14.2 10.6 3.5 1.7 5.4 38.7 5.8 61.7 0.2 13 1.2 20-1.3 20.4z"/>
				</g>
				<g id="&lt;Group&gt;">
					<g id="&lt;Group&gt;">
						<g id="&lt;Group&gt;">
							<path id="&lt;Path&gt;" class="s19" d="m105.8 339.9l2-70.3-4.9-5.1 2.2-1.2 6.3 0.1 3.9 83.7z"/>
							<path id="&lt;Path&gt;" class="s20" d="m115.3 347.1l-4.2-77.7-0.6-6 5.2-0.6 1.8 1.4-3 5.1 7.9 71.2z"/>
						</g>
					</g>
				</g>
				<g id="&lt;Group&gt;">
					<g id="&lt;Group&gt;">
						<g id="&lt;Group&gt;">
							<path id="&lt;Path&gt;" class="s21" d="m118.1 354.4c-0.8 12.2-10.6 25.9-10.6 25.9 0 0-12.6-0.9-25.4-6.3-8.8-3.8-16.2-7.5-16-8.2 4.8-14.2 6.3-24.9 7.6-33.5 1.4-10-4.2-29.5-2.7-32.1 14.9-25.5-4.6-40-1.9-40.6 7.7-1.5 9.1-1.2 22.8-7 0 0 0.4 21.9 22.1 50.3 1 2.9 5.3 34.8 4.1 51.5z"/>
						</g>
					</g>
				</g>
				<g id="&lt;Group&gt;">
					<path id="&lt;Path&gt;" class="s9" d="m140.4 371.9c0 0-12.8 6.2-16 5.2-1-0.4-6.1-11.9-7.5-17.6-0.6-2.3-0.8-21.6-1.9-33.8l-1.1-24.3c0 0 7.9-14.3 8.6-34.7l-1.3-9.8c6.5 4.9 16.7 8.6 16.6 8.9-1.4 11.8-1.1 27-0.1 34.4 0.6 3.6-3.8 24.6-2.3 36 1.4 11.4 5 35.7 5 35.7z"/>
				</g>
				<g id="&lt;Group&gt;">
					<path id="&lt;Path&gt;" class="s2" d="m94.2 249.4c-0.2 2.2 7.1 11.5 14 14-5.3-1.2-11.6 11-13.5 13.3 0-11.2-7.3-21.3-6.4-22 1.9-1.3 5.9-5.3 5.9-5.3z"/>
				</g>
				<g id="&lt;Group&gt;">
					<path id="&lt;Path&gt;" class="s2" d="m124.6 259.1l-0.4 15.1c0 0-6.6-12.1-11.2-11.1 1-0.5 5.3-6.4 5-9.4-0.1-1.2 6.6 5.4 6.6 5.4z"/>
				</g>
				<g id="&lt;Group&gt;">
					<path id="&lt;Path&gt;" class="s18" d="m65 312.3c-1.5 5.9-11 23.6-12.9 24.3-2 0.8-14.9 1.4-18.3-10.8-3.5-12.2 7.2-5.9 7.2-5.9 0 0 9.1-18.3 12.6-21.7 3.4-3.5 11.4 14.1 11.4 14.1z"/>
					<g id="&lt;Group&gt;">
						<path id="&lt;Path&gt;" class="s2" d="m41.9 313.2c6-26.5 18.8-43.6 18.8-43.6 2.1-8.5 6.7-10.2 9.3-7.4 4 4.2 8 28.6 5.1 35.9-2.6 6.7-9.2 20.8-17.1 27.9 0 0-4.3-11.2-9.2-13.1z"/>
					</g>
					<path id="&lt;Path&gt;" class="s6" d="m43.2 306.6c5-2 13.5 9.2 17.6 12.6 4.1 3.5 2.2 5.9 2.2 5.9l-6 7.7c0 0-1.8-17.2-14.6-19.6-4.3-0.8-2.5 2.5 0.8-6.6z"/>
					<path id="&lt;Path&gt;" class="s11" d="m34.5 325c-6.9-0.5-7.3-5-10.1-6.1-3.5-1.4-7.9-1.6-7.4-3.1 0.1-0.3 1.3-0.4 3.5-0.4 2.9 0 5.9 1.2 5.9 1.2 0 0-2.5-1.4-5.1-2.1-2.7-0.7-5.4-1-4.7-2.3 0.3-0.7 4.3-0.8 6.5-0.1 2.7 0.9 4.9 2 4.9 2 0 0-2.9-1.9-4.7-2.4-3.7-1-6.3-1.3-5.5-2.7 0.3-0.5 3.8-0.7 5.9-0.1 2.6 0.8 7 2.8 7 2.8-1.4-1-1.8-1.4-3.1-2.3-2.3-1.5-6.1-2.1-5.3-3.5 0.2-0.4 2.3-0.4 6.3 1.1 2.5 1 3.1 1.6 4.7 2.4 2.7 1.5 7.2 3.5 7.2 3.5 2 0 4.2-3.6 6.4-4.6 1.6-0.8 3.1 0.7 2.4 1.2-1.5 1.2-2.8 2.6-4.3 6.1-1 2.2-0.5 5-2.1 6.6 0 0-1.5 3.3-8.4 2.8z"/>
					<path id="&lt;Path&gt;" class="s6" d="m75.9 294.3c-1.9 10.8-13.6 25.5-13.6 25.5l-5.9-9c0 0 6.1 0.7 7.2-1.1 1.1-1.8-5.6-6.6-5.6-6.6l8.2 3.7c0 0-4.1-1.9-2.2-8.5 1.9-6.6 8.1-21.6 9.6-23.1 0 0 3.4 12.5 2.3 19.1z"/>
				</g>
			</g>
			<g id="&lt;Group&gt;">
				<path id="&lt;Path&gt;" class="s6" d="m340.6 454.2c0 18.5-15.8 33.5-35.3 33.5-19.4 0-35.2-15-35.2-33.5 0-18.5 15.8-33.4 35.2-33.4 19.5 0 35.3 14.9 35.3 33.4z"/>
				<g id="&lt;Clip Group&gt;" clip-path="url(#cp1)">
					<g id="&lt;Group&gt;">
						<path id="&lt;Path&gt;" class="s22" d="m308.3 427.5c0.1-0.6 1.6-6.5 10.8-5.2 0 0-4.6-0.3-5.7 1.6 0 0 3.5-1.9 5.8-0.7 2.4 1.2 3.1 5.8 2.8 7.3-0.2 1.4-2.4 5.8-4 5.9-0.7 0-1.3-0.1-1.9-0.3q0.4 1 0.8 2.4c2.3 8.1-2.7 14.7-5.6 13.4-1.9-0.9-3.1 2.4-3.1 2.4l-16.5-18.9c0 0 9.6-13.4 16.6-7.9z"/>
						<path id="&lt;Path&gt;" class="s23" d="m296.6 467q0-0.1 0-0.1c0 0 0.5-0.1 1.3-0.2 0.4-0.6 0.4-2.8 0.2-5.2-0.2-3-0.6-6.2-0.6-6.2l10-2.7 0.6-0.2c0.4 7 2.6 11.4 4 12.5 0.8 0.1 1.7 0.1 2.7 0.3 0.9 0.1 2.5 0.3 4.3 1.3-1.9 7.3-6.7 18.1-19.4 15.1-3.4-0.7-6.1-2-8.3-3.5 2.2-6.1 5.1-10.9 5.2-11.1z"/>
						<path id="&lt;Path&gt;" class="s24" d="m307.5 452.6c-1.1 3-3.7 8.4-9.4 8.9-0.2-3-0.6-6.2-0.6-6.2z"/>
						<path id="&lt;Path&gt;" class="s23" d="m290.2 441.5c0.5-2.9 1.9-6.2 10.6-6.3 8.6-0.1 7.2 5.6 7.8 14 0.6 8.4-12.8 9.1-12.8 9.1-3.6 0-6.1-14-5.6-16.8z"/>
						<path id="&lt;Path&gt;" class="s22" d="m290.3 436.8c1.9-2.7 3.5-2.2 4.4-1.5 7.1-4.6 12.2 1 12.2 1 1.4 6 6 9.1 6 9.1 0 0-2.4 1.7-8.1 0.7-1.8-0.4-3.4-1.5-4.8-2.9 2.5 3.7 5.8 6.2 5.8 6.2-6.9-2.6-10.3-11.8-10.7-12.8-0.7 0.8-2.2 2.5-2.6 4.1-0.5 2.2-0.5 6.6-1.8 6.6 0 0-3.3-6.5-0.4-10.5z"/>
						<path id="&lt;Path&gt;" class="s23" d="m292.3 492.5c0.7-8.3 0.1-17.4 1.3-26.2 0 0 21.9-5.3 31.4 2.5l-1.7 24.6c-10.3 0.7-20.7 0.1-31-0.9z"/>
						<g id="&lt;Group&gt;">
							<path id="&lt;Path&gt;" class="s25" d="m277.1 488.3c1.6-5.5 3.5-11.5 5.5-15.3 3.1-5.9 11.4-6.8 11.4-6.8 0 0 3.4 5.5 11.8 4.7 8.3-0.8 9.8-5.9 9.8-5.9 0 0 7.4 1 9.7 2.8 0.4 0.4 4.1 9.5 2.7 20-0.2 1.5-0.5 3.1-0.9 4.7q-1.8 0.5-3.6 0.8c-13.2 1.1-26.7-0.2-39.8-1.8q-2.5-0.4-5-1.1-0.3-0.3-0.6-0.7-0.5-0.7-1-1.4z"/>
						</g>
						<g id="&lt;Group&gt;">
							<path id="&lt;Path&gt;" class="s26" d="m320.6 493.5c4-3.8 7.4-5.7 7.4-5.7-0.2 1.5-0.5 3.1-0.9 4.7q-1.8 0.5-3.6 0.8-1.4 0.1-2.9 0.2z"/>
						</g>
						<g id="&lt;Group&gt;">
							<path id="&lt;Path&gt;" class="s25" d="m324.3 485.2l-8.7-20.2c0 0 10.8 1.3 13.7 5.9 2 3 6.5 9.8 10.4 16.3q-2.9 1.9-6 3.4-1.7 0.6-3.4 1.1z"/>
						</g>
					</g>
				</g>
			</g>
			<g id="&lt;Group&gt;">
				<path id="&lt;Path&gt;" class="s6" d="m339.1 323.1c-2.7 18.3-20.5 30.8-39.7 27.9-19.3-2.8-32.7-19.9-30-38.2 2.7-18.3 20.5-30.8 39.7-27.9 19.3 2.8 32.7 19.9 30 38.2z"/>
				<g id="&lt;Clip Group&gt;" clip-path="url(#cp2)">
					<g id="&lt;Group&gt;">
						<g id="&lt;Group&gt;">
							<path id="&lt;Path&gt;" class="s27" d="m306.8 352.3c-6-11-3.4-14.4 0.2-15 4.7-0.8 15.7 3 17.6 3.4 1.3 0.2 2.8 0.7 4.3 1.2q-2.8 3.4-5.7 6.7c-0.3 0.2-3.1 3.1-3.9 3.8-1.7 1.6-3.5 3.1-5.3 4.6q-0.6 0.5-1.3 1c-2.4-0.7-3.9-2.1-5.9-5.8z"/>
							<g id="&lt;Group&gt;">
								<path id="&lt;Path&gt;" class="s28" d="m268.8 346.4c-0.2-2.2-0.1-4.2 0.7-4.9 1.2-1.1 5.6-2.1 7.2-2.8 3.4-1.3 8.9-2.5 11.1-5.6l21.3 4.9c3.6 1.7 7.3 0.4 8.5 5.7 0.7 3.1 0.7 6.3 0.8 9.5q-2.2 2-4.4 3.8-4.2 3.4-8.7 6.3-1.1 0.6-2.2 1.1-1.1-0.5-2.1-1-0.2-0.1-0.5-0.2-0.8-0.5-1.5-0.9c-5.9-3.5-12-6.3-18.1-9.5-4-2-8-4.4-12.1-6.4z"/>
								<g id="&lt;Group&gt;">
									<g id="&lt;Group&gt;">
										<path id="&lt;Path&gt;" class="s29" d="m308.2 331.4c-0.4 0.9-1.5 3.7-1.7 5.4 0 0.7-0.4 1.8-0.5 3.2-2 13.9-3.4 13.9-3.4 13.9 0 0-3.5-6.8-10.4-9.6-5.1-2-5.6-6.4-3.5-11.6 0.4-1 1-2.5 1.5-4.2 1.4-4.2 2.8-9.8 1.4-12z"/>
									</g>
									<path id="&lt;Path&gt;" class="s30" d="m308.2 331.4c-0.4 0.9-1.5 3.7-1.7 5.4 0 0.7-0.2 1.9-0.5 3.2-1.8 0-3.5-0.3-5.1-0.9-5.4-2.1-8.5-5.7-10.7-10.6 1.4-4.2 2.8-9.8 1.4-12z"/>
								</g>
								<g id="&lt;Group&gt;">
									<path id="&lt;Path&gt;" class="s28" d="m291.4 346.5l0.3-0.1q-0.2 0-0.3 0.1z"/>
									<path id="&lt;Path&gt;" class="s28" d="m304 357.5q0 0.1-0.1 0.3 0-0.6-0.4-1.3c-1.2-2.5-4.6-6.6-5.8-7.6-0.7-0.5-4.9-2.4-6-2.5l5.7-2.6c1.6 1.8 3.9 5.7 5.4 9q0 0.1 0.1 0.2 0.1 0.3 0.2 0.6 0.2 0.4 0.3 0.9c0.5 1.2 0.7 2.3 0.6 3z"/>
									<path id="&lt;Path&gt;" class="s28" d="m310.9 344.4c-1 0.4-4.2 6.3-7.7 9.1q-0.1 0-0.1 0.1-0.1 0-0.1 0-0.2 0.2-0.4 0.3 0.2-0.4 0.2-0.8 0-0.1 0.1-0.1 0-0.4 0-0.8c0.1-1.8-0.1-4.2 1.8-8.7z"/>
								</g>
								<path id="&lt;Path&gt;" class="s31" d="m298 343.9c-2 0.6-8 5.7-10 5.8 0-1.9-3.8-13.2-2.5-14.5 1.6-1.8 2.6-2.8 3.8-4.3 1.3 3 6.4 12.2 8.7 13z"/>
								<path id="&lt;Path&gt;" class="s31" d="m306.9 332.5c1 0.8 1.4 1.3 2.3 2.4 1 1.2 2.8 9.8 3 11.7-1.4 0.1-3.3-2.8-8.1-2.2 0.9-3.4 2-7 2.8-11.9z"/>
								<g id="&lt;Group&gt;">
									<g id="&lt;Group&gt;">
										<g id="&lt;Group&gt;">
											<path id="&lt;Path&gt;" class="s29" d="m313.9 317.1c0.7-1.2 2.3-1.3 3.1 0.2 0.9 1.7-0.2 4.7-1 6.1-0.9 1.4-2.5 3.4-3.9 1.9-1.4-1.6 1.3-7.5 1.8-8.2z"/>
										</g>
									</g>
									<path id="&lt;Path&gt;" class="s32" d="m309.1 304l6.4-1.8c1.5 1.3 2.2 3.8 2.2 5.8-0.1 2.5-1.2 10.4-2.8 12.4 0.3-4.9-1.8-13.3-5.8-16.4z"/>
									<g id="&lt;Group&gt;">
										<path id="&lt;Path&gt;" class="s29" d="m290 316.9c4.5-21.1 17.9-21.1 21.3-17.2 5 5.7 5.6 8.8 4.3 15.9-0.6 2.9-1.1 2.4-0.9 7.9 0.1 1.5-1.7 6.3-4.1 11.2-1.2 2.6-3.9 1.1-4.8 1.4-2 0.6-4.6 0.3-6.4-0.7-3.2-1.6-11.5-8.8-9.4-18.5z"/>
									</g>
									<path id="&lt;Path&gt;" class="s32" d="m288.6 300.4c0.3-1.2 0.8-2.3 1.5-3.1q0.5-0.6 1.1-1 0.3-0.2 0.5-0.4c7.5-4.2 29-0.8 29-0.8 1.6 2.8-0.4 7.4-3.1 9.6-3 2.6-9.9 0.9-13.6 1.3q-1.6 0.2-3 0.4c-5.7 1.1-8.1 4.1-9.3 15-1.7-4.9-4.8-14.8-3.1-21z"/>
									<g id="&lt;Group&gt;">
										<path id="&lt;Path&gt;" class="s33" d="m293 294.3q0 0 0 0 0 0 0 0v0.1q0 0 0-0.1z"/>
									</g>
									<path id="&lt;Path&gt;" class="s34" d="m293 294.3q0 0 0 0v0.1q0 0 0-0.1 0 0 0 0z"/>
									<g id="&lt;Group&gt;">
										<g id="&lt;Group&gt;">
											<path id="&lt;Path&gt;" class="s29" d="m291.5 323.1c-2.1 0.9-3.7-1.7-4.4-3.4-0.7-1.7-1.5-5 0.2-6.3 1.4-1.1 3.4-0.4 4.1 1 0.4 0.9 2.4 7.7 0.1 8.7z"/>
										</g>
									</g>
								</g>
							</g>
							<path id="&lt;Path&gt;" class="s31" d="m302.8 353.1q0-0.2 0-0.3 0 0.1 0.1 0.2 0-0.4 0-0.8 0.2 0.6 0.3 1.3 0.1 0.5 0.2 1 0.3 1.4 0.6 3 0.5 2.9 0.9 6-0.1 0.1-0.2 0.2c-0.4-2.5-0.8-4.9-1.2-7.2q-0.3-1.5-0.5-2.9-0.1-0.2-0.2-0.5z"/>
							<g id="&lt;Group&gt;">
								<path id="&lt;Path&gt;" class="s27" d="m312.1 358.5c-0.7-7.3-1.6-14.6-2.6-21.9l3.2 1.3 1.7 0.6c5.5 1.9 6.5 6.8 6.6 12.3-0.7 0.7-1.4 1.3-1.7 1.6-1.7 1.6-3.5 3.1-5.3 4.6q-0.9 0.7-1.9 1.5z"/>
								<path id="&lt;Path&gt;" class="s35" d="m312.1 358.5c-0.7-7.3-1.6-14.6-2.6-21.9l3.2 1.3c1.4 0.9 2.5 2 2.9 2.8 1.4 2.9 1.5 7.7 1.8 10.9-1.2 0.6-2.3 1-3.1 1.9 1.1 0.1 2 0.5 2.6 1q-1.4 1.3-2.9 2.5-0.9 0.7-1.9 1.5z"/>
							</g>
							<path id="&lt;Path&gt;" class="s27" d="m265.6 344.9c1.1-1.9 3-3.7 4.5-4.6 3.4-1.8 7.1-2.8 11-3.9l0.5-0.3 5.4-2.9c1.7 0.6 5.6 7.9 9 27.4-4.9-2.7-10-5.2-15.1-7.8-5-2.5-10-5.6-15.3-7.9z"/>
							<path id="&lt;Path&gt;" class="s35" d="m281.6 336.1l5.4-2.9c1.7 0.6 5.6 7.9 9 27.4-3.2-1.8-6.5-3.4-9.8-5.1 0.6-1.5 1.5-4.2 2.7-6.7-1.9 0.4-3.5 1.2-5.1 1.9-0.6-2.9-0.4-12.2-2.2-14.6z"/>
							<path id="&lt;Path&gt;" class="s27" d="m265 344.7c2.5-2.4 5.3-4.8 7.4-5.6 3.4-1.2 7.4 0.5 7.7 12.9q0 0.2 0 0.4c-5-2.6-9.9-5.6-15.1-7.7z"/>
							<path id="&lt;Path&gt;" class="s31" d="m301.9 355.3c0.1 0.4-0.1 0.8-0.5 0.8-0.3 0.1-0.6-0.2-0.6-0.7-0.1-0.4 0.1-0.8 0.4-0.8 0.3-0.1 0.6 0.2 0.7 0.7z"/>
						</g>
					</g>
				</g>
			</g>
			<g id="&lt;Group&gt;">
				<path id="&lt;Path&gt;" class="s6" d="m340.9 176.9c0 18.4-15.8 33.4-35.2 33.4-19.5 0-35.3-15-35.3-33.4 0-18.5 15.8-33.5 35.3-33.5 19.4 0 35.2 15 35.2 33.5z"/>
				<g id="&lt;Clip Group&gt;" clip-path="url(#cp3)">
					<g id="&lt;Group&gt;">
						<path id="&lt;Path&gt;" class="s36" d="m279.2 200.9q0-0.1 0-0.1 0-0.1 0.1-0.2 0.1 0 0.1-0.1c2.9-2.5 7.5-5.4 11.8-8.8l23-2c3.5 1.7 9.1 2.7 12.5 4-0.9 5.7-0.3 12.4-0.2 18.7-8.9 3.3-18 5.9-27.2 7.8-4.9-1.6-9.6-3.5-14.4-5.4-1.6-4.8-3.5-9.4-5.7-13.9z"/>
						<path id="&lt;Path&gt;" class="s37" d="m284.9 214.8c-1.6-4.8-3.5-9.4-5.7-13.9l0.1-0.3 0.1-0.1q0 0 0 0c2 0.8 6.6 6.3 7.6 8.6 0.9 2.1 1.5 4.7 2 7.3q-2-0.8-4.1-1.6z"/>
						<g id="&lt;Group&gt;">
							<g id="&lt;Group&gt;">
								<path id="&lt;Path&gt;" class="s29" d="m313.9 192.4c-0.6 1.6-0.5 4.9-2.6 7.6-1.4-0.7-2.6-1.3-3.1-1.3-0.7 0.2-2.7 2.1-4.5 3.4q-1 0.3-1.8 0.6c-3.7-3.5-6.7-7.2-10.7-11 2.5-0.6 2.3 0.6 3.7-1.3 0.2-0.2 0.3-0.6 0.5-1.2 0.3-1.6 0.8-4.4 1-7.2 0.4-3.9 0.4-8-0.3-9.4l16.6 9.8c-0.7 1.3-1.1 3.7-0.8 5.8q0.1 0.1 0.1 0.3 0.2 0.8 0.6 1.5c1.3 2.5-1.8 1.7 1.3 2.4z"/>
							</g>
							<path id="&lt;Path&gt;" class="s30" d="m311.9 188.2c2.3 10.5-15.3 0.7-15.5-6.2 0.4-3.9 0.4-8-0.3-9.4l16.6 9.8c-0.7 1.3-1.1 3.7-0.8 5.8z"/>
						</g>
						<g id="&lt;Group&gt;">
							<g id="&lt;Group&gt;">
								<path id="&lt;Path&gt;" class="s38" d="m308.2 198.7q-0.3 0.1-0.6 0.3c-0.8 0.6-1.9 1.6-3.1 2.5q-0.4 0.3-0.8 0.6c-0.6 0.4-1.1 0.8-1.6 1-3.2 1.3-4.6 2.2-6.1 3.2 1.4-5.7-4-9.9-4.8-14.6l0.6-0.5 3.7-3.5c0 0 3.5 6.6 9.4 9.7q1.5 0.9 3.3 1.3z"/>
								<path id="&lt;Path&gt;" class="s38" d="m316.6 201.6c-1-0.3-3-0.2-5.3-1.5q0 0 0-0.1c-1-0.5-2-1-2.6-1.2q-0.3-0.1-0.5-0.1 0.4-0.7 0.9-1.3c1.6-2.5 3-4.4 2.9-8.9l2.6 0.9c0.1 1.4 0.2 2.6 0.3 3.7 0.3 2.6 0.6 4.8 1.7 8.5z"/>
								<path id="&lt;Path&gt;" class="s39" d="m306.2 199.6c0.6-0.2 1-0.4 1.4-0.6-1 0.7-2.5 2.1-3.9 3.1-0.6 0.4-1.1 0.8-1.6 1-3.2 1.3-4.6 2.2-6.1 3.2 1.4-5.7-4-9.9-4.8-14.6l0.6-0.5c0.1 1.8 1.8 3.7 2.7 5.2 1.3 2.2 2.2 4.1 3.1 6.3 1.1-0.5 2.3-1.5 3.5-1.9 1.6-0.6 3.5-0.5 5.1-1.2z"/>
								<path id="&lt;Path&gt;" class="s39" d="m316.6 201.6c-1-0.3-3-0.2-5.3-1.6-1-0.5-2-1-2.6-1.2 0.3 0 0.7 0 1.3 0.1 1.6 0.2 3.2 0.7 4.9 0.6-0.4-2-0.3-4.3 0-6.4 0.3 2.6 0.6 4.8 1.7 8.5z"/>
							</g>
						</g>
						<g id="&lt;Group&gt;">
							<g id="&lt;Group&gt;">
								<g id="&lt;Group&gt;">
									<path id="&lt;Path&gt;" class="s29" d="m317.7 171.3c0.7-1.1 2.2-1.2 3 0.2 0.9 1.5-0.1 4.3-0.9 5.6-0.7 1.3-2.2 3.3-3.5 1.9-1.3-1.4 1-7 1.4-7.7z"/>
								</g>
							</g>
							<g id="&lt;Group&gt;">
								<path id="&lt;Path&gt;" class="s29" d="m296.4 174.3c1.7-4.7 0.7-9.6 1.3-14.6l0.8-3.8c1.4-7.2 12.2-4 15.4-0.5 4.8 5.3 5 9.2 3.9 15.9-0.5 2.6-0.5 1.1-0.2 6.2 0.1 1.3-1.5 5.9-3.6 10.5-1.1 2.4-2.6 2.8-3.5 3.2-1.8 0.6-4-0.4-5.7-1.3-3-1.5-11.5-7-8.4-15.6z"/>
							</g>
							<g id="&lt;Group&gt;">
								<g id="&lt;Group&gt;">
									<path id="&lt;Path&gt;" class="s40" d="m317.9 169.9c0.1-1.9 0.2-6.3-0.5-7.8-1.1-2.3-0.7-0.5-2.7 0.1-4.4 1.2-6.7-3.5-9.8-5.5-4.3-0.5-5 2.2-5.9 5.5-0.7 2.4-1.7 5.6-1.8 8.1l-2.7-2.1c0.4-2.2-0.5-3.9-1.8-5.5-1.7-2.1-1.6-2.5-0.7-5q0.3-0.9 0.7-1.8c0.5-1.3 1.2-2.5 2.1-3.6 1.5-1.9 2.4-1.6 4.9-1.4 0.1-0.7-0.2-1.3-0.2-2 2.6-2.1 8.7-1.1 11.7-0.3 1.7 0.5 4 1.3 5.1 2.7 1.3 1.5 1.3 2.8 1.4 4.5 0.7-0.3 1.5-0.6 2.2-0.9 0.1 0.7 0.2 1.7 0.2 2.8 0 4.1-0.9 10.2-2.2 12.2z"/>
								</g>
								<g id="&lt;Group&gt;">
									<path id="&lt;Path&gt;" class="s41" d="m317.5 173.4c0.1-2 0.6-9.8-0.1-11.3-1.1-2.3-0.7-0.5-2.7 0.1-4.4 1.2-6.7-3.5-9.8-5.5-4.3-0.5-4.7 3.1-5.7 6.4-0.7 2.4 0.3 14.1-2.6 13.1l-2.1-8c0.4-2.2-0.5-3.9-1.8-5.5-1.7-2.1-1.6-2.5-0.7-5q0.3-0.9 0.7-1.8c0.3 1 1.1 1.8 2.6 1.8 2 0.2 2.9-0.6 4-2 1-1.4 2.3-1.4 3.9-2-0.1-0.9-0.8-1.7-1.5-2.4 1.8 0.2 2.4 2.1 3.8 2.7 0.1-0.6-0.1-1.3-0.2-1.9 1.2 0.8 1.9 2.3 3.1 3.3 1 0.8 2.1 1.5 3.1 2.2 1 0.6 2.1 1.4 3.2 1.6 1.6 0.3 2-1 2.6-2.1 0.4 0.5 0.5 1.2 0.7 1.8 0.8-0.1 1.5-0.6 2.1-1.2 0 4.1-1.2 13.7-2.6 15.7z"/>
								</g>
							</g>
							<g id="&lt;Group&gt;">
								<g id="&lt;Group&gt;">
									<path id="&lt;Path&gt;" class="s29" d="m296.7 178.4c-1.9 0.9-3.5-1.5-4.2-3.1-0.7-1.5-1.4-4.5 0.1-5.8 1.3-1.1 3.2-0.5 3.8 0.8 0.4 0.8 2.4 7.1 0.3 8.1z"/>
								</g>
							</g>
							<g id="&lt;Group&gt;">
								<path id="&lt;Path&gt;" class="s30" d="m311.6 173.2q0 0.1 0 0.1-0.1 0-0.1-0.1z"/>
							</g>
						</g>
						<path id="&lt;Path&gt;" class="s36" d="m274.4 210.6c0.6-3.7 1.3-6.8 1.6-7.7 1.8-5.6 6.1-5.6 10.2-7.3l1.5 20.3c-4.4-1.7-8.9-3.6-13.3-5.3z"/>
						<path id="&lt;Path&gt;" class="s36" d="m322 212.5l-4.1-20c4.3 0.4 8.4-0.7 11.8 4.2 0.7 1.1 3.5 6.5 6 11.8q-2.4 1.2-4.8 2.3-4.2 1.6-8.4 3-0.3-0.7-0.5-1.3z"/>
					</g>
				</g>
			</g>
			<g id="&lt;Group&gt;">
				<g id="&lt;Group&gt;">
					<g id="&lt;Group&gt;">
						<path id="&lt;Path&gt;" class="s11" d="m565.4 297.3c1.3 8.5-14.8 45.7-19 52-4.3 6.2-41.9 11.4-41.9 11.4l-1.9-4.5c0 0 25.7-10.6 30.3-14.1 4.6-3.6 7.4-10 10.6-27.4 3.6-19.9 10-29.3 10-29.3 0 0 10.7 3.3 11.9 11.9z"/>
						<g id="&lt;Group&gt;">
							<path id="&lt;Path&gt;" class="s23" d="m481.1 507.5c0.9 3.6-4 5.2-9.8 6.4-5.9 1.1-3.9 2.1-11.7 4.7-7.8 2.6-11.4 0.8-12.1-0.2-0.7-0.9 2.8-2.9 6.6-5.2q0.7-0.4 1.4-0.8c4.2-2.6 6.1-7 9.1-11.2 2.8-4 4.3-15.8 4.3-15.8l10.5-3.9c0 0-1.6 10.6-2 15.1-0.3 2.7 1.1 5.4 2.2 7.4 0.6 1.1 1.2 2.3 1.5 3.5z"/>
							<g id="&lt;Group&gt;">
								<path id="&lt;Path&gt;" class="s17" d="m471.3 513.9c-5.9 1.1-3.9 2.1-11.7 4.7-7.8 2.6-11.4 0.8-12.1-0.2-0.7-0.9 2.8-2.9 6.6-5.2v0.1c0 0 6 1.1 12.2-1.6 5.1-2.2 9.8-6.1 13.3-7.7 0.6 1.1 1.2 2.3 1.5 3.5 0.9 3.6-4 5.2-9.8 6.4z"/>
							</g>
						</g>
						<g id="&lt;Group&gt;">
							<path id="&lt;Path&gt;" class="s9" d="m581.1 352.9c0 0 10.2 15.4 3.1 33.5-7.1 18.2-71 19.3-76.1 20.3-5 1-3 11-3.6 22.6-0.5 11.6-25.5 61-25.5 61 0 0-6 2.5-8.8 2.6-3.1 0.2-4.6-0.7-4.6-0.7 0 0 7.5-103.4 19.9-114 12.4-10.6 85.6-15.6 85.6-15.6z"/>
						</g>
						<path id="&lt;Path&gt;" class="s42" d="m581.1 352.9c0 0 10.2 15.4 3.1 33.5-7.1 18.2-71 19.3-76.1 20.3-5 1-3 11-3.6 22.6-0.5 11.6-25.5 61-25.5 61 0 0-6 2.5-8.8 2.6-3.1 0.2-4.6-0.7-4.6-0.7 0 0 7.5-103.4 19.9-114 12.4-10.6 85.6-15.6 85.6-15.6z"/>
						<g id="&lt;Group&gt;">
							<path id="&lt;Path&gt;" class="s23" d="m512 522.6c1.1 3.5-3.7 5.5-9.5 7-5.7 1.5-3.7 2.3-11.3 5.4-7.6 3.1-11.3 1.6-12.1 0.6-0.7-0.8 2.7-3.1 6.3-5.6q0.6-0.5 1.3-0.9c4-2.9 5.7-7.4 8.4-11.8 2.5-4.2 3.3-16 3.3-16l10.3-4.5c0 0-1 10.6-1.1 15.1-0.1 2.7 1.4 5.3 2.7 7.3 0.6 1.1 1.3 2.2 1.7 3.4z"/>
							<g id="&lt;Group&gt;">
								<path id="&lt;Path&gt;" class="s17" d="m502.5 529.6c-5.7 1.5-3.7 2.3-11.3 5.4-7.6 3.1-11.3 1.6-12.1 0.6-0.7-0.8 2.7-3.1 6.3-5.6v0.1c0 0 6 0.7 12.1-2.4 4.9-2.5 9.4-6.7 12.8-8.5 0.6 1.1 1.3 2.2 1.7 3.4 1.1 3.5-3.7 5.5-9.5 7z"/>
							</g>
						</g>
						<g id="&lt;Group&gt;">
							<path id="&lt;Path&gt;" class="s9" d="m602.6 394.3c-5.2 18.7-68.7 26.4-73.6 27.9-4.9 1.5-1.9 11.2-1.3 22.9 0.6 11.6-19.2 63.3-19.2 63.3 0 0-5.7 3.1-8.5 3.5-3 0.4-4.6-0.3-4.6-0.3 0 0-3.1-103.7 8.1-115.4 11.3-11.8 74.3-28.1 74.3-28.1 0 0 30 7.4 24.8 26.2z"/>
						</g>
						<path id="&lt;Compound Path&gt;" class="s43" d="m562.2 223.7c2.9-1.9 6.5-2.3 9-2.3-0.7-0.7-2-0.8-2-0.8 1.6-0.4 5.2 1 5.2 1 21.1-9.8 26.6 21.8 26.7 29.3 0 7.4 0.5 16 11.8 21.9 22.2 11.7 5.7 35.7 5.7 35.7-0.1 0.1-14.9 18-14.9 18-12.5 0.7-23.5-36.5-38.6-45-3.8-5-5.7-14-5.8-14.7 1.1 7.2 2.6 11.2 3.8 13.4-12.9-10.4-8.5-51.4-0.9-56.5z"/>
						<path id="&lt;Path&gt;" class="s11" d="m572.4 287.8c-12 1.9-12.6-8.3-6.9-10.7 2.3-0.9 6.7-1.4 10.8-1.8 6.1-0.5 11.8-0.8 11.8-0.8 0.9 3-3.7 11.4-15.7 13.3z"/>
						<path id="&lt;Path&gt;" class="s11" d="m566.6 273.6c-0.3-4.7-1-9.8-1-9.8l15.8-4.2 1-0.2c0.7 12.4 4.7 17.9 5.1 20 1 4.4-10.1 10.7-15.3 10.9-7.9 0.3-6.2-8.4-6.2-8.4 0.9-0.5 0.9-4.3 0.6-8.3z"/>
						<path id="&lt;Path&gt;" class="s15" d="m581.4 259.6c-1.6 4.7-5.8 13.2-14.8 14-0.3-4.7-1-9.8-1-9.8z"/>
						<path id="&lt;Path&gt;" class="s43" d="m559.3 257.7l-1.9-4.9c-6.9-14.3-2-20 1.5-22.7 4.4-3.4 9.3-4.2 9.3-4.2 16.7-3.6 20.2 13.1 19.7 17.7-0.7 6.4-4.9 14.2-4.9 14.2z"/>
						<path id="&lt;Path&gt;" class="s11" d="m554.3 241.9c0.8-4.4 3.1-9.7 16.7-9.8 13.6-0.1 11.4 8.9 12.3 22.2 0.9 13.2-20.4 14.2-20.4 14.2-5.5 0-9.4-22.1-8.6-26.6z"/>
						<path id="&lt;Path&gt;" class="s43" d="m580.7 233.9c2.1 9.4 9.3 14.4 9.3 14.4 0 0-3.7 2.7-12.8 1-9.1-1.7-15.9-16.9-15.9-16.9 3.9-7.6 19.4 1.5 19.4 1.5z"/>
						<path id="&lt;Path&gt;" class="s43" d="m562.8 233.6c0 0-4.1 3.8-4.9 7.2-0.9 3.4-0.9 10.4-2.9 10.3 0 0-5.1-10.3-0.6-16.6 4.8-6.6 8.4-0.9 8.4-0.9z"/>
						<g id="&lt;Group&gt;">
							<path id="&lt;Path&gt;" class="s6" d="m550.4 355.4c2.5-1.4 4.6-2.9 5.3-4.3 0.5-1.2 0.5-3.7 0.1-6.8-0.9-9-6-28.8-5.8-33.4 0.2-6.2 4-10.3 4-10.3-8.5-1.7-8.3-5.1-8.3-5.1 1.1-2.7 6.5-12.7 8.6-15 2.2-2.3 11.2-3.4 11.2-3.4 0 0-2.3 8.5 7.6 8.5 10 0 15-11.1 15-11.1 0 0 4.6 23.3 7.9 43q0.2 1.2 0.4 2.5c1.7 10.1 2.9 19 2.9 22.7 0 6.9 5.7 22.7 8.4 34.1 1.7 7.2 2.3 12.6-0.6 12.9-7.3 0.6-32.3-14.6-40-19.1-3.4-1.9-8.1-2.9-12.6-3.6-5.8-1-11.1-1.6-12.9-3.6-2-2.5 4-5.2 8.8-8z"/>
						</g>
						<g id="&lt;Group&gt;">
							<path id="&lt;Path&gt;" class="s1" d="m607.1 389.7c-7.3 0.6-31-15.2-38.4-20.2-10.3-6.9-34.5-3.1-21.3-12.2q4.4-0.9 8.6-2.5c56 33.9 36.2-17 38.6-36.6l1.8 1.8c1.7 10.1 2.9 19 2.9 22.7 0 6.9 5.7 22.7 8.4 34.1 1.7 7.2 2.3 12.6-0.6 12.9z"/>
						</g>
						<path id="&lt;Path&gt;" class="s11" d="m590.9 281.8c0 0 7.5-4.6 14.8 4.1 7.3 8.7-5.2 70.9-16 74.1-12 3.5-46.7-0.6-46.7-0.6l0.7-5.4c0 0 36.9-7.1 38.4-9.1 1.6-1.9 4.9-62.1 8.8-63.1z"/>
						<g id="&lt;Group&gt;">
							<path id="&lt;Path&gt;" class="s6" d="m588.1 274.5c0 0 15.5 1.4 20 6.5 4.5 5.1 5.9 18.9 5.9 18.9 0 0-13.7 11-30.1 6.8z"/>
						</g>
						<g id="&lt;Group&gt;">
							<path id="&lt;Path&gt;" class="s8" d="m518.9 362.3h20.5v2.4h-20.5z"/>
							<path id="&lt;Path&gt;" class="s8" d="m483.8 363.6l-20.8-29.2h41.4c0 0 18.6 29.2 18.8 30z"/>
							<path id="&lt;Path&gt;" class="s6" d="m482.7 364.7l-19.7-30.3h39.6c0 0 18.7 29.5 18.9 30.3z"/>
							<path id="&lt;Path&gt;" class="s8" d="m488 347.5c1.1 0 2.4 1 2.8 2.2 0.4 1.1-0.2 2.1-1.4 2.1-1.2 0-2.4-1-2.9-2.1-0.4-1.2 0.3-2.2 1.5-2.2z"/>
						</g>
						<path id="&lt;Path&gt;" class="s11" d="m544.9 358.3c-1.3 1.8-8.9 2.4-12.4 3.5-3.5 1.2-6.6 0.2-7.4-1.1-0.7-1.4 6.8-8.2 8.2-8.8 1.3-0.6 13.4 1.8 13.4 1.8 0 0-0.4 2.9-1.8 4.6z"/>
					</g>
					<g id="&lt;Group&gt;">
						<path id="&lt;Path&gt;" class="s44" d="m562.9 253.4q0 0.5-0.1 0.9-0.1 1-0.5 1.9l-0.1-0.4q0.4 0.5 0.6 0.9 0.3 0.5 0.6 0.9-0.5-0.2-0.9-0.5-0.5-0.3-0.9-0.7l-0.1-0.1v-0.3q0-0.9 0.3-1.9 0.2-0.4 0.4-0.9 0.2-0.4 0.5-0.8 0.1 0.5 0.2 1z"/>
						<path id="&lt;Path&gt;" class="s44" d="m568.7 260.9c0.4-0.4-6.2 2.1-9.1 0.1 0 0 5.3 3.5 9.1-0.1z"/>
						<path id="&lt;Path&gt;" class="s16" d="m561.3 245.8q0 0-0.3-0.1c-0.1-0.1-0.4-0.3-0.7-0.4-0.1 0-0.2-0.1-0.4-0.2-0.2 0-0.3-0.1-0.5-0.1-0.2-0.1-0.4-0.1-0.6-0.1q-0.2-0.1-0.5 0c-0.2 0-0.4 0-0.6 0.1-0.1 0-0.3 0-0.4 0.1q0.1-0.5 0.1-1 0.4-0.2 0.8-0.2 0.4-0.1 0.8 0c0.2 0 0.4 0.2 0.7 0.2 0.2 0.1 0.4 0.3 0.5 0.4 0.2 0.1 0.4 0.2 0.5 0.4 0.2 0.2 0.4 0.5 0.5 0.7q0.1 0.2 0.1 0.2z"/>
						<path id="&lt;Path&gt;" class="s16" d="m570.1 245.1q-0.1 0-0.2 0c-0.2 0-0.4 0.1-0.6 0.1-0.2 0.1-0.4 0.1-0.5 0.2-0.4 0.1-0.7 0.3-1 0.4-0.6 0.3-1 0.6-1 0.6 0 0 0.2-0.5 0.6-1 0.3-0.3 0.6-0.6 1-0.8 0.4-0.2-0.2 0 0.3-0.2 0 0 0.1 0 0.5-0.1 0.3 0.2 0.5 0.5 0.9 0.8z"/>
						<g id="&lt;Group&gt;">
							<path id="&lt;Path&gt;" class="s16" d="m567.6 249.6c0 0 0-0.4 0.3-0.8 0.2-0.3 0.4-0.5 0.7-0.7 0.3-0.2 0.7-0.3 1.2-0.3q0.3 0 0.5 0 0.3 0.1 0.6 0.2c0.3 0.2 0.6 0.4 0.8 0.6 0.1 0.3 0.2 0.5 0.3 0.7 0 0.1 0 0.2 0 0.2 0 0-0.2-0.3-0.6-0.5q-0.3-0.2-0.8-0.4-0.2 0-0.4 0-0.3-0.1-0.5-0.1c-0.5 0-1.1 0.3-1.5 0.6-0.4 0.2-0.6 0.5-0.6 0.5z"/>
						</g>
						<g id="&lt;Group&gt;">
							<path id="&lt;Path&gt;" class="s16" d="m556.8 249.5c0 0 0-0.4 0.3-0.8q0.3-0.3 0.7-0.5 0.4-0.3 0.9-0.3 0.3 0 0.5 0c0.2 0 0.4 0 0.5 0.1 0.3 0.1 0.6 0.3 0.7 0.6 0.3 0.4 0.2 0.7 0.2 0.7 0 0-0.2-0.2-0.5-0.4q-0.3-0.2-0.6-0.2c-0.1 0-0.2-0.1-0.3-0.1h-0.4c-0.6 0.1-1 0.2-1.4 0.4-0.4 0.2-0.6 0.5-0.6 0.5z"/>
						</g>
					</g>
				</g>
				<g id="&lt;Group&gt;">
					<path id="&lt;Path&gt;" class="s45" d="m585.2 247.6c-18.6-0.5-21.3-16.5-21.3-16.5 2.7-4.9 6.9-7.3 10.7-8.4q-0.2 2.4 0.1 4.7c-3 10.7 9.1 16.7 12.4 18.1 0 0.2 2.9 1.2 2.9 1.3-15.3 0.1-20.8-13.5-20.8-13.5 1.8 12.1 16 14.3 16 14.3z"/>
					<path id="&lt;Path&gt;" class="s45" d="m574.6 222.7c0 0 18.3-7.7 22.9 20.9 0 0 0.9 3.7 1.1 12.8 0.3 9.1 4.8 14.2 10 16.7 0 0-12.3 1-14.4-22.1 0 0-0.9-16.7-12.8-23.5 0 0 2.2 9.2 11.5 19.3 0 0-16.2-4.5-18.3-18.5l-1.2-2.7z"/>
					<path id="&lt;Path&gt;" class="s45" d="m563.2 232.3c-4 1.4-5.7 6.3-5.7 6.3-2.4 9.3-3 10.1-3 10.1-4.8-11.5 4.9-18.1 4.9-18.1 3.2-11.2 14.6-7.8 14.6-7.8-9.6 2.5-10.8 9.5-10.8 9.5z"/>
					<path id="&lt;Path&gt;" class="s45" d="m584 250.6c0 0-1.8 12 2.4 24.2 0 0-2.9-18.7-2.4-24.2z"/>
					<path id="&lt;Path&gt;" class="s45" d="m585.4 250.4c0 0-1.2 20.2 10 25.6 0 0-9.4-12.3-10-25.6z"/>
					<path id="&lt;Path&gt;" class="s45" d="m588 250.3c0-0.1 0.7 17.8 16.5 28.6 0 0-13-15.9-16.5-28.7z"/>
					<path id="&lt;Path&gt;" class="s45" d="m608.6 273.1c0 0 24.8 10 6.3 37.8 0 0 14.8-23-6.3-37.8z"/>
					<path id="&lt;Path&gt;" class="s45" d="m607.2 279.1c0 0 17 14.3 2.5 31.1 0 0 18.4-15.5-2.5-31.1z"/>
				</g>
			</g>
		</g>
	</g>
	<g id="&lt;Group&gt;">
		<g id="&lt;Group&gt;">
			<g id="&lt;Group&gt;">
				<path id="&lt;Path&gt;" class="s9" d="m378.8 347v13h-12.8v-13h-8l14.4-18 14.5 18z"/>
				<path id="&lt;Path&gt; copy" class="s46" d="m378.8 507v13h-12.8v-13h-8l14.4-18 14.5 18z"/>
			</g>
			<g id="&lt;Group&gt;">
			</g>
		</g>
	</g>
</svg>