<?xml version="1.0" encoding="utf-8"?>
<svg version="1.2" viewBox="0.748 5.143 833.556 574.164" width="748" height="563" xmlns="http://www.w3.org/2000/svg" xmlns:bx="https://boxy-svg.com">
  <title>home_page-svg</title>
  <defs>
    <linearGradient id="g1" x1="320.5" y1="-79" x2="277.5" y2="84.3" gradientUnits="userSpaceOnUse" gradientTransform="matrix(1, 0, 0, 1, 0, 0)">
      <stop offset="0" stop-color="#f54635"/>
      <stop offset="1" stop-color="#fb5d54"/>
    </linearGradient>
    <linearGradient id="g2" x1="312.9" y1="-81.1" x2="269.9" y2="82.1" gradientUnits="userSpaceOnUse" gradientTransform="matrix(1, 0, 0, 1, 0, 0)">
      <stop offset="0" stop-color="#f54635"/>
      <stop offset="1" stop-color="#fb5d54"/>
    </linearGradient>
    <linearGradient id="g5" x1="302" y1="-56" x2="263.3" y2="91.2" gradientUnits="userSpaceOnUse" gradientTransform="matrix(1, 0, 0, 1, 0, 0)">
      <stop offset="0" stop-color="#f54635"/>
      <stop offset="1" stop-color="#fb5d54"/>
    </linearGradient>
    <bx:grid x="0.799" y="5.285" width="208.267" height="286.922"/>
    <filter id="inner-shadow-filter-0" color-interpolation-filters="sRGB" x="-500%" y="-500%" width="1000%" height="1000%" bx:preset="inner-shadow 1 0 0 2 0.25 rgba(0,0,0,0.7)">
      <feOffset dx="0" dy="0"/>
      <feGaussianBlur stdDeviation="2"/>
      <feComposite operator="out" in="SourceGraphic"/>
      <feComponentTransfer result="choke">
        <feFuncA type="linear" slope="0.5"/>
      </feComponentTransfer>
      <feFlood flood-color="rgba(0,0,0,0.7)" result="color"/>
      <feComposite operator="in" in="color" in2="choke" result="shadow"/>
      <feComposite operator="over" in="shadow" in2="SourceGraphic"/>
    </filter>
    <filter id="drop-shadow-filter-0" color-interpolation-filters="sRGB" x="-500%" y="-500%" width="1000%" height="1000%" bx:preset="drop-shadow 1 6 -5 5 0.28 rgba(0,0,0,0.3)">
      <title>Drop shadow</title>
      <feGaussianBlur in="SourceAlpha" stdDeviation="5"/>
      <feOffset dx="6" dy="-5"/>
      <feComponentTransfer result="offsetblur">
        <feFuncA id="spread-ctrl" type="linear" slope="0.56"/>
      </feComponentTransfer>
      <feFlood flood-color="rgba(0,0,0,0.3)"/>
      <feComposite in2="offsetblur" operator="in"/>
      <feMerge>
        <feMergeNode/>
        <feMergeNode in="SourceGraphic"/>
      </feMerge>
    </filter>
    <filter id="drop-shadow-filter-1" color-interpolation-filters="sRGB" x="-500%" y="-500%" width="1000%" height="1000%" bx:preset="drop-shadow 1 10 -11 5 0.22 rgba(0,0,0,0.3)">
      <feGaussianBlur in="SourceAlpha" stdDeviation="5"/>
      <feOffset dx="10" dy="-11"/>
      <feComponentTransfer result="offsetblur">
        <feFuncA id="spread-ctrl" type="linear" slope="0.44"/>
      </feComponentTransfer>
      <feFlood flood-color="rgba(0,0,0,0.3)"/>
      <feComposite in2="offsetblur" operator="in"/>
      <feMerge>
        <feMergeNode/>
        <feMergeNode in="SourceGraphic"/>
      </feMerge>
    </filter>
    <filter id="drop-shadow-filter-2" color-interpolation-filters="sRGB" x="-500%" y="-500%" width="1000%" height="1000%" bx:preset="drop-shadow 1 1 -12 6 0.31 rgba(0,0,0,0.3)">
      <feGaussianBlur in="SourceAlpha" stdDeviation="6"/>
      <feOffset dx="1" dy="-12"/>
      <feComponentTransfer result="offsetblur">
        <feFuncA id="spread-ctrl" type="linear" slope="0.62"/>
      </feComponentTransfer>
      <feFlood flood-color="rgba(0,0,0,0.3)"/>
      <feComposite in2="offsetblur" operator="in"/>
      <feMerge>
        <feMergeNode/>
        <feMergeNode in="SourceGraphic"/>
      </feMerge>
    </filter>
    <filter id="drop-shadow-filter-3" color-interpolation-filters="sRGB" x="-500%" y="-500%" width="1000%" height="1000%" bx:preset="drop-shadow 1 4 -5 3 0.27 rgba(0,0,0,0.3)">
      <feGaussianBlur in="SourceAlpha" stdDeviation="3"/>
      <feOffset dx="4" dy="-5"/>
      <feComponentTransfer result="offsetblur">
        <feFuncA id="spread-ctrl" type="linear" slope="0.54"/>
      </feComponentTransfer>
      <feFlood flood-color="rgba(0,0,0,0.3)"/>
      <feComposite in2="offsetblur" operator="in"/>
      <feMerge>
        <feMergeNode/>
        <feMergeNode in="SourceGraphic"/>
      </feMerge>
    </filter>
    <filter id="drop-shadow-filter-4" color-interpolation-filters="sRGB" x="-500%" y="-500%" width="1000%" height="1000%" bx:preset="drop-shadow 1 10 -5 4 0.18 rgba(0,0,0,0.3)">
      <feGaussianBlur in="SourceAlpha" stdDeviation="4"/>
      <feOffset dx="10" dy="-5"/>
      <feComponentTransfer result="offsetblur">
        <feFuncA id="spread-ctrl" type="linear" slope="0.36"/>
      </feComponentTransfer>
      <feFlood flood-color="rgba(0,0,0,0.3)"/>
      <feComposite in2="offsetblur" operator="in"/>
      <feMerge>
        <feMergeNode/>
        <feMergeNode in="SourceGraphic"/>
      </feMerge>
    </filter>
  </defs>
  <style>
		.s0 { fill: #e6e7e8 } 
		.s1 { fill: #ffffff } 
		.s2 { fill: #a7a9ac } 
		.s3 { fill: #d1d3d4 } 
		.s4 { fill: #bcbec0 } 
		.s5 { opacity: .5;fill: #bcbec0 } 
		.s6 { fill: #414042 } 
		.s7 { fill: url(#g1) } 
		.s8 { fill: url(#g2) } 
		.s9 { fill: url(#g3) } 
		.s10 { fill: url(#g4) } 
		.s11 { fill: url(#g5) } 
		.s12 { opacity: .1;fill: #1f3c88 } 
		.s13 { fill: #58595b } 
		.s14 { opacity: .3;mix-blend-mode: multiply;fill: #6d6e71 } 
		.s15 { fill: #f9b384 } 
		.s16 { fill: #f73e3e } 
		.s17 { fill: #102048 } 
		.s18 { fill: #e28b6d } 
		.s19 { fill: #d62929 } 
		.s20 { fill: #b76821 } 
		.s21 { fill: #231f20 } 
		.s22 { fill: #b72020 } 
		.s23 { fill: #808285 } 
		.s24 { fill: #172c56 } 
		.s25 { opacity: .5;mix-blend-mode: multiply;fill: #bcbec0 } 
		.s26 { fill: #ffb67f } 
		.s27 { opacity: .2;fill: #000000 } 
		.s28 { fill: #aaa60a } 
		.s29 { fill: #e33364 } 
		.s30 { fill: #f9437d } 
		.s31 { fill: #ec8940 } 
		.s32 { fill: #60100e } 
		.s33 { fill: #9fa24b } 
		.s34 { fill: #000000 } 
		.s35 { fill: #261113 } 
		.s36 { fill: #e59b6a } 
		.s37 { fill: #352836 } 
		.s38 { mix-blend-mode: multiply;fill: none;stroke: #f1f2f2 } 
	</style>
  <g id="Layer" style="opacity: 0.6;" transform="matrix(1.135421, 0, 0, 1, 0.689416, 6.867301)">
    <path id="Layer" class="s0" d="m714.2 355.9c-27.1 39.9-77.9 62.2-127.1 59.7-44.9-2.4-87.8-23.3-132.8-21.6-42.8 1.7-81.5 23.5-121.8 37.6-70.1 24.5-148.7 25.6-219.4 2.9-24.1-7.6-50.9-22.9-51.5-47.5-0.7-23.5 23-40.4 31.3-62.5 9.6-25.9-3.5-54.8-21.4-76.2-17.9-21.4-40.7-39-55.3-62.6-11.7-18.9-17.3-41-16.6-63 0.8-25.7 24.3-45.3 50.6-41.9 12 1.5 24 5.3 34.8 10.2 27.4 12.7 52.5 31.8 82.4 36.8 30 4.9 60.7-5.2 86.9-20.1 26.3-14.9 49.4-34.5 74.7-50.8 51.4-33.3 111.9-53.1 173.5-56.8 29.7-1.7 60.3 0.3 87.8 11.5 27.4 11.1 51.6 32.3 60.7 59.9 10.7 32.1 0.6 69.2 16.2 99.4 10.3 19.7 29.9 33.1 43.9 50.5 30.3 37.7 30.2 94.5 3.1 134.5z"/>
  </g>
  <g id="Folder 1" style="visibility: hidden;">
    <path id="Layer" class="s1" d="m113.4 396.3l-0.1-2.4c-0.1-0.3 0.1-0.5 0.4-0.5 0.2 0 0.4 0.2 0.4 0.4l0.1 2.4c0 0.2-0.1 0.4-0.4 0.4-0.2 0-0.4-0.1-0.4-0.3z"/>
    <path id="Layer" class="s1" d="m113.3 388.2l0.3-2.3c0-0.3 0.2-0.5 0.5-0.5 0.3 0.1 0.5 0.3 0.4 0.5v0.1l-0.2 2.3c-0.1 0.3-0.3 0.5-0.5 0.5-0.3-0.1-0.5-0.3-0.5-0.6z"/>
    <path id="Layer" class="s1" d="m114.6 380.3l0.6-2.3c0-0.3 0.3-0.5 0.6-0.4 0.3 0.1 0.5 0.4 0.4 0.7l-0.6 2.3c-0.1 0.3-0.4 0.4-0.7 0.3-0.2 0-0.4-0.3-0.3-0.6z"/>
    <path id="Layer" class="s1" d="m117 372.7l0.9-2.3c0.1-0.3 0.5-0.4 0.8-0.3 0.3 0.1 0.4 0.5 0.3 0.8l-1 2.2c-0.1 0.3-0.4 0.4-0.7 0.3-0.3-0.1-0.5-0.4-0.3-0.7z"/>
    <path id="Layer" class="s1" d="m120.4 365.4l1.3-2.1c0.1-0.3 0.5-0.4 0.8-0.2 0.4 0.2 0.5 0.6 0.3 0.9l-1.3 2.1c-0.2 0.3-0.6 0.4-0.9 0.2-0.3-0.2-0.4-0.6-0.2-0.9z"/>
    <path id="Layer" class="s1" d="m124.8 358.7l1.5-1.9c0.3-0.3 0.7-0.3 1-0.1 0.3 0.2 0.4 0.7 0.1 1l-1.5 1.8v0.1c-0.2 0.3-0.7 0.3-0.9 0.1-0.3-0.3-0.4-0.7-0.2-1z"/>
    <path id="Layer" class="s1" d="m130.1 352.6l1.8-1.6c0.3-0.3 0.7-0.3 1 0 0.3 0.3 0.3 0.8 0 1v0.1l-1.7 1.6h-0.1c-0.3 0.3-0.7 0.3-1 0-0.3-0.3-0.3-0.8 0-1.1z"/>
    <path id="Layer" class="s1" d="m136.2 347.3l1.9-1.4c0.4-0.3 0.9-0.2 1.1 0.2 0.3 0.3 0.2 0.8-0.1 1.1q-0.1 0-0.1 0l-1.9 1.4c-0.4 0.2-0.9 0.2-1.1-0.2-0.2-0.3-0.2-0.8 0.2-1.1z"/>
    <path id="Layer" class="s1" d="m142.9 342.9l2.1-1.2c0.4-0.2 0.9 0 1.2 0.4 0.2 0.4 0 0.9-0.4 1.1l-2.1 1.1c-0.4 0.2-0.9 0.1-1.1-0.3-0.3-0.4-0.1-0.9 0.3-1.1z"/>
    <path id="Layer" class="s1" d="m150.2 339.5l2.3-0.8c0.4-0.2 0.9 0 1.1 0.5 0.2 0.4-0.1 0.9-0.5 1.1h-0.1l-2.2 0.8c-0.5 0.1-1-0.1-1.1-0.5-0.2-0.5 0.1-1 0.5-1.1z"/>
    <path id="Layer" class="s1" d="m158 337.2l2.4-0.4c0.5-0.1 0.9 0.2 1 0.7 0.1 0.5-0.2 1-0.7 1.1h-0.1l-2.3 0.4c-0.5 0.1-1-0.3-1.1-0.8-0.1-0.4 0.3-0.9 0.8-1z"/>
    <path id="Layer" class="s1" d="m166 336.2h2.4c0.6-0.1 1 0.4 1 0.9 0 0.5-0.4 1-0.9 1h-0.1-2.3-0.1c-0.5 0-0.9-0.4-0.9-0.9 0-0.5 0.4-1 0.9-1z"/>
    <path id="Layer" class="s1" d="m174.1 336.4l2.4 0.3c0.5 0 0.9 0.5 0.9 1.1-0.1 0.5-0.6 0.9-1.1 0.9h-0.1l-2.3-0.3h-0.1c-0.5-0.1-0.9-0.6-0.8-1.1 0-0.6 0.5-1 1.1-0.9z"/>
    <path id="Layer" class="s1" d="m182 337.6l2.4 0.5c0.6 0.1 0.9 0.7 0.8 1.3-0.1 0.5-0.7 0.9-1.3 0.8l-2.3-0.6c-0.6-0.1-0.9-0.7-0.8-1.2 0.1-0.6 0.7-0.9 1.2-0.8z"/>
    <path id="Layer" class="s1" d="m189.8 339.6l2.3 0.7c0.6 0.2 0.9 0.8 0.7 1.4-0.1 0.6-0.8 0.9-1.3 0.7h-0.1l-2.2-0.7v-0.1c-0.6-0.1-0.9-0.8-0.7-1.3 0.2-0.6 0.8-0.9 1.3-0.7z"/>
    <path id="Layer" class="s1" d="m197.4 342.2l2.3 0.9c0.5 0.2 0.8 0.9 0.6 1.5-0.2 0.6-0.9 0.9-1.5 0.6l-2.2-0.9c-0.6-0.2-0.9-0.9-0.6-1.5 0.2-0.5 0.8-0.8 1.4-0.6z"/>
    <path id="Layer" class="s1" d="m204.8 345.3l2.2 1c0.6 0.3 0.9 1 0.6 1.6-0.3 0.6-1 0.8-1.6 0.6v-0.1l-2.2-1c-0.6-0.2-0.8-0.9-0.5-1.5 0.2-0.6 0.9-0.9 1.5-0.6z"/>
    <path id="Layer" class="s1" d="m212 348.7l2.2 1.1c0.6 0.2 0.8 1 0.5 1.6-0.3 0.6-1 0.8-1.6 0.5l-2.1-1c-0.6-0.3-0.9-1.1-0.6-1.7 0.3-0.6 1.1-0.8 1.6-0.5z"/>
    <path id="Layer" class="s1" d="m219.2 352.3l2.1 1.1c0.6 0.3 0.9 1 0.5 1.6-0.3 0.6-1 0.9-1.6 0.6l-2.2-1.1c-0.6-0.4-0.8-1.1-0.5-1.7 0.3-0.6 1.1-0.8 1.7-0.5z"/>
    <path id="Layer" class="s1" d="m226.3 355.9l2.1 1.1c0.6 0.3 0.9 1 0.5 1.7-0.3 0.6-1 0.8-1.7 0.5l-2.1-1.1c-0.6-0.3-0.9-1-0.5-1.7 0.3-0.6 1-0.8 1.7-0.5z"/>
    <path id="Layer" class="s1" d="m233.3 359.4l2.2 1.1c0.6 0.3 0.9 1.1 0.6 1.7-0.3 0.6-1.1 0.9-1.7 0.6l-2.2-1.1c-0.6-0.3-0.9-1-0.6-1.7 0.3-0.6 1.1-0.9 1.7-0.6z"/>
    <path id="Layer" class="s1" d="m240.5 362.8l2.2 1c0.7 0.3 1 1.1 0.7 1.7-0.3 0.7-1.1 1-1.8 0.7l-2.2-1c-0.6-0.3-0.9-1.1-0.6-1.7 0.3-0.7 1-1 1.7-0.7z"/>
    <path id="Layer" class="s1" d="m247.8 366l2.2 0.9c0.7 0.3 1 1.1 0.7 1.7-0.3 0.7-1.1 1.1-1.8 0.8l-2.2-1c-0.7-0.2-1-1-0.7-1.7 0.3-0.7 1.1-1 1.7-0.7z"/>
    <path id="Layer" class="s1" d="m255.1 368.9l2.2 0.8c0.7 0.3 1.1 1.1 0.8 1.8-0.2 0.7-1 1.1-1.7 0.8l-2.3-0.8c-0.7-0.3-1-1.1-0.8-1.8 0.3-0.7 1.1-1.1 1.8-0.8z"/>
    <path id="Layer" class="s1" d="m262.5 371.6l2.3 0.8c0.7 0.2 1.1 1 0.9 1.8-0.3 0.7-1.1 1.1-1.8 0.8l-2.3-0.7c-0.7-0.3-1.1-1.1-0.9-1.8 0.3-0.8 1.1-1.1 1.8-0.9z"/>
    <path id="Layer" class="s1" d="m270 374.1l2.3 0.6c0.8 0.3 1.2 1.1 1 1.8-0.2 0.8-1 1.2-1.8 1l-2.3-0.7c-0.7-0.3-1.2-1-0.9-1.8 0.2-0.8 1-1.2 1.7-0.9z"/>
    <path id="Layer" class="s1" d="m277.6 376.2l2.3 0.6c0.8 0.2 1.3 1 1.1 1.8-0.2 0.8-1 1.3-1.8 1.1v-0.1l-2.3-0.6c-0.8-0.2-1.2-1-1-1.7 0.2-0.8 1-1.3 1.7-1.1z"/>
    <path id="Layer" class="s1" d="m285.3 378.1l2.3 0.5c0.8 0.2 1.4 1 1.2 1.8-0.2 0.8-1 1.3-1.8 1.1l-2.3-0.5c-0.8-0.2-1.3-1-1.2-1.8 0.2-0.8 1-1.3 1.8-1.1z"/>
    <path id="Layer" class="s1" d="m293 379.6l2.4 0.4c0.8 0.2 1.4 1 1.2 1.8-0.1 0.8-0.9 1.4-1.7 1.2l-2.4-0.4c-0.8-0.1-1.4-0.9-1.2-1.7 0.1-0.9 0.9-1.4 1.7-1.3z"/>
    <path id="Layer" class="s1" d="m300.8 380.8l2.4 0.3c0.8 0.1 1.5 0.9 1.3 1.8-0.1 0.8-0.8 1.4-1.7 1.3l-2.4-0.3c-0.8-0.1-1.4-0.9-1.3-1.7 0.1-0.9 0.9-1.5 1.7-1.4z"/>
    <path id="Layer" class="s1" d="m308.7 381.7l2.3 0.1c0.9 0.1 1.6 0.9 1.5 1.7-0.1 0.9-0.8 1.5-1.7 1.5l-2.4-0.2c-0.9-0.1-1.5-0.8-1.4-1.7 0-0.9 0.8-1.5 1.6-1.4z"/>
    <path id="Layer" class="s1" d="m316.5 382.1l2.4 0.1c0.9 0 1.6 0.7 1.6 1.6 0 0.9-0.8 1.6-1.7 1.5h-2.4c-0.9 0-1.5-0.8-1.5-1.7 0-0.8 0.7-1.5 1.6-1.5z"/>
    <path id="Layer" class="s1" d="m324.4 382.1l2.3-0.1h0.1c0.9 0 1.6 0.7 1.7 1.6 0 0.9-0.7 1.7-1.6 1.7l-2.4 0.1c-0.9 0-1.7-0.7-1.7-1.6 0-0.9 0.7-1.7 1.6-1.7z"/>
    <path id="Layer" class="s1" d="m332.2 381.7l2.4-0.2c0.9-0.1 1.7 0.6 1.8 1.5 0.1 0.9-0.6 1.7-1.5 1.8l-2.4 0.2c-0.9 0-1.7-0.6-1.8-1.5-0.1-0.9 0.6-1.7 1.5-1.8z"/>
    <path id="Layer" class="s1" d="m340 380.8l2.4-0.3v-0.1c0.9-0.1 1.8 0.5 1.9 1.5 0.1 0.9-0.5 1.7-1.4 1.9l-2.4 0.3c-0.9 0.2-1.8-0.5-1.9-1.4-0.1-0.9 0.5-1.7 1.4-1.9z"/>
    <path id="Layer" class="s1" d="m347.8 379.4l2.2-0.5h0.1c0.9-0.2 1.8 0.4 2 1.3 0.2 0.9-0.4 1.8-1.3 2l-2.3 0.6c-1 0.2-1.9-0.4-2.1-1.3-0.2-0.9 0.4-1.8 1.3-2z"/>
    <path id="Layer" class="s1" d="m355.3 377.5l2.3-0.6c0.9-0.3 1.9 0.2 2.2 1.1 0.3 0.9-0.3 1.9-1.2 2.2l-2.3 0.7c-0.9 0.2-1.9-0.3-2.1-1.2-0.3-0.9 0.2-1.9 1.1-2.2z"/>
    <path id="Layer" class="s1" d="m362.8 375.1l2.2-0.8c0.9-0.4 1.9 0.1 2.3 1 0.3 0.9-0.2 1.9-1.1 2.2l-2.2 0.9c-0.9 0.3-1.9-0.1-2.3-1-0.3-0.9 0.2-1.9 1.1-2.3z"/>
    <path id="Layer" class="s1" d="m370.1 372.2l2.1-1c0.9-0.4 1.9 0 2.3 0.9 0.4 0.8 0.1 1.9-0.8 2.3l-2.2 1c-0.9 0.4-1.9 0-2.3-0.9-0.4-0.9 0-1.9 0.8-2.3z"/>
    <path id="Layer" class="s1" d="m377.1 368.8l2.1-1.1v-0.1c0.9-0.4 1.9-0.1 2.4 0.7 0.4 0.9 0.1 2-0.7 2.4l-2.2 1.2c-0.8 0.4-1.9 0.1-2.3-0.7-0.5-0.9-0.2-2 0.7-2.4z"/>
    <path id="Layer" class="s1" d="m383.9 364.9l2-1.3c0.8-0.5 1.9-0.3 2.4 0.5 0.6 0.9 0.3 1.9-0.5 2.5l-2.1 1.3c-0.8 0.5-1.9 0.2-2.4-0.6-0.5-0.8-0.3-1.9 0.6-2.4z"/>
    <path id="Layer" class="s1" d="m390.4 360.5l1.9-1.4c0.8-0.6 1.9-0.4 2.5 0.4 0.6 0.7 0.4 1.8-0.4 2.4l-1.9 1.5c-0.8 0.6-1.9 0.4-2.5-0.4-0.6-0.8-0.4-1.9 0.4-2.5z"/>
    <path id="Layer" class="s1" d="m396.5 355.7l1.8-1.6c0.8-0.6 1.9-0.5 2.6 0.2 0.6 0.7 0.5 1.9-0.2 2.5l-1.9 1.6c-0.7 0.6-1.8 0.6-2.5-0.2-0.6-0.7-0.5-1.9 0.2-2.5z"/>
    <path id="Layer" class="s1" d="m402.3 350.4l1.6-1.7h0.1c0.7-0.7 1.8-0.7 2.5 0 0.7 0.7 0.7 1.8 0 2.5l-1.7 1.7c-0.7 0.8-1.8 0.8-2.5 0.1-0.7-0.7-0.7-1.9 0-2.6z"/>
    <path id="Layer" class="s1" d="m407.6 344.7l1.5-1.8c0.7-0.8 1.8-0.9 2.6-0.3 0.7 0.7 0.8 1.8 0.2 2.6l-1.6 1.8c-0.6 0.8-1.7 0.9-2.5 0.3-0.8-0.7-0.9-1.8-0.2-2.6z"/>
    <path id="Layer" class="s1" d="m412.4 338.6l1.4-2c0.6-0.8 1.7-1 2.5-0.4 0.8 0.5 1 1.7 0.5 2.5h-0.1l-1.3 2c-0.6 0.8-1.7 1-2.6 0.4-0.8-0.6-1-1.7-0.4-2.5z"/>
    <path id="Layer" class="s1" d="m416.7 332l1.1-2c0.5-0.9 1.6-1.2 2.5-0.7 0.9 0.5 1.2 1.6 0.7 2.5l-1.2 2.1c-0.5 0.8-1.6 1.2-2.5 0.7-0.9-0.5-1.2-1.7-0.7-2.5z"/>
    <path id="Layer" class="s1" d="m420.3 325.2l0.9-2.2h0.1c0.4-0.9 1.4-1.4 2.4-0.9 0.9 0.4 1.3 1.4 0.9 2.4l-1 2.2c-0.4 0.9-1.5 1.3-2.4 0.9-0.9-0.4-1.4-1.5-0.9-2.4z"/>
    <path id="Layer" class="s1" d="m423.2 318l0.7-2.3h0.1c0.3-1 1.3-1.5 2.3-1.2 0.9 0.3 1.5 1.4 1.1 2.3v0.1l-0.7 2.3c-0.4 0.9-1.4 1.4-2.4 1.1-0.9-0.3-1.4-1.3-1.1-2.3z"/>
    <path id="Layer" class="s1" d="m425.4 310.5q0.3-1.1 0.5-2.3c0.2-1 1.2-1.6 2.2-1.4 1 0.2 1.6 1.2 1.4 2.2q-0.2 1.2-0.5 2.4c-0.3 1-1.3 1.6-2.3 1.3-0.9-0.2-1.6-1.2-1.3-2.2z"/>
    <path id="Layer" class="s1" d="m426.8 302.9l0.3-2.3v-0.1c0.1-1 1.1-1.7 2.1-1.6 1 0.1 1.7 1.1 1.6 2.1l-0.3 2.4c-0.1 1-1.1 1.7-2.1 1.6-1-0.1-1.7-1.1-1.6-2.1z"/>
    <path id="Layer" class="s1" d="m427.5 295.1l0.1-2.3v-0.1c0.1-1 0.9-1.8 2-1.8 1 0.1 1.8 0.9 1.8 2l-0.1 2.4c-0.1 1-0.9 1.8-2 1.8-1 0-1.8-0.9-1.8-1.9z"/>
    <path id="Layer" class="s1" d="m427.6 287.3l-0.1-2.3c-0.1-1.1 0.7-2 1.8-2 1-0.1 1.9 0.7 1.9 1.8l0.1 2.4c0.1 1-0.7 1.9-1.8 2-1 0-1.9-0.8-1.9-1.8z"/>
    <path id="Layer" class="s1" d="m427 279.6l-0.3-2.4c-0.1-1 0.6-2 1.6-2.1 1.1-0.1 2 0.6 2.1 1.6l0.3 2.4c0.2 1.1-0.6 2-1.6 2.1-1 0.2-2-0.6-2.1-1.6z"/>
    <path id="Layer" class="s1" d="m425.9 271.8l-0.5-2.3c-0.2-1 0.5-2 1.5-2.2 1-0.2 2 0.4 2.2 1.5l0.5 2.3c0.2 1.1-0.5 2.1-1.5 2.3-1.1 0.1-2-0.5-2.2-1.6z"/>
    <path id="Layer" class="s1" d="m424.2 264.2l-0.5-2.3-0.1-0.1c-0.2-1 0.4-2 1.4-2.3 1-0.2 2.1 0.4 2.3 1.4l0.6 2.4c0.3 1-0.4 2-1.4 2.3-1 0.2-2-0.4-2.3-1.4z"/>
    <path id="Layer" class="s1" d="m422.2 256.6l-0.7-2.3c-0.3-1 0.2-2.1 1.2-2.4 1.1-0.3 2.1 0.3 2.4 1.3l0.7 2.3c0.3 1-0.2 2.1-1.2 2.4-1.1 0.3-2.1-0.3-2.4-1.3z"/>
    <path id="Layer" class="s1" d="m419.8 249.1l-0.8-2.3c-0.4-1 0.2-2.1 1.2-2.4 1-0.4 2 0.2 2.4 1.2l0.8 2.2c0.3 1-0.2 2.1-1.2 2.5-1 0.3-2.1-0.2-2.4-1.2z"/>
    <path id="Layer" class="s1" d="m417.1 241.7l-0.9-2.2v-0.1c-0.4-0.9 0.1-2.1 1.1-2.4 1-0.4 2.1 0.1 2.5 1v0.1l0.9 2.2c0.3 1-0.1 2.1-1.1 2.5-1 0.4-2.1-0.1-2.5-1.1z"/>
    <path id="Layer" class="s1" d="m414.1 234.3l-0.9-2.1v-0.1c-0.4-0.9 0-2.1 1-2.5 1-0.4 2.1 0.1 2.6 1l0.9 2.3c0.4 0.9-0.1 2.1-1 2.5-1 0.4-2.2-0.1-2.6-1z"/>
    <path id="Layer" class="s1" d="m411 227.1l-1-2.2c-0.4-1 0-2.1 1-2.6 1-0.4 2.1 0 2.6 1l0.9 2.2c0.5 1 0 2.1-0.9 2.6-1 0.4-2.2 0-2.6-1z"/>
    <path id="Layer" class="s1" d="m407.7 219.9l-1-2.2c-0.5-1 0-2.1 0.9-2.6 1-0.4 2.2 0 2.6 1l1 2.1c0.5 1 0.1 2.2-0.9 2.6-1 0.5-2.1 0.1-2.6-0.9z"/>
    <path id="Layer" class="s1" d="m404.3 212.7l-1-2.1c-0.5-1-0.1-2.2 0.9-2.7 1-0.4 2.2 0 2.6 1l1.1 2.1c0.4 1 0 2.2-1 2.6-0.9 0.5-2.1 0.1-2.6-0.9z"/>
    <path id="Layer" class="s1" d="m400.9 205.5l-1.1-2.1c-0.4-1 0-2.2 1-2.6 0.9-0.5 2.1-0.1 2.6 0.9l1 2.1c0.5 1 0.1 2.2-0.9 2.7-1 0.4-2.1 0-2.6-1z"/>
    <path id="Layer" class="s1" d="m397.4 198.4l-1-2.2c-0.4-1 0-2.2 1-2.6 0.9-0.5 2.1-0.1 2.6 0.9l1 2.2c0.5 1 0 2.1-0.9 2.6-1 0.5-2.2 0-2.7-0.9z"/>
    <path id="Layer" class="s1" d="m394.1 191.1l-1-2.2c-0.4-1 0-2.1 1-2.6 1-0.4 2.1 0 2.6 1l0.9 2.2c0.5 1 0.1 2.1-0.9 2.6-1 0.4-2.2 0-2.6-1z"/>
    <path id="Layer" class="s1" d="m390.9 183.8l-1-2.2c-0.4-1 0.1-2.1 1.1-2.6 0.9-0.4 2.1 0.1 2.5 1.1l0.9 2.2c0.5 1 0 2.1-1 2.5-1 0.5-2.1 0-2.5-1z"/>
    <path id="Layer" class="s1" d="m387.8 176.4l-0.9-2.2c-0.4-1 0.1-2.1 1.1-2.5 1-0.4 2.1 0.1 2.5 1.1l0.9 2.2c0.4 1-0.1 2.1-1.1 2.5-1 0.4-2.1-0.1-2.5-1.1z"/>
    <path id="Layer" class="s1" d="m385 168.9l-0.9-2.3c-0.3-1 0.2-2.1 1.2-2.4 1-0.4 2.1 0.2 2.5 1.2l0.8 2.2c0.3 1-0.2 2.1-1.2 2.5-1 0.3-2.1-0.2-2.4-1.2z"/>
    <path id="Layer" class="s1" d="m382.4 161.3l-0.7-2.3c-0.4-1 0.2-2.1 1.2-2.4 1-0.3 2.1 0.3 2.4 1.3l0.7 2.2v0.1c0.4 1-0.2 2.1-1.2 2.4-1 0.3-2.1-0.3-2.4-1.3z"/>
    <path id="Layer" class="s1" d="m380.1 153.6l-0.6-2.3c-0.3-1 0.3-2.1 1.3-2.4 1.1-0.2 2.1 0.4 2.4 1.4l0.6 2.3c0.3 1.1-0.3 2.1-1.4 2.4-1 0.2-2-0.4-2.3-1.4z"/>
    <path id="Layer" class="s1" d="m378.2 145.8l-0.5-2.4c-0.2-1 0.5-2 1.5-2.2 1-0.2 2 0.4 2.2 1.5l0.5 2.3c0.2 1-0.4 2.1-1.4 2.3-1.1 0.2-2.1-0.5-2.3-1.5z"/>
    <path id="Layer" class="s1" d="m376.8 137.8l-0.4-2.4c-0.1-1 0.6-1.9 1.6-2.1 1.1-0.1 2 0.6 2.2 1.6v0.1l0.3 2.3c0.1 1.1-0.6 2-1.6 2.2-1 0.1-2-0.6-2.1-1.6z"/>
    <path id="Layer" class="s1" d="m375.8 129.8l-0.1-2.4c-0.1-1 0.7-1.9 1.7-2 1-0.1 1.9 0.7 2 1.7v0.1l0.2 2.3v0.1c0.1 1-0.7 1.9-1.8 2-1 0-1.9-0.7-2-1.8z"/>
    <path id="Layer" class="s1" d="m375.5 121.7v-2.4c0-1 0.9-1.9 1.9-1.9 1.1 0.1 1.9 0.9 1.9 1.9v0.1 2.3 0.1c-0.1 1-0.9 1.8-1.9 1.8-1.1 0-1.9-0.8-1.9-1.9z"/>
    <path id="Layer" class="s1" d="m375.9 113.6l0.2-2.4c0.1-1 1-1.8 2.1-1.7 1 0.1 1.7 1.1 1.6 2.1l-0.2 2.3v0.1c-0.1 1-1 1.8-2.1 1.7-1-0.1-1.7-1-1.6-2.1z"/>
    <path id="Layer" class="s1" d="m377 105.6l0.4-2.4c0.2-1 1.2-1.7 2.2-1.5 1 0.2 1.7 1.2 1.5 2.2v0.1l-0.5 2.2v0.1c-0.2 1-1.2 1.7-2.2 1.5-1-0.2-1.6-1.2-1.4-2.2z"/>
    <path id="Layer" class="s1" d="m378.8 97.7q0.4-1.2 0.7-2.4c0.4-1 1.4-1.5 2.4-1.2 0.9 0.3 1.5 1.4 1.2 2.4q-0.4 1.1-0.7 2.2c-0.3 1-1.3 1.5-2.3 1.3-1-0.3-1.6-1.4-1.3-2.3z"/>
    <path id="Layer" class="s1" d="m381.5 90l1-2.3c0.4-0.9 1.5-1.3 2.4-0.9 0.9 0.4 1.4 1.4 1 2.4h-0.1l-0.9 2.2c-0.4 0.9-1.5 1.4-2.4 1-1-0.4-1.4-1.5-1-2.4z"/>
    <path id="Layer" class="s1" d="m385 82.6l1.2-2.1c0.5-0.9 1.6-1.2 2.5-0.7 0.9 0.5 1.2 1.6 0.7 2.5l-1.2 2v0.1c-0.5 0.9-1.6 1.2-2.5 0.7-0.9-0.5-1.2-1.6-0.7-2.5z"/>
    <path id="Layer" class="s1" d="m389.2 75.6l1.4-2c0.6-0.8 1.7-1 2.5-0.4 0.9 0.6 1.1 1.7 0.5 2.5v0.1l-1.4 1.9c-0.6 0.9-1.7 1.1-2.5 0.5-0.9-0.6-1.1-1.7-0.5-2.5z"/>
    <path id="Layer" class="s1" d="m394.1 69.1l1.6-1.8c0.6-0.8 1.7-0.9 2.5-0.2 0.8 0.6 0.9 1.8 0.2 2.5v0.1l-1.5 1.8h-0.1c-0.6 0.8-1.7 0.9-2.5 0.2-0.8-0.6-0.9-1.8-0.2-2.6z"/>
    <path id="Layer" class="s1" d="m399.5 63.1l1.8-1.7c0.7-0.7 1.8-0.7 2.5 0 0.7 0.8 0.7 1.9 0 2.6l-1.7 1.7c-0.8 0.7-1.9 0.7-2.6 0-0.7-0.7-0.7-1.9 0-2.6z"/>
    <path id="Layer" class="s1" d="m405.5 57.6l1.8-1.5c0.8-0.7 1.9-0.5 2.6 0.2 0.6 0.8 0.5 1.9-0.3 2.5v0.1l-1.8 1.5c-0.8 0.6-1.9 0.5-2.6-0.2-0.6-0.8-0.5-1.9 0.3-2.6z"/>
    <path id="Layer" class="s1" d="m411.9 52.6l1.9-1.3c0.9-0.6 2-0.4 2.5 0.4 0.6 0.8 0.4 1.9-0.4 2.5l-2 1.4c-0.8 0.5-1.9 0.3-2.5-0.5-0.6-0.8-0.4-1.9 0.4-2.5z"/>
    <path id="Layer" class="s1" d="m418.6 48.2l2.1-1.2c0.9-0.5 1.9-0.2 2.4 0.6 0.5 0.9 0.3 1.9-0.6 2.4v0.1l-2 1.1-0.1 0.1c-0.8 0.5-1.9 0.2-2.4-0.7-0.5-0.8-0.2-1.9 0.6-2.4z"/>
    <path id="Layer" class="s1" d="m425.7 44.3l2.2-1.1c0.9-0.4 1.9 0 2.3 0.9 0.5 0.8 0.1 1.9-0.8 2.3l-2.1 1.1c-0.9 0.4-2 0.1-2.4-0.8-0.4-0.9-0.1-2 0.8-2.4z"/>
    <path id="Layer" class="s1" d="m433.1 41l2.2-0.9c0.9-0.4 1.9 0.1 2.3 1 0.4 0.9-0.1 1.9-1 2.2v0.1l-2.2 0.8c-0.9 0.4-2 0-2.3-0.9-0.4-0.9 0.1-2 1-2.3z"/>
    <path id="Layer" class="s1" d="m440.7 38.2l2.3-0.7c0.9-0.3 1.9 0.2 2.2 1.1 0.3 1-0.3 1.9-1.2 2.2l-2.3 0.7c-0.9 0.3-1.9-0.2-2.2-1.1-0.3-0.9 0.2-1.9 1.2-2.2z"/>
    <path id="Layer" class="s1" d="m448.5 36l2.3-0.5c1-0.2 1.9 0.4 2.1 1.3 0.2 0.9-0.4 1.9-1.3 2.1l-2.3 0.5h-0.1c-0.9 0.2-1.8-0.3-2.1-1.3-0.2-0.9 0.4-1.9 1.3-2.1z"/>
    <path id="Layer" class="s1" d="m456.4 34.5l2.4-0.4c0.9-0.1 1.8 0.5 1.9 1.5 0.2 0.9-0.5 1.8-1.4 1.9h-0.1l-2.3 0.4c-1 0.1-1.8-0.5-2-1.5-0.1-0.9 0.5-1.8 1.5-1.9z"/>
    <path id="Layer" class="s1" d="m464.4 33.5l2.4-0.2c1-0.1 1.8 0.7 1.9 1.6 0 0.9-0.7 1.8-1.6 1.8h-0.1l-2.3 0.2c-1 0.1-1.8-0.6-1.9-1.5-0.1-1 0.6-1.8 1.6-1.9z"/>
    <path id="Layer" class="s1" d="m472.5 33.1h2.4c0.9 0 1.7 0.7 1.7 1.6 0 1-0.8 1.7-1.7 1.8h-2.4c-0.9 0-1.7-0.7-1.7-1.7-0.1-0.9 0.7-1.7 1.6-1.7z"/>
    <path id="Layer" class="s1" d="m480.5 33.2l2.4 0.1c0.9 0.1 1.6 0.9 1.6 1.8-0.1 0.9-0.8 1.6-1.7 1.6h-0.1l-2.3-0.2h-0.1c-0.9 0-1.6-0.8-1.6-1.7 0.1-0.9 0.9-1.7 1.8-1.6z"/>
    <path id="Layer" class="s1" d="m488.5 33.8l2.4 0.3c0.9 0.1 1.6 0.9 1.5 1.8-0.1 0.9-0.9 1.5-1.8 1.4h-0.1l-2.3-0.2c-0.9-0.1-1.6-0.9-1.5-1.8 0.1-0.9 0.9-1.6 1.8-1.5z"/>
    <path id="Layer" class="s1" d="m496.5 34.9l2.4 0.4c0.9 0.1 1.5 1 1.3 1.8-0.1 0.9-1 1.5-1.9 1.4l-2.3-0.4c-0.9-0.2-1.5-1-1.4-1.9 0.2-0.9 1-1.5 1.9-1.3z"/>
    <path id="Layer" class="s1" d="m504.4 36.4l2.4 0.5c0.8 0.2 1.3 1.1 1.2 1.9-0.2 0.9-1.1 1.4-1.9 1.2h-0.1l-2.3-0.5c-0.9-0.2-1.4-1-1.2-1.9 0.2-0.9 1-1.4 1.9-1.2z"/>
    <path id="Layer" class="s1" d="m512.2 38.3l2.3 0.6c0.9 0.3 1.3 1.1 1.1 2-0.2 0.8-1.1 1.3-1.9 1.1l-2.3-0.7c-0.9-0.2-1.4-1.1-1.1-1.9 0.2-0.8 1.1-1.3 1.9-1.1z"/>
    <path id="Layer" class="s1" d="m519.9 40.6l2.3 0.8c0.8 0.2 1.2 1.1 1 1.9-0.3 0.8-1.2 1.2-2 1l-2.3-0.8c-0.8-0.2-1.2-1.1-1-1.9 0.3-0.8 1.2-1.3 2-1z"/>
    <path id="Layer" class="s1" d="m527.5 43.2l2.2 0.9c0.8 0.3 1.2 1.2 0.9 2-0.3 0.7-1.2 1.1-2 0.8l-2.2-0.8c-0.8-0.3-1.2-1.2-0.9-2 0.3-0.8 1.2-1.2 2-0.9z"/>
    <path id="Layer" class="s1" d="m534.9 46.2l2.2 1c0.8 0.3 1.1 1.2 0.8 1.9-0.3 0.8-1.2 1.1-2 0.8l-2.1-0.9h-0.1c-0.7-0.4-1.1-1.2-0.8-2 0.4-0.8 1.2-1.1 2-0.8z"/>
    <path id="Layer" class="s1" d="m542.2 49.5l2.2 1c0.7 0.4 1 1.3 0.7 2-0.4 0.7-1.3 1-2 0.7l-2.1-1c-0.8-0.4-1.1-1.3-0.7-2 0.3-0.7 1.2-1 1.9-0.7z"/>
    <path id="Layer" class="s1" d="m549.4 53.1l2.1 1.1c0.7 0.4 1 1.2 0.6 1.9-0.4 0.7-1.2 1-1.9 0.6l-2.1-1.1h-0.1c-0.7-0.3-0.9-1.2-0.6-1.9 0.4-0.7 1.3-1 2-0.6z"/>
    <path id="Layer" class="s1" d="m556.4 56.9l2.1 1.2c0.7 0.4 0.9 1.3 0.5 2-0.4 0.6-1.3 0.9-1.9 0.5l-2.1-1.2c-0.7-0.4-0.9-1.3-0.5-2 0.4-0.6 1.2-0.9 1.9-0.5z"/>
    <path id="Layer" class="s1" d="m563.3 61.1l2 1.2c0.6 0.5 0.8 1.3 0.4 2-0.4 0.6-1.2 0.8-1.9 0.4l-2-1.3c-0.7-0.4-0.9-1.3-0.5-1.9 0.5-0.7 1.3-0.9 2-0.4z"/>
    <path id="Layer" class="s1" d="m570 65.5l1.9 1.3c0.6 0.5 0.8 1.3 0.4 1.9-0.5 0.6-1.3 0.8-1.9 0.4v-0.1l-2-1.3c-0.6-0.4-0.8-1.3-0.3-1.9 0.4-0.6 1.2-0.8 1.9-0.3z"/>
    <path id="Layer" class="s1" d="m576.5 70.2l1.9 1.4c0.5 0.5 0.7 1.3 0.2 1.9-0.4 0.6-1.3 0.7-1.8 0.2h-0.1l-1.9-1.4c-0.5-0.5-0.7-1.3-0.2-1.9 0.4-0.6 1.3-0.7 1.8-0.3z"/>
    <path id="Layer" class="s1" d="m582.7 75.1l1.9 1.6c0.5 0.5 0.6 1.3 0.1 1.8-0.4 0.6-1.3 0.6-1.8 0.2l-1.8-1.5-0.1-0.1c-0.5-0.4-0.6-1.2-0.1-1.8 0.4-0.6 1.3-0.6 1.8-0.2z"/>
    <path id="Layer" class="s1" d="m588.8 80.4l1.7 1.7c0.5 0.4 0.5 1.3 0.1 1.8-0.5 0.5-1.3 0.5-1.8 0l-1.8-1.6c-0.5-0.5-0.5-1.3-0.1-1.8 0.5-0.5 1.3-0.6 1.8-0.1z"/>
    <path id="Layer" class="s1" d="m594.5 86l1.7 1.8c0.4 0.5 0.4 1.2-0.1 1.7-0.5 0.5-1.3 0.5-1.7 0l-1.7-1.7c-0.5-0.5-0.5-1.3 0-1.8 0.5-0.5 1.3-0.5 1.8 0z"/>
    <path id="Layer" class="s1" d="m599.9 91.9l1.6 1.9c0.4 0.5 0.4 1.2-0.1 1.7-0.6 0.4-1.3 0.3-1.8-0.2l-1.5-1.8c-0.5-0.5-0.4-1.3 0.1-1.7 0.5-0.5 1.3-0.4 1.7 0.1z"/>
    <path id="Layer" class="s1" d="m605 98.1l1.4 2c0.4 0.5 0.3 1.2-0.2 1.6-0.5 0.4-1.3 0.3-1.7-0.2l-1.4-1.9c-0.4-0.5-0.3-1.3 0.2-1.7 0.5-0.4 1.3-0.3 1.7 0.2z"/>
    <path id="Layer" class="s1" d="m609.7 104.7l1.3 2c0.3 0.5 0.2 1.3-0.4 1.6-0.5 0.3-1.2 0.2-1.6-0.3v-0.1l-1.3-1.9c-0.3-0.6-0.2-1.3 0.3-1.7 0.6-0.3 1.3-0.2 1.7 0.4z"/>
    <path id="Layer" class="s1" d="m613.9 111.5l1.1 2.1c0.3 0.6 0.1 1.2-0.4 1.5-0.5 0.3-1.2 0.1-1.5-0.4l-1.2-2.1c-0.3-0.5-0.1-1.2 0.4-1.5 0.6-0.3 1.3-0.1 1.6 0.4z"/>
    <path id="Layer" class="s1" d="m617.6 118.7l1 2.1c0.2 0.6 0 1.2-0.6 1.5-0.5 0.2-1.1 0-1.4-0.6l-1-2.1c-0.3-0.6 0-1.2 0.5-1.5 0.6-0.2 1.2 0 1.5 0.5q0 0 0 0.1z"/>
    <path id="Layer" class="s1" d="m620.7 126l0.8 2.3c0.2 0.5 0 1.1-0.6 1.3-0.5 0.2-1.1-0.1-1.3-0.6l-0.8-2.2c-0.2-0.6 0-1.2 0.6-1.4 0.5-0.2 1.1 0.1 1.3 0.6z"/>
    <path id="Layer" class="s1" d="m623.3 133.7l0.6 2.3c0.1 0.5-0.2 1.1-0.7 1.2-0.5 0.1-1.1-0.2-1.2-0.7l-0.7-2.3c-0.1-0.5 0.2-1.1 0.7-1.2 0.6-0.2 1.1 0.1 1.2 0.7q0.1 0 0.1 0z"/>
    <path id="Layer" class="s1" d="m625.1 141.5l0.4 2.4c0.1 0.5-0.3 1-0.8 1.1-0.5 0-1-0.3-1.1-0.8l-0.4-2.3v-0.1c-0.1-0.5 0.3-1 0.8-1.1 0.5-0.1 1 0.3 1.1 0.8z"/>
    <path id="Layer" class="s1" d="m626.2 149.5l0.2 2.4c0 0.4-0.3 0.9-0.8 0.9-0.5 0.1-1-0.3-1-0.8l-0.2-2.4c-0.1-0.5 0.3-0.9 0.8-1 0.5 0 0.9 0.3 1 0.8q0 0 0 0.1z"/>
    <path id="Layer" class="s1" d="m626.6 157.5v2.4c0 0.5-0.4 0.8-0.9 0.8-0.5 0-0.8-0.4-0.8-0.8v-2.4c0-0.5 0.3-0.9 0.8-0.9 0.5 0 0.9 0.4 0.9 0.9z"/>
    <path id="Layer" class="s1" d="m626.3 165.5l-0.3 2.4c0 0.4-0.4 0.8-0.8 0.7-0.5 0-0.8-0.4-0.8-0.9l0.2-2.3v-0.1c0.1-0.4 0.5-0.7 0.9-0.7 0.5 0 0.8 0.4 0.8 0.9z"/>
    <path id="Layer" class="s1" d="m625.3 173.4l-0.5 2.4c-0.1 0.4-0.5 0.7-0.9 0.6-0.4-0.1-0.7-0.5-0.6-0.9l0.4-2.3c0.1-0.5 0.5-0.7 0.9-0.7 0.5 0.1 0.7 0.5 0.7 0.9z"/>
    <path id="Layer" class="s1" d="m623.5 181.3l-0.7 2.3c-0.1 0.4-0.5 0.6-0.8 0.5-0.4-0.1-0.6-0.5-0.5-0.9l0.6-2.3c0.1-0.4 0.5-0.6 0.9-0.5 0.4 0.1 0.6 0.5 0.5 0.9z"/>
    <path id="Layer" class="s1" d="m621 188.9l-0.8 2.2c-0.2 0.4-0.6 0.6-0.9 0.4-0.4-0.1-0.5-0.5-0.4-0.9l0.8-2.2c0.2-0.4 0.6-0.5 0.9-0.4 0.4 0.1 0.6 0.5 0.4 0.9z"/>
    <path id="Layer" class="s1" d="m617.8 196.2l-1.1 2.2c-0.2 0.3-0.5 0.4-0.9 0.2-0.3-0.1-0.4-0.5-0.2-0.8l1.1-2.1c0.1-0.4 0.5-0.5 0.8-0.3 0.4 0.1 0.5 0.5 0.3 0.8z"/>
    <path id="Layer" class="s1" d="m613.8 203.2l-1.3 2c-0.2 0.3-0.6 0.3-0.8 0.1-0.3-0.1-0.4-0.5-0.2-0.7v-0.1l1.3-1.9v-0.1c0.2-0.2 0.6-0.3 0.8-0.1 0.3 0.2 0.4 0.5 0.2 0.8z"/>
    <path id="Layer" class="s1" d="m609.1 209.6l-1.6 1.9c-0.2 0.2-0.5 0.2-0.7 0-0.3-0.2-0.3-0.5-0.1-0.7l1.5-1.8c0.2-0.3 0.6-0.3 0.8-0.1 0.2 0.2 0.2 0.5 0.1 0.7z"/>
    <path id="Layer" class="s1" d="m603.6 215.5l-1.8 1.6c-0.2 0.1-0.5 0.1-0.7-0.1-0.2-0.1-0.1-0.4 0.1-0.6l1.7-1.6c0.2-0.2 0.5-0.2 0.7 0 0.2 0.2 0.1 0.5 0 0.7z"/>
    <path id="Layer" class="s1" d="m597.4 220.6l-2 1.3c-0.2 0.1-0.4 0.1-0.6-0.1-0.1-0.2 0-0.4 0.1-0.5v-0.1l2-1.3c0.2-0.2 0.4-0.1 0.6 0.1 0.1 0.2 0.1 0.4-0.1 0.5q0 0 0 0.1z"/>
  </g>
  <path id="Layer" class="s5" d="M 237.944 428.126 L 97.376 430.744 C 55.187 421.411 40.542 397.206 53.441 358.127 C 72.677 299.509 70.742 298.826 47.409 272.875 C 24.076 246.924 -13.826 187.624 26.807 160.99 C 67.441 134.356 84.059 170.323 91.344 195.592 C 98.742 220.973 106.026 222.225 124.01 202.307 C 141.993 182.275 174.66 216.307 175.912 257.624 C 176.822 285.093 197.5 341.927 237.944 428.126 Z" style=""/>
  <g transform="matrix(0.951057, 0.309017, -0.309017, 0.951057, 44.077641, 69.477699)" style="filter: url(#drop-shadow-filter-1);">
    <g>
      <path id="Layer" class="s2" d="M 87 137.7 L 164.4 105.8 C 169.6 103.6 175.5 106.2 177.4 111.5 L 221.1 235.5 C 222.8 240.4 220.4 245.8 215.6 247.7 L 155 272.2 C 150.4 274 145 272.1 142.7 267.7 L 82.1 151.2 C 79.5 146.1 81.7 139.8 87 137.7 Z" style=""/>
      <path id="Layer" class="s1" d="M 91.4 139.3 L 162.5 110 C 167.2 108.1 172.7 110.5 174.4 115.5 L 215.7 232.1 C 217.3 236.8 215.1 241.8 210.7 243.6 L 155.1 266 C 150.8 267.8 146 265.8 143.7 261.7 L 87 151.9 C 84.5 147.1 86.6 141.3 91.4 139.3 Z"/>
      <path id="Layer" class="s6" d="M 200.9 220.6 C 200.1 220.9 199.2 220.5 198.9 219.7 L 161.6 125.3 C 160.8 123.1 158.2 122 156 122.9 L 105.8 142.4 C 105 142.8 104 142.4 103.8 141.5 C 103.5 140.7 103.9 139.8 104.7 139.5 L 154.9 120 C 158.7 118.5 163.1 120.4 164.5 124.2 L 201.8 218.5 C 202.1 219.4 201.7 220.3 200.9 220.6 Z"/>
      <path id="Layer" fill-rule="evenodd" class="s6" d="M 156.6 253.5 C 152.8 255 148.5 253.4 146.5 249.8 C 125.1 209.9 99.5 161.9 99.1 161 C 98.8 160.2 99.2 159.3 100 159 C 100.8 158.7 101.6 159 102 159.8 C 102.8 161.4 126.9 206.6 149.3 248.3 C 150.5 250.5 153.2 251.5 155.5 250.6 C 155.5 250.6 155.533 250.6 155.6 250.6 L 195.5 234.1 C 196.4 233.7 197.3 234.1 197.6 234.9 C 197.9 235.7 197.5 236.6 196.7 236.9 L 156.7 253.4 C 156.633 253.467 156.6 253.5 156.6 253.5 Z"/>
      <path id="Layer" fill-rule="evenodd" class="s6" d="M 106.2 151.9 L 105.8 152.1 C 105.2 152.3 104.6 152.3 104.2 151.9 L 102.8 150.5 C 102.4 150.1 101.8 150 101.3 150.2 L 99.1 151.5 C 98.6 151.8 98.4 152.3 98.5 153 L 99 154.8 C 99.2 155.4 99 156 98.5 156.3 L 98.1 156.5 C 97.4 156.9 96.4 156.5 96.2 155.7 L 93 143 C 92.9 142.5 93.1 141.9 93.6 141.7 L 95.5 140.5 C 96 140.2 96.6 140.4 97 140.8 L 106.4 149.9 C 107 150.4 106.9 151.5 106.2 151.9 Z M 95.9 143.3 L 95.8 143.3 L 97.2 148.1 C 97.4 148.9 98.3 149.3 99.1 148.9 C 99.7 148.4 99.9 147.5 99.3 146.9 L 95.9 143.3 Z"/>
      <path id="Layer" fill-rule="evenodd" class="s6" d="M 196.4 224.5 L 196.8 224.4 C 197.2 224.1 197.8 224.2 198.2 224.6 L 199.5 226.1 C 199.9 226.6 200.5 226.8 201 226.5 L 203.2 225.4 C 203.8 225.1 204 224.6 204 223.9 L 203.6 222.1 C 203.5 221.5 203.7 220.9 204.3 220.7 L 204.7 220.5 C 205.4 220.1 206.3 220.6 206.5 221.4 L 208.8 234.2 C 208.9 234.9 208.6 235.3 208.1 235.6 L 206.1 236.5 C 205.7 236.8 205 236.7 204.7 236.3 L 195.9 226.5 C 195.4 225.9 195.6 224.9 196.4 224.5 Z M 206 233.8 L 205 228.9 C 204.8 228.1 203.9 227.7 203.2 228 C 202.5 228.4 202.2 229.4 202.7 230 L 206 233.8 Z"/>
      <path id="Layer" class="s6" d="M 171.3 181.4 C 173.1 183.1 174.3 185.4 174.6 187.9 C 174.9 191.8 174.7 197.5 170.3 200.3 C 165.567 203.367 160.867 202.6 156.2 198 C 151.2 218.2 136.6 210.5 133.8 202.3 C 131.4 195.6 133.8 162.9 134.7 152 C 134.8 150.6 136.5 149.9 137.6 150.8 L 171.3 181.4 Z"/>
      <path id="Layer" class="s6" d="M 158.6 201.9 C 165 212.6 171.6 220.4 174.9 222.9 C 176 223.6 175.9 225.2 175 225.6 L 160.9 231.3 C 159.8 231.7 158.6 230.4 159 229.2 C 160.9 222.2 159.1 209.6 157.3 202.4 C 157 201.4 158 201 158.6 201.9 Z"/>
    </g>
    <g transform="matrix(1.035128, -0.108796, 0.108796, 1.035128, -13.595851, 34.750385)" style="">
      <path id="Layer" class="s2" d="M 186.2 91.1 L 265.1 102.3 C 270.3 103.1 273.8 108 272.8 113.2 L 248.8 236 C 247.9 240.8 243.2 244.1 238.4 243.4 L 176.9 234.1 C 172.2 233.4 168.8 229.2 169 224.5 L 175.6 99.8 C 175.9 94.4 180.8 90.3 186.2 91.1 Z"/>
      <path id="Layer" class="s1" d="M 189.1 94.3 L 261.7 104.6 C 266.5 105.3 269.8 110.1 268.8 115.2 L 245.8 234.5 C 244.9 239.2 240.6 242.4 236.1 241.8 L 179.5 233.3 C 175.2 232.7 172.1 228.6 172.3 223.9 L 179.4 102.8 C 179.7 97.5 184.2 93.6 189.1 94.3 Z"/>
      <path id="Layer" class="s7" d="M 240.2 218.2 C 240.133 218.2 240.1 218.2 240.1 218.2 C 239.2 218 238.7 217.3 238.8 216.5 L 254.4 117.7 C 254.7 115.4 253.1 113.1 250.8 112.7 L 198.3 104.2 C 197.5 104.1 197 103.3 197.1 102.5 C 197.3 101.7 198 101.2 198.8 101.3 L 251.3 109.9 C 255.1 110.5 257.9 114.3 257.2 118.2 L 241.7 217 C 241.6 217.7 240.9 218.2 240.2 218.2 Z"/>
      <path id="Layer" class="s8" d="M 228.5 230 C 228.433 230 228.367 230 228.3 230 L 186.1 223.9 C 182 223.4 179.1 219.9 179.3 216 C 181.1 171.2 183.3 117.7 183.5 116.8 C 183.6 115.9 184.3 115.4 185.1 115.5 C 185.9 115.6 186.4 116.3 186.3 117.2 C 186.1 118.9 184.1 169.3 182.2 216 C 182.1 218.5 184 220.8 186.5 221.1 L 228.7 227.1 C 229.5 227.3 230 228 229.9 228.7 C 229.8 229.4 229.2 230 228.5 230 Z"/>
      <path id="Layer" class="s11" d="M 189.5 152.2 C 188.4 149.9 188.4 147.4 189.4 145.2 C 191.1 141.8 194.6 137.2 200.9 136.9 C 207.767 136.567 212.5 139.4 215.1 145.4 C 231.6 131 243.4 144.1 242.2 152.3 C 241 159 220.7 185 213.7 193.7 C 212.9 194.9 210.5 194.6 209.9 193.3 L 189.5 152.2 Z"/>
      <path id="path-2" fill-rule="evenodd" class="s6" d="M 195.962 110.013 L 195.577 110.205 C 195.001 110.397 194.425 110.397 194.04 110.013 L 192.695 108.668 C 192.311 108.283 191.734 108.187 191.254 108.379 L 189.14 109.628 C 188.66 109.917 188.468 110.397 188.564 111.07 L 189.044 112.799 C 189.236 113.375 189.044 113.952 188.564 114.24 L 188.18 114.432 C 187.507 114.817 186.546 114.432 186.354 113.664 L 183.28 101.462 C 183.184 100.981 183.376 100.405 183.856 100.213 L 185.682 99.06 C 186.162 98.772 186.738 98.964 187.123 99.348 L 196.154 108.091 C 196.73 108.572 196.634 109.628 195.962 110.013 Z M 186.066 101.75 L 185.97 101.75 L 187.315 106.362 C 187.507 107.13 188.372 107.515 189.14 107.13 C 189.717 106.65 189.909 105.785 189.332 105.209 L 186.066 101.75 Z" transform="matrix(0.876215, 0.48192, -0.48192, 0.876215, 74.952048, -78.299482)" style="fill: rgb(251, 93, 84);"/>
      <path id="path-3" fill-rule="evenodd" class="s6" d="M 243.324 229.055 L 242.939 229.247 C 242.363 229.439 241.787 229.439 241.402 229.055 L 240.057 227.71 C 239.673 227.325 239.096 227.229 238.616 227.421 L 236.502 228.67 C 236.022 228.959 235.83 229.439 235.926 230.112 L 236.406 231.841 C 236.598 232.417 236.406 232.994 235.926 233.282 L 235.542 233.474 C 234.869 233.859 233.908 233.474 233.716 232.706 L 230.642 220.504 C 230.546 220.023 230.738 219.447 231.218 219.255 L 233.044 218.102 C 233.524 217.814 234.1 218.006 234.485 218.39 L 243.516 227.133 C 244.092 227.614 243.996 228.67 243.324 229.055 Z M 233.428 220.792 L 233.332 220.792 L 234.677 225.404 C 234.869 226.172 235.734 226.557 236.502 226.172 C 237.079 225.692 237.271 224.827 236.694 224.251 L 233.428 220.792 Z" style="fill: rgb(251, 93, 84);" transform="matrix(-0.810394, -0.585885, 0.585885, -0.810394, 297.237579, 547.781337)"/>
    </g>
  </g>
  <path id="Layer" class="s12" d="M 250.186 515.833 C 250.186 522.697 203.988 528.313 146.9 528.313 C 142.268 528.313 137.698 528.272 133.191 528.189 C 121.862 528.022 116.134 527.856 116.008 527.689 C 74.131 526.066 43.709 521.325 43.709 515.833 C 43.709 508.845 89.905 503.353 146.994 503.353 C 203.988 503.353 250.186 508.845 250.186 515.833 Z" style=""/>
  <path id="path-1" class="s12" d="M 615.557 516.417 C 615.557 525.321 526.988 532.608 417.535 532.608 C 408.655 532.608 399.894 532.554 391.252 532.446 C 369.532 532.23 358.55 532.014 358.308 531.799 C 278.022 529.693 219.694 523.541 219.694 516.417 C 219.694 507.349 308.263 500.225 417.716 500.225 C 526.988 500.225 615.557 507.349 615.557 516.417 Z" style=""/>
  <path id="Layer" class="s12" d="M 735.276 502.978 C 735.276 508.859 706.948 513.541 672.138 513.541 C 669.337 513.541 666.577 513.5 663.855 513.42 C 656.893 513.26 653.373 513.14 653.292 513.06 C 627.725 511.74 609.12 507.779 609.12 502.978 C 609.12 497.216 637.328 492.415 672.138 492.415 C 706.948 492.415 735.276 497.216 735.276 502.978 Z"/>
  <g transform="matrix(1, 0, 0, 1, 69.409119, 140.56958)" style="filter: url(#drop-shadow-filter-4);">
    <title>plant2</title>
    <path id="Layer" class="s2" d="M 517.4 318.111 C 535.267 204.977 575.2 116.677 637.2 53.211 C 643.5 46.811 656.9 48.811 660.9 56.711 C 687.6 109.511 747.5 270.511 517.4 318.111 Z"/>
    <path id="Layer" class="s3" d="M 646.3 120.7 C 646.4 120.3 647.2 120.4 647.1 120.8 C 633.9 245.4 558.3 310.2 538.3 323.5 C 537.7 323.9 536.9 323.3 537.4 322.8 C 611.8 256.7 639.8 149.7 646.3 120.7 L 646.3 120.7 Z"/>
  </g>
  <g transform="matrix(1, 0, 0, 1, 46.88485, 92.039276)" style="filter: url(#drop-shadow-filter-4);">
    <title>plant1</title>
    <path id="Layer" class="s3" d="M 537.3 408.7 C 558.167 342.167 594.833 300.2 647.3 282.8 C 703.5 264.3 732 251.6 743.7 245.8 C 746.1 244.6 748.7 247 747.8 249.5 C 734.9 281.9 674.5 412.2 537.3 408.7 L 537.3 408.7 Z"/>
    <path id="Layer" class="s2" d="M 553 394.9 C 575.067 363.967 603.133 338.633 637.2 318.9 C 640.5 317 643.4 321.8 640.3 323.9 C 616.7 339.3 585.5 362.5 553 394.9 L 553 394.9 Z"/>
  </g>
  <g id="Layer" style="filter: url(#drop-shadow-filter-3);" transform="matrix(1.356609, 0, 0, 0.993494, -100.327225, -12.828712)">
    <title>tablet</title>
    <path style="stroke: rgb(0, 0, 0); stroke-opacity: 0; fill: rgb(86, 84, 95);" d="M 249.477 93.196 L 249.062 502.943 C 249.083 523.145 255.253 533.371 275.338 534.347 L 389.565 534.396 L 494.521 534.401 C 510.486 534.126 516.747 523.471 516.887 501.973 L 517.888 92.634 C 518.073 76.316 508.851 64.06 493.31 64.154 L 384.784 63.671 L 272.905 64.163 C 258.759 64.047 249.71 76.072 249.477 93.196 Z"/>
    <path style="stroke: rgb(0, 0, 0); fill: rgb(255, 255, 255); stroke-opacity: 0; filter: url(#inner-shadow-filter-0);" d="M 257.302 103.433 L 256.913 493.166 C 256.934 512.381 262.718 522.109 281.552 523.037 L 388.658 523.083 L 487.072 523.088 C 502.041 522.827 507.912 512.692 508.043 492.243 L 508.982 102.9 C 509.155 87.379 500.51 75.721 485.937 75.81 L 384.176 75.351 L 279.27 75.819 C 266.005 75.709 257.522 87.147 257.302 103.433 Z"/>
  </g>
  <g id="Layer" style="" transform="matrix(1.148654, 0, 0, 1.148654, -11.64066, -0.29318)">
    <path id="Layer" fill-rule="evenodd" class="s38" d="m704 230.6q-1.9 11.6-1.4 23.5-11.7 1.9-22.6 6.2 2-11.5 1.4-23.5 11.8-1.8 22.6-6.2z"/>
  </g>
  <g id="Layer" transform="matrix(1, 0, 0, 1, 19.325096, 0.74327)">
    <path id="Layer" fill-rule="evenodd" class="s38" d="m43.1 115q-2.3-9.5 3.2-14.6c5.9-5.5 16.4 2.5 16.6 17.1 0.1 10.5-2.1 19.5-3.4 23.7-3.8 0.2-11.7 0.2-20.2-3-11.7-4.5-15.2-18.6-9-23.7q5.7-4.8 12.8 0.5z"/>
  </g>
  <g>
    <path id="Layer" class="s4" d="M 115.989 446.755 C 56.656 394.755 19.923 339.055 5.789 279.655 C 4.389 273.655 10.489 266.555 16.489 267.055 C 57.089 270.955 172.889 295.255 115.989 446.755 Z"/>
    <path id="Layer" class="s0" d="M 38.889 293.155 C 38.689 292.955 39.089 292.555 39.289 292.755 C 106.989 346.155 116.989 413.955 117.389 430.555 C 117.389 431.055 116.689 431.255 116.689 430.855 C 105.489 363.155 53.389 307.555 38.889 293.155 Z"/>
  </g>
  <g id="Layer" transform="matrix(1, 0, 0, 1, 56.145554, 15.378502)">
    <path id="Layer" fill-rule="evenodd" class="s38" d="m599.9 27.1c4.7 2.7 5.3 7.9 5.3 10.7 1.3-3 3.8-8.5 4.2-11.4l6.2 4c-2.4 1.6-6.5 6-8.8 8.6 2.7-1.2 7.6-2.7 12 0.6 7.1 5.3 5.8 18.5-8.5 19.8-9.1 0.9-13.9 1.2-21.8 5.7 1-9.1-0.7-13.5-3.5-22.3-4.5-13.7 7.2-20 14.9-15.7z"/>
  </g>
  <g id="Layer" transform="matrix(1, 0, 0, 1, 161.5858, 17.448502)">
    <path id="Layer" fill-rule="evenodd" class="s38" d="m563.7 92.4c5.3 3.9 6.5 11.1 3 16.4-3.3 4.3-8.7 5.9-13.5 4.1 3.9 2 12.6 6.4 17.1 7.3l-6.2 8.6c-2.2-3.9-9.2-10.7-12.4-13.8 3.1 4 3.5 9.7 0.5 14.1-3.9 5.2-11.2 6.3-16.4 2.5-5.3-3.7-6.5-11-3-16.4 1-1.3 2.4-2.4 3.8-3.2-3.2 0.7-6.7 0.2-9.6-1.8-5.3-3.9-6.6-11.2-2.9-16.4 3.8-5.2 11.1-6.3 16.4-2.6 2.9 2 4.6 5.2 4.9 8.4 0.3-1.6 0.9-3.1 1.9-4.6 3.9-5.1 11.2-6.3 16.4-2.6z"/>
  </g>
  <g id="Layer" transform="matrix(1, 0, 0, 1, 116.739532, -13.810251)">
    <path id="Layer" fill-rule="evenodd" class="s38" d="m80.7 187.5c-2.3 3.8-7.3 5-11.2 2.7-3.1-2-4.4-5.7-3.4-9.1-1.3 2.8-3.9 9-4.3 12.1l-6.3-3.9c2.7-1.7 7.1-6.8 9.1-9.2-2.7 2.4-6.6 2.9-9.8 1-3.7-2.5-4.8-7.5-2.5-11.3 2.4-3.8 7.4-5 11.3-2.8 1 0.7 1.8 1.5 2.4 2.5-0.7-2.2-0.4-4.6 0.9-6.7 2.4-3.9 7.4-5.1 11.2-2.8 3.8 2.5 4.9 7.5 2.5 11.3-1.3 2.1-3.4 3.4-5.6 3.8 1.1 0.1 2.2 0.5 3.3 1.1 3.7 2.4 4.8 7.4 2.4 11.3z"/>
  </g>
  <g id="boy" transform="matrix(1.182727, 0, 0, 1.182727, 17.840611, -71.650711)" style="filter: url(#drop-shadow-filter-2);">
    <path id="Layer" class="s13" d="m22 394.6c11.3-17.3 30.3-20.2 47.2-20.2 20.7 0 41.5 1.1 62.1 4.2 9.7 1.6 19.4 2.8 28.8 6.2 2.8 1 5.7 2.4 8.4 3.9 2.8 1.6 5.6 3.4 8.2 5.4q0.4 0.5 0.9 0.8 0.2 0.2 0.5 0.4 0.3 0.3 0.7 0.6 0.3 0.3 0.6 0.6 0.4 0.3 0.7 0.6 1 0.9 2 2 0.6 0.6 1.2 1.3 1 0.9 1.8 2c3.5 4.2 6.5 9 8.7 14.4 7 17.1 6.2 39.5-0.7 56.3-7.1 16.7-21.8 23.6-36.3 25.4-17.9 2.3-35.8 0.9-53.6-0.6-20.6-1.9-45.9 1.3-64-12.9-15.1-12-24.4-33.7-25.5-55.5-0.6-12.4 2-25.3 8.3-34.9z"/>
    <path id="Layer" class="s14" d="m167.6 417.7q16.5 2.1 7.9 16.6c-8.6 14.5 5.8 20.1-24 23.1-9.8 1-34.1-0.9-57.2-7.1l-37.1-2.3q-16.8-9.2-10.4-28.8-16.8-9.5-4.7-20.8 12.1-11.2-0.4-1.4l50.8-0.3q20.7 4.4 25.2 6.7c4.4 2.5 14.4 5.1 18 7.5q3.6 2.3 11.6 6.8z"/>
    <path id="Layer" class="s15" d="m152.7 393.2c2.6-3.1 7.7-3 5.4-0.5q-2.4 2.4-7 6.7-1-3.2 1.6-6.2z"/>
    <path id="Layer" class="s16" d="m71.6 421.9c-13-5.1-22.2-10.5-27.4-14.1-3.4-2.3-5.1-6.5-4.5-10.5l6.8-39.3c0.7-4.1 3.3-7.5 7.1-9.1 10.8-4.7 21.4-7.3 30.6-8.6q5.3-0.4 11.9 0.3c4.4 0.4 14.4 3.3 20.8 5.3 3.5 1.1 6.4 3.8 7.8 7.3 2.7 6.9 7 18.5 8.3 24.8q4.8 21.6 4.1 20l4.9 33.3-52.3 2.9-13.4-6z"/>
    <path id="Layer" class="s17" d="m89.8 320.1l-13.7-3.1c-7.4-16.1 1.7-30.5 10.2-25.7q13.7-4.8 26.7 7.8z"/>
    <path id="Layer" class="s15" d="m97.8 327v18.8c0 4.3-3.5 7.9-7.9 7.9-6 0-10.7-4.8-10.7-10.8v-15.9z"/>
    <path id="Layer" class="s18" d="m97.8 334.8v10.2q-17.6-2.6-16.7-14.4z"/>
    <path id="Layer" class="s15" d="m105.8 323.2c-0.9 2.5-0.7 7.3-1.8 9.6-1.7 4.2-4.7 8.7-8.9 8.8q-9.9 0.2-17.4-15.2l1.5-18.4 7.5-8.3 20.6 12.7q1.3 2.9-1.5 10.8z"/>
    <path id="Layer" class="s17" d="m76.5 311.8l2.4-11.4 14.6-4.6 11.7 1.3c10.1-2 14.7 10.8 3.9 17.2q-10.8 6.5-22.4-4.9-7.1 5.3-7.8 11.6z"/>
    <path id="Layer" class="s19" d="m74.8 406.5q-4.5-7.2-16.3-8.3l3.4-4 4.7-8.1 3.3-14.2c0 3.3-1.8 13.2 3 22.6 3.3 6.4 7.9-4.1 16.8 15z"/>
    <path id="Layer" class="s20" d="m115.9 362.8q1.1 5 2 10c0.7 3.4 1.2 6.8 1.9 10.1q0.9 5.1 1.7 10.1l0.8 5.1c0.3 1.7 0.6 3.3 0.8 5l-0.4 0.1c-0.3-1.6-0.6-3.3-1.1-5l-0.9-5q-0.9-5-1.9-10.1c-0.5-3.4-1.1-6.7-1.7-10.1q-0.9-5-1.6-10.1z"/>
    <path id="Layer" class="s19" d="m126.7 421.9l-23.1 1.4-7.6-7.1c24.2 2.9 23-31.7 22.3-37.9z"/>
    <path id="Layer" class="s15" d="m88.1 415.6c10.5-4.5 12.5-4.2 13.9-4.2q4.8 0.2 11.7 9.8l-0.1 1.8h-26.4z"/>
    <path id="Layer" class="s21" d="m148.1 419.5l-16.8 4.7 3.8-32.2 17.4-5.6z"/>
    <path id="Layer" class="s6" d="m148.7 419.8l-16.9 4.7 3.8-32.1 17.6-5.6z"/>
    <path id="Layer" class="s15" d="m151.9 413.1c-0.3 2.3-0.4 5.8-7.7 5.4l-2.2-1.2 2-2.2 4.5-2.3z"/>
    <path id="Layer" class="s15" d="m152.7 406.6q4 5.2 0 6.9-4.5 1.7-8.7 1.6 1.9-5.3 8-5z"/>
    <path id="Layer" class="s15" d="m152.8 403.2q5.5 5.2 0.4 6.6-7.3 2-9.6 2.2-0.4-3.9 6.9-6.4z"/>
    <path id="Layer" class="s15" d="m151.6 398.8q7.6 4.6 0.5 7.1-7.1 2.6-8.8 2.5-0.3-3.8 7.3-5.1z"/>
    <path id="Layer" class="s21" d="m100.7 486.8l19.5 5.6c-15.1 11.1-28.7 8.1-29.6 8.6z"/>
    <path id="Layer" class="s21" d="m101.6 432.5q43.9-20.9 58.2-19.9c14.3 0.9 13.9 18.7 8.5 26.5-5.5 7.7-18.1 18.1-64.7 15z"/>
    <path id="Layer" class="s22" d="m49.7 399.8q2.2-0.8 4.7-1.5 1.1-0.3 2.3-0.5 0.6-0.1 1.2-0.3 0.2 0 0.6 0 0.4 0 0.6 0c1.7 0.2 3.2 0.8 4.8 1.3q2.2 0.8 4.4 1.9 2.2 1 4.3 2.3 2.1 1.2 4 2.5c2.7 1.8 5.3 3.8 7.5 6.2l-0.3 0.3q-1.8-1.6-3.7-3-1.9-1.4-3.9-2.7c-2.7-1.7-5.4-3.3-8.3-4.7q-2.2-1.1-4.3-2c-1.5-0.5-3-1.1-4.5-1.3q-0.3 0-0.5 0-0.4 0-0.6 0-0.6 0.1-1.2 0.2-1.2 0.2-2.3 0.5-2.3 0.5-4.7 1.2z"/>
    <path id="Layer" class="s14" d="m57.1 457l23.4-5.8 5.8 8.3q-10.5-1-14.5 0.4c-3.8 1.4-9 1-14.3 1.3z"/>
    <path id="Layer" class="s21" d="m57.7 445.9c-5.3-8.7-5.3-25.8 1.5-33.6 7.8-8.8 24.4-12.2 33-1.8 8.8 10.3 24.7 56.3 28 81.9q-17.6-5.9-29.6 8.6-15.7-44.1-19-57.2l-8.9 7z"/>
    <path id="Layer" class="s1" d="m76.2 457.2l-7 0.4q-1.3 0-2.5 0.5c0.9-2.2-0.2-5.1-0.7-7.4-0.3-1.7-0.3-3.7-0.3-5.7q0.2 0 0.3 0.1 3.3-2.2 5.6-1.3z"/>
    <path id="Layer" class="s15" d="m80.7 329c-8.3-2.4-10.6-10.6-6.3-12.2q4.2-1.6 6.1 4.7z"/>
    <path id="Layer" class="s17" d="m67.8 428.8l2 7.1c0.6 2.4 1.3 4.7 2 7.1q1.1 3.5 2.2 7.1 0.5 1.7 1.1 3.4c0.2 0.7 0.4 1.2 0.6 1.8q0.3 0.9 0.6 1.8l-0.3 0.1q-0.8-1.7-1.5-3.4-0.7-1.7-1.3-3.5c-0.8-2.3-1.6-4.7-2.3-7-0.6-2.5-1.3-4.8-1.9-7.2-0.6-2.4-1.2-4.8-1.6-7.2z"/>
    <path id="Layer" class="s17" d="m92.7 321.8c-0.1 0.5-0.4 0.9-0.8 0.9-0.3-0.1-0.5-0.6-0.5-1.1 0.1-0.6 0.4-0.9 0.8-0.8 0.4 0 0.7 0.5 0.5 1z"/>
    <path id="Layer" class="s17" d="m102.5 322.5c-0.4 0-0.7-0.4-0.7-1 0-0.5 0.3-0.9 0.7-0.9 0.3 0 0.7 0.4 0.7 0.9 0 0.6-0.4 1-0.7 1z"/>
    <path id="Layer" class="s18" d="m98.1 322.6q0.4 3.2 1.5 5.8-1 1.2-3.2 1l2-1.5z"/>
    <path id="Layer" class="s17" d="m87.7 318.8q3.7-3.5 6.5 0.6-2.5-1.8-6.5-0.6z"/>
    <path id="Layer" class="s17" d="m106.9 318.8q-3.8-3.4-6.6 0.6 2.6-1.8 6.6-0.6z"/>
    <path id="Layer" class="s18" d="m73.7 321.4q-0.9-3.4 1.8-3.6 2.8-0.2 3.4 4.4 0.6 4.5-0.2-0.1-0.9-4.1-3.4-3.5-1.6 0.1-1.6 2.8z"/>
    <path id="Layer" class="s1" d="m100.8 504.7l-2.7-9.9q4.3-3.8 15.6-3.6l4.1 12.4-1.9 9q-5.2 1.1-5.6 1.1c-0.4 0-3.2-0.8-4.7-1.6-1.6-0.8-3.5-1.5-3.6-1.9-0.1-0.3-0.8-1.7-0.8-2.1q0-0.2-0.4-3.4z"/>
    <path id="Layer" class="s23" d="m142.2 524.1c-1 1.8-5.2 2.9-9 3.7-3.7 0.7-12.5 0-15.6-2.5-3-2.4-6.4-5.3-8.8-5.5-2.4-0.2-7.2-2.3-8.6-3.9-0.1-1.3-1.7-8.6 0.6-11.2 1.4 2.4 4 3 4.8 2.1 0.7-0.8 2.2-4.7 3.4-5.9 1.2-1.1 4.4-2.1 6.3-1.7 1.9 0.3 3.7 2 4.8 3.8 1 1.9 6 7.8 8.6 10 2.6 2.1 12 9.8 13.1 10.6q0.2 0.1 0.4 0.5z"/>
    <path id="Layer" class="s21" d="m100.2 515.9c0.4 0.5 1.2 1 2 1.4 2.1 1.3 4.9 2.3 6.6 2.5 2.4 0.2 5.8 3.1 8.8 5.5 3.1 2.5 11.8 3.2 15.6 2.5q0.3-0.1 0.6-0.1c3.6-0.7 7.5-1.9 8.4-3.6 0.6 1 0.5 3.2 0.1 4.6q-0.1 0.3-0.3 0.6-0.5 0.6-1.2 1.2c-1.7 1.2-4.3 2.4-7 2.7-3.8 0.4-13-0.7-15.1-2-2.1-1.2-8.2-6-9.8-6.2-1.6-0.1-8.2-1.8-9-3.1-0.9-1.2-0.8-4.7 0.3-6z"/>
    <path id="Layer" class="s23" d="m48.5 480.3c-1.7-0.9-2.4-4.9-2.8-8.4-0.4-3.6 1-11.6 3.4-14.3 2.5-2.6 5.4-5.4 5.8-7.7 0.4-2.2 2.7-6.4 4.2-7.7 1.2 0 8.1-0.9 10.4 1.5-2.4 1-3.1 3.4-2.4 4.2 0.7 0.7 4.2 2.5 5.2 3.6 1 1.1 1.6 4.2 1.2 6-0.5 1.7-2.2 3.2-4 4-1.8 0.9-7.6 5-9.7 7.3-2.2 2.3-10 10.3-10.9 11.2q-0.1 0.3-0.4 0.3z"/>
    <path id="Layer" class="s21" d="m59.1 442.2c-0.4 0.4-1 1.1-1.4 1.8-1.3 1.8-2.5 4.4-2.8 5.9-0.4 2.3-3.3 5.1-5.8 7.7-2.4 2.7-3.8 10.7-3.4 14.3q0.1 0.2 0.1 0.4c0.4 3.5 1.1 7.2 2.7 8-1 0.6-3 0.4-4.3-0.1q-0.3-0.2-0.5-0.3-0.6-0.5-1.1-1.3c-1-1.6-1.8-4.2-1.9-6.6-0.1-3.6 1.5-11.9 2.9-13.8 1.3-1.8 6.2-7.1 6.5-8.6 0.2-1.4 2.3-7.5 3.5-8.1 1.2-0.7 4.5-0.3 5.5 0.7z"/>
    <path id="Layer" class="s19" d="m90.1 356.8q-0.1 0-0.1 0c-4.1 0-7.5-1.2-9.8-3.7-4.2-4.5-3.8-11.4-3.8-11.6l1.6 0.1c0 0-0.3 6.4 3.4 10.4 2 2.2 4.9 3.2 8.6 3.2 0.1 0 4.6 0.2 7.2-3 2-2.4 2.6-6 1.5-10.9l1.5-0.3c1.2 5.3 0.6 9.4-1.7 12.3-2.9 3.4-7.4 3.5-8.4 3.5z"/>
    <path id="Layer" class="s17" d="m79.3 318q0.7 9.4 7 13.1c1.2 0.7 2.8 1.2 11.2-0.5 2.4-0.6 3.6 1.5 6.9 0.9l-2.6 9.4c-0.8 2.4-6.1 2-8.4 1.4-10.1-2.9-11.5-6.4-13.9-13.6l-0.5-3.6z"/>
    <path id="Layer" class="s15" d="m94.2 334.4l6.9 0.1q-3 2.9-6.9-0.1z"/>
    <path id="Layer" class="s21" d="m152.5 386.4l0.7 0.4-1.5 0.5-2.2 0.3q0.5-0.1 0.5-0.2 0 0 0.3 0 0.4-0.3 0.5-0.3 0.2-0.1 1.7-0.7z"/>
    <path id="Layer" class="s22" d="m69.1 361.7q5.8 20.5-10 35.8 11.8-13.5 10-35.8z"/>
    <path id="Layer" class="s22" d="m115.5 362.9q8.6 27.5-1.7 44.7 7-17.9 1.7-44.7z"/>
    <path id="Layer" class="s17" d="m80.7 316.1q-1.4 3-0.4 6.5-0.5 0.1-0.5-0.1 0-0.2-0.4-4.7l0.2-1.4z"/>
    <path id="Layer" class="s24" d="m86.6 292.5q11.4-5.6 26.2 7.6 5 7.4-4.7 13.3-5.3 3.8-17.4-2.5 12.2 4.6 17.4-1.3-10.9 4.8-21.5-3.8 12.8 5.7 19.5 0.7c6.6-4.9-36.6-0.7-19.5-14z"/>
    <path id="Layer" class="s24" d="m75.7 313.8q-4.8-15.2 3.9-21 2.6-2 6-0.5-4.8 1.1-4.8 4.7 0.1 3.8 2.8 5.5 5.7 4.3-0.2 8.8-2.9 1.4-4.1 5.1-0.9-5.1 3.2-7.3-3.4-1.1-4.7 1.2-0.3-3.6 2.4-6.6-5.8 0.6-4.5 10.1z"/>
  </g>
  <g id="girl" transform="matrix(1.20034, 0, 0, 1.20034, -91.064392, -114.011688)" style="filter: url(#drop-shadow-filter-0);">
    <path id="Layer" class="s15" d="m625.2 496.2c0.4 2.3 0.6 4.9 0.6 7.4q0 1.3-0.1 2.6c-2.9 3.8-9.9 4-13.4 1.4q-0.5-0.3-0.9-0.7-0.2-0.2-0.4-0.5-0.1-0.1-0.2-0.2-0.1-0.1-0.1-0.2 0-0.1-0.2-0.3-0.1-0.3-0.2-0.4-0.1-0.4-0.1-0.7c2.9-6.1 5.2-12.2 5.2-16.7 0-3-1.8-11-3.6-21.5 5 0.2 10 0.8 14.7 0.9q0.1 0 0.3 0c-1.2 12.7-2.1 25-1.6 28.9z"/>
    <path id="Layer" class="s21" d="m607.8 509.5q1.3-2.4 2.4-4.9c1 5.4 11.8 6.4 15.6-1 0.8 7.1-1.6 11.5-4.1 12.4-3.4 1.1-9.9 1-13-1.3-1.2-0.8-1.5-3.9-0.9-5.2z"/>
    <path id="Layer" class="s15" d="m634.5 463.9q0.2 0 0.4 0c4.8-0.2 10.1-0.8 15.3-1-1.9 11.1-3.7 19.3-3.7 22.4 0 4.8 2.4 11.2 5.4 17.6q-0.1 0.3-0.2 0.6 0 0.2-0.2 0.5-0.1 0.1-0.2 0.3 0 0.1 0 0.1-0.1 0.2-0.3 0.3-0.2 0.3-0.4 0.6-0.4 0.4-0.9 0.7c-3.7 2.6-10.9 2.4-14-1.6q-0.1-1.3-0.1-2.6c0-2.7 0.2-5.4 0.6-7.8 0.6-4-0.4-16.9-1.7-30.1z"/>
    <path id="Layer" class="s21" d="m653.4 513.4c-3.2 2.3-9.9 2.5-13.5 1.3-2.6-0.9-5-5.4-4.3-12.9 3.9 7.7 15.2 6.6 16.3 1.1q1.2 2.5 2.4 5c0.7 1.4 0.4 4.6-0.9 5.5z"/>
    <path id="Layer" class="s16" d="m657.8 346.3q6.7 20.8-3.5 79.1 1.4 43.1-6.4 66.4l-13.4-1.4-2.6-82.4 0.5-37.5-6.2 118.9-2.9 0.5-3.6 0.2h-3.6l-2.4-0.5q-6.7-40.9-4.3-68.5-12.3-52.7-4-71.4z"/>
    <path id="Layer" class="s25" d="m611.1 469.9c-1.6-14.3-3.1-34.1-1.8-49.6q-12.3-52.7-3.9-71.5l9.1-0.5q-7.1 20.9-0.7 67c-3.1 17.2-3.1 40.1-2.7 54.6z"/>
    <path id="Layer" class="s17" d="m612.6 229.8q0.3-0.5 9.9-1.5l3.9 0.5 15.1 6.9q0.4 6.2 2.7 31.5l-42.7 8.3q-1.7-15.2 2.8-41.3 8-4.1 8.3-4.4z"/>
    <path id="Layer" class="s24" d="m639.3 232.6l2.9 32.7q-5-24.3-2.9-32.7z"/>
    <path id="Layer" class="s24" d="m635.8 225.2l2.9 32.7q-5-24.2-2.9-32.7z"/>
    <path id="Layer" class="s24" d="m634.4 234.6l2.9 32.8q-5-24.3-2.9-32.8z"/>
    <path id="Layer" class="s24" d="m632.9 239.8l2.9 32.7q-5.2-24.3-2.9-32.7z"/>
    <path id="Layer" class="s24" d="m612.5 236.6l2.9 32.6q-5.2-24.3-2.9-32.6z"/>
    <path id="Layer" class="s24" d="m609.7 226.3l2.9 32.7q-5.2-24.3-2.9-32.7z"/>
    <path id="Layer" class="s24" d="m608.6 232.7l2.9 32.7q-5.2-24.3-2.9-32.7z"/>
    <path id="Layer" class="s24" d="m605.4 231.4l2.9 32.7q-5.1-24.2-2.9-32.7z"/>
    <path id="Layer" class="s24" d="m604 244.9l2.9 32.8q-5.1-24.3-2.9-32.8z"/>
    <path id="Layer" class="s24" d="m629.5 231.7l2.9 32.8q-5-24.3-2.9-32.8z"/>
    <path id="Layer" class="s15" d="m609.7 326.8q0 0.8 0.1 1.6 0 0.5 0 0.9-0.2 1.1-0.4 2.1-0.2 0.6-0.2 1.3-0.8 0.9-1.3 2 0 0-0.1 0 0 0 0.1 0-0.1 0-0.1 0-0.1 0.1-0.2 0.2c-1.7 1-4.6 1.6-6.2 1.4-2.9-2.2-5.7-4.4-7.7-6.2q-0.8-0.7-1.4-1.2c-0.6-0.5-2-1.4-4.1-2.7 1.9-2.1 3.2-4.7 4.3-7.4 1.8 1.4 3.3 2.4 4.2 2.6q0.4 0.1 0.6 0.1c3.4 0 7.9-0.1 10.5 1.2 0.4 0.3 0.7 0.6 0.9 1.2q0.2 0.3 0.3 0.7c0.1 0.3 0.2 0.6 0.2 0.9 0 0.6 0.1 1.4 0.1 2.1q0-0.6 0-1.1 0-0.2 0.1-0.5 0-0.4-0.1-0.7 0-0.2 0-0.5 0-0.2-0.1-0.5 0.1 0.2 0.1 0.4 0.1 1 0.4 2.1z"/>
    <path id="Layer" class="s15" d="m597.1 263.7c1-0.2 2-0.5 2.9-0.6 4-0.9 8.4-1.6 10-1.9 1.2-0.3 2.5-1.4 3.6-2.9q0 0 0 0c0.9-1.4 1.8-3.3 2-5.2q0-0.3 0-0.6 0.1 0 0.1-0.2 0-0.1 0-0.1v-0.1q0-0.4 0-0.8 0-0.2 0-0.4 0 0 0-0.1 0-0.2-0.1-0.5h3.5q1.5 0 2.7 0 0.4 0 1 0 0.3 0 0.6 0 0.5-0.1 1 0 0.6-0.1 1.2 0 0.5 0 0.9 0 0.4 0 0.8 0 0 0.8 0.1 1.5 0 0.2 0.1 0.6 0 0.2 0.1 0.4 0 0.2 0 0.4v0.1c0.5 1.9 1.2 3.7 2.1 5.2 0.4 0.7 0.8 1.3 1.3 1.8 0.4 0.5 1.1 0.9 2 1.4 2.6 1.2 6.6 2 9 2.5q0.6 0.1 1 0.2 0.1 0 0.2 0 0.1 0.2 0.3 0.7c0.1 0.5 0.2 1.5 0.4 2.6-2.5 3.1-4.1 6.9-4.1 11.1q-0.1 0.3-0.2 0.8c-0.5 1-1.1 1.9-1.7 2.9-1.1 0-2.3 0-3.5 0.5-4 1.7-7.8 1.4-12 1-3.5-0.5-8.1-0.5-10.8-2.2-2.5-1.6-5.3-6.5-7.6-9-1.1-1.4-2.4-2.8-3.6-4.2 0.1 0.3-1.2-1.5-1.5-1.8-0.3-0.7-1.3-2.6-0.7-0.7q-0.4-1.3-1.1-2.4z"/>
    <path id="Layer" class="s18" d="m615.6 250.7q2.8 0 6.2 0 3.5-0.1 5.5 0 0 1.5 0.3 3c-1.6 2.7-4.8 5.2-5.8 5.2-1.2 0-4.8-1.7-6.2-5.4q0.2-1.4 0-2.8z"/>
    <path id="Layer" class="s26" d="m642.3 304.2v-0.2q-0.1-1.9-0.2-4.1-0.2-4.7-0.3-9.1-0.1-0.6-0.1-1.1c-0.1-11.8 0.4-20.7 1.4-24.6h0.4c2.8 0.1 7 2.6 8.8 7.5 0.6 1.7 0.9 3.8 0.7 6.2-0.3 4.2-0.4 8.9-0.3 13.4 0.1 5.8 0.6 11.1 1.5 14.4 1 3.7 2.4 8.9 3.9 13.3-2.5 2.3-4.7 5.1-7.9 5.8-0.9 0.2-1.7 0.8-2.3 1.6-2.6-4.9-4.7-11.6-5.6-23.1z"/>
    <path id="Layer" class="s0" d="m647.2 327.3c-1.5-3-2.9-6.7-3.9-11.7q-0.1-0.1-0.1-0.2c-0.6-2.8-1.1-6-1.4-9.7-0.2-1.9-0.2-3.7-0.3-5.7q-0.2-2.5-0.3-4.8 0-0.7 0-1.4-0.1-0.7-0.1-1.1v-0.4c-0.3-13.7 0.4-23.3 1.4-27.4l0.1-0.5h0.6c2.3 0 5.1 1.4 7.1 3.6 0.9 1 1.9 2.4 2.6 4.4 0.6 1.7 1 3.8 0.8 6.4-0.2 2.5-0.4 5.2-0.4 7.9-0.1 7.7 0.4 15.6 1.5 19.7 1.1 4.1 2.5 9 3.9 13.1-2.7 2.2-5 5.4-8.5 6.2-1.2 0.3-2.1 1.2-2.6 2.3q-0.2-0.4-0.3-0.6 0-0.1-0.1-0.1z"/>
    <path id="Layer" class="s27" d="m604.3 347.1c16.1 3 39-1.8 51.7-6.7 1.6 3.1 2 6.9 2.8 10.8-11.8 4.8-41.3 6.5-54 0.3 0.1-3.1-0.9-1.7-0.5-4.4z"/>
    <path id="Layer" class="s28" d="m609.2 325.5q-0.1-0.9-0.5-1.6 0.3 0.7 0.5 1.6z"/>
    <path id="Layer" class="s0" d="m560.3 299c4-6.3 20.9-20.9 22.4-22.3 1.5-1.3 8.2-9.1 10.4-11.2 1-0.9 3.8-1.8 6.9-2.4 6.7 6.4 15.7 19.5 22.9 19.5 7.1 0 12.6-11.8 18.3-18.5 0.9 0.1 1.4 0.2 1.9 0.3 0.7 1.2 1.4 8.5 1.3 17.6q-0.1 2.6-0.2 5.3c-0.2 4.6-0.6 9.5-1.3 14.1-0.5 0.7-0.7 2.9-0.5 5.8 0.1 2.4 0.4 5.2 0.8 7.8 0.4 2.8 0.8 5.5 1.4 7.6 1.2 4.9 10 11.2 13.9 23.6-13 10.7-46.9 9-55.1 4.5 0.4-3.2 1.7-5.7 2.2-8.4 0.4-2.4 1.7-5.2 2.3-7.6q-0.1 0.1-0.3 0.2c1.3-2.3 1.9-4.5 1.9-6.8q0-0.8-0.2-1.6c0.1-1.2 0-2.4-0.3-3.4-0.2-0.8-0.5-1.7-0.9-2.8q0 0 0-0.1-0.4-1-1-2.4c-3.4-8.6-10-23.1-11.8-29.3q0-0.2-0.1-0.3 0 0.1-0.1 0.1c-3.7 2.4-15.9 12.3-19.9 14.6 2.2 2.3 17.2 17.3 21.5 18.5-0.3 2.5-1.6 6-3 8.7q-0.8-0.7-1.4-1.2c-2.2-2-19.8-11.5-26.9-15.9-7.1-4.3-9.3-7.7-5.1-14z"/>
    <path id="Layer" class="s27" d="m615.7 248.6q2.8 0 6.1 0 3.6-0.3 5.5 0 0.1 1.5 0.4 2.9c-2.3 2-4.8 3.6-5.9 3.6-1.2 0-3.8-1.7-6.2-3.8q0.3-1.3 0.1-2.7z"/>
    <path id="Layer" class="s26" d="m609.2 228.5c0.3-3.5 3.6-9.5 12.6-9.5 9 0 12.2 6 12.6 9.5 0.3 3.7-0.2 14.4-2.1 17.3-2 2.9-8.5 8.2-10.5 8.2-2.1 0-8.6-5.3-10.5-8.2-2-2.9-2.5-13.6-2.1-17.3z"/>
    <path id="Layer" class="s29" d="m619.4 246.3c0.5-0.5 1.3-0.7 1.5-0.7 0.2-0.1 0.7 0.2 0.9 0.2 0.2 0 0.6-0.3 0.9-0.2 0.1 0 1 0.2 1.5 0.7 0.5 0.5 1 0.9 1.3 1-0.2 0-0.4 0.1-0.7 0.1-0.3-0.1-0.7-0.1-1-0.2-0.5-0.4-0.8-0.5-1.1-0.5-0.2-0.1-0.5 0.1-0.9 0.1-0.5 0-0.7-0.2-1-0.1-0.2 0-0.6 0.1-1.1 0.5-0.3 0.1-0.6 0.1-0.9 0.2-0.4 0-0.6-0.1-0.8-0.1 0.4-0.1 0.9-0.5 1.4-1z"/>
    <path id="Layer" class="s1" d="m619.7 247.2c0.5-0.4 0.9-0.5 1.1-0.5 0.3-0.1 0.5 0.1 1 0.1 0.4 0 0.7-0.2 0.9-0.1 0.3 0 0.6 0.1 1.1 0.5 0.3 0.1 0.7 0.1 1 0.2q-0.4 0-0.7 0.1c-0.6 0.1-1.2 0.7-2.3 0.7-1.2 0-1.7-0.6-2.4-0.7q-0.2-0.1-0.6-0.1c0.3-0.1 0.6-0.1 0.9-0.2z"/>
    <path id="Layer" class="s30" d="m618.8 247.4q0.4 0 0.6 0.1c0.7 0.1 1.2 0.7 2.4 0.7 1.1 0 1.7-0.6 2.3-0.7q0.3-0.1 0.7-0.1 0.3-0.1 0.7-0.1c-0.3 0.2-1.3 1.5-1.8 1.9-0.7 0.4-1.7 0.4-1.9 0.4-0.3 0-1.3 0-1.9-0.4-0.6-0.4-1.5-1.7-1.9-1.9q0.4 0 0.8 0.1z"/>
    <path id="Layer" class="s31" d="m621.8 243c0.7-0.2 1.5-0.2 2.2-0.1-0.7 0-1.5 0.3-2.1 0.7-0.1 0-0.1 0.1-0.2 0-0.6-0.4-1.3-0.7-2.1-0.7 0.7-0.1 1.4-0.1 2.2 0.1z"/>
    <path id="Layer" class="s32" d="m617.7 233.2c-0.5-0.1-2.2-0.8-2.8-1-0.8-0.3-2.4 0-3.5 0.1 0.2-0.3 1.3-0.9 2.8-0.9 1.5-0.1 2.8 0.6 3.6 1 1.5 0.7 2.1 1.1 2 1.5-0.2 0.3-1.7-0.5-2.1-0.7z"/>
    <path id="Layer" class="s1" d="m616.1 237.5c-0.7 0-2.1-0.9-2.8-2.2 0.5-0.2 2.2-1.2 3.2-1.1 2 0.3 2.7 1.4 3.3 2.5-1.5 0.8-2.9 0.9-3.7 0.8z"/>
    <path id="Layer" class="s33" d="m616.5 237.5c-0.9 0-1.6-0.7-1.6-1.6 0-0.9 0.7-1.7 1.6-1.7 1 0 1.7 0.8 1.7 1.7 0 0.9-0.7 1.6-1.7 1.6z"/>
    <path id="Layer" class="s34" d="m616.5 235.1c0.5 0 0.9 0.3 0.9 0.8 0 0.4-0.4 0.7-0.9 0.7-0.4 0-0.7-0.3-0.7-0.7 0-0.5 0.3-0.8 0.7-0.8z"/>
    <path id="Layer" class="s1" d="m616.8 235.6c-0.1 0-0.3 0-0.3-0.2 0-0.1 0.2-0.3 0.3-0.3 0.2 0 0.2 0.2 0.2 0.3q0 0.2-0.2 0.2z"/>
    <path id="Layer" class="s35" d="m613.3 234.8c0.7-0.2 1.1-0.3 1.7-0.6q0.5-0.2 1-0.3 0.2 0 0.5 0 0.3 0 0.5 0.1c0.7 0.2 1.4 0.5 1.8 1q0.7 0.7 1 1.7-0.5-0.9-1.3-1.5c-0.4-0.3-1-0.6-1.6-0.7q-0.2 0-0.4 0-0.2-0.1-0.5 0-0.4 0-0.9 0.1c-0.6 0.3-1.1 0.5-1.7 0.9h-0.1c-0.7-0.3-0.6-0.5-1.2-0.8 0.6 0.1 0.6 0.3 1.2 0.1z"/>
    <path id="Layer" class="s32" d="m623.7 233.9c-0.1-0.4 0.6-0.8 2-1.5 0.9-0.4 2.2-1.1 3.7-1 1.5 0 2.5 0.6 2.7 0.9-1.1-0.1-2.6-0.4-3.4-0.1-0.7 0.2-2.4 0.9-2.8 1-0.5 0.2-2 1-2.2 0.7z"/>
    <path id="Layer" class="s1" d="m623.7 236.7c0.6-1.1 1.3-2.2 3.3-2.5 1.1-0.1 2.8 0.9 3.2 1.1-0.6 1.3-2 2.2-2.7 2.2-0.8 0.1-2.3 0-3.8-0.8z"/>
    <path id="Layer" class="s33" d="m627 237.5c-0.9 0-1.7-0.7-1.7-1.6 0-0.9 0.8-1.7 1.7-1.7 0.9 0 1.6 0.8 1.6 1.7 0 0.9-0.7 1.6-1.6 1.6z"/>
    <path id="Layer" class="s34" d="m627.8 235.9c0 0.4-0.4 0.7-0.8 0.7-0.4 0-0.8-0.3-0.8-0.7 0-0.5 0.4-0.8 0.8-0.8 0.4 0 0.8 0.3 0.8 0.8z"/>
    <path id="Layer" class="s1" d="m626.5 235.4c0-0.1 0.1-0.3 0.2-0.3 0.2 0 0.3 0.2 0.3 0.3q0 0.2-0.3 0.2-0.2 0-0.2-0.2z"/>
    <path id="Layer" class="s35" d="m631.5 234.7c-0.7 0.3-0.6 0.5-1.2 0.8h-0.1-0.1c-0.6-0.4-1.1-0.6-1.7-0.9q-0.4-0.1-0.8-0.1-0.3-0.1-0.5 0-0.2 0-0.5 0c-0.5 0.1-1.1 0.4-1.6 0.7-0.5 0.4-0.8 0.9-1.3 1.5 0.3-0.6 0.5-1.2 1-1.7 0.5-0.5 1.2-0.8 1.9-1q0.2-0.1 0.5-0.1 0.2 0 0.5 0 0.5 0.1 1 0.3c0.6 0.3 1 0.4 1.6 0.6 0.7 0.2 0.6 0 1.3-0.1z"/>
    <path id="Layer" class="s32" d="m615.1 225.5c-1.4 4.2-4.6 8-6.2 9.6-2.1-2.3-1.4-11.6 2-13.5q3.3-1.9 4.2 3.9z"/>
    <path id="Layer" class="s26" d="m608.3 243c-2.1 0.6-4.3-1.5-4.8-5.2-0.5-3.8 2.3-4.2 2.6-4.2 0.3-0.1 3.1-0.9 4.2 2.6 1.2 3.7 0 6.5-2 6.8z"/>
    <path id="Layer" class="s26" d="m632.8 236.5c1.1-3.6 3.9-2.8 4.1-2.7 0.3 0 3.1 0.5 2.6 4.2-0.5 3.8-2.7 5.8-4.7 5.3-2.1-0.4-3.3-3.2-2-6.8z"/>
    <path id="Layer" class="s15" d="m606.8 231.1c1.4-15.8 13.4-14.9 14.5-14.8 1.1-0.1 13.1-1 14.6 14.8 1.4 15.8-7.2 22.4-14.5 24-4.1 0-16.1-8.2-14.6-24z"/>
    <path id="Layer" class="s15" d="m661.4 306.5c2.5-2.1 6.6-1.3 4.4 0.2q-2.3 1.7-6.3 4.4-0.5-2.6 1.9-4.6z"/>
    <path id="Layer" class="s21" d="M 653.29 329.021 L 636.529 330.843 L 645.274 300.722 L 663.006 298.171 L 653.29 329.021 Z" style=""/>
    <path id="Layer" class="s6" d="M 653.776 329.507 L 637.015 331.207 L 645.759 301.086 L 663.492 298.657 L 653.776 329.507 Z" style=""/>
    <path id="Layer" class="s21" d="M 663.006 298.171 L 663.492 298.657 L 662.035 298.9 L 659.848 298.9 C 660.172 298.819 660.334 298.778 660.334 298.778 C 660.334 298.697 660.456 298.657 660.699 298.657 C 660.941 298.576 661.103 298.535 661.184 298.535 C 661.265 298.535 661.873 298.414 663.006 298.171 Z" style=""/>
    <path id="Layer" class="s15" d="m659.2 319.1q2.1 3.8-0.7 4.5-3 0.5-5.7 0 1.8-3.2 5.7-2.3z"/>
    <path id="Layer" class="s15" d="m659.7 316q3.7 4.8-0.6 5.3-6 0.6-7.8 0.4 0.2-3 6.3-4.1z"/>
    <path id="Layer" class="s15" d="m659.4 312.4q5.4 4.6-0.6 5.7-6 1.1-7.2 0.8 0.2-3.1 6.4-3.1z"/>
    <path id="Layer" class="s15" d="m660 310.1q5.3 4.7-0.6 5.8-6 1-7.2 0.8 0.1-3.1 6.3-3.1z"/>
    <path id="Layer" class="s36" d="m624.4 236.2c0.3 0.4 0.5 0.8 0.8 1.1q0.2 0.6 0.4 1.2 0.3 1.1 0.4 2.4v0.3l-0.2 0.2q-0.5 0.4-1.1 0.7c-0.3 0.3-0.7 0.6-1.1 0.8 0.2-0.5 0.5-0.9 0.6-1.2q0.5-0.6 0.9-1.1l-0.2 0.4q-0.4-1-0.6-2.3-0.1-0.6-0.1-1.2c0.1-0.4 0.1-0.9 0.2-1.3z"/>
    <path id="Layer" class="s36" d="m617.9 245.8c-2.4-3.3 7.8 2.6 11.6 0.1q-7.6 5.2-11.6-0.1z"/>
    <path id="Layer" class="s37" d="m633.9 230.8q-0.5-0.4-1.2-0.8c-0.2-0.1-0.4-0.2-0.6-0.3q-0.3-0.2-0.6-0.3c-0.3-0.1-0.5-0.1-0.7-0.2-0.3-0.1-0.5-0.2-0.8-0.1l-0.4-0.1-0.3 0.1c-0.2 0-0.5 0.1-0.7 0.1-0.3 0.1-0.5 0.1-0.7 0.2-0.2 0.1-0.3 0.3-0.5 0.4q-0.4 0.1-0.5 0.2-0.3 0.2-0.3 0.3-0.3 0.1-0.4 0.2 0-0.2 0.2-0.3c0.2-0.3 0.3-0.6 0.7-0.9 0.1-0.1 0.3-0.3 0.5-0.5 0.2 0 0.5-0.2 0.7-0.3 0.3-0.1 0.6-0.2 0.9-0.2l0.4-0.1 0.5 0.1c0.3 0 0.6 0.1 0.9 0.1 0.3 0.1 0.5 0.2 0.8 0.4q0.3 0.1 0.6 0.4 0.3 0.2 0.5 0.5 0.7 0.6 1 1.1z"/>
    <path id="Layer" class="s37" d="m618.7 230.8q-0.5-0.4-1.2-0.8c-0.1-0.1-0.4-0.2-0.5-0.3q-0.4-0.2-0.7-0.3c-0.3-0.1-0.5-0.1-0.7-0.2-0.2-0.1-0.5-0.2-0.7-0.1l-0.4-0.1-0.4 0.1c-0.2 0-0.5 0.1-0.7 0.1-0.3 0.1-0.4 0.1-0.7 0.2-0.1 0.1-0.3 0.3-0.5 0.4q-0.3 0.1-0.5 0.2-0.2 0.2-0.3 0.3-0.2 0.1-0.3 0.2 0-0.2 0.1-0.3c0.2-0.3 0.4-0.6 0.7-0.9 0.2-0.1 0.3-0.3 0.6-0.5 0.1 0 0.4-0.2 0.6-0.3 0.4-0.1 0.6-0.2 1-0.2l0.4-0.1 0.5 0.1c0.2 0 0.5 0.1 0.8 0.1 0.3 0.1 0.6 0.2 0.8 0.4q0.4 0.1 0.7 0.4 0.2 0.2 0.5 0.5 0.6 0.6 0.9 1.1z"/>
    <path id="Layer" class="s37" d="m618.4 235.2q-0.3-0.4-0.8-0.7c-0.2-0.3-0.6-0.4-0.9-0.6-0.3-0.2-0.7-0.2-1.1-0.2q-0.2 0-0.6 0-0.3 0.1-0.5 0.2-0.6 0.2-0.9 0.4-0.5 0.3-0.8 0.8 0-0.1 0.1-0.4c0.1-0.1 0.2-0.4 0.4-0.6q0.4-0.4 1-0.8 0.2-0.1 0.7-0.1 0.2-0.1 0.6-0.1 0.4 0 0.8 0.1 0.3 0 0.6 0.2c0.4 0.3 0.6 0.5 0.9 0.8q0.4 0.5 0.5 1z"/>
    <path id="Layer" class="s37" d="m631.8 235.1q-0.2-0.4-0.6-0.7-0.3-0.2-0.8-0.4-0.3-0.1-0.5-0.1-0.3-0.1-0.5-0.1-0.3 0-0.5 0c-0.2 0-0.3 0-0.5 0.1q-0.4 0.1-0.8 0.3c-0.1 0.2-0.3 0.4-0.4 0.4q-0.1 0.2-0.1 0.3 0-0.1 0-0.3c0-0.1 0.1-0.4 0.3-0.6 0.2-0.3 0.5-0.5 0.8-0.7 0.3-0.1 0.4-0.1 0.6-0.1q0.3 0 0.7 0c0.4 0 0.7 0.1 1.1 0.3 0.4 0.2 0.6 0.4 0.8 0.7q0.4 0.4 0.4 0.9z"/>
    <path id="Layer" class="s17" d="m614.7 215.8l1.9 5.5q-12.4 4.1-7.1 36.1c-3.2-12.6-13.8-47.7 5.2-41.6z"/>
    <path id="Layer" class="s17" d="m624.1 209.1c12 1.5 15.5 12.5 16.5 14.5 2.7 5.6 4.3 40.2 3 40.7-0.9 0.3-9.7-1.7-10.6-2.8 0.5-1.8 2.3-28.8 1.6-32.9-2.3 0-9.3-6-12.6-7.5 0.9 1 5 4.6 5.6 5.9-2.9-0.3-13.2-5.8-15.4-7.6 0.9-3.3 4-11.3 11.9-10.3z"/>
    <path id="Layer" class="s3" d="m642.4 307.2c-1.8-10.2-11.6-5.8-18.2-4.4-7.7 1.4-18.7 1.2-14 13.1q4.8 12.1 0.9 20.4-4.7 11.2 0.2 12.6 9.5 5.2 29.4 4.2-26.5 3.6-37.3-2.4 0.5-2.8 2.8-10.6 5-11.2 2.6-17.8-6.3-14.7-13.7-34l0.1-0.1 4.8 6.4c8.7 13.6 23.7 3.8 24.2 4q23.9 4.5 20.2-16.6 2.1 7.4-2 25.2z"/>
    <path id="Layer" class="s3" d="m595.1 288.3q2.3-4.3 2.9-8.4 0.6 4.1-2.7 8.6"/>
    <path id="Layer" class="s3" d="m644.5 282.5q-1.4-5.3-0.5-8.1-0.4 4 0.5 8.1z"/>
    <path id="Layer" class="s24" d="m614.9 215.2q8.1-13.9 22.6 3.3 4.5 8.2 4.1 21.3-0.6-23.8-14.8-26.4 10.1 3.9 11.4 15.6-5.2-13.1-16.5-14 10.6 5 13.1 11.4-13-10.6-19.9-11.2z"/>
    <path id="Layer" class="s24" d="m617.4 215.8q4.1 6.1 7 9.1-13.3-6.6-9.5-9.7l2.9-1.2 0.2 0.2z"/>
    <path id="Layer" class="s24" d="m615.5 220.8q-6.3 0.1-8 13.5-0.1-14.1 4.7-14.9-11.2-1.6-4.5 29.1l-0.9-5.9q-6.7-30.2 5.8-26.2 1.4 3.3 2.9 4.4z"/>
    <path id="Layer" class="s24" d="m637.1 229.4l2.9 32.8q-5.1-24.3-2.9-32.8z"/>
    <path id="Layer" class="s24" d="m639.7 230.8l3 32.7q-5.1-24.3-3-32.7z"/>
    <path id="Layer" class="s16" d="m616.3 487.4q0.2-0.2 0.7-0.3 3.1-0.1 3.2-0.1 0 0 4 0.6l2 1.8q-8 2.5-12.5 0.2 2.4-2 2.6-2.2z"/>
    <path id="Layer" class="s16" d="m638.3 488.2c0.4-0.2 1.9-0.2 2-0.2q0.2 0 4.9 0.8l2.7 3q-8.7 1.5-13.4-1.4 3.6-2 3.8-2.2z"/>
    <path id="Layer" class="s25" d="m632.2 372.8q4.1 112.4 6.9 119.1-3.7-1-4.6-1.5-3.3-82.1-2.3-117.6z"/>
    <path style="stroke: rgb(0, 0, 0); stroke-opacity: 0; fill: rgb(35, 31, 32);" d="M 636.529 330.842 L 637.154 330.733 L 637.018 331.208 L 636.529 330.842 Z"/>
  </g>
  <path id="Layer" fill-rule="evenodd" class="s38" d="M 199.73 66.04 C 187.83 68.718 176.265 72.622 165.034 77.754 C 158.563 67.268 151.162 57.599 142.833 48.747 C 154.732 46.145 166.261 42.203 177.417 36.922 C 183.888 47.558 191.325 57.264 199.73 66.04 Z" style=""/>
</svg>