<svg version="1.2" xmlns="http://www.w3.org/2000/svg" viewBox="0 0 748 563" width="748" height="563">
	<title>home_page-svg</title>
	<defs>
		<linearGradient id="g1" x1="320.5" y1="-79" x2="277.5" y2="84.3" gradientUnits="userSpaceOnUse">
			<stop offset="0" stop-color="#f54635"/>
			<stop offset="1" stop-color="#fb5d54"/>
		</linearGradient>
		<linearGradient id="g2" x1="312.9" y1="-81.1" x2="269.9" y2="82.1" gradientUnits="userSpaceOnUse">
			<stop offset="0" stop-color="#f54635"/>
			<stop offset="1" stop-color="#fb5d54"/>
		</linearGradient>
		<linearGradient id="g3" x1="252.5" y1="-97.5" x2="209.5" y2="66" gradientUnits="userSpaceOnUse">
			<stop offset="0" stop-color="#f54635"/>
			<stop offset="1" stop-color="#fb5d54"/>
		</linearGradient>
		<linearGradient id="g4" x1="325.2" y1="-78.3" x2="282.2" y2="85.1" gradientUnits="userSpaceOnUse">
			<stop offset="0" stop-color="#f54635"/>
			<stop offset="1" stop-color="#fb5d54"/>
		</linearGradient>
		<linearGradient id="g5" x1="302" y1="-56" x2="263.3" y2="91.2" gradientUnits="userSpaceOnUse">
			<stop offset="0" stop-color="#f54635"/>
			<stop offset="1" stop-color="#fb5d54"/>
		</linearGradient>
	</defs>
	<style>
		.s0 { opacity: .1;fill: #1f3c88 } 
		.s1 { fill: #e6e7e8 } 
		.s2 { fill: #ffffff } 
		.s3 { fill: #a7a9ac } 
		.s4 { fill: #d1d3d4 } 
		.s5 { fill: #bcbec0 } 
		.s6 { opacity: .5;fill: #bcbec0 } 
		.s7 { fill: #414042 } 
		.s8 { fill: url(#g1) } 
		.s9 { fill: url(#g2) } 
		.s10 { fill: url(#g3) } 
		.s11 { fill: url(#g4) } 
		.s12 { fill: url(#g5) } 
		.s13 { fill: #808285 } 
		.s14 { fill: #939598 } 
		.s15 { fill: #172c56 } 
		.s16 { fill: #58595b } 
		.s17 { opacity: .3;mix-blend-mode: multiply;fill: #6d6e71 } 
		.s18 { fill: #f9b384 } 
		.s19 { fill: #f73e3e } 
		.s20 { fill: #102048 } 
		.s21 { fill: #e28b6d } 
		.s22 { fill: #d62929 } 
		.s23 { fill: #b76821 } 
		.s24 { fill: #231f20 } 
		.s25 { fill: #b72020 } 
		.s26 { opacity: .5;mix-blend-mode: multiply;fill: #bcbec0 } 
		.s27 { fill: #ffb67f } 
		.s28 { opacity: .2;fill: #000000 } 
		.s29 { fill: #aaa60a } 
		.s30 { fill: #e33364 } 
		.s31 { fill: #f9437d } 
		.s32 { fill: #ec8940 } 
		.s33 { fill: #60100e } 
		.s34 { fill: #9fa24b } 
		.s35 { fill: #000000 } 
		.s36 { fill: #261113 } 
		.s37 { fill: #e59b6a } 
		.s38 { fill: #352836 } 
		.s39 { mix-blend-mode: multiply;fill: none;stroke: #f1f2f2 } 
	</style>
	<path id="Layer" class="s0" d="m655.1 510.5c0 4.9-23.6 8.8-52.6 8.8q-3.5 0-6.9-0.1-8.7-0.2-8.8-0.3c-21.3-1.1-36.8-4.4-36.8-8.4 0-4.8 23.5-8.8 52.5-8.8 29 0 52.6 4 52.6 8.8z"/>
	<g id="Layer" style="opacity: .6">
		<path id="Layer" class="s1" d="m714.2 355.9c-27.1 39.9-77.9 62.2-127.1 59.7-44.9-2.4-87.8-23.3-132.8-21.6-42.8 1.7-81.5 23.5-121.8 37.6-70.1 24.5-148.7 25.6-219.4 2.9-24.1-7.6-50.9-22.9-51.5-47.5-0.7-23.5 23-40.4 31.3-62.5 9.6-25.9-3.5-54.8-21.4-76.2-17.9-21.4-40.7-39-55.3-62.6-11.7-18.9-17.3-41-16.6-63 0.8-25.7 24.3-45.3 50.6-41.9 12 1.5 24 5.3 34.8 10.2 27.4 12.7 52.5 31.8 82.4 36.8 30 4.9 60.7-5.2 86.9-20.1 26.3-14.9 49.4-34.5 74.7-50.8 51.4-33.3 111.9-53.1 173.5-56.8 29.7-1.7 60.3 0.3 87.8 11.5 27.4 11.1 51.6 32.3 60.7 59.9 10.7 32.1 0.6 69.2 16.2 99.4 10.3 19.7 29.9 33.1 43.9 50.5 30.3 37.7 30.2 94.5 3.1 134.5z"/>
	</g>
	<path id="Layer" class="s2" d="m113.4 396.3l-0.1-2.4c-0.1-0.3 0.1-0.5 0.4-0.5 0.2 0 0.4 0.2 0.4 0.4l0.1 2.4c0 0.2-0.1 0.4-0.4 0.4-0.2 0-0.4-0.1-0.4-0.3z"/>
	<path id="Layer" class="s2" d="m113.3 388.2l0.3-2.3c0-0.3 0.2-0.5 0.5-0.5 0.3 0.1 0.5 0.3 0.4 0.5v0.1l-0.2 2.3c-0.1 0.3-0.3 0.5-0.5 0.5-0.3-0.1-0.5-0.3-0.5-0.6z"/>
	<path id="Layer" class="s2" d="m114.6 380.3l0.6-2.3c0-0.3 0.3-0.5 0.6-0.4 0.3 0.1 0.5 0.4 0.4 0.7l-0.6 2.3c-0.1 0.3-0.4 0.4-0.7 0.3-0.2 0-0.4-0.3-0.3-0.6z"/>
	<path id="Layer" class="s2" d="m117 372.7l0.9-2.3c0.1-0.3 0.5-0.4 0.8-0.3 0.3 0.1 0.4 0.5 0.3 0.8l-1 2.2c-0.1 0.3-0.4 0.4-0.7 0.3-0.3-0.1-0.5-0.4-0.3-0.7z"/>
	<path id="Layer" class="s2" d="m120.4 365.4l1.3-2.1c0.1-0.3 0.5-0.4 0.8-0.2 0.4 0.2 0.5 0.6 0.3 0.9l-1.3 2.1c-0.2 0.3-0.6 0.4-0.9 0.2-0.3-0.2-0.4-0.6-0.2-0.9z"/>
	<path id="Layer" class="s2" d="m124.8 358.7l1.5-1.9c0.3-0.3 0.7-0.3 1-0.1 0.3 0.2 0.4 0.7 0.1 1l-1.5 1.8v0.1c-0.2 0.3-0.7 0.3-0.9 0.1-0.3-0.3-0.4-0.7-0.2-1z"/>
	<path id="Layer" class="s2" d="m130.1 352.6l1.8-1.6c0.3-0.3 0.7-0.3 1 0 0.3 0.3 0.3 0.8 0 1v0.1l-1.7 1.6h-0.1c-0.3 0.3-0.7 0.3-1 0-0.3-0.3-0.3-0.8 0-1.1z"/>
	<path id="Layer" class="s2" d="m136.2 347.3l1.9-1.4c0.4-0.3 0.9-0.2 1.1 0.2 0.3 0.3 0.2 0.8-0.1 1.1q-0.1 0-0.1 0l-1.9 1.4c-0.4 0.2-0.9 0.2-1.1-0.2-0.2-0.3-0.2-0.8 0.2-1.1z"/>
	<path id="Layer" class="s2" d="m142.9 342.9l2.1-1.2c0.4-0.2 0.9 0 1.2 0.4 0.2 0.4 0 0.9-0.4 1.1l-2.1 1.1c-0.4 0.2-0.9 0.1-1.1-0.3-0.3-0.4-0.1-0.9 0.3-1.1z"/>
	<path id="Layer" class="s2" d="m150.2 339.5l2.3-0.8c0.4-0.2 0.9 0 1.1 0.5 0.2 0.4-0.1 0.9-0.5 1.1h-0.1l-2.2 0.8c-0.5 0.1-1-0.1-1.1-0.5-0.2-0.5 0.1-1 0.5-1.1z"/>
	<path id="Layer" class="s2" d="m158 337.2l2.4-0.4c0.5-0.1 0.9 0.2 1 0.7 0.1 0.5-0.2 1-0.7 1.1h-0.1l-2.3 0.4c-0.5 0.1-1-0.3-1.1-0.8-0.1-0.4 0.3-0.9 0.8-1z"/>
	<path id="Layer" class="s2" d="m166 336.2h2.4c0.6-0.1 1 0.4 1 0.9 0 0.5-0.4 1-0.9 1h-0.1-2.3-0.1c-0.5 0-0.9-0.4-0.9-0.9 0-0.5 0.4-1 0.9-1z"/>
	<path id="Layer" class="s2" d="m174.1 336.4l2.4 0.3c0.5 0 0.9 0.5 0.9 1.1-0.1 0.5-0.6 0.9-1.1 0.9h-0.1l-2.3-0.3h-0.1c-0.5-0.1-0.9-0.6-0.8-1.1 0-0.6 0.5-1 1.1-0.9z"/>
	<path id="Layer" class="s2" d="m182 337.6l2.4 0.5c0.6 0.1 0.9 0.7 0.8 1.3-0.1 0.5-0.7 0.9-1.3 0.8l-2.3-0.6c-0.6-0.1-0.9-0.7-0.8-1.2 0.1-0.6 0.7-0.9 1.2-0.8z"/>
	<path id="Layer" class="s2" d="m189.8 339.6l2.3 0.7c0.6 0.2 0.9 0.8 0.7 1.4-0.1 0.6-0.8 0.9-1.3 0.7h-0.1l-2.2-0.7v-0.1c-0.6-0.1-0.9-0.8-0.7-1.3 0.2-0.6 0.8-0.9 1.3-0.7z"/>
	<path id="Layer" class="s2" d="m197.4 342.2l2.3 0.9c0.5 0.2 0.8 0.9 0.6 1.5-0.2 0.6-0.9 0.9-1.5 0.6l-2.2-0.9c-0.6-0.2-0.9-0.9-0.6-1.5 0.2-0.5 0.8-0.8 1.4-0.6z"/>
	<path id="Layer" class="s2" d="m204.8 345.3l2.2 1c0.6 0.3 0.9 1 0.6 1.6-0.3 0.6-1 0.8-1.6 0.6v-0.1l-2.2-1c-0.6-0.2-0.8-0.9-0.5-1.5 0.2-0.6 0.9-0.9 1.5-0.6z"/>
	<path id="Layer" class="s2" d="m212 348.7l2.2 1.1c0.6 0.2 0.8 1 0.5 1.6-0.3 0.6-1 0.8-1.6 0.5l-2.1-1c-0.6-0.3-0.9-1.1-0.6-1.7 0.3-0.6 1.1-0.8 1.6-0.5z"/>
	<path id="Layer" class="s2" d="m219.2 352.3l2.1 1.1c0.6 0.3 0.9 1 0.5 1.6-0.3 0.6-1 0.9-1.6 0.6l-2.2-1.1c-0.6-0.4-0.8-1.1-0.5-1.7 0.3-0.6 1.1-0.8 1.7-0.5z"/>
	<path id="Layer" class="s2" d="m226.3 355.9l2.1 1.1c0.6 0.3 0.9 1 0.5 1.7-0.3 0.6-1 0.8-1.7 0.5l-2.1-1.1c-0.6-0.3-0.9-1-0.5-1.7 0.3-0.6 1-0.8 1.7-0.5z"/>
	<path id="Layer" class="s2" d="m233.3 359.4l2.2 1.1c0.6 0.3 0.9 1.1 0.6 1.7-0.3 0.6-1.1 0.9-1.7 0.6l-2.2-1.1c-0.6-0.3-0.9-1-0.6-1.7 0.3-0.6 1.1-0.9 1.7-0.6z"/>
	<path id="Layer" class="s2" d="m240.5 362.8l2.2 1c0.7 0.3 1 1.1 0.7 1.7-0.3 0.7-1.1 1-1.8 0.7l-2.2-1c-0.6-0.3-0.9-1.1-0.6-1.7 0.3-0.7 1-1 1.7-0.7z"/>
	<path id="Layer" class="s2" d="m247.8 366l2.2 0.9c0.7 0.3 1 1.1 0.7 1.7-0.3 0.7-1.1 1.1-1.8 0.8l-2.2-1c-0.7-0.2-1-1-0.7-1.7 0.3-0.7 1.1-1 1.7-0.7z"/>
	<path id="Layer" class="s2" d="m255.1 368.9l2.2 0.8c0.7 0.3 1.1 1.1 0.8 1.8-0.2 0.7-1 1.1-1.7 0.8l-2.3-0.8c-0.7-0.3-1-1.1-0.8-1.8 0.3-0.7 1.1-1.1 1.8-0.8z"/>
	<path id="Layer" class="s2" d="m262.5 371.6l2.3 0.8c0.7 0.2 1.1 1 0.9 1.8-0.3 0.7-1.1 1.1-1.8 0.8l-2.3-0.7c-0.7-0.3-1.1-1.1-0.9-1.8 0.3-0.8 1.1-1.1 1.8-0.9z"/>
	<path id="Layer" class="s2" d="m270 374.1l2.3 0.6c0.8 0.3 1.2 1.1 1 1.8-0.2 0.8-1 1.2-1.8 1l-2.3-0.7c-0.7-0.3-1.2-1-0.9-1.8 0.2-0.8 1-1.2 1.7-0.9z"/>
	<path id="Layer" class="s2" d="m277.6 376.2l2.3 0.6c0.8 0.2 1.3 1 1.1 1.8-0.2 0.8-1 1.3-1.8 1.1v-0.1l-2.3-0.6c-0.8-0.2-1.2-1-1-1.7 0.2-0.8 1-1.3 1.7-1.1z"/>
	<path id="Layer" class="s2" d="m285.3 378.1l2.3 0.5c0.8 0.2 1.4 1 1.2 1.8-0.2 0.8-1 1.3-1.8 1.1l-2.3-0.5c-0.8-0.2-1.3-1-1.2-1.8 0.2-0.8 1-1.3 1.8-1.1z"/>
	<path id="Layer" class="s2" d="m293 379.6l2.4 0.4c0.8 0.2 1.4 1 1.2 1.8-0.1 0.8-0.9 1.4-1.7 1.2l-2.4-0.4c-0.8-0.1-1.4-0.9-1.2-1.7 0.1-0.9 0.9-1.4 1.7-1.3z"/>
	<path id="Layer" class="s2" d="m300.8 380.8l2.4 0.3c0.8 0.1 1.5 0.9 1.3 1.8-0.1 0.8-0.8 1.4-1.7 1.3l-2.4-0.3c-0.8-0.1-1.4-0.9-1.3-1.7 0.1-0.9 0.9-1.5 1.7-1.4z"/>
	<path id="Layer" class="s2" d="m308.7 381.7l2.3 0.1c0.9 0.1 1.6 0.9 1.5 1.7-0.1 0.9-0.8 1.5-1.7 1.5l-2.4-0.2c-0.9-0.1-1.5-0.8-1.4-1.7 0-0.9 0.8-1.5 1.6-1.4z"/>
	<path id="Layer" class="s2" d="m316.5 382.1l2.4 0.1c0.9 0 1.6 0.7 1.6 1.6 0 0.9-0.8 1.6-1.7 1.5h-2.4c-0.9 0-1.5-0.8-1.5-1.7 0-0.8 0.7-1.5 1.6-1.5z"/>
	<path id="Layer" class="s2" d="m324.4 382.1l2.3-0.1h0.1c0.9 0 1.6 0.7 1.7 1.6 0 0.9-0.7 1.7-1.6 1.7l-2.4 0.1c-0.9 0-1.7-0.7-1.7-1.6 0-0.9 0.7-1.7 1.6-1.7z"/>
	<path id="Layer" class="s2" d="m332.2 381.7l2.4-0.2c0.9-0.1 1.7 0.6 1.8 1.5 0.1 0.9-0.6 1.7-1.5 1.8l-2.4 0.2c-0.9 0-1.7-0.6-1.8-1.5-0.1-0.9 0.6-1.7 1.5-1.8z"/>
	<path id="Layer" class="s2" d="m340 380.8l2.4-0.3v-0.1c0.9-0.1 1.8 0.5 1.9 1.5 0.1 0.9-0.5 1.7-1.4 1.9l-2.4 0.3c-0.9 0.2-1.8-0.5-1.9-1.4-0.1-0.9 0.5-1.7 1.4-1.9z"/>
	<path id="Layer" class="s2" d="m347.8 379.4l2.2-0.5h0.1c0.9-0.2 1.8 0.4 2 1.3 0.2 0.9-0.4 1.8-1.3 2l-2.3 0.6c-1 0.2-1.9-0.4-2.1-1.3-0.2-0.9 0.4-1.8 1.3-2z"/>
	<path id="Layer" class="s2" d="m355.3 377.5l2.3-0.6c0.9-0.3 1.9 0.2 2.2 1.1 0.3 0.9-0.3 1.9-1.2 2.2l-2.3 0.7c-0.9 0.2-1.9-0.3-2.1-1.2-0.3-0.9 0.2-1.9 1.1-2.2z"/>
	<path id="Layer" class="s2" d="m362.8 375.1l2.2-0.8c0.9-0.4 1.9 0.1 2.3 1 0.3 0.9-0.2 1.9-1.1 2.2l-2.2 0.9c-0.9 0.3-1.9-0.1-2.3-1-0.3-0.9 0.2-1.9 1.1-2.3z"/>
	<path id="Layer" class="s2" d="m370.1 372.2l2.1-1c0.9-0.4 1.9 0 2.3 0.9 0.4 0.8 0.1 1.9-0.8 2.3l-2.2 1c-0.9 0.4-1.9 0-2.3-0.9-0.4-0.9 0-1.9 0.8-2.3z"/>
	<path id="Layer" class="s2" d="m377.1 368.8l2.1-1.1v-0.1c0.9-0.4 1.9-0.1 2.4 0.7 0.4 0.9 0.1 2-0.7 2.4l-2.2 1.2c-0.8 0.4-1.9 0.1-2.3-0.7-0.5-0.9-0.2-2 0.7-2.4z"/>
	<path id="Layer" class="s2" d="m383.9 364.9l2-1.3c0.8-0.5 1.9-0.3 2.4 0.5 0.6 0.9 0.3 1.9-0.5 2.5l-2.1 1.3c-0.8 0.5-1.9 0.2-2.4-0.6-0.5-0.8-0.3-1.9 0.6-2.4z"/>
	<path id="Layer" class="s2" d="m390.4 360.5l1.9-1.4c0.8-0.6 1.9-0.4 2.5 0.4 0.6 0.7 0.4 1.8-0.4 2.4l-1.9 1.5c-0.8 0.6-1.9 0.4-2.5-0.4-0.6-0.8-0.4-1.9 0.4-2.5z"/>
	<path id="Layer" class="s2" d="m396.5 355.7l1.8-1.6c0.8-0.6 1.9-0.5 2.6 0.2 0.6 0.7 0.5 1.9-0.2 2.5l-1.9 1.6c-0.7 0.6-1.8 0.6-2.5-0.2-0.6-0.7-0.5-1.9 0.2-2.5z"/>
	<path id="Layer" class="s2" d="m402.3 350.4l1.6-1.7h0.1c0.7-0.7 1.8-0.7 2.5 0 0.7 0.7 0.7 1.8 0 2.5l-1.7 1.7c-0.7 0.8-1.8 0.8-2.5 0.1-0.7-0.7-0.7-1.9 0-2.6z"/>
	<path id="Layer" class="s2" d="m407.6 344.7l1.5-1.8c0.7-0.8 1.8-0.9 2.6-0.3 0.7 0.7 0.8 1.8 0.2 2.6l-1.6 1.8c-0.6 0.8-1.7 0.9-2.5 0.3-0.8-0.7-0.9-1.8-0.2-2.6z"/>
	<path id="Layer" class="s2" d="m412.4 338.6l1.4-2c0.6-0.8 1.7-1 2.5-0.4 0.8 0.5 1 1.7 0.5 2.5h-0.1l-1.3 2c-0.6 0.8-1.7 1-2.6 0.4-0.8-0.6-1-1.7-0.4-2.5z"/>
	<path id="Layer" class="s2" d="m416.7 332l1.1-2c0.5-0.9 1.6-1.2 2.5-0.7 0.9 0.5 1.2 1.6 0.7 2.5l-1.2 2.1c-0.5 0.8-1.6 1.2-2.5 0.7-0.9-0.5-1.2-1.7-0.7-2.5z"/>
	<path id="Layer" class="s2" d="m420.3 325.2l0.9-2.2h0.1c0.4-0.9 1.4-1.4 2.4-0.9 0.9 0.4 1.3 1.4 0.9 2.4l-1 2.2c-0.4 0.9-1.5 1.3-2.4 0.9-0.9-0.4-1.4-1.5-0.9-2.4z"/>
	<path id="Layer" class="s2" d="m423.2 318l0.7-2.3h0.1c0.3-1 1.3-1.5 2.3-1.2 0.9 0.3 1.5 1.4 1.1 2.3v0.1l-0.7 2.3c-0.4 0.9-1.4 1.4-2.4 1.1-0.9-0.3-1.4-1.3-1.1-2.3z"/>
	<path id="Layer" class="s2" d="m425.4 310.5q0.3-1.1 0.5-2.3c0.2-1 1.2-1.6 2.2-1.4 1 0.2 1.6 1.2 1.4 2.2q-0.2 1.2-0.5 2.4c-0.3 1-1.3 1.6-2.3 1.3-0.9-0.2-1.6-1.2-1.3-2.2z"/>
	<path id="Layer" class="s2" d="m426.8 302.9l0.3-2.3v-0.1c0.1-1 1.1-1.7 2.1-1.6 1 0.1 1.7 1.1 1.6 2.1l-0.3 2.4c-0.1 1-1.1 1.7-2.1 1.6-1-0.1-1.7-1.1-1.6-2.1z"/>
	<path id="Layer" class="s2" d="m427.5 295.1l0.1-2.3v-0.1c0.1-1 0.9-1.8 2-1.8 1 0.1 1.8 0.9 1.8 2l-0.1 2.4c-0.1 1-0.9 1.8-2 1.8-1 0-1.8-0.9-1.8-1.9z"/>
	<path id="Layer" class="s2" d="m427.6 287.3l-0.1-2.3c-0.1-1.1 0.7-2 1.8-2 1-0.1 1.9 0.7 1.9 1.8l0.1 2.4c0.1 1-0.7 1.9-1.8 2-1 0-1.9-0.8-1.9-1.8z"/>
	<path id="Layer" class="s2" d="m427 279.6l-0.3-2.4c-0.1-1 0.6-2 1.6-2.1 1.1-0.1 2 0.6 2.1 1.6l0.3 2.4c0.2 1.1-0.6 2-1.6 2.1-1 0.2-2-0.6-2.1-1.6z"/>
	<path id="Layer" class="s2" d="m425.9 271.8l-0.5-2.3c-0.2-1 0.5-2 1.5-2.2 1-0.2 2 0.4 2.2 1.5l0.5 2.3c0.2 1.1-0.5 2.1-1.5 2.3-1.1 0.1-2-0.5-2.2-1.6z"/>
	<path id="Layer" class="s2" d="m424.2 264.2l-0.5-2.3-0.1-0.1c-0.2-1 0.4-2 1.4-2.3 1-0.2 2.1 0.4 2.3 1.4l0.6 2.4c0.3 1-0.4 2-1.4 2.3-1 0.2-2-0.4-2.3-1.4z"/>
	<path id="Layer" class="s2" d="m422.2 256.6l-0.7-2.3c-0.3-1 0.2-2.1 1.2-2.4 1.1-0.3 2.1 0.3 2.4 1.3l0.7 2.3c0.3 1-0.2 2.1-1.2 2.4-1.1 0.3-2.1-0.3-2.4-1.3z"/>
	<path id="Layer" class="s2" d="m419.8 249.1l-0.8-2.3c-0.4-1 0.2-2.1 1.2-2.4 1-0.4 2 0.2 2.4 1.2l0.8 2.2c0.3 1-0.2 2.1-1.2 2.5-1 0.3-2.1-0.2-2.4-1.2z"/>
	<path id="Layer" class="s2" d="m417.1 241.7l-0.9-2.2v-0.1c-0.4-0.9 0.1-2.1 1.1-2.4 1-0.4 2.1 0.1 2.5 1v0.1l0.9 2.2c0.3 1-0.1 2.1-1.1 2.5-1 0.4-2.1-0.1-2.5-1.1z"/>
	<path id="Layer" class="s2" d="m414.1 234.3l-0.9-2.1v-0.1c-0.4-0.9 0-2.1 1-2.5 1-0.4 2.1 0.1 2.6 1l0.9 2.3c0.4 0.9-0.1 2.1-1 2.5-1 0.4-2.2-0.1-2.6-1z"/>
	<path id="Layer" class="s2" d="m411 227.1l-1-2.2c-0.4-1 0-2.1 1-2.6 1-0.4 2.1 0 2.6 1l0.9 2.2c0.5 1 0 2.1-0.9 2.6-1 0.4-2.2 0-2.6-1z"/>
	<path id="Layer" class="s2" d="m407.7 219.9l-1-2.2c-0.5-1 0-2.1 0.9-2.6 1-0.4 2.2 0 2.6 1l1 2.1c0.5 1 0.1 2.2-0.9 2.6-1 0.5-2.1 0.1-2.6-0.9z"/>
	<path id="Layer" class="s2" d="m404.3 212.7l-1-2.1c-0.5-1-0.1-2.2 0.9-2.7 1-0.4 2.2 0 2.6 1l1.1 2.1c0.4 1 0 2.2-1 2.6-0.9 0.5-2.1 0.1-2.6-0.9z"/>
	<path id="Layer" class="s2" d="m400.9 205.5l-1.1-2.1c-0.4-1 0-2.2 1-2.6 0.9-0.5 2.1-0.1 2.6 0.9l1 2.1c0.5 1 0.1 2.2-0.9 2.7-1 0.4-2.1 0-2.6-1z"/>
	<path id="Layer" class="s2" d="m397.4 198.4l-1-2.2c-0.4-1 0-2.2 1-2.6 0.9-0.5 2.1-0.1 2.6 0.9l1 2.2c0.5 1 0 2.1-0.9 2.6-1 0.5-2.2 0-2.7-0.9z"/>
	<path id="Layer" class="s2" d="m394.1 191.1l-1-2.2c-0.4-1 0-2.1 1-2.6 1-0.4 2.1 0 2.6 1l0.9 2.2c0.5 1 0.1 2.1-0.9 2.6-1 0.4-2.2 0-2.6-1z"/>
	<path id="Layer" class="s2" d="m390.9 183.8l-1-2.2c-0.4-1 0.1-2.1 1.1-2.6 0.9-0.4 2.1 0.1 2.5 1.1l0.9 2.2c0.5 1 0 2.1-1 2.5-1 0.5-2.1 0-2.5-1z"/>
	<path id="Layer" class="s2" d="m387.8 176.4l-0.9-2.2c-0.4-1 0.1-2.1 1.1-2.5 1-0.4 2.1 0.1 2.5 1.1l0.9 2.2c0.4 1-0.1 2.1-1.1 2.5-1 0.4-2.1-0.1-2.5-1.1z"/>
	<path id="Layer" class="s2" d="m385 168.9l-0.9-2.3c-0.3-1 0.2-2.1 1.2-2.4 1-0.4 2.1 0.2 2.5 1.2l0.8 2.2c0.3 1-0.2 2.1-1.2 2.5-1 0.3-2.1-0.2-2.4-1.2z"/>
	<path id="Layer" class="s2" d="m382.4 161.3l-0.7-2.3c-0.4-1 0.2-2.1 1.2-2.4 1-0.3 2.1 0.3 2.4 1.3l0.7 2.2v0.1c0.4 1-0.2 2.1-1.2 2.4-1 0.3-2.1-0.3-2.4-1.3z"/>
	<path id="Layer" class="s2" d="m380.1 153.6l-0.6-2.3c-0.3-1 0.3-2.1 1.3-2.4 1.1-0.2 2.1 0.4 2.4 1.4l0.6 2.3c0.3 1.1-0.3 2.1-1.4 2.4-1 0.2-2-0.4-2.3-1.4z"/>
	<path id="Layer" class="s2" d="m378.2 145.8l-0.5-2.4c-0.2-1 0.5-2 1.5-2.2 1-0.2 2 0.4 2.2 1.5l0.5 2.3c0.2 1-0.4 2.1-1.4 2.3-1.1 0.2-2.1-0.5-2.3-1.5z"/>
	<path id="Layer" class="s2" d="m376.8 137.8l-0.4-2.4c-0.1-1 0.6-1.9 1.6-2.1 1.1-0.1 2 0.6 2.2 1.6v0.1l0.3 2.3c0.1 1.1-0.6 2-1.6 2.2-1 0.1-2-0.6-2.1-1.6z"/>
	<path id="Layer" class="s2" d="m375.8 129.8l-0.1-2.4c-0.1-1 0.7-1.9 1.7-2 1-0.1 1.9 0.7 2 1.7v0.1l0.2 2.3v0.1c0.1 1-0.7 1.9-1.8 2-1 0-1.9-0.7-2-1.8z"/>
	<path id="Layer" class="s2" d="m375.5 121.7v-2.4c0-1 0.9-1.9 1.9-1.9 1.1 0.1 1.9 0.9 1.9 1.9v0.1 2.3 0.1c-0.1 1-0.9 1.8-1.9 1.8-1.1 0-1.9-0.8-1.9-1.9z"/>
	<path id="Layer" class="s2" d="m375.9 113.6l0.2-2.4c0.1-1 1-1.8 2.1-1.7 1 0.1 1.7 1.1 1.6 2.1l-0.2 2.3v0.1c-0.1 1-1 1.8-2.1 1.7-1-0.1-1.7-1-1.6-2.1z"/>
	<path id="Layer" class="s2" d="m377 105.6l0.4-2.4c0.2-1 1.2-1.7 2.2-1.5 1 0.2 1.7 1.2 1.5 2.2v0.1l-0.5 2.2v0.1c-0.2 1-1.2 1.7-2.2 1.5-1-0.2-1.6-1.2-1.4-2.2z"/>
	<path id="Layer" class="s2" d="m378.8 97.7q0.4-1.2 0.7-2.4c0.4-1 1.4-1.5 2.4-1.2 0.9 0.3 1.5 1.4 1.2 2.4q-0.4 1.1-0.7 2.2c-0.3 1-1.3 1.5-2.3 1.3-1-0.3-1.6-1.4-1.3-2.3z"/>
	<path id="Layer" class="s2" d="m381.5 90l1-2.3c0.4-0.9 1.5-1.3 2.4-0.9 0.9 0.4 1.4 1.4 1 2.4h-0.1l-0.9 2.2c-0.4 0.9-1.5 1.4-2.4 1-1-0.4-1.4-1.5-1-2.4z"/>
	<path id="Layer" class="s2" d="m385 82.6l1.2-2.1c0.5-0.9 1.6-1.2 2.5-0.7 0.9 0.5 1.2 1.6 0.7 2.5l-1.2 2v0.1c-0.5 0.9-1.6 1.2-2.5 0.7-0.9-0.5-1.2-1.6-0.7-2.5z"/>
	<path id="Layer" class="s2" d="m389.2 75.6l1.4-2c0.6-0.8 1.7-1 2.5-0.4 0.9 0.6 1.1 1.7 0.5 2.5v0.1l-1.4 1.9c-0.6 0.9-1.7 1.1-2.5 0.5-0.9-0.6-1.1-1.7-0.5-2.5z"/>
	<path id="Layer" class="s2" d="m394.1 69.1l1.6-1.8c0.6-0.8 1.7-0.9 2.5-0.2 0.8 0.6 0.9 1.8 0.2 2.5v0.1l-1.5 1.8h-0.1c-0.6 0.8-1.7 0.9-2.5 0.2-0.8-0.6-0.9-1.8-0.2-2.6z"/>
	<path id="Layer" class="s2" d="m399.5 63.1l1.8-1.7c0.7-0.7 1.8-0.7 2.5 0 0.7 0.8 0.7 1.9 0 2.6l-1.7 1.7c-0.8 0.7-1.9 0.7-2.6 0-0.7-0.7-0.7-1.9 0-2.6z"/>
	<path id="Layer" class="s2" d="m405.5 57.6l1.8-1.5c0.8-0.7 1.9-0.5 2.6 0.2 0.6 0.8 0.5 1.9-0.3 2.5v0.1l-1.8 1.5c-0.8 0.6-1.9 0.5-2.6-0.2-0.6-0.8-0.5-1.9 0.3-2.6z"/>
	<path id="Layer" class="s2" d="m411.9 52.6l1.9-1.3c0.9-0.6 2-0.4 2.5 0.4 0.6 0.8 0.4 1.9-0.4 2.5l-2 1.4c-0.8 0.5-1.9 0.3-2.5-0.5-0.6-0.8-0.4-1.9 0.4-2.5z"/>
	<path id="Layer" class="s2" d="m418.6 48.2l2.1-1.2c0.9-0.5 1.9-0.2 2.4 0.6 0.5 0.9 0.3 1.9-0.6 2.4v0.1l-2 1.1-0.1 0.1c-0.8 0.5-1.9 0.2-2.4-0.7-0.5-0.8-0.2-1.9 0.6-2.4z"/>
	<path id="Layer" class="s2" d="m425.7 44.3l2.2-1.1c0.9-0.4 1.9 0 2.3 0.9 0.5 0.8 0.1 1.9-0.8 2.3l-2.1 1.1c-0.9 0.4-2 0.1-2.4-0.8-0.4-0.9-0.1-2 0.8-2.4z"/>
	<path id="Layer" class="s2" d="m433.1 41l2.2-0.9c0.9-0.4 1.9 0.1 2.3 1 0.4 0.9-0.1 1.9-1 2.2v0.1l-2.2 0.8c-0.9 0.4-2 0-2.3-0.9-0.4-0.9 0.1-2 1-2.3z"/>
	<path id="Layer" class="s2" d="m440.7 38.2l2.3-0.7c0.9-0.3 1.9 0.2 2.2 1.1 0.3 1-0.3 1.9-1.2 2.2l-2.3 0.7c-0.9 0.3-1.9-0.2-2.2-1.1-0.3-0.9 0.2-1.9 1.2-2.2z"/>
	<path id="Layer" class="s2" d="m448.5 36l2.3-0.5c1-0.2 1.9 0.4 2.1 1.3 0.2 0.9-0.4 1.9-1.3 2.1l-2.3 0.5h-0.1c-0.9 0.2-1.8-0.3-2.1-1.3-0.2-0.9 0.4-1.9 1.3-2.1z"/>
	<path id="Layer" class="s2" d="m456.4 34.5l2.4-0.4c0.9-0.1 1.8 0.5 1.9 1.5 0.2 0.9-0.5 1.8-1.4 1.9h-0.1l-2.3 0.4c-1 0.1-1.8-0.5-2-1.5-0.1-0.9 0.5-1.8 1.5-1.9z"/>
	<path id="Layer" class="s2" d="m464.4 33.5l2.4-0.2c1-0.1 1.8 0.7 1.9 1.6 0 0.9-0.7 1.8-1.6 1.8h-0.1l-2.3 0.2c-1 0.1-1.8-0.6-1.9-1.5-0.1-1 0.6-1.8 1.6-1.9z"/>
	<path id="Layer" class="s2" d="m472.5 33.1h2.4c0.9 0 1.7 0.7 1.7 1.6 0 1-0.8 1.7-1.7 1.8h-2.4c-0.9 0-1.7-0.7-1.7-1.7-0.1-0.9 0.7-1.7 1.6-1.7z"/>
	<path id="Layer" class="s2" d="m480.5 33.2l2.4 0.1c0.9 0.1 1.6 0.9 1.6 1.8-0.1 0.9-0.8 1.6-1.7 1.6h-0.1l-2.3-0.2h-0.1c-0.9 0-1.6-0.8-1.6-1.7 0.1-0.9 0.9-1.7 1.8-1.6z"/>
	<path id="Layer" class="s2" d="m488.5 33.8l2.4 0.3c0.9 0.1 1.6 0.9 1.5 1.8-0.1 0.9-0.9 1.5-1.8 1.4h-0.1l-2.3-0.2c-0.9-0.1-1.6-0.9-1.5-1.8 0.1-0.9 0.9-1.6 1.8-1.5z"/>
	<path id="Layer" class="s2" d="m496.5 34.9l2.4 0.4c0.9 0.1 1.5 1 1.3 1.8-0.1 0.9-1 1.5-1.9 1.4l-2.3-0.4c-0.9-0.2-1.5-1-1.4-1.9 0.2-0.9 1-1.5 1.9-1.3z"/>
	<path id="Layer" class="s2" d="m504.4 36.4l2.4 0.5c0.8 0.2 1.3 1.1 1.2 1.9-0.2 0.9-1.1 1.4-1.9 1.2h-0.1l-2.3-0.5c-0.9-0.2-1.4-1-1.2-1.9 0.2-0.9 1-1.4 1.9-1.2z"/>
	<path id="Layer" class="s2" d="m512.2 38.3l2.3 0.6c0.9 0.3 1.3 1.1 1.1 2-0.2 0.8-1.1 1.3-1.9 1.1l-2.3-0.7c-0.9-0.2-1.4-1.1-1.1-1.9 0.2-0.8 1.1-1.3 1.9-1.1z"/>
	<path id="Layer" class="s2" d="m519.9 40.6l2.3 0.8c0.8 0.2 1.2 1.1 1 1.9-0.3 0.8-1.2 1.2-2 1l-2.3-0.8c-0.8-0.2-1.2-1.1-1-1.9 0.3-0.8 1.2-1.3 2-1z"/>
	<path id="Layer" class="s2" d="m527.5 43.2l2.2 0.9c0.8 0.3 1.2 1.2 0.9 2-0.3 0.7-1.2 1.1-2 0.8l-2.2-0.8c-0.8-0.3-1.2-1.2-0.9-2 0.3-0.8 1.2-1.2 2-0.9z"/>
	<path id="Layer" class="s2" d="m534.9 46.2l2.2 1c0.8 0.3 1.1 1.2 0.8 1.9-0.3 0.8-1.2 1.1-2 0.8l-2.1-0.9h-0.1c-0.7-0.4-1.1-1.2-0.8-2 0.4-0.8 1.2-1.1 2-0.8z"/>
	<path id="Layer" class="s2" d="m542.2 49.5l2.2 1c0.7 0.4 1 1.3 0.7 2-0.4 0.7-1.3 1-2 0.7l-2.1-1c-0.8-0.4-1.1-1.3-0.7-2 0.3-0.7 1.2-1 1.9-0.7z"/>
	<path id="Layer" class="s2" d="m549.4 53.1l2.1 1.1c0.7 0.4 1 1.2 0.6 1.9-0.4 0.7-1.2 1-1.9 0.6l-2.1-1.1h-0.1c-0.7-0.3-0.9-1.2-0.6-1.9 0.4-0.7 1.3-1 2-0.6z"/>
	<path id="Layer" class="s2" d="m556.4 56.9l2.1 1.2c0.7 0.4 0.9 1.3 0.5 2-0.4 0.6-1.3 0.9-1.9 0.5l-2.1-1.2c-0.7-0.4-0.9-1.3-0.5-2 0.4-0.6 1.2-0.9 1.9-0.5z"/>
	<path id="Layer" class="s2" d="m563.3 61.1l2 1.2c0.6 0.5 0.8 1.3 0.4 2-0.4 0.6-1.2 0.8-1.9 0.4l-2-1.3c-0.7-0.4-0.9-1.3-0.5-1.9 0.5-0.7 1.3-0.9 2-0.4z"/>
	<path id="Layer" class="s2" d="m570 65.5l1.9 1.3c0.6 0.5 0.8 1.3 0.4 1.9-0.5 0.6-1.3 0.8-1.9 0.4v-0.1l-2-1.3c-0.6-0.4-0.8-1.3-0.3-1.9 0.4-0.6 1.2-0.8 1.9-0.3z"/>
	<path id="Layer" class="s2" d="m576.5 70.2l1.9 1.4c0.5 0.5 0.7 1.3 0.2 1.9-0.4 0.6-1.3 0.7-1.8 0.2h-0.1l-1.9-1.4c-0.5-0.5-0.7-1.3-0.2-1.9 0.4-0.6 1.3-0.7 1.8-0.3z"/>
	<path id="Layer" class="s2" d="m582.7 75.1l1.9 1.6c0.5 0.5 0.6 1.3 0.1 1.8-0.4 0.6-1.3 0.6-1.8 0.2l-1.8-1.5-0.1-0.1c-0.5-0.4-0.6-1.2-0.1-1.8 0.4-0.6 1.3-0.6 1.8-0.2z"/>
	<path id="Layer" class="s2" d="m588.8 80.4l1.7 1.7c0.5 0.4 0.5 1.3 0.1 1.8-0.5 0.5-1.3 0.5-1.8 0l-1.8-1.6c-0.5-0.5-0.5-1.3-0.1-1.8 0.5-0.5 1.3-0.6 1.8-0.1z"/>
	<path id="Layer" class="s2" d="m594.5 86l1.7 1.8c0.4 0.5 0.4 1.2-0.1 1.7-0.5 0.5-1.3 0.5-1.7 0l-1.7-1.7c-0.5-0.5-0.5-1.3 0-1.8 0.5-0.5 1.3-0.5 1.8 0z"/>
	<path id="Layer" class="s2" d="m599.9 91.9l1.6 1.9c0.4 0.5 0.4 1.2-0.1 1.7-0.6 0.4-1.3 0.3-1.8-0.2l-1.5-1.8c-0.5-0.5-0.4-1.3 0.1-1.7 0.5-0.5 1.3-0.4 1.7 0.1z"/>
	<path id="Layer" class="s2" d="m605 98.1l1.4 2c0.4 0.5 0.3 1.2-0.2 1.6-0.5 0.4-1.3 0.3-1.7-0.2l-1.4-1.9c-0.4-0.5-0.3-1.3 0.2-1.7 0.5-0.4 1.3-0.3 1.7 0.2z"/>
	<path id="Layer" class="s2" d="m609.7 104.7l1.3 2c0.3 0.5 0.2 1.3-0.4 1.6-0.5 0.3-1.2 0.2-1.6-0.3v-0.1l-1.3-1.9c-0.3-0.6-0.2-1.3 0.3-1.7 0.6-0.3 1.3-0.2 1.7 0.4z"/>
	<path id="Layer" class="s2" d="m613.9 111.5l1.1 2.1c0.3 0.6 0.1 1.2-0.4 1.5-0.5 0.3-1.2 0.1-1.5-0.4l-1.2-2.1c-0.3-0.5-0.1-1.2 0.4-1.5 0.6-0.3 1.3-0.1 1.6 0.4z"/>
	<path id="Layer" class="s2" d="m617.6 118.7l1 2.1c0.2 0.6 0 1.2-0.6 1.5-0.5 0.2-1.1 0-1.4-0.6l-1-2.1c-0.3-0.6 0-1.2 0.5-1.5 0.6-0.2 1.2 0 1.5 0.5q0 0 0 0.1z"/>
	<path id="Layer" class="s2" d="m620.7 126l0.8 2.3c0.2 0.5 0 1.1-0.6 1.3-0.5 0.2-1.1-0.1-1.3-0.6l-0.8-2.2c-0.2-0.6 0-1.2 0.6-1.4 0.5-0.2 1.1 0.1 1.3 0.6z"/>
	<path id="Layer" class="s2" d="m623.3 133.7l0.6 2.3c0.1 0.5-0.2 1.1-0.7 1.2-0.5 0.1-1.1-0.2-1.2-0.7l-0.7-2.3c-0.1-0.5 0.2-1.1 0.7-1.2 0.6-0.2 1.1 0.1 1.2 0.7q0.1 0 0.1 0z"/>
	<path id="Layer" class="s2" d="m625.1 141.5l0.4 2.4c0.1 0.5-0.3 1-0.8 1.1-0.5 0-1-0.3-1.1-0.8l-0.4-2.3v-0.1c-0.1-0.5 0.3-1 0.8-1.1 0.5-0.1 1 0.3 1.1 0.8z"/>
	<path id="Layer" class="s2" d="m626.2 149.5l0.2 2.4c0 0.4-0.3 0.9-0.8 0.9-0.5 0.1-1-0.3-1-0.8l-0.2-2.4c-0.1-0.5 0.3-0.9 0.8-1 0.5 0 0.9 0.3 1 0.8q0 0 0 0.1z"/>
	<path id="Layer" class="s2" d="m626.6 157.5v2.4c0 0.5-0.4 0.8-0.9 0.8-0.5 0-0.8-0.4-0.8-0.8v-2.4c0-0.5 0.3-0.9 0.8-0.9 0.5 0 0.9 0.4 0.9 0.9z"/>
	<path id="Layer" class="s2" d="m626.3 165.5l-0.3 2.4c0 0.4-0.4 0.8-0.8 0.7-0.5 0-0.8-0.4-0.8-0.9l0.2-2.3v-0.1c0.1-0.4 0.5-0.7 0.9-0.7 0.5 0 0.8 0.4 0.8 0.9z"/>
	<path id="Layer" class="s2" d="m625.3 173.4l-0.5 2.4c-0.1 0.4-0.5 0.7-0.9 0.6-0.4-0.1-0.7-0.5-0.6-0.9l0.4-2.3c0.1-0.5 0.5-0.7 0.9-0.7 0.5 0.1 0.7 0.5 0.7 0.9z"/>
	<path id="Layer" class="s2" d="m623.5 181.3l-0.7 2.3c-0.1 0.4-0.5 0.6-0.8 0.5-0.4-0.1-0.6-0.5-0.5-0.9l0.6-2.3c0.1-0.4 0.5-0.6 0.9-0.5 0.4 0.1 0.6 0.5 0.5 0.9z"/>
	<path id="Layer" class="s2" d="m621 188.9l-0.8 2.2c-0.2 0.4-0.6 0.6-0.9 0.4-0.4-0.1-0.5-0.5-0.4-0.9l0.8-2.2c0.2-0.4 0.6-0.5 0.9-0.4 0.4 0.1 0.6 0.5 0.4 0.9z"/>
	<path id="Layer" class="s2" d="m617.8 196.2l-1.1 2.2c-0.2 0.3-0.5 0.4-0.9 0.2-0.3-0.1-0.4-0.5-0.2-0.8l1.1-2.1c0.1-0.4 0.5-0.5 0.8-0.3 0.4 0.1 0.5 0.5 0.3 0.8z"/>
	<path id="Layer" class="s2" d="m613.8 203.2l-1.3 2c-0.2 0.3-0.6 0.3-0.8 0.1-0.3-0.1-0.4-0.5-0.2-0.7v-0.1l1.3-1.9v-0.1c0.2-0.2 0.6-0.3 0.8-0.1 0.3 0.2 0.4 0.5 0.2 0.8z"/>
	<path id="Layer" class="s2" d="m609.1 209.6l-1.6 1.9c-0.2 0.2-0.5 0.2-0.7 0-0.3-0.2-0.3-0.5-0.1-0.7l1.5-1.8c0.2-0.3 0.6-0.3 0.8-0.1 0.2 0.2 0.2 0.5 0.1 0.7z"/>
	<path id="Layer" class="s2" d="m603.6 215.5l-1.8 1.6c-0.2 0.1-0.5 0.1-0.7-0.1-0.2-0.1-0.1-0.4 0.1-0.6l1.7-1.6c0.2-0.2 0.5-0.2 0.7 0 0.2 0.2 0.1 0.5 0 0.7z"/>
	<path id="Layer" class="s2" d="m597.4 220.6l-2 1.3c-0.2 0.1-0.4 0.1-0.6-0.1-0.1-0.2 0-0.4 0.1-0.5v-0.1l2-1.3c0.2-0.2 0.4-0.1 0.6 0.1 0.1 0.2 0.1 0.4-0.1 0.5q0 0 0 0.1z"/>
	<path id="Layer" class="s3" d="m517.4 334.4q26.8-169.7 119.8-264.9c6.3-6.4 19.7-4.4 23.7 3.5 26.7 52.8 86.6 213.8-143.5 261.4z"/>
	<path id="Layer" class="s4" d="m646.3 120.7c0.1-0.4 0.9-0.3 0.8 0.1-13.2 124.6-88.8 189.4-108.8 202.7-0.6 0.4-1.4-0.2-0.9-0.7 74.4-66.1 102.4-173.1 108.9-202.1z"/>
	<path id="Layer" class="s5" d="m114.8 491.5q-89-78-110.2-167.1c-1.4-6 4.7-13.1 10.7-12.6 40.6 3.9 156.4 28.2 99.5 179.7z"/>
	<path id="Layer" class="s1" d="m37.7 337.9c-0.2-0.2 0.2-0.6 0.4-0.4 67.7 53.4 77.7 121.2 78.1 137.8 0 0.5-0.7 0.7-0.7 0.3-11.2-67.7-63.3-123.3-77.8-137.7z"/>
	<path id="Layer" class="s6" d="m221 439.7l-123.5 2.3q-55.6-12.3-38.6-63.8c16.9-51.5 15.2-52.1-5.3-74.9-20.5-22.8-53.8-74.9-18.1-98.3 35.7-23.4 50.3 8.2 56.7 30.4 6.5 22.3 12.9 23.4 28.7 5.9 15.8-17.6 44.5 12.3 45.6 48.6q1.2 36.2 54.5 149.8z"/>
	<path id="Layer" class="s3" d="m87 137.7l77.4-31.9c5.2-2.2 11.1 0.4 13 5.7l43.7 124c1.7 4.9-0.7 10.3-5.5 12.2l-60.6 24.5c-4.6 1.8-10-0.1-12.3-4.5l-60.6-116.5c-2.6-5.1-0.4-11.4 4.9-13.5z"/>
	<path id="Layer" class="s2" d="m91.4 139.3l71.1-29.3c4.7-1.9 10.2 0.5 11.9 5.5l41.3 116.6c1.6 4.7-0.6 9.7-5 11.5l-55.6 22.4c-4.3 1.8-9.1-0.2-11.4-4.3l-56.7-109.8c-2.5-4.8-0.4-10.6 4.4-12.6z"/>
	<path id="Layer" class="s7" d="m200.9 220.6c-0.8 0.3-1.7-0.1-2-0.9l-37.3-94.4c-0.8-2.2-3.4-3.3-5.6-2.4l-50.2 19.5c-0.8 0.4-1.8 0-2-0.9-0.3-0.8 0.1-1.7 0.9-2l50.2-19.5c3.8-1.5 8.2 0.4 9.6 4.2l37.3 94.3c0.3 0.9-0.1 1.8-0.9 2.1z"/>
	<path id="Layer" fill-rule="evenodd" class="s7" d="m156.6 253.5c-3.8 1.5-8.1-0.1-10.1-3.7-21.4-39.9-47-87.9-47.4-88.8-0.3-0.8 0.1-1.7 0.9-2 0.8-0.3 1.6 0 2 0.8 0.8 1.6 24.9 46.8 47.3 88.5 1.2 2.2 3.9 3.2 6.2 2.3q0 0 0.1 0l39.9-16.5c0.9-0.4 1.8 0 2.1 0.8 0.3 0.8-0.1 1.7-0.9 2l-40 16.5q-0.1 0.1-0.1 0.1z"/>
	<path id="Layer" fill-rule="evenodd" class="s7" d="m106.2 151.9l-0.4 0.2c-0.6 0.2-1.2 0.2-1.6-0.2l-1.4-1.4c-0.4-0.4-1-0.5-1.5-0.3l-2.2 1.3c-0.5 0.3-0.7 0.8-0.6 1.5l0.5 1.8c0.2 0.6 0 1.2-0.5 1.5l-0.4 0.2c-0.7 0.4-1.7 0-1.9-0.8l-3.2-12.7c-0.1-0.5 0.1-1.1 0.6-1.3l1.9-1.2c0.5-0.3 1.1-0.1 1.5 0.3l9.4 9.1c0.6 0.5 0.5 1.6-0.2 2zm-10.3-8.6h-0.1l1.4 4.8c0.2 0.8 1.1 1.2 1.9 0.8 0.6-0.5 0.8-1.4 0.2-2z"/>
	<path id="Layer" fill-rule="evenodd" class="s7" d="m196.4 224.5l0.4-0.1c0.4-0.3 1-0.2 1.4 0.2l1.3 1.5c0.4 0.5 1 0.7 1.5 0.4l2.2-1.1c0.6-0.3 0.8-0.8 0.8-1.5l-0.4-1.8c-0.1-0.6 0.1-1.2 0.7-1.4l0.4-0.2c0.7-0.4 1.6 0.1 1.8 0.9l2.3 12.8c0.1 0.7-0.2 1.1-0.7 1.4l-2 0.9c-0.4 0.3-1.1 0.2-1.4-0.2l-8.8-9.8c-0.5-0.6-0.3-1.6 0.5-2zm9.6 9.3l-1-4.9c-0.2-0.8-1.1-1.2-1.8-0.9-0.7 0.4-1 1.4-0.5 2z"/>
	<path id="Layer" class="s7" d="m171.3 181.4c1.8 1.7 3 4 3.3 6.5 0.3 3.9 0.1 9.6-4.3 12.4q-7.1 4.6-14.1-2.3c-5 20.2-19.6 12.5-22.4 4.3-2.4-6.7 0-39.4 0.9-50.3 0.1-1.4 1.8-2.1 2.9-1.2z"/>
	<path id="Layer" class="s7" d="m158.6 201.9c6.4 10.7 13 18.5 16.3 21 1.1 0.7 1 2.3 0.1 2.7l-14.1 5.7c-1.1 0.4-2.3-0.9-1.9-2.1 1.9-7 0.1-19.6-1.7-26.8-0.3-1 0.7-1.4 1.3-0.5z"/>
	<path id="Layer" class="s3" d="m186.2 91.1l78.9 11.2c5.2 0.8 8.7 5.7 7.7 10.9l-24 122.8c-0.9 4.8-5.6 8.1-10.4 7.4l-61.5-9.3c-4.7-0.7-8.1-4.9-7.9-9.6l6.6-124.7c0.3-5.4 5.2-9.5 10.6-8.7z"/>
	<path id="Layer" class="s2" d="m189.1 94.3l72.6 10.3c4.8 0.7 8.1 5.5 7.1 10.6l-23 119.3c-0.9 4.7-5.2 7.9-9.7 7.3l-56.6-8.5c-4.3-0.6-7.4-4.7-7.2-9.4l7.1-121.1c0.3-5.3 4.8-9.2 9.7-8.5z"/>
	<path id="Layer" class="s8" d="m240.2 218.2q-0.1 0-0.1 0c-0.9-0.2-1.4-0.9-1.3-1.7l15.6-98.8c0.3-2.3-1.3-4.6-3.6-5l-52.5-8.5c-0.8-0.1-1.3-0.9-1.2-1.7 0.2-0.8 0.9-1.3 1.7-1.2l52.5 8.6c3.8 0.6 6.6 4.4 5.9 8.3l-15.5 98.8c-0.1 0.7-0.8 1.2-1.5 1.2z"/>
	<path id="Layer" class="s9" d="m228.5 230q-0.1 0-0.2 0l-42.2-6.1c-4.1-0.5-7-4-6.8-7.9 1.8-44.8 4-98.3 4.2-99.2 0.1-0.9 0.8-1.4 1.6-1.3 0.8 0.1 1.3 0.8 1.2 1.7-0.2 1.7-2.2 52.1-4.1 98.8-0.1 2.5 1.8 4.8 4.3 5.1l42.2 6c0.8 0.2 1.3 0.9 1.2 1.6-0.1 0.7-0.7 1.3-1.4 1.3z"/>
	<path id="Layer" fill-rule="evenodd" class="s10" d="m195.5 112.5h-3l-1-3.8h-4.3l-1.1 3.7-3-0.1 4.3-14.8h4.1zm-6.1-12.3h-0.1l-1.6 6.2h3.2z"/>
	<path id="Layer" fill-rule="evenodd" class="s11" d="m232.5 219.2l3 0.2 0.7 3.8 4.4 0.4 1.2-3.6 3.1 0.2-5.3 14.5-4.1-0.3zm5.2 12.8h0.1l2.1-6.1-3.3-0.3z"/>
	<path id="Layer" class="s12" d="m189.5 152.2c-1.1-2.3-1.1-4.8-0.1-7 1.7-3.4 5.2-8 11.5-8.3q10.3-0.5 14.2 8.5c16.5-14.4 28.3-1.3 27.1 6.9-1.2 6.7-21.5 32.7-28.5 41.4-0.8 1.2-3.2 0.9-3.8-0.4z"/>
	<path id="Layer" class="s13" d="m592 176v287.2h-452.7v-287.2c0-6 4.9-10.9 10.9-10.9h430.9c6 0 10.9 4.9 10.9 10.9z"/>
	<path id="Layer" class="s2" d="m148 176h434.2v279.1h-434.2z"/>
	<path id="Layer" class="s14" d="m640.5 490h-550.4l-27.2-10h604.7z"/>
	<path id="Layer" class="s14" d="m414.1 473.1h-98v-10h98z"/>
	<path id="Layer" class="s3" d="m667.6 463.1v16.9h-604.7v-16.9h261v3.6c0 2.5 2.1 4.5 4.6 4.5h73.3c2.5 0 4.5-2 4.5-4.5v-3.6z"/>
	<path id="Layer" class="s4" d="m537.3 408.7q31.3-99.8 110-125.9c56.2-18.5 84.7-31.2 96.4-37 2.4-1.2 5 1.2 4.1 3.7-12.9 32.4-73.3 162.7-210.5 159.2z"/>
	<path id="Layer" class="s3" d="m553 394.9q33.1-46.4 84.2-76c3.3-1.9 6.2 2.9 3.1 5-23.6 15.4-54.8 38.6-87.3 71z"/>
	<path id="Layer" class="s15" d=""/>
	<path id="Layer" class="s0" d="m229.9 499.5c0 5.5-49.2 10-110 10q-7.4 0-14.6-0.1-18.1-0.2-18.3-0.4c-44.6-1.3-77-5.1-77-9.5 0-5.6 49.2-10 110-10 60.7 0 109.9 4.4 109.9 10z"/>
	<path id="Layer" class="s16" d="m22 394.6c11.3-17.3 30.3-20.2 47.2-20.2 20.7 0 41.5 1.1 62.1 4.2 9.7 1.6 19.4 2.8 28.8 6.2 2.8 1 5.7 2.4 8.4 3.9 2.8 1.6 5.6 3.4 8.2 5.4q0.4 0.5 0.9 0.8 0.2 0.2 0.5 0.4 0.3 0.3 0.7 0.6 0.3 0.3 0.6 0.6 0.4 0.3 0.7 0.6 1 0.9 2 2 0.6 0.6 1.2 1.3 1 0.9 1.8 2c3.5 4.2 6.5 9 8.7 14.4 7 17.1 6.2 39.5-0.7 56.3-7.1 16.7-21.8 23.6-36.3 25.4-17.9 2.3-35.8 0.9-53.6-0.6-20.6-1.9-45.9 1.3-64-12.9-15.1-12-24.4-33.7-25.5-55.5-0.6-12.4 2-25.3 8.3-34.9z"/>
	<path id="Layer" class="s17" d="m167.6 417.7q16.5 2.1 7.9 16.6c-8.6 14.5 5.8 20.1-24 23.1-9.8 1-34.1-0.9-57.2-7.1l-37.1-2.3q-16.8-9.2-10.4-28.8-16.8-9.5-4.7-20.8 12.1-11.2-0.4-1.4l50.8-0.3q20.7 4.4 25.2 6.7c4.4 2.5 14.4 5.1 18 7.5q3.6 2.3 11.6 6.8z"/>
	<path id="Layer" class="s18" d="m152.7 393.2c2.6-3.1 7.7-3 5.4-0.5q-2.4 2.4-7 6.7-1-3.2 1.6-6.2z"/>
	<path id="Layer" class="s19" d="m71.6 421.9c-13-5.1-22.2-10.5-27.4-14.1-3.4-2.3-5.1-6.5-4.5-10.5l6.8-39.3c0.7-4.1 3.3-7.5 7.1-9.1 10.8-4.7 21.4-7.3 30.6-8.6q5.3-0.4 11.9 0.3c4.4 0.4 14.4 3.3 20.8 5.3 3.5 1.1 6.4 3.8 7.8 7.3 2.7 6.9 7 18.5 8.3 24.8q4.8 21.6 4.1 20l4.9 33.3-52.3 2.9-13.4-6z"/>
	<path id="Layer" class="s20" d="m89.8 320.1l-13.7-3.1c-7.4-16.1 1.7-30.5 10.2-25.7q13.7-4.8 26.7 7.8z"/>
	<path id="Layer" class="s18" d="m97.8 327v18.8c0 4.3-3.5 7.9-7.9 7.9-6 0-10.7-4.8-10.7-10.8v-15.9z"/>
	<path id="Layer" class="s21" d="m97.8 334.8v10.2q-17.6-2.6-16.7-14.4z"/>
	<path id="Layer" class="s18" d="m105.8 323.2c-0.9 2.5-0.7 7.3-1.8 9.6-1.7 4.2-4.7 8.7-8.9 8.8q-9.9 0.2-17.4-15.2l1.5-18.4 7.5-8.3 20.6 12.7q1.3 2.9-1.5 10.8z"/>
	<path id="Layer" class="s20" d="m76.5 311.8l2.4-11.4 14.6-4.6 11.7 1.3c10.1-2 14.7 10.8 3.9 17.2q-10.8 6.5-22.4-4.9-7.1 5.3-7.8 11.6z"/>
	<path id="Layer" class="s22" d="m74.8 406.5q-4.5-7.2-16.3-8.3l3.4-4 4.7-8.1 3.3-14.2c0 3.3-1.8 13.2 3 22.6 3.3 6.4 7.9-4.1 16.8 15z"/>
	<path id="Layer" class="s23" d="m115.9 362.8q1.1 5 2 10c0.7 3.4 1.2 6.8 1.9 10.1q0.9 5.1 1.7 10.1l0.8 5.1c0.3 1.7 0.6 3.3 0.8 5l-0.4 0.1c-0.3-1.6-0.6-3.3-1.1-5l-0.9-5q-0.9-5-1.9-10.1c-0.5-3.4-1.1-6.7-1.7-10.1q-0.9-5-1.6-10.1z"/>
	<path id="Layer" class="s22" d="m126.7 421.9l-23.1 1.4-7.6-7.1c24.2 2.9 23-31.7 22.3-37.9z"/>
	<path id="Layer" class="s18" d="m88.1 415.6c10.5-4.5 12.5-4.2 13.9-4.2q4.8 0.2 11.7 9.8l-0.1 1.8h-26.4z"/>
	<path id="Layer" class="s24" d="m148.1 419.5l-16.8 4.7 3.8-32.2 17.4-5.6z"/>
	<path id="Layer" class="s7" d="m148.7 419.8l-16.9 4.7 3.8-32.1 17.6-5.6z"/>
	<path id="Layer" class="s18" d="m151.9 413.1c-0.3 2.3-0.4 5.8-7.7 5.4l-2.2-1.2 2-2.2 4.5-2.3z"/>
	<path id="Layer" class="s18" d="m152.7 406.6q4 5.2 0 6.9-4.5 1.7-8.7 1.6 1.9-5.3 8-5z"/>
	<path id="Layer" class="s18" d="m152.8 403.2q5.5 5.2 0.4 6.6-7.3 2-9.6 2.2-0.4-3.9 6.9-6.4z"/>
	<path id="Layer" class="s18" d="m151.6 398.8q7.6 4.6 0.5 7.1-7.1 2.6-8.8 2.5-0.3-3.8 7.3-5.1z"/>
	<path id="Layer" class="s24" d="m100.7 486.8l19.5 5.6c-15.1 11.1-28.7 8.1-29.6 8.6z"/>
	<path id="Layer" class="s24" d="m101.6 432.5q43.9-20.9 58.2-19.9c14.3 0.9 13.9 18.7 8.5 26.5-5.5 7.7-18.1 18.1-64.7 15z"/>
	<path id="Layer" class="s25" d="m49.7 399.8q2.2-0.8 4.7-1.5 1.1-0.3 2.3-0.5 0.6-0.1 1.2-0.3 0.2 0 0.6 0 0.4 0 0.6 0c1.7 0.2 3.2 0.8 4.8 1.3q2.2 0.8 4.4 1.9 2.2 1 4.3 2.3 2.1 1.2 4 2.5c2.7 1.8 5.3 3.8 7.5 6.2l-0.3 0.3q-1.8-1.6-3.7-3-1.9-1.4-3.9-2.7c-2.7-1.7-5.4-3.3-8.3-4.7q-2.2-1.1-4.3-2c-1.5-0.5-3-1.1-4.5-1.3q-0.3 0-0.5 0-0.4 0-0.6 0-0.6 0.1-1.2 0.2-1.2 0.2-2.3 0.5-2.3 0.5-4.7 1.2z"/>
	<path id="Layer" class="s17" d="m57.1 457l23.4-5.8 5.8 8.3q-10.5-1-14.5 0.4c-3.8 1.4-9 1-14.3 1.3z"/>
	<path id="Layer" class="s24" d="m57.7 445.9c-5.3-8.7-5.3-25.8 1.5-33.6 7.8-8.8 24.4-12.2 33-1.8 8.8 10.3 24.7 56.3 28 81.9q-17.6-5.9-29.6 8.6-15.7-44.1-19-57.2l-8.9 7z"/>
	<path id="Layer" class="s2" d="m76.2 457.2l-7 0.4q-1.3 0-2.5 0.5c0.9-2.2-0.2-5.1-0.7-7.4-0.3-1.7-0.3-3.7-0.3-5.7q0.2 0 0.3 0.1 3.3-2.2 5.6-1.3z"/>
	<path id="Layer" class="s18" d="m80.7 329c-8.3-2.4-10.6-10.6-6.3-12.2q4.2-1.6 6.1 4.7z"/>
	<path id="Layer" class="s20" d="m67.8 428.8l2 7.1c0.6 2.4 1.3 4.7 2 7.1q1.1 3.5 2.2 7.1 0.5 1.7 1.1 3.4c0.2 0.7 0.4 1.2 0.6 1.8q0.3 0.9 0.6 1.8l-0.3 0.1q-0.8-1.7-1.5-3.4-0.7-1.7-1.3-3.5c-0.8-2.3-1.6-4.7-2.3-7-0.6-2.5-1.3-4.8-1.9-7.2-0.6-2.4-1.2-4.8-1.6-7.2z"/>
	<path id="Layer" class="s20" d="m92.7 321.8c-0.1 0.5-0.4 0.9-0.8 0.9-0.3-0.1-0.5-0.6-0.5-1.1 0.1-0.6 0.4-0.9 0.8-0.8 0.4 0 0.7 0.5 0.5 1z"/>
	<path id="Layer" class="s20" d="m102.5 322.5c-0.4 0-0.7-0.4-0.7-1 0-0.5 0.3-0.9 0.7-0.9 0.3 0 0.7 0.4 0.7 0.9 0 0.6-0.4 1-0.7 1z"/>
	<path id="Layer" class="s21" d="m98.1 322.6q0.4 3.2 1.5 5.8-1 1.2-3.2 1l2-1.5z"/>
	<path id="Layer" class="s20" d="m87.7 318.8q3.7-3.5 6.5 0.6-2.5-1.8-6.5-0.6z"/>
	<path id="Layer" class="s20" d="m106.9 318.8q-3.8-3.4-6.6 0.6 2.6-1.8 6.6-0.6z"/>
	<path id="Layer" class="s21" d="m73.7 321.4q-0.9-3.4 1.8-3.6 2.8-0.2 3.4 4.4 0.6 4.5-0.2-0.1-0.9-4.1-3.4-3.5-1.6 0.1-1.6 2.8z"/>
	<path id="Layer" class="s2" d="m100.8 504.7l-2.7-9.9q4.3-3.8 15.6-3.6l4.1 12.4-1.9 9q-5.2 1.1-5.6 1.1c-0.4 0-3.2-0.8-4.7-1.6-1.6-0.8-3.5-1.5-3.6-1.9-0.1-0.3-0.8-1.7-0.8-2.1q0-0.2-0.4-3.4z"/>
	<path id="Layer" class="s13" d="m142.2 524.1c-1 1.8-5.2 2.9-9 3.7-3.7 0.7-12.5 0-15.6-2.5-3-2.4-6.4-5.3-8.8-5.5-2.4-0.2-7.2-2.3-8.6-3.9-0.1-1.3-1.7-8.6 0.6-11.2 1.4 2.4 4 3 4.8 2.1 0.7-0.8 2.2-4.7 3.4-5.9 1.2-1.1 4.4-2.1 6.3-1.7 1.9 0.3 3.7 2 4.8 3.8 1 1.9 6 7.8 8.6 10 2.6 2.1 12 9.8 13.1 10.6q0.2 0.1 0.4 0.5z"/>
	<path id="Layer" class="s24" d="m100.2 515.9c0.4 0.5 1.2 1 2 1.4 2.1 1.3 4.9 2.3 6.6 2.5 2.4 0.2 5.8 3.1 8.8 5.5 3.1 2.5 11.8 3.2 15.6 2.5q0.3-0.1 0.6-0.1c3.6-0.7 7.5-1.9 8.4-3.6 0.6 1 0.5 3.2 0.1 4.6q-0.1 0.3-0.3 0.6-0.5 0.6-1.2 1.2c-1.7 1.2-4.3 2.4-7 2.7-3.8 0.4-13-0.7-15.1-2-2.1-1.2-8.2-6-9.8-6.2-1.6-0.1-8.2-1.8-9-3.1-0.9-1.2-0.8-4.7 0.3-6z"/>
	<path id="Layer" class="s13" d="m48.5 480.3c-1.7-0.9-2.4-4.9-2.8-8.4-0.4-3.6 1-11.6 3.4-14.3 2.5-2.6 5.4-5.4 5.8-7.7 0.4-2.2 2.7-6.4 4.2-7.7 1.2 0 8.1-0.9 10.4 1.5-2.4 1-3.1 3.4-2.4 4.2 0.7 0.7 4.2 2.5 5.2 3.6 1 1.1 1.6 4.2 1.2 6-0.5 1.7-2.2 3.2-4 4-1.8 0.9-7.6 5-9.7 7.3-2.2 2.3-10 10.3-10.9 11.2q-0.1 0.3-0.4 0.3z"/>
	<path id="Layer" class="s24" d="m59.1 442.2c-0.4 0.4-1 1.1-1.4 1.8-1.3 1.8-2.5 4.4-2.8 5.9-0.4 2.3-3.3 5.1-5.8 7.7-2.4 2.7-3.8 10.7-3.4 14.3q0.1 0.2 0.1 0.4c0.4 3.5 1.1 7.2 2.7 8-1 0.6-3 0.4-4.3-0.1q-0.3-0.2-0.5-0.3-0.6-0.5-1.1-1.3c-1-1.6-1.8-4.2-1.9-6.6-0.1-3.6 1.5-11.9 2.9-13.8 1.3-1.8 6.2-7.1 6.5-8.6 0.2-1.4 2.3-7.5 3.5-8.1 1.2-0.7 4.5-0.3 5.5 0.7z"/>
	<path id="Layer" class="s22" d="m90.1 356.8q-0.1 0-0.1 0c-4.1 0-7.5-1.2-9.8-3.7-4.2-4.5-3.8-11.4-3.8-11.6l1.6 0.1c0 0-0.3 6.4 3.4 10.4 2 2.2 4.9 3.2 8.6 3.2 0.1 0 4.6 0.2 7.2-3 2-2.4 2.6-6 1.5-10.9l1.5-0.3c1.2 5.3 0.6 9.4-1.7 12.3-2.9 3.4-7.4 3.5-8.4 3.5z"/>
	<path id="Layer" class="s20" d="m79.3 318q0.7 9.4 7 13.1c1.2 0.7 2.8 1.2 11.2-0.5 2.4-0.6 3.6 1.5 6.9 0.9l-2.6 9.4c-0.8 2.4-6.1 2-8.4 1.4-10.1-2.9-11.5-6.4-13.9-13.6l-0.5-3.6z"/>
	<path id="Layer" class="s18" d="m94.2 334.4l6.9 0.1q-3 2.9-6.9-0.1z"/>
	<path id="Layer" class="s24" d="m152.5 386.4l0.7 0.4-1.5 0.5-2.2 0.3q0.5-0.1 0.5-0.2 0 0 0.3 0 0.4-0.3 0.5-0.3 0.2-0.1 1.7-0.7z"/>
	<path id="Layer" class="s25" d="m69.1 361.7q5.8 20.5-10 35.8 11.8-13.5 10-35.8z"/>
	<path id="Layer" class="s25" d="m115.5 362.9q8.6 27.5-1.7 44.7 7-17.9 1.7-44.7z"/>
	<path id="Layer" class="s20" d="m80.7 316.1q-1.4 3-0.4 6.5-0.5 0.1-0.5-0.1 0-0.2-0.4-4.7l0.2-1.4z"/>
	<path id="Layer" class="s15" d="m86.6 292.5q11.4-5.6 26.2 7.6 5 7.4-4.7 13.3-5.3 3.8-17.4-2.5 12.2 4.6 17.4-1.3-10.9 4.8-21.5-3.8 12.8 5.7 19.5 0.7c6.6-4.9-36.6-0.7-19.5-14z"/>
	<path id="Layer" class="s15" d="m75.7 313.8q-4.8-15.2 3.9-21 2.6-2 6-0.5-4.8 1.1-4.8 4.7 0.1 3.8 2.8 5.5 5.7 4.3-0.2 8.8-2.9 1.4-4.1 5.1-0.9-5.1 3.2-7.3-3.4-1.1-4.7 1.2-0.3-3.6 2.4-6.6-5.8 0.6-4.5 10.1z"/>
	<path id="Layer" class="s18" d="m625.2 496.2c0.4 2.3 0.6 4.9 0.6 7.4q0 1.3-0.1 2.6c-2.9 3.8-9.9 4-13.4 1.4q-0.5-0.3-0.9-0.7-0.2-0.2-0.4-0.5-0.1-0.1-0.2-0.2-0.1-0.1-0.1-0.2 0-0.1-0.2-0.3-0.1-0.3-0.2-0.4-0.1-0.4-0.1-0.7c2.9-6.1 5.2-12.2 5.2-16.7 0-3-1.8-11-3.6-21.5 5 0.2 10 0.8 14.7 0.9q0.1 0 0.3 0c-1.2 12.7-2.1 25-1.6 28.9z"/>
	<path id="Layer" class="s24" d="m607.8 509.5q1.3-2.4 2.4-4.9c1 5.4 11.8 6.4 15.6-1 0.8 7.1-1.6 11.5-4.1 12.4-3.4 1.1-9.9 1-13-1.3-1.2-0.8-1.5-3.9-0.9-5.2z"/>
	<path id="Layer" class="s18" d="m634.5 463.9q0.2 0 0.4 0c4.8-0.2 10.1-0.8 15.3-1-1.9 11.1-3.7 19.3-3.7 22.4 0 4.8 2.4 11.2 5.4 17.6q-0.1 0.3-0.2 0.6 0 0.2-0.2 0.5-0.1 0.1-0.2 0.3 0 0.1 0 0.1-0.1 0.2-0.3 0.3-0.2 0.3-0.4 0.6-0.4 0.4-0.9 0.7c-3.7 2.6-10.9 2.4-14-1.6q-0.1-1.3-0.1-2.6c0-2.7 0.2-5.4 0.6-7.8 0.6-4-0.4-16.9-1.7-30.1z"/>
	<path id="Layer" class="s24" d="m653.4 513.4c-3.2 2.3-9.9 2.5-13.5 1.3-2.6-0.9-5-5.4-4.3-12.9 3.9 7.7 15.2 6.6 16.3 1.1q1.2 2.5 2.4 5c0.7 1.4 0.4 4.6-0.9 5.5z"/>
	<path id="Layer" class="s19" d="m657.8 346.3q6.7 20.8-3.5 79.1 1.4 43.1-6.4 66.4l-13.4-1.4-2.6-82.4 0.5-37.5-6.2 118.9-2.9 0.5-3.6 0.2h-3.6l-2.4-0.5q-6.7-40.9-4.3-68.5-12.3-52.7-4-71.4z"/>
	<path id="Layer" class="s26" d="m611.1 469.9c-1.6-14.3-3.1-34.1-1.8-49.6q-12.3-52.7-3.9-71.5l9.1-0.5q-7.1 20.9-0.7 67c-3.1 17.2-3.1 40.1-2.7 54.6z"/>
	<path id="Layer" class="s20" d="m612.6 229.8q0.3-0.5 9.9-1.5l3.9 0.5 15.1 6.9q0.4 6.2 2.7 31.5l-42.7 8.3q-1.7-15.2 2.8-41.3 8-4.1 8.3-4.4z"/>
	<path id="Layer" class="s15" d="m639.3 232.6l2.9 32.7q-5-24.3-2.9-32.7z"/>
	<path id="Layer" class="s15" d="m635.8 225.2l2.9 32.7q-5-24.2-2.9-32.7z"/>
	<path id="Layer" class="s15" d="m634.4 234.6l2.9 32.8q-5-24.3-2.9-32.8z"/>
	<path id="Layer" class="s15" d="m632.9 239.8l2.9 32.7q-5.2-24.3-2.9-32.7z"/>
	<path id="Layer" class="s15" d="m612.5 236.6l2.9 32.6q-5.2-24.3-2.9-32.6z"/>
	<path id="Layer" class="s15" d="m609.7 226.3l2.9 32.7q-5.2-24.3-2.9-32.7z"/>
	<path id="Layer" class="s15" d="m608.6 232.7l2.9 32.7q-5.2-24.3-2.9-32.7z"/>
	<path id="Layer" class="s15" d="m605.4 231.4l2.9 32.7q-5.1-24.2-2.9-32.7z"/>
	<path id="Layer" class="s15" d="m604 244.9l2.9 32.8q-5.1-24.3-2.9-32.8z"/>
	<path id="Layer" class="s15" d="m629.5 231.7l2.9 32.8q-5-24.3-2.9-32.8z"/>
	<path id="Layer" class="s18" d="m609.7 326.8q0 0.8 0.1 1.6 0 0.5 0 0.9-0.2 1.1-0.4 2.1-0.2 0.6-0.2 1.3-0.8 0.9-1.3 2 0 0-0.1 0 0 0 0.1 0-0.1 0-0.1 0-0.1 0.1-0.2 0.2c-1.7 1-4.6 1.6-6.2 1.4-2.9-2.2-5.7-4.4-7.7-6.2q-0.8-0.7-1.4-1.2c-0.6-0.5-2-1.4-4.1-2.7 1.9-2.1 3.2-4.7 4.3-7.4 1.8 1.4 3.3 2.4 4.2 2.6q0.4 0.1 0.6 0.1c3.4 0 7.9-0.1 10.5 1.2 0.4 0.3 0.7 0.6 0.9 1.2q0.2 0.3 0.3 0.7c0.1 0.3 0.2 0.6 0.2 0.9 0 0.6 0.1 1.4 0.1 2.1q0-0.6 0-1.1 0-0.2 0.1-0.5 0-0.4-0.1-0.7 0-0.2 0-0.5 0-0.2-0.1-0.5 0.1 0.2 0.1 0.4 0.1 1 0.4 2.1z"/>
	<path id="Layer" class="s18" d="m597.1 263.7c1-0.2 2-0.5 2.9-0.6 4-0.9 8.4-1.6 10-1.9 1.2-0.3 2.5-1.4 3.6-2.9q0 0 0 0c0.9-1.4 1.8-3.3 2-5.2q0-0.3 0-0.6 0.1 0 0.1-0.2 0-0.1 0-0.1v-0.1q0-0.4 0-0.8 0-0.2 0-0.4 0 0 0-0.1 0-0.2-0.1-0.5h3.5q1.5 0 2.7 0 0.4 0 1 0 0.3 0 0.6 0 0.5-0.1 1 0 0.6-0.1 1.2 0 0.5 0 0.9 0 0.4 0 0.8 0 0 0.8 0.1 1.5 0 0.2 0.1 0.6 0 0.2 0.1 0.4 0 0.2 0 0.4v0.1c0.5 1.9 1.2 3.7 2.1 5.2 0.4 0.7 0.8 1.3 1.3 1.8 0.4 0.5 1.1 0.9 2 1.4 2.6 1.2 6.6 2 9 2.5q0.6 0.1 1 0.2 0.1 0 0.2 0 0.1 0.2 0.3 0.7c0.1 0.5 0.2 1.5 0.4 2.6-2.5 3.1-4.1 6.9-4.1 11.1q-0.1 0.3-0.2 0.8c-0.5 1-1.1 1.9-1.7 2.9-1.1 0-2.3 0-3.5 0.5-4 1.7-7.8 1.4-12 1-3.5-0.5-8.1-0.5-10.8-2.2-2.5-1.6-5.3-6.5-7.6-9-1.1-1.4-2.4-2.8-3.6-4.2 0.1 0.3-1.2-1.5-1.5-1.8-0.3-0.7-1.3-2.6-0.7-0.7q-0.4-1.3-1.1-2.4z"/>
	<path id="Layer" class="s21" d="m615.6 250.7q2.8 0 6.2 0 3.5-0.1 5.5 0 0 1.5 0.3 3c-1.6 2.7-4.8 5.2-5.8 5.2-1.2 0-4.8-1.7-6.2-5.4q0.2-1.4 0-2.8z"/>
	<path id="Layer" class="s27" d="m642.3 304.2v-0.2q-0.1-1.9-0.2-4.1-0.2-4.7-0.3-9.1-0.1-0.6-0.1-1.1c-0.1-11.8 0.4-20.7 1.4-24.6h0.4c2.8 0.1 7 2.6 8.8 7.5 0.6 1.7 0.9 3.8 0.7 6.2-0.3 4.2-0.4 8.9-0.3 13.4 0.1 5.8 0.6 11.1 1.5 14.4 1 3.7 2.4 8.9 3.9 13.3-2.5 2.3-4.7 5.1-7.9 5.8-0.9 0.2-1.7 0.8-2.3 1.6-2.6-4.9-4.7-11.6-5.6-23.1z"/>
	<path id="Layer" class="s1" d="m647.2 327.3c-1.5-3-2.9-6.7-3.9-11.7q-0.1-0.1-0.1-0.2c-0.6-2.8-1.1-6-1.4-9.7-0.2-1.9-0.2-3.7-0.3-5.7q-0.2-2.5-0.3-4.8 0-0.7 0-1.4-0.1-0.7-0.1-1.1v-0.4c-0.3-13.7 0.4-23.3 1.4-27.4l0.1-0.5h0.6c2.3 0 5.1 1.4 7.1 3.6 0.9 1 1.9 2.4 2.6 4.4 0.6 1.7 1 3.8 0.8 6.4-0.2 2.5-0.4 5.2-0.4 7.9-0.1 7.7 0.4 15.6 1.5 19.7 1.1 4.1 2.5 9 3.9 13.1-2.7 2.2-5 5.4-8.5 6.2-1.2 0.3-2.1 1.2-2.6 2.3q-0.2-0.4-0.3-0.6 0-0.1-0.1-0.1z"/>
	<path id="Layer" class="s28" d="m604.3 347.1c16.1 3 39-1.8 51.7-6.7 1.6 3.1 2 6.9 2.8 10.8-11.8 4.8-41.3 6.5-54 0.3 0.1-3.1-0.9-1.7-0.5-4.4z"/>
	<path id="Layer" class="s29" d="m609.2 325.5q-0.1-0.9-0.5-1.6 0.3 0.7 0.5 1.6z"/>
	<path id="Layer" class="s1" d="m560.3 299c4-6.3 20.9-20.9 22.4-22.3 1.5-1.3 8.2-9.1 10.4-11.2 1-0.9 3.8-1.8 6.9-2.4 6.7 6.4 15.7 19.5 22.9 19.5 7.1 0 12.6-11.8 18.3-18.5 0.9 0.1 1.4 0.2 1.9 0.3 0.7 1.2 1.4 8.5 1.3 17.6q-0.1 2.6-0.2 5.3c-0.2 4.6-0.6 9.5-1.3 14.1-0.5 0.7-0.7 2.9-0.5 5.8 0.1 2.4 0.4 5.2 0.8 7.8 0.4 2.8 0.8 5.5 1.4 7.6 1.2 4.9 10 11.2 13.9 23.6-13 10.7-46.9 9-55.1 4.5 0.4-3.2 1.7-5.7 2.2-8.4 0.4-2.4 1.7-5.2 2.3-7.6q-0.1 0.1-0.3 0.2c1.3-2.3 1.9-4.5 1.9-6.8q0-0.8-0.2-1.6c0.1-1.2 0-2.4-0.3-3.4-0.2-0.8-0.5-1.7-0.9-2.8q0 0 0-0.1-0.4-1-1-2.4c-3.4-8.6-10-23.1-11.8-29.3q0-0.2-0.1-0.3 0 0.1-0.1 0.1c-3.7 2.4-15.9 12.3-19.9 14.6 2.2 2.3 17.2 17.3 21.5 18.5-0.3 2.5-1.6 6-3 8.7q-0.8-0.7-1.4-1.2c-2.2-2-19.8-11.5-26.9-15.9-7.1-4.3-9.3-7.7-5.1-14z"/>
	<path id="Layer" class="s28" d="m615.7 248.6q2.8 0 6.1 0 3.6-0.3 5.5 0 0.1 1.5 0.4 2.9c-2.3 2-4.8 3.6-5.9 3.6-1.2 0-3.8-1.7-6.2-3.8q0.3-1.3 0.1-2.7z"/>
	<path id="Layer" class="s27" d="m609.2 228.5c0.3-3.5 3.6-9.5 12.6-9.5 9 0 12.2 6 12.6 9.5 0.3 3.7-0.2 14.4-2.1 17.3-2 2.9-8.5 8.2-10.5 8.2-2.1 0-8.6-5.3-10.5-8.2-2-2.9-2.5-13.6-2.1-17.3z"/>
	<path id="Layer" class="s30" d="m619.4 246.3c0.5-0.5 1.3-0.7 1.5-0.7 0.2-0.1 0.7 0.2 0.9 0.2 0.2 0 0.6-0.3 0.9-0.2 0.1 0 1 0.2 1.5 0.7 0.5 0.5 1 0.9 1.3 1-0.2 0-0.4 0.1-0.7 0.1-0.3-0.1-0.7-0.1-1-0.2-0.5-0.4-0.8-0.5-1.1-0.5-0.2-0.1-0.5 0.1-0.9 0.1-0.5 0-0.7-0.2-1-0.1-0.2 0-0.6 0.1-1.1 0.5-0.3 0.1-0.6 0.1-0.9 0.2-0.4 0-0.6-0.1-0.8-0.1 0.4-0.1 0.9-0.5 1.4-1z"/>
	<path id="Layer" class="s2" d="m619.7 247.2c0.5-0.4 0.9-0.5 1.1-0.5 0.3-0.1 0.5 0.1 1 0.1 0.4 0 0.7-0.2 0.9-0.1 0.3 0 0.6 0.1 1.1 0.5 0.3 0.1 0.7 0.1 1 0.2q-0.4 0-0.7 0.1c-0.6 0.1-1.2 0.7-2.3 0.7-1.2 0-1.7-0.6-2.4-0.7q-0.2-0.1-0.6-0.1c0.3-0.1 0.6-0.1 0.9-0.2z"/>
	<path id="Layer" class="s31" d="m618.8 247.4q0.4 0 0.6 0.1c0.7 0.1 1.2 0.7 2.4 0.7 1.1 0 1.7-0.6 2.3-0.7q0.3-0.1 0.7-0.1 0.3-0.1 0.7-0.1c-0.3 0.2-1.3 1.5-1.8 1.9-0.7 0.4-1.7 0.4-1.9 0.4-0.3 0-1.3 0-1.9-0.4-0.6-0.4-1.5-1.7-1.9-1.9q0.4 0 0.8 0.1z"/>
	<path id="Layer" class="s32" d="m621.8 243c0.7-0.2 1.5-0.2 2.2-0.1-0.7 0-1.5 0.3-2.1 0.7-0.1 0-0.1 0.1-0.2 0-0.6-0.4-1.3-0.7-2.1-0.7 0.7-0.1 1.4-0.1 2.2 0.1z"/>
	<path id="Layer" class="s33" d="m617.7 233.2c-0.5-0.1-2.2-0.8-2.8-1-0.8-0.3-2.4 0-3.5 0.1 0.2-0.3 1.3-0.9 2.8-0.9 1.5-0.1 2.8 0.6 3.6 1 1.5 0.7 2.1 1.1 2 1.5-0.2 0.3-1.7-0.5-2.1-0.7z"/>
	<path id="Layer" class="s2" d="m616.1 237.5c-0.7 0-2.1-0.9-2.8-2.2 0.5-0.2 2.2-1.2 3.2-1.1 2 0.3 2.7 1.4 3.3 2.5-1.5 0.8-2.9 0.9-3.7 0.8z"/>
	<path id="Layer" class="s34" d="m616.5 237.5c-0.9 0-1.6-0.7-1.6-1.6 0-0.9 0.7-1.7 1.6-1.7 1 0 1.7 0.8 1.7 1.7 0 0.9-0.7 1.6-1.7 1.6z"/>
	<path id="Layer" class="s35" d="m616.5 235.1c0.5 0 0.9 0.3 0.9 0.8 0 0.4-0.4 0.7-0.9 0.7-0.4 0-0.7-0.3-0.7-0.7 0-0.5 0.3-0.8 0.7-0.8z"/>
	<path id="Layer" class="s2" d="m616.8 235.6c-0.1 0-0.3 0-0.3-0.2 0-0.1 0.2-0.3 0.3-0.3 0.2 0 0.2 0.2 0.2 0.3q0 0.2-0.2 0.2z"/>
	<path id="Layer" class="s36" d="m613.3 234.8c0.7-0.2 1.1-0.3 1.7-0.6q0.5-0.2 1-0.3 0.2 0 0.5 0 0.3 0 0.5 0.1c0.7 0.2 1.4 0.5 1.8 1q0.7 0.7 1 1.7-0.5-0.9-1.3-1.5c-0.4-0.3-1-0.6-1.6-0.7q-0.2 0-0.4 0-0.2-0.1-0.5 0-0.4 0-0.9 0.1c-0.6 0.3-1.1 0.5-1.7 0.9h-0.1c-0.7-0.3-0.6-0.5-1.2-0.8 0.6 0.1 0.6 0.3 1.2 0.1z"/>
	<path id="Layer" class="s33" d="m623.7 233.9c-0.1-0.4 0.6-0.8 2-1.5 0.9-0.4 2.2-1.1 3.7-1 1.5 0 2.5 0.6 2.7 0.9-1.1-0.1-2.6-0.4-3.4-0.1-0.7 0.2-2.4 0.9-2.8 1-0.5 0.2-2 1-2.2 0.7z"/>
	<path id="Layer" class="s2" d="m623.7 236.7c0.6-1.1 1.3-2.2 3.3-2.5 1.1-0.1 2.8 0.9 3.2 1.1-0.6 1.3-2 2.2-2.7 2.2-0.8 0.1-2.3 0-3.8-0.8z"/>
	<path id="Layer" class="s34" d="m627 237.5c-0.9 0-1.7-0.7-1.7-1.6 0-0.9 0.8-1.7 1.7-1.7 0.9 0 1.6 0.8 1.6 1.7 0 0.9-0.7 1.6-1.6 1.6z"/>
	<path id="Layer" class="s35" d="m627.8 235.9c0 0.4-0.4 0.7-0.8 0.7-0.4 0-0.8-0.3-0.8-0.7 0-0.5 0.4-0.8 0.8-0.8 0.4 0 0.8 0.3 0.8 0.8z"/>
	<path id="Layer" class="s2" d="m626.5 235.4c0-0.1 0.1-0.3 0.2-0.3 0.2 0 0.3 0.2 0.3 0.3q0 0.2-0.3 0.2-0.2 0-0.2-0.2z"/>
	<path id="Layer" class="s36" d="m631.5 234.7c-0.7 0.3-0.6 0.5-1.2 0.8h-0.1-0.1c-0.6-0.4-1.1-0.6-1.7-0.9q-0.4-0.1-0.8-0.1-0.3-0.1-0.5 0-0.2 0-0.5 0c-0.5 0.1-1.1 0.4-1.6 0.7-0.5 0.4-0.8 0.9-1.3 1.5 0.3-0.6 0.5-1.2 1-1.7 0.5-0.5 1.2-0.8 1.9-1q0.2-0.1 0.5-0.1 0.2 0 0.5 0 0.5 0.1 1 0.3c0.6 0.3 1 0.4 1.6 0.6 0.7 0.2 0.6 0 1.3-0.1z"/>
	<path id="Layer" class="s33" d="m615.1 225.5c-1.4 4.2-4.6 8-6.2 9.6-2.1-2.3-1.4-11.6 2-13.5q3.3-1.9 4.2 3.9z"/>
	<path id="Layer" class="s27" d="m608.3 243c-2.1 0.6-4.3-1.5-4.8-5.2-0.5-3.8 2.3-4.2 2.6-4.2 0.3-0.1 3.1-0.9 4.2 2.6 1.2 3.7 0 6.5-2 6.8z"/>
	<path id="Layer" class="s27" d="m632.8 236.5c1.1-3.6 3.9-2.8 4.1-2.7 0.3 0 3.1 0.5 2.6 4.2-0.5 3.8-2.7 5.8-4.7 5.3-2.1-0.4-3.3-3.2-2-6.8z"/>
	<path id="Layer" class="s18" d="m606.8 231.1c1.4-15.8 13.4-14.9 14.5-14.8 1.1-0.1 13.1-1 14.6 14.8 1.4 15.8-7.2 22.4-14.5 24-4.1 0-16.1-8.2-14.6-24z"/>
	<path id="Layer" class="s18" d="m661.4 306.5c2.5-2.1 6.6-1.3 4.4 0.2q-2.3 1.7-6.3 4.4-0.5-2.6 1.9-4.6z"/>
	<path id="Layer" class="s24" d="m654.3 326.5l-13.8 1.5 7.2-24.8 14.6-2.1z"/>
	<path id="Layer" class="s7" d="m654.7 326.9l-13.8 1.4 7.2-24.8 14.6-2z"/>
	<path id="Layer" class="s24" d="m662.3 301.1l0.4 0.4-1.2 0.2h-1.8q0.4-0.1 0.4-0.1 0-0.1 0.3-0.1 0.3-0.1 0.4-0.1 0.1 0 1.5-0.3z"/>
	<path id="Layer" class="s18" d="m659.2 319.1q2.1 3.8-0.7 4.5-3 0.5-5.7 0 1.8-3.2 5.7-2.3z"/>
	<path id="Layer" class="s18" d="m659.7 316q3.7 4.8-0.6 5.3-6 0.6-7.8 0.4 0.2-3 6.3-4.1z"/>
	<path id="Layer" class="s18" d="m659.4 312.4q5.4 4.6-0.6 5.7-6 1.1-7.2 0.8 0.2-3.1 6.4-3.1z"/>
	<path id="Layer" class="s18" d="m660 310.1q5.3 4.7-0.6 5.8-6 1-7.2 0.8 0.1-3.1 6.3-3.1z"/>
	<path id="Layer" class="s37" d="m624.4 236.2c0.3 0.4 0.5 0.8 0.8 1.1q0.2 0.6 0.4 1.2 0.3 1.1 0.4 2.4v0.3l-0.2 0.2q-0.5 0.4-1.1 0.7c-0.3 0.3-0.7 0.6-1.1 0.8 0.2-0.5 0.5-0.9 0.6-1.2q0.5-0.6 0.9-1.1l-0.2 0.4q-0.4-1-0.6-2.3-0.1-0.6-0.1-1.2c0.1-0.4 0.1-0.9 0.2-1.3z"/>
	<path id="Layer" class="s37" d="m617.9 245.8c-2.4-3.3 7.8 2.6 11.6 0.1q-7.6 5.2-11.6-0.1z"/>
	<path id="Layer" class="s38" d="m633.9 230.8q-0.5-0.4-1.2-0.8c-0.2-0.1-0.4-0.2-0.6-0.3q-0.3-0.2-0.6-0.3c-0.3-0.1-0.5-0.1-0.7-0.2-0.3-0.1-0.5-0.2-0.8-0.1l-0.4-0.1-0.3 0.1c-0.2 0-0.5 0.1-0.7 0.1-0.3 0.1-0.5 0.1-0.7 0.2-0.2 0.1-0.3 0.3-0.5 0.4q-0.4 0.1-0.5 0.2-0.3 0.2-0.3 0.3-0.3 0.1-0.4 0.2 0-0.2 0.2-0.3c0.2-0.3 0.3-0.6 0.7-0.9 0.1-0.1 0.3-0.3 0.5-0.5 0.2 0 0.5-0.2 0.7-0.3 0.3-0.1 0.6-0.2 0.9-0.2l0.4-0.1 0.5 0.1c0.3 0 0.6 0.1 0.9 0.1 0.3 0.1 0.5 0.2 0.8 0.4q0.3 0.1 0.6 0.4 0.3 0.2 0.5 0.5 0.7 0.6 1 1.1z"/>
	<path id="Layer" class="s38" d="m618.7 230.8q-0.5-0.4-1.2-0.8c-0.1-0.1-0.4-0.2-0.5-0.3q-0.4-0.2-0.7-0.3c-0.3-0.1-0.5-0.1-0.7-0.2-0.2-0.1-0.5-0.2-0.7-0.1l-0.4-0.1-0.4 0.1c-0.2 0-0.5 0.1-0.7 0.1-0.3 0.1-0.4 0.1-0.7 0.2-0.1 0.1-0.3 0.3-0.5 0.4q-0.3 0.1-0.5 0.2-0.2 0.2-0.3 0.3-0.2 0.1-0.3 0.2 0-0.2 0.1-0.3c0.2-0.3 0.4-0.6 0.7-0.9 0.2-0.1 0.3-0.3 0.6-0.5 0.1 0 0.4-0.2 0.6-0.3 0.4-0.1 0.6-0.2 1-0.2l0.4-0.1 0.5 0.1c0.2 0 0.5 0.1 0.8 0.1 0.3 0.1 0.6 0.2 0.8 0.4q0.4 0.1 0.7 0.4 0.2 0.2 0.5 0.5 0.6 0.6 0.9 1.1z"/>
	<path id="Layer" class="s38" d="m618.4 235.2q-0.3-0.4-0.8-0.7c-0.2-0.3-0.6-0.4-0.9-0.6-0.3-0.2-0.7-0.2-1.1-0.2q-0.2 0-0.6 0-0.3 0.1-0.5 0.2-0.6 0.2-0.9 0.4-0.5 0.3-0.8 0.8 0-0.1 0.1-0.4c0.1-0.1 0.2-0.4 0.4-0.6q0.4-0.4 1-0.8 0.2-0.1 0.7-0.1 0.2-0.1 0.6-0.1 0.4 0 0.8 0.1 0.3 0 0.6 0.2c0.4 0.3 0.6 0.5 0.9 0.8q0.4 0.5 0.5 1z"/>
	<path id="Layer" class="s38" d="m631.8 235.1q-0.2-0.4-0.6-0.7-0.3-0.2-0.8-0.4-0.3-0.1-0.5-0.1-0.3-0.1-0.5-0.1-0.3 0-0.5 0c-0.2 0-0.3 0-0.5 0.1q-0.4 0.1-0.8 0.3c-0.1 0.2-0.3 0.4-0.4 0.4q-0.1 0.2-0.1 0.3 0-0.1 0-0.3c0-0.1 0.1-0.4 0.3-0.6 0.2-0.3 0.5-0.5 0.8-0.7 0.3-0.1 0.4-0.1 0.6-0.1q0.3 0 0.7 0c0.4 0 0.7 0.1 1.1 0.3 0.4 0.2 0.6 0.4 0.8 0.7q0.4 0.4 0.4 0.9z"/>
	<path id="Layer" class="s20" d="m614.7 215.8l1.9 5.5q-12.4 4.1-7.1 36.1c-3.2-12.6-13.8-47.7 5.2-41.6z"/>
	<path id="Layer" class="s20" d="m624.1 209.1c12 1.5 15.5 12.5 16.5 14.5 2.7 5.6 4.3 40.2 3 40.7-0.9 0.3-9.7-1.7-10.6-2.8 0.5-1.8 2.3-28.8 1.6-32.9-2.3 0-9.3-6-12.6-7.5 0.9 1 5 4.6 5.6 5.9-2.9-0.3-13.2-5.8-15.4-7.6 0.9-3.3 4-11.3 11.9-10.3z"/>
	<path id="Layer" class="s4" d="m642.4 307.2c-1.8-10.2-11.6-5.8-18.2-4.4-7.7 1.4-18.7 1.2-14 13.1q4.8 12.1 0.9 20.4-4.7 11.2 0.2 12.6 9.5 5.2 29.4 4.2-26.5 3.6-37.3-2.4 0.5-2.8 2.8-10.6 5-11.2 2.6-17.8-6.3-14.7-13.7-34l0.1-0.1 4.8 6.4c8.7 13.6 23.7 3.8 24.2 4q23.9 4.5 20.2-16.6 2.1 7.4-2 25.2z"/>
	<path id="Layer" class="s4" d="m595.1 288.3q2.3-4.3 2.9-8.4 0.6 4.1-2.7 8.6"/>
	<path id="Layer" class="s4" d="m644.5 282.5q-1.4-5.3-0.5-8.1-0.4 4 0.5 8.1z"/>
	<path id="Layer" class="s15" d="m614.9 215.2q8.1-13.9 22.6 3.3 4.5 8.2 4.1 21.3-0.6-23.8-14.8-26.4 10.1 3.9 11.4 15.6-5.2-13.1-16.5-14 10.6 5 13.1 11.4-13-10.6-19.9-11.2z"/>
	<path id="Layer" class="s15" d="m617.4 215.8q4.1 6.1 7 9.1-13.3-6.6-9.5-9.7l2.9-1.2 0.2 0.2z"/>
	<path id="Layer" class="s15" d="m615.5 220.8q-6.3 0.1-8 13.5-0.1-14.1 4.7-14.9-11.2-1.6-4.5 29.1l-0.9-5.9q-6.7-30.2 5.8-26.2 1.4 3.3 2.9 4.4z"/>
	<path id="Layer" class="s15" d="m637.1 229.4l2.9 32.8q-5.1-24.3-2.9-32.8z"/>
	<path id="Layer" class="s15" d="m639.7 230.8l3 32.7q-5.1-24.3-3-32.7z"/>
	<path id="Layer" class="s19" d="m616.3 487.4q0.2-0.2 0.7-0.3 3.1-0.1 3.2-0.1 0 0 4 0.6l2 1.8q-8 2.5-12.5 0.2 2.4-2 2.6-2.2z"/>
	<path id="Layer" class="s19" d="m638.3 488.2c0.4-0.2 1.9-0.2 2-0.2q0.2 0 4.9 0.8l2.7 3q-8.7 1.5-13.4-1.4 3.6-2 3.8-2.2z"/>
	<path id="Layer" class="s26" d="m632.2 372.8q4.1 112.4 6.9 119.1-3.7-1-4.6-1.5-3.3-82.1-2.3-117.6z"/>
	<g id="Layer">
		<path id="Layer" fill-rule="evenodd" class="s39" d="m347 132.7q-14.4 3.3-28.1 9.6-7.8-12.8-17.9-23.5 14.4-3.2 28-9.6 7.8 12.9 18 23.5z"/>
	</g>
	<g id="Layer">
		<path id="Layer" fill-rule="evenodd" class="s39" d="m704 231.6q-1.9 11.6-1.4 23.5-11.7 1.9-22.6 6.2 2-11.5 1.4-23.5 11.8-1.8 22.6-6.2z"/>
	</g>
	<g id="Layer">
		<path id="Layer" fill-rule="evenodd" class="s39" d="m43.1 115q-2.3-9.5 3.2-14.6c5.9-5.5 16.4 2.5 16.6 17.1 0.1 10.5-2.1 19.5-3.4 23.7-3.8 0.2-11.7 0.2-20.2-3-11.7-4.5-15.2-18.6-9-23.7q5.7-4.8 12.8 0.5z"/>
	</g>
	<g id="Layer">
		<path id="Layer" fill-rule="evenodd" class="s39" d="m425.9 91.1c4.7 2.7 5.3 7.9 5.3 10.7 1.3-3 3.8-8.5 4.2-11.4l6.2 4c-2.4 1.6-6.5 6-8.8 8.6 2.7-1.2 7.6-2.7 12 0.6 7.1 5.3 5.8 18.5-8.5 19.8-9.1 0.9-13.9 1.2-21.8 5.7 1-9.1-0.7-13.5-3.5-22.3-4.5-13.7 7.2-20 14.9-15.7z"/>
	</g>
	<g id="Layer">
		<path id="Layer" fill-rule="evenodd" class="s39" d="m563.7 92.4c5.3 3.9 6.5 11.1 3 16.4-3.3 4.3-8.7 5.9-13.5 4.1 3.9 2 12.6 6.4 17.1 7.3l-6.2 8.6c-2.2-3.9-9.2-10.7-12.4-13.8 3.1 4 3.5 9.7 0.5 14.1-3.9 5.2-11.2 6.3-16.4 2.5-5.3-3.7-6.5-11-3-16.4 1-1.3 2.4-2.4 3.8-3.2-3.2 0.7-6.7 0.2-9.6-1.8-5.3-3.9-6.6-11.2-2.9-16.4 3.8-5.2 11.1-6.3 16.4-2.6 2.9 2 4.6 5.2 4.9 8.4 0.3-1.6 0.9-3.1 1.9-4.6 3.9-5.1 11.2-6.3 16.4-2.6z"/>
	</g>
	<g id="Layer">
		<path id="Layer" fill-rule="evenodd" class="s39" d="m80.7 187.5c-2.3 3.8-7.3 5-11.2 2.7-3.1-2-4.4-5.7-3.4-9.1-1.3 2.8-3.9 9-4.3 12.1l-6.3-3.9c2.7-1.7 7.1-6.8 9.1-9.2-2.7 2.4-6.6 2.9-9.8 1-3.7-2.5-4.8-7.5-2.5-11.3 2.4-3.8 7.4-5 11.3-2.8 1 0.7 1.8 1.5 2.4 2.5-0.7-2.2-0.4-4.6 0.9-6.7 2.4-3.9 7.4-5.1 11.2-2.8 3.8 2.5 4.9 7.5 2.5 11.3-1.3 2.1-3.4 3.4-5.6 3.8 1.1 0.1 2.2 0.5 3.3 1.1 3.7 2.4 4.8 7.4 2.4 11.3z"/>
	</g>
</svg>