<svg version="1.2" xmlns="http://www.w3.org/2000/svg" viewBox="0 0 748 563" width="748" height="563"><defs><linearGradient id="P" gradientUnits="userSpaceOnUse"/><linearGradient id="g1" x1="621.5" y1="60.7" x2="568.2" y2="263" href="#P"><stop stop-color="#f54635"/><stop offset="1" stop-color="#fb5d54"/></linearGradient><linearGradient id="g2" x1="612.1" y1="58.1" x2="558.8" y2="260.3" href="#P"><stop stop-color="#f54635"/><stop offset="1" stop-color="#fb5d54"/></linearGradient><linearGradient id="g3" x1="537.2" y1="37.8" x2="483.9" y2="240.3" href="#P"><stop stop-color="#f54635"/><stop offset="1" stop-color="#fb5d54"/></linearGradient><linearGradient id="g4" x1="627.3" y1="61.6" x2="574" y2="264" href="#P"><stop stop-color="#f54635"/><stop offset="1" stop-color="#fb5d54"/></linearGradient><linearGradient id="g5" x1="598.6" y1="89.2" x2="550.6" y2="271.5" href="#P"><stop stop-color="#f54635"/><stop offset="1" stop-color="#fb5d54"/></linearGradient><clipPath clipPathUnits="userSpaceOnUse" id="cp1"><path d="m392.48 189.07c0 13.69-11.69 24.79-26.1 24.79-14.42 0-26.1-11.1-26.1-24.79 0-13.69 11.68-24.78 26.1-24.78 14.41 0 26.1 11.09 26.1 24.78z"/></clipPath><clipPath clipPathUnits="userSpaceOnUse" id="cp2"><path d="m517.7 160.44c-1.99 13.54-15.17 22.82-29.44 20.72-14.26-2.11-24.2-14.79-22.2-28.33 1.99-13.55 15.17-22.82 29.43-20.72 14.27 2.1 24.21 14.79 22.21 28.33z"/></clipPath><clipPath clipPathUnits="userSpaceOnUse" id="cp3"><path d="m258.17 161.26c0 13.69-11.69 24.79-26.11 24.79-14.41 0-26.1-11.1-26.1-24.79 0-13.69 11.69-24.79 26.1-24.79 14.42 0 26.11 11.1 26.11 24.79z"/></clipPath></defs><style>tspan{white-space:pre}.a{opacity:.1;fill:#1f3c88}.b{fill:#e6e7e8}.c{fill:#fff}.d{fill:#a7a9ac}.e{fill:#d1d3d4}.f{fill:#bcbec0}.g{opacity:.5;fill:#bcbec0}.h{fill:#808285}.i{fill:#939598}.j{fill:#808184}.k{fill:#df3d41}.l{fill:none;stroke:#fff}.m{fill:#f1f2f2}.n{fill:url(#g1)}.o{fill:url(#g2)}.p{fill:url(#g3)}.q{fill:url(#g4)}.r{fill:url(#g5)}.s{fill:#414042}.t{fill:#12123c}.u{fill:#fdb3b1}.v{fill:#fc9492}.w{fill:#fad465}.x{fill:#eabf54}.y{fill:#29474b}.z{fill:#9595c1}.A{fill:#fda271}.B{fill:#de7f50}.C{fill:#c1bfdf}.D{fill:#964c38}.E{fill:#291912}.F{fill:#150a06}.G{fill:#486e73}.H{fill:#bbdae7}.I{fill:#7fb2c7}.J{fill:#d0e8f0}.K{fill:#e9f9ff}.L{fill:#492d24}.M{fill:#1b0e09}.N{mix-blend-mode:multiply;fill:#e6e7e8}.O{fill:#172c56}.P{fill:#58595b}.Q{opacity:.3;mix-blend-mode:multiply;fill:#6d6e71}.R{fill:#f9b384}.S{fill:#f73e3e}.T{fill:#102048}.U{fill:#e28b6d}.V{fill:#d62929}.W{fill:#b76821}.X{fill:#231f20}.Y{fill:#b72020}.Z{opacity:.5;mix-blend-mode:multiply;fill:#bcbec0}.a0{fill:#ffb67f}.a1{opacity:.2}.a2{fill:#aaa60a}.a3{fill:#e33364}.a4{fill:#f9437d}.a5{fill:#ec8940}.a6{fill:#60100e}.a7{fill:#9fa24b}.a8{fill:#261113}.a9{fill:#e59b6a}.aa{fill:#352836}.ab{mix-blend-mode:multiply;fill:none;stroke:#f1f2f2}</style><path class="a" d="m640.4 521.5c0 5.9-28.4 10.6-63.4 10.6q-4.3 0-8.4-0.1-10.5-0.2-10.6-0.4c-25.7-1.3-44.4-5.3-44.4-10.1 0-5.8 28.4-10.6 63.4-10.6 35 0 63.4 4.8 63.4 10.6z"/><g style="opacity:.6"><path class="b" d="m715.2 356.9c-27.1 39.9-77.9 62.2-127.1 59.7-44.9-2.4-87.8-23.3-132.8-21.6-42.8 1.7-81.5 23.5-121.8 37.6-70.1 24.5-148.7 25.6-219.4 2.9-24.1-7.6-50.9-22.9-51.5-47.5-0.7-23.5 23-40.4 31.3-62.5 9.6-25.9-3.5-54.8-21.4-76.2-17.9-21.4-40.7-39-55.3-62.6-11.7-18.9-17.3-41-16.6-63 0.8-25.7 24.3-45.3 50.6-41.9 12 1.5 24 5.3 34.8 10.2 27.4 12.7 52.5 31.8 82.4 36.8 30 4.9 60.7-5.2 86.9-20.1 26.3-14.9 49.4-34.5 74.7-50.8 51.4-33.3 111.9-53.1 173.5-56.8 29.7-1.7 60.3 0.3 87.8 11.5 27.4 11.1 51.6 32.3 60.7 59.9 10.7 32.1 0.6 69.2 16.2 99.4 10.3 19.7 29.9 33.1 43.9 50.5 30.3 37.7 30.2 94.5 3.1 134.5z"/></g><path class="c" d="m113.4 396.3l-0.1-2.4c-0.1-0.3 0.1-0.5 0.4-0.5 0.2 0 0.4 0.2 0.4 0.4l0.1 2.4c0 0.2-0.1 0.4-0.4 0.4-0.2 0-0.4-0.1-0.4-0.3z"/><path class="c" d="m113.3 388.2l0.3-2.3c0-0.3 0.2-0.5 0.5-0.5 0.3 0.1 0.5 0.3 0.4 0.5v0.1l-0.2 2.3c-0.1 0.3-0.3 0.5-0.5 0.5-0.3-0.1-0.5-0.3-0.5-0.6z"/><path class="c" d="m114.6 380.3l0.6-2.3c0-0.3 0.3-0.5 0.6-0.4 0.3 0.1 0.5 0.4 0.4 0.7q0 0 0 0l-0.6 2.3c-0.1 0.3-0.4 0.4-0.7 0.3-0.2 0-0.4-0.3-0.3-0.6z"/><path class="c" d="m117 372.7l0.9-2.3c0.1-0.3 0.5-0.4 0.8-0.3 0.3 0.1 0.4 0.5 0.3 0.8q0 0 0 0l-1 2.2c-0.1 0.3-0.4 0.4-0.7 0.3-0.3-0.1-0.5-0.4-0.3-0.7z"/><path class="c" d="m120.4 365.4l1.3-2.1c0.1-0.3 0.5-0.4 0.8-0.2 0.4 0.2 0.5 0.6 0.3 0.9q0 0 0 0l-1.3 2.1c-0.2 0.3-0.6 0.4-0.9 0.2-0.3-0.2-0.4-0.6-0.2-0.9z"/><path class="c" d="m124.8 358.7l1.5-1.9c0.3-0.3 0.7-0.3 1-0.1 0.3 0.2 0.4 0.7 0.1 1q0 0 0 0l-1.5 1.8v0.1c-0.2 0.3-0.7 0.3-0.9 0.1-0.3-0.3-0.4-0.7-0.2-1z"/><path class="c" d="m130.1 352.6l1.8-1.6c0.3-0.3 0.7-0.3 1 0 0.3 0.3 0.3 0.8 0 1q0 0 0 0v0.1l-1.7 1.6h-0.1c-0.3 0.3-0.7 0.3-1 0-0.3-0.3-0.3-0.8 0-1.1z"/><path class="c" d="m136.2 347.3l1.9-1.4c0.4-0.3 0.9-0.2 1.1 0.2 0.3 0.3 0.2 0.8-0.1 1.1q-0.1 0-0.1 0l-1.9 1.4c-0.4 0.2-0.9 0.2-1.1-0.2-0.2-0.3-0.2-0.8 0.2-1.1z"/><path class="c" d="m142.9 342.9l2.1-1.2c0.4-0.2 0.9 0 1.2 0.4 0.2 0.4 0 0.9-0.4 1.1q0 0 0 0l-2.1 1.1c-0.4 0.2-0.9 0.1-1.1-0.3-0.3-0.4-0.1-0.9 0.3-1.1z"/><path class="c" d="m150.2 339.5l2.3-0.8c0.4-0.2 0.9 0 1.1 0.5 0.2 0.4-0.1 0.9-0.5 1.1q0 0 0 0h-0.1l-2.2 0.8c-0.5 0.1-1-0.1-1.1-0.5-0.2-0.5 0.1-1 0.5-1.1z"/><path class="c" d="m158 337.2l2.4-0.4c0.5-0.1 0.9 0.2 1 0.7 0.1 0.5-0.2 1-0.7 1.1q0 0 0 0h-0.1l-2.3 0.4c-0.5 0.1-1-0.3-1.1-0.8-0.1-0.4 0.3-0.9 0.8-1z"/><path class="c" d="m166 336.2h2.4c0.6-0.1 1 0.4 1 0.9 0 0.5-0.4 1-0.9 1q0 0 0 0h-0.1-2.3-0.1c-0.5 0-0.9-0.4-0.9-0.9 0-0.5 0.4-1 0.9-1z"/><path class="c" d="m174.1 336.4l2.4 0.3c0.5 0 0.9 0.5 0.9 1.1-0.1 0.5-0.6 0.9-1.1 0.9q0 0 0 0h-0.1l-2.3-0.3h-0.1c-0.5-0.1-0.9-0.6-0.8-1.1 0-0.6 0.5-1 1.1-0.9z"/><path class="c" d="m182 337.6l2.4 0.5c0.6 0.1 0.9 0.7 0.8 1.3-0.1 0.5-0.7 0.9-1.3 0.8q0 0 0 0l-2.3-0.6c-0.6-0.1-0.9-0.7-0.8-1.2 0.1-0.6 0.7-0.9 1.2-0.8z"/><path class="c" d="m189.8 339.6l2.3 0.7c0.6 0.2 0.9 0.8 0.7 1.4-0.1 0.6-0.8 0.9-1.3 0.7q0 0 0 0h-0.1l-2.2-0.7v-0.1c-0.6-0.1-0.9-0.8-0.7-1.3 0.2-0.6 0.8-0.9 1.3-0.7z"/><path class="c" d="m197.4 342.2l2.3 0.9c0.5 0.2 0.8 0.9 0.6 1.5-0.2 0.6-0.9 0.9-1.5 0.6q0 0 0 0l-2.2-0.9c-0.6-0.2-0.9-0.9-0.6-1.5 0.2-0.5 0.8-0.8 1.4-0.6z"/><path class="c" d="m204.8 345.3l2.2 1c0.6 0.3 0.9 1 0.6 1.6-0.3 0.6-1 0.8-1.6 0.6v-0.1l-2.2-1c-0.6-0.2-0.8-0.9-0.5-1.5 0.2-0.6 0.9-0.9 1.5-0.6z"/><path class="c" d="m212 348.7l2.2 1.1c0.6 0.2 0.8 1 0.5 1.6-0.3 0.6-1 0.8-1.6 0.5l-2.1-1c-0.6-0.3-0.9-1.1-0.6-1.7 0.3-0.6 1.1-0.8 1.6-0.5z"/><path class="c" d="m219.2 352.3l2.1 1.1c0.6 0.3 0.9 1 0.5 1.6-0.3 0.6-1 0.9-1.6 0.6l-2.2-1.1c-0.6-0.4-0.8-1.1-0.5-1.7 0.3-0.6 1.1-0.8 1.7-0.5z"/><path class="c" d="m226.3 355.9l2.1 1.1c0.6 0.3 0.9 1 0.5 1.7-0.3 0.6-1 0.8-1.7 0.5l-2.1-1.1c-0.6-0.3-0.9-1-0.5-1.7 0.3-0.6 1-0.8 1.7-0.5z"/><path class="c" d="m233.3 359.4l2.2 1.1c0.6 0.3 0.9 1.1 0.6 1.7-0.3 0.6-1.1 0.9-1.7 0.6l-2.2-1.1c-0.6-0.3-0.9-1-0.6-1.7 0.3-0.6 1.1-0.9 1.7-0.6z"/><path class="c" d="m240.5 362.8l2.2 1c0.7 0.3 1 1.1 0.7 1.7-0.3 0.7-1.1 1-1.8 0.7l-2.2-1c-0.6-0.3-0.9-1.1-0.6-1.7 0.3-0.7 1-1 1.7-0.7z"/><path class="c" d="m247.8 366l2.2 0.9c0.7 0.3 1 1.1 0.7 1.7-0.3 0.7-1.1 1.1-1.8 0.8l-2.2-1c-0.7-0.2-1-1-0.7-1.7 0.3-0.7 1.1-1 1.7-0.7z"/><path class="c" d="m255.1 368.9l2.2 0.8c0.7 0.3 1.1 1.1 0.8 1.8-0.2 0.7-1 1.1-1.7 0.8l-2.3-0.8c-0.7-0.3-1-1.1-0.8-1.8 0.3-0.7 1.1-1.1 1.8-0.8z"/><path class="c" d="m262.5 371.6l2.3 0.8c0.7 0.2 1.1 1 0.9 1.8-0.3 0.7-1.1 1.1-1.8 0.8l-2.3-0.7c-0.7-0.3-1.1-1.1-0.9-1.8 0.3-0.8 1.1-1.1 1.8-0.9z"/><path class="c" d="m270 374.1l2.3 0.6c0.8 0.3 1.2 1.1 1 1.8-0.2 0.8-1 1.2-1.8 1l-2.3-0.7c-0.7-0.3-1.2-1-0.9-1.8 0.2-0.8 1-1.2 1.7-0.9z"/><path class="c" d="m277.6 376.2l2.3 0.6c0.8 0.2 1.3 1 1.1 1.8-0.2 0.8-1 1.3-1.8 1.1v-0.1l-2.3-0.6c-0.8-0.2-1.2-1-1-1.7 0.2-0.8 1-1.3 1.7-1.1z"/><path class="c" d="m285.3 378.1l2.3 0.5c0.8 0.2 1.4 1 1.2 1.8-0.2 0.8-1 1.3-1.8 1.1l-2.3-0.5c-0.8-0.2-1.3-1-1.2-1.8 0.2-0.8 1-1.3 1.8-1.1z"/><path class="c" d="m293 379.6l2.4 0.4c0.8 0.2 1.4 1 1.2 1.8-0.1 0.8-0.9 1.4-1.7 1.2l-2.4-0.4c-0.8-0.1-1.4-0.9-1.2-1.7 0.1-0.9 0.9-1.4 1.7-1.3z"/><path class="c" d="m300.8 380.8l2.4 0.3c0.8 0.1 1.5 0.9 1.3 1.8-0.1 0.8-0.8 1.4-1.7 1.3l-2.4-0.3c-0.8-0.1-1.4-0.9-1.3-1.7 0.1-0.9 0.9-1.5 1.7-1.4z"/><path class="c" d="m308.7 381.7l2.3 0.1c0.9 0.1 1.6 0.9 1.5 1.7-0.1 0.9-0.8 1.5-1.7 1.5l-2.4-0.2c-0.9-0.1-1.5-0.8-1.4-1.7 0-0.9 0.8-1.5 1.6-1.4z"/><path class="c" d="m316.5 382.1l2.4 0.1c0.9 0 1.6 0.7 1.6 1.6 0 0.9-0.8 1.6-1.7 1.5h-2.4c-0.9 0-1.5-0.8-1.5-1.7 0-0.8 0.7-1.5 1.6-1.5z"/><path class="c" d="m324.4 382.1l2.3-0.1h0.1c0.9 0 1.6 0.7 1.7 1.6 0 0.9-0.7 1.7-1.6 1.7l-2.4 0.1c-0.9 0-1.7-0.7-1.7-1.6 0-0.9 0.7-1.7 1.6-1.7z"/><path class="c" d="m332.2 381.7l2.4-0.2c0.9-0.1 1.7 0.6 1.8 1.5 0.1 0.9-0.6 1.7-1.5 1.8l-2.4 0.2c-0.9 0-1.7-0.6-1.8-1.5-0.1-0.9 0.6-1.7 1.5-1.8z"/><path class="c" d="m340 380.8l2.4-0.3v-0.1c0.9-0.1 1.8 0.5 1.9 1.5 0.1 0.9-0.5 1.7-1.4 1.9l-2.4 0.3c-0.9 0.2-1.8-0.5-1.9-1.4-0.1-0.9 0.5-1.7 1.4-1.9z"/><path class="c" d="m347.8 379.4l2.2-0.5h0.1c0.9-0.2 1.8 0.4 2 1.3 0.2 0.9-0.4 1.8-1.3 2l-2.3 0.6c-1 0.2-1.9-0.4-2.1-1.3-0.2-0.9 0.4-1.8 1.3-2z"/><path class="c" d="m355.3 377.5l2.3-0.6c0.9-0.3 1.9 0.2 2.2 1.1 0.3 0.9-0.3 1.9-1.2 2.2l-2.3 0.7c-0.9 0.2-1.9-0.3-2.1-1.2-0.3-0.9 0.2-1.9 1.1-2.2z"/><path class="c" d="m362.8 375.1l2.2-0.8c0.9-0.4 1.9 0.1 2.3 1 0.3 0.9-0.2 1.9-1.1 2.2l-2.2 0.9c-0.9 0.3-1.9-0.1-2.3-1-0.3-0.9 0.2-1.9 1.1-2.3z"/><path class="c" d="m370.1 372.2l2.1-1c0.9-0.4 1.9 0 2.3 0.9 0.4 0.8 0.1 1.9-0.8 2.3l-2.2 1c-0.9 0.4-1.9 0-2.3-0.9-0.4-0.9 0-1.9 0.8-2.3z"/><path class="c" d="m377.1 368.8l2.1-1.1v-0.1c0.9-0.4 1.9-0.1 2.4 0.7 0.4 0.9 0.1 2-0.7 2.4l-2.2 1.2c-0.8 0.4-1.9 0.1-2.3-0.7-0.5-0.9-0.2-2 0.7-2.4z"/><path class="c" d="m383.9 364.9l2-1.3c0.8-0.5 1.9-0.3 2.4 0.5 0.6 0.9 0.3 1.9-0.5 2.5l-2.1 1.3c-0.8 0.5-1.9 0.2-2.4-0.6-0.5-0.8-0.3-1.9 0.6-2.4z"/><path class="c" d="m390.4 360.5l1.9-1.4c0.8-0.6 1.9-0.4 2.5 0.4 0.6 0.7 0.4 1.8-0.4 2.4l-1.9 1.5c-0.8 0.6-1.9 0.4-2.5-0.4-0.6-0.8-0.4-1.9 0.4-2.5z"/><path class="c" d="m396.5 355.7l1.8-1.6c0.8-0.6 1.9-0.5 2.6 0.2 0.6 0.7 0.5 1.9-0.2 2.5l-1.9 1.6c-0.7 0.6-1.8 0.6-2.5-0.2-0.6-0.7-0.5-1.9 0.2-2.5z"/><path class="c" d="m402.3 350.4l1.6-1.7h0.1c0.7-0.7 1.8-0.7 2.5 0 0.7 0.7 0.7 1.8 0 2.5l-1.7 1.7c-0.7 0.8-1.8 0.8-2.5 0.1-0.7-0.7-0.7-1.9 0-2.6z"/><path class="c" d="m407.6 344.7l1.5-1.8c0.7-0.8 1.8-0.9 2.6-0.3 0.7 0.7 0.8 1.8 0.2 2.6l-1.6 1.8c-0.6 0.8-1.7 0.9-2.5 0.3-0.8-0.7-0.9-1.8-0.2-2.6z"/><path class="c" d="m412.4 338.6l1.4-2c0.6-0.8 1.7-1 2.5-0.4 0.8 0.5 1 1.7 0.5 2.5h-0.1l-1.3 2c-0.6 0.8-1.7 1-2.6 0.4-0.8-0.6-1-1.7-0.4-2.5z"/><path class="c" d="m416.7 332l1.1-2c0.5-0.9 1.6-1.2 2.5-0.7 0.9 0.5 1.2 1.6 0.7 2.5l-1.2 2.1c-0.5 0.8-1.6 1.2-2.5 0.7-0.9-0.5-1.2-1.7-0.7-2.5z"/><path class="c" d="m420.3 325.2l0.9-2.2h0.1c0.4-0.9 1.4-1.4 2.4-0.9 0.9 0.4 1.3 1.4 0.9 2.4l-1 2.2c-0.4 0.9-1.5 1.3-2.4 0.9-0.9-0.4-1.4-1.5-0.9-2.4z"/><path class="c" d="m423.2 318l0.7-2.3h0.1c0.3-1 1.3-1.5 2.3-1.2 0.9 0.3 1.5 1.4 1.1 2.3v0.1l-0.7 2.3c-0.4 0.9-1.4 1.4-2.4 1.1-0.9-0.3-1.4-1.3-1.1-2.3z"/><path class="c" d="m425.4 310.5q0.3-1.1 0.5-2.3c0.2-1 1.2-1.6 2.2-1.4 1 0.2 1.6 1.2 1.4 2.2q-0.2 1.2-0.5 2.4c-0.3 1-1.3 1.6-2.3 1.3-0.9-0.2-1.6-1.2-1.3-2.2z"/><path class="c" d="m426.8 302.9l0.3-2.3v-0.1c0.1-1 1.1-1.7 2.1-1.6 1 0.1 1.7 1.1 1.6 2.1l-0.3 2.4c-0.1 1-1.1 1.7-2.1 1.6-1-0.1-1.7-1.1-1.6-2.1z"/><path class="c" d="m427.5 295.1l0.1-2.3v-0.1c0.1-1 0.9-1.8 2-1.8 1 0.1 1.8 0.9 1.8 2l-0.1 2.4c-0.1 1-0.9 1.8-2 1.8-1 0-1.8-0.9-1.8-1.9z"/><path class="c" d="m427.6 287.3l-0.1-2.3c-0.1-1.1 0.7-2 1.8-2 1-0.1 1.9 0.7 1.9 1.8l0.1 2.4c0.1 1-0.7 1.9-1.8 2-1 0-1.9-0.8-1.9-1.8z"/><path class="c" d="m427 279.6l-0.3-2.4c-0.1-1 0.6-2 1.6-2.1 1.1-0.1 2 0.6 2.1 1.6l0.3 2.4c0.2 1.1-0.6 2-1.6 2.1-1 0.2-2-0.6-2.1-1.6z"/><path class="c" d="m425.9 271.8l-0.5-2.3c-0.2-1 0.5-2 1.5-2.2 1-0.2 2 0.4 2.2 1.5l0.5 2.3c0.2 1.1-0.5 2.1-1.5 2.3-1.1 0.1-2-0.5-2.2-1.6z"/><path class="c" d="m424.2 264.2l-0.5-2.3-0.1-0.1c-0.2-1 0.4-2 1.4-2.3 1-0.2 2.1 0.4 2.3 1.4l0.6 2.4c0.3 1-0.4 2-1.4 2.3-1 0.2-2-0.4-2.3-1.4z"/><path class="c" d="m422.2 256.6l-0.7-2.3c-0.3-1 0.2-2.1 1.2-2.4 1.1-0.3 2.1 0.3 2.4 1.3l0.7 2.3c0.3 1-0.2 2.1-1.2 2.4-1.1 0.3-2.1-0.3-2.4-1.3z"/><path class="c" d="m419.8 249.1l-0.8-2.3c-0.4-1 0.2-2.1 1.2-2.4 1-0.4 2 0.2 2.4 1.2l0.8 2.2c0.3 1-0.2 2.1-1.2 2.5-1 0.3-2.1-0.2-2.4-1.2z"/><path class="c" d="m417.1 241.7l-0.9-2.2v-0.1c-0.4-0.9 0.1-2.1 1.1-2.4 1-0.4 2.1 0.1 2.5 1v0.1l0.9 2.2c0.3 1-0.1 2.1-1.1 2.5-1 0.4-2.1-0.1-2.5-1.1z"/><path class="c" d="m414.1 234.3l-0.9-2.1v-0.1c-0.4-0.9 0-2.1 1-2.5 1-0.4 2.1 0.1 2.6 1l0.9 2.3c0.4 0.9-0.1 2.1-1 2.5-1 0.4-2.2-0.1-2.6-1z"/><path class="c" d="m411 227.1l-1-2.2c-0.4-1 0-2.1 1-2.6 1-0.4 2.1 0 2.6 1l0.9 2.2c0.5 1 0 2.1-0.9 2.6-1 0.4-2.2 0-2.6-1z"/><path class="c" d="m407.7 219.9l-1-2.2c-0.5-1 0-2.1 0.9-2.6 1-0.4 2.2 0 2.6 1l1 2.1c0.5 1 0.1 2.2-0.9 2.6-1 0.5-2.1 0.1-2.6-0.9z"/><path class="c" d="m404.3 212.7l-1-2.1c-0.5-1-0.1-2.2 0.9-2.7 1-0.4 2.2 0 2.6 1l1.1 2.1c0.4 1 0 2.2-1 2.6-0.9 0.5-2.1 0.1-2.6-0.9z"/><path class="c" d="m400.9 205.5l-1.1-2.1c-0.4-1 0-2.2 1-2.6 0.9-0.5 2.1-0.1 2.6 0.9l1 2.1c0.5 1 0.1 2.2-0.9 2.7-1 0.4-2.1 0-2.6-1z"/><path class="c" d="m397.4 198.4l-1-2.2c-0.4-1 0-2.2 1-2.6 0.9-0.5 2.1-0.1 2.6 0.9l1 2.2c0.5 1 0 2.1-0.9 2.6-1 0.5-2.2 0-2.7-0.9z"/><path class="c" d="m394.1 191.1l-1-2.2c-0.4-1 0-2.1 1-2.6 1-0.4 2.1 0 2.6 1l0.9 2.2c0.5 1 0.1 2.1-0.9 2.6-1 0.4-2.2 0-2.6-1z"/><path class="c" d="m390.9 183.8l-1-2.2c-0.4-1 0.1-2.1 1.1-2.6 0.9-0.4 2.1 0.1 2.5 1.1l0.9 2.2c0.5 1 0 2.1-1 2.5-1 0.5-2.1 0-2.5-1z"/><path class="c" d="m387.8 176.4l-0.9-2.2c-0.4-1 0.1-2.1 1.1-2.5 1-0.4 2.1 0.1 2.5 1.1l0.9 2.2c0.4 1-0.1 2.1-1.1 2.5-1 0.4-2.1-0.1-2.5-1.1z"/><path class="c" d="m385 168.9l-0.9-2.3c-0.3-1 0.2-2.1 1.2-2.4 1-0.4 2.1 0.2 2.5 1.2l0.8 2.2c0.3 1-0.2 2.1-1.2 2.5-1 0.3-2.1-0.2-2.4-1.2z"/><path class="c" d="m382.4 161.3l-0.7-2.3c-0.4-1 0.2-2.1 1.2-2.4 1-0.3 2.1 0.3 2.4 1.3l0.7 2.2v0.1c0.4 1-0.2 2.1-1.2 2.4-1 0.3-2.1-0.3-2.4-1.3z"/><path class="c" d="m380.1 153.6l-0.6-2.3c-0.3-1 0.3-2.1 1.3-2.4 1.1-0.2 2.1 0.4 2.4 1.4l0.6 2.3c0.3 1.1-0.3 2.1-1.4 2.4-1 0.2-2-0.4-2.3-1.4z"/><path class="c" d="m378.2 145.8l-0.5-2.4c-0.2-1 0.5-2 1.5-2.2 1-0.2 2 0.4 2.2 1.5l0.5 2.3c0.2 1-0.4 2.1-1.4 2.3-1.1 0.2-2.1-0.5-2.3-1.5z"/><path class="c" d="m376.8 137.8l-0.4-2.4c-0.1-1 0.6-1.9 1.6-2.1 1.1-0.1 2 0.6 2.2 1.6v0.1l0.3 2.3c0.1 1.1-0.6 2-1.6 2.2-1 0.1-2-0.6-2.1-1.6z"/><path class="c" d="m375.8 129.8l-0.1-2.4c-0.1-1 0.7-1.9 1.7-2 1-0.1 1.9 0.7 2 1.7v0.1l0.2 2.3v0.1c0.1 1-0.7 1.9-1.8 2-1 0-1.9-0.7-2-1.8z"/><path class="c" d="m375.5 121.7v-2.4c0-1 0.9-1.9 1.9-1.9 1.1 0.1 1.9 0.9 1.9 1.9v0.1 2.3 0.1c-0.1 1-0.9 1.8-1.9 1.8-1.1 0-1.9-0.8-1.9-1.9z"/><path class="c" d="m375.9 113.6l0.2-2.4c0.1-1 1-1.8 2.1-1.7 1 0.1 1.7 1.1 1.6 2.1l-0.2 2.3v0.1c-0.1 1-1 1.8-2.1 1.7-1-0.1-1.7-1-1.6-2.1z"/><path class="c" d="m377 105.6l0.4-2.4c0.2-1 1.2-1.7 2.2-1.5 1 0.2 1.7 1.2 1.5 2.2v0.1l-0.5 2.2v0.1c-0.2 1-1.2 1.7-2.2 1.5-1-0.2-1.6-1.2-1.4-2.2z"/><path class="c" d="m378.8 97.7q0.4-1.2 0.7-2.4c0.4-1 1.4-1.5 2.4-1.2 0.9 0.3 1.5 1.4 1.2 2.4q-0.4 1.1-0.7 2.2c-0.3 1-1.3 1.5-2.3 1.3-1-0.3-1.6-1.4-1.3-2.3z"/><path class="c" d="m381.5 90l1-2.3c0.4-0.9 1.5-1.3 2.4-0.9 0.9 0.4 1.4 1.4 1 2.4h-0.1l-0.9 2.2c-0.4 0.9-1.5 1.4-2.4 1-1-0.4-1.4-1.5-1-2.4z"/><path class="c" d="m385 82.6l1.2-2.1c0.5-0.9 1.6-1.2 2.5-0.7 0.9 0.5 1.2 1.6 0.7 2.5l-1.2 2v0.1c-0.5 0.9-1.6 1.2-2.5 0.7-0.9-0.5-1.2-1.6-0.7-2.5z"/><path class="c" d="m389.2 75.6l1.4-2c0.6-0.8 1.7-1 2.5-0.4 0.9 0.6 1.1 1.7 0.5 2.5v0.1l-1.4 1.9c-0.6 0.9-1.7 1.1-2.5 0.5-0.9-0.6-1.1-1.7-0.5-2.5z"/><path class="c" d="m394.1 69.1l1.6-1.8c0.6-0.8 1.7-0.9 2.5-0.2 0.8 0.6 0.9 1.8 0.2 2.5v0.1l-1.5 1.8h-0.1c-0.6 0.8-1.7 0.9-2.5 0.2-0.8-0.6-0.9-1.8-0.2-2.6z"/><path class="c" d="m399.5 63.1l1.8-1.7c0.7-0.7 1.8-0.7 2.5 0 0.7 0.8 0.7 1.9 0 2.6l-1.7 1.7c-0.8 0.7-1.9 0.7-2.6 0-0.7-0.7-0.7-1.9 0-2.6z"/><path class="c" d="m405.5 57.6l1.8-1.5c0.8-0.7 1.9-0.5 2.6 0.2 0.6 0.8 0.5 1.9-0.3 2.5v0.1l-1.8 1.5c-0.8 0.6-1.9 0.5-2.6-0.2-0.6-0.8-0.5-1.9 0.3-2.6z"/><path class="c" d="m411.9 52.6l1.9-1.3c0.9-0.6 2-0.4 2.5 0.4 0.6 0.8 0.4 1.9-0.4 2.5l-2 1.4c-0.8 0.5-1.9 0.3-2.5-0.5-0.6-0.8-0.4-1.9 0.4-2.5z"/><path class="c" d="m418.6 48.2l2.1-1.2c0.9-0.5 1.9-0.2 2.4 0.6 0.5 0.9 0.3 1.9-0.6 2.4v0.1l-2 1.1-0.1 0.1c-0.8 0.5-1.9 0.2-2.4-0.7-0.5-0.8-0.2-1.9 0.6-2.4z"/><path class="c" d="m425.7 44.3l2.2-1.1c0.9-0.4 1.9 0 2.3 0.9 0.5 0.8 0.1 1.9-0.8 2.3l-2.1 1.1c-0.9 0.4-2 0.1-2.4-0.8-0.4-0.9-0.1-2 0.8-2.4z"/><path class="c" d="m433.1 41l2.2-0.9c0.9-0.4 1.9 0.1 2.3 1 0.4 0.9-0.1 1.9-1 2.2v0.1l-2.2 0.8c-0.9 0.4-2 0-2.3-0.9-0.4-0.9 0.1-2 1-2.3z"/><path class="c" d="m440.7 38.2l2.3-0.7c0.9-0.3 1.9 0.2 2.2 1.1 0.3 1-0.3 1.9-1.2 2.2l-2.3 0.7c-0.9 0.3-1.9-0.2-2.2-1.1-0.3-0.9 0.2-1.9 1.2-2.2z"/><path class="c" d="m448.5 36l2.3-0.5c1-0.2 1.9 0.4 2.1 1.3 0.2 0.9-0.4 1.9-1.3 2.1l-2.3 0.5h-0.1c-0.9 0.2-1.8-0.3-2.1-1.3-0.2-0.9 0.4-1.9 1.3-2.1z"/><path class="c" d="m456.4 34.5l2.4-0.4c0.9-0.1 1.8 0.5 1.9 1.5 0.2 0.9-0.5 1.8-1.4 1.9h-0.1l-2.3 0.4c-1 0.1-1.8-0.5-2-1.5-0.1-0.9 0.5-1.8 1.5-1.9z"/><path class="c" d="m464.4 33.5l2.4-0.2c1-0.1 1.8 0.7 1.9 1.6 0 0.9-0.7 1.8-1.6 1.8h-0.1l-2.3 0.2c-1 0.1-1.8-0.6-1.9-1.5-0.1-1 0.6-1.8 1.6-1.9z"/><path class="c" d="m472.5 33.1h2.4c0.9 0 1.7 0.7 1.7 1.6 0 1-0.8 1.7-1.7 1.8h-2.4c-0.9 0-1.7-0.7-1.7-1.7-0.1-0.9 0.7-1.7 1.6-1.7z"/><path class="c" d="m480.5 33.2l2.4 0.1c0.9 0.1 1.6 0.9 1.6 1.8-0.1 0.9-0.8 1.6-1.7 1.6h-0.1l-2.3-0.2h-0.1c-0.9 0-1.6-0.8-1.6-1.7 0.1-0.9 0.9-1.7 1.8-1.6z"/><path class="c" d="m488.5 33.8l2.4 0.3c0.9 0.1 1.6 0.9 1.5 1.8-0.1 0.9-0.9 1.5-1.8 1.4h-0.1l-2.3-0.2c-0.9-0.1-1.6-0.9-1.5-1.8 0.1-0.9 0.9-1.6 1.8-1.5z"/><path class="c" d="m496.5 34.9l2.4 0.4c0.9 0.1 1.5 1 1.3 1.8-0.1 0.9-1 1.5-1.9 1.4l-2.3-0.4c-0.9-0.2-1.5-1-1.4-1.9 0.2-0.9 1-1.5 1.9-1.3z"/><path class="c" d="m504.4 36.4l2.4 0.5c0.8 0.2 1.3 1.1 1.2 1.9-0.2 0.9-1.1 1.4-1.9 1.2h-0.1l-2.3-0.5c-0.9-0.2-1.4-1-1.2-1.9 0.2-0.9 1-1.4 1.9-1.2z"/><path class="c" d="m512.2 38.3l2.3 0.6c0.9 0.3 1.3 1.1 1.1 2-0.2 0.8-1.1 1.3-1.9 1.1l-2.3-0.7c-0.9-0.2-1.4-1.1-1.1-1.9 0.2-0.8 1.1-1.3 1.9-1.1z"/><path class="c" d="m519.9 40.6l2.3 0.8c0.8 0.2 1.2 1.1 1 1.9-0.3 0.8-1.2 1.2-2 1l-2.3-0.8c-0.8-0.2-1.2-1.1-1-1.9 0.3-0.8 1.2-1.3 2-1z"/><path class="c" d="m527.5 43.2l2.2 0.9c0.8 0.3 1.2 1.2 0.9 2-0.3 0.7-1.2 1.1-2 0.8l-2.2-0.8c-0.8-0.3-1.2-1.2-0.9-2 0.3-0.8 1.2-1.2 2-0.9z"/><path class="c" d="m534.9 46.2l2.2 1c0.8 0.3 1.1 1.2 0.8 1.9-0.3 0.8-1.2 1.1-2 0.8l-2.1-0.9h-0.1c-0.7-0.4-1.1-1.2-0.8-2 0.4-0.8 1.2-1.1 2-0.8z"/><path class="c" d="m542.2 49.5l2.2 1c0.7 0.4 1 1.3 0.7 2-0.4 0.7-1.3 1-2 0.7l-2.1-1c-0.8-0.4-1.1-1.3-0.7-2 0.3-0.7 1.2-1 1.9-0.7z"/><path class="c" d="m549.4 53.1l2.1 1.1c0.7 0.4 1 1.2 0.6 1.9-0.4 0.7-1.2 1-1.9 0.6l-2.1-1.1h-0.1c-0.7-0.3-0.9-1.2-0.6-1.9 0.4-0.7 1.3-1 2-0.6z"/><path class="c" d="m556.4 56.9l2.1 1.2c0.7 0.4 0.9 1.3 0.5 2-0.4 0.6-1.3 0.9-1.9 0.5l-2.1-1.2c-0.7-0.4-0.9-1.3-0.5-2 0.4-0.6 1.2-0.9 1.9-0.5z"/><path class="c" d="m563.3 61.1l2 1.2c0.6 0.5 0.8 1.3 0.4 2-0.4 0.6-1.2 0.8-1.9 0.4l-2-1.3c-0.7-0.4-0.9-1.3-0.5-1.9 0.5-0.7 1.3-0.9 2-0.4z"/><path class="c" d="m570 65.5l1.9 1.3c0.6 0.5 0.8 1.3 0.4 1.9-0.5 0.6-1.3 0.8-1.9 0.4v-0.1l-2-1.3c-0.6-0.4-0.8-1.3-0.3-1.9 0.4-0.6 1.2-0.8 1.9-0.3z"/><path class="c" d="m576.5 70.2l1.9 1.4c0.5 0.5 0.7 1.3 0.2 1.9-0.4 0.6-1.3 0.7-1.8 0.2h-0.1l-1.9-1.4c-0.5-0.5-0.7-1.3-0.2-1.9 0.4-0.6 1.3-0.7 1.8-0.3z"/><path class="c" d="m582.7 75.1l1.9 1.6c0.5 0.5 0.6 1.3 0.1 1.8-0.4 0.6-1.3 0.6-1.8 0.2l-1.8-1.5-0.1-0.1c-0.5-0.4-0.6-1.2-0.1-1.8 0.4-0.6 1.3-0.6 1.8-0.2z"/><path class="c" d="m588.8 80.4l1.7 1.7c0.5 0.4 0.5 1.3 0.1 1.8-0.5 0.5-1.3 0.5-1.8 0l-1.8-1.6c-0.5-0.5-0.5-1.3-0.1-1.8 0.5-0.5 1.3-0.6 1.8-0.1z"/><path class="c" d="m594.5 86l1.7 1.8c0.4 0.5 0.4 1.2-0.1 1.7-0.5 0.5-1.3 0.5-1.7 0l-1.7-1.7c-0.5-0.5-0.5-1.3 0-1.8 0.5-0.5 1.3-0.5 1.8 0z"/><path class="c" d="m599.9 91.9l1.6 1.9c0.4 0.5 0.4 1.2-0.1 1.7-0.6 0.4-1.3 0.3-1.8-0.2l-1.5-1.8c-0.5-0.5-0.4-1.3 0.1-1.7 0.5-0.5 1.3-0.4 1.7 0.1z"/><path class="c" d="m605 98.1l1.4 2c0.4 0.5 0.3 1.2-0.2 1.6-0.5 0.4-1.3 0.3-1.7-0.2l-1.4-1.9c-0.4-0.5-0.3-1.3 0.2-1.7 0.5-0.4 1.3-0.3 1.7 0.2z"/><path class="c" d="m609.7 104.7l1.3 2c0.3 0.5 0.2 1.3-0.4 1.6-0.5 0.3-1.2 0.2-1.6-0.3v-0.1l-1.3-1.9c-0.3-0.6-0.2-1.3 0.3-1.7 0.6-0.3 1.3-0.2 1.7 0.4q0 0 0 0z"/><path class="c" d="m613.9 111.5l1.1 2.1c0.3 0.6 0.1 1.2-0.4 1.5-0.5 0.3-1.2 0.1-1.5-0.4l-1.2-2.1c-0.3-0.5-0.1-1.2 0.4-1.5 0.6-0.3 1.3-0.1 1.6 0.4q0 0 0 0z"/><path class="c" d="m617.6 118.7l1 2.1c0.2 0.6 0 1.2-0.6 1.5-0.5 0.2-1.1 0-1.4-0.6l-1-2.1c-0.3-0.6 0-1.2 0.5-1.5 0.6-0.2 1.2 0 1.5 0.5q0 0 0 0.1z"/><path class="c" d="m620.7 126l0.8 2.3c0.2 0.5 0 1.1-0.6 1.3-0.5 0.2-1.1-0.1-1.3-0.6l-0.8-2.2c-0.2-0.6 0-1.2 0.6-1.4 0.5-0.2 1.1 0.1 1.3 0.6q0 0 0 0z"/><path class="c" d="m623.3 133.7l0.6 2.3c0.1 0.5-0.2 1.1-0.7 1.2-0.5 0.1-1.1-0.2-1.2-0.7l-0.7-2.3c-0.1-0.5 0.2-1.1 0.7-1.2 0.6-0.2 1.1 0.1 1.2 0.7q0.1 0 0.1 0z"/><path class="c" d="m625.1 141.5l0.4 2.4c0.1 0.5-0.3 1-0.8 1.1-0.5 0-1-0.3-1.1-0.8l-0.4-2.3v-0.1c-0.1-0.5 0.3-1 0.8-1.1 0.5-0.1 1 0.3 1.1 0.8q0 0 0 0z"/><path class="c" d="m626.2 149.5l0.2 2.4c0 0.4-0.3 0.9-0.8 0.9-0.5 0.1-1-0.3-1-0.8l-0.2-2.4c-0.1-0.5 0.3-0.9 0.8-1 0.5 0 0.9 0.3 1 0.8q0 0 0 0.1z"/><path class="c" d="m626.6 157.5v2.4c0 0.5-0.4 0.8-0.9 0.8-0.5 0-0.8-0.4-0.8-0.8v-2.4c0-0.5 0.3-0.9 0.8-0.9 0.5 0 0.9 0.4 0.9 0.9z"/><path class="c" d="m626.3 165.5l-0.3 2.4c0 0.4-0.4 0.8-0.8 0.7-0.5 0-0.8-0.4-0.8-0.9l0.2-2.3v-0.1c0.1-0.4 0.5-0.7 0.9-0.7 0.5 0 0.8 0.4 0.8 0.9q0 0 0 0z"/><path class="c" d="m625.3 173.4l-0.5 2.4c-0.1 0.4-0.5 0.7-0.9 0.6-0.4-0.1-0.7-0.5-0.6-0.9l0.4-2.3c0.1-0.5 0.5-0.7 0.9-0.7 0.5 0.1 0.7 0.5 0.7 0.9q0 0 0 0z"/><path class="c" d="m623.5 181.3l-0.7 2.3c-0.1 0.4-0.5 0.6-0.8 0.5-0.4-0.1-0.6-0.5-0.5-0.9l0.6-2.3c0.1-0.4 0.5-0.6 0.9-0.5 0.4 0.1 0.6 0.5 0.5 0.9q0 0 0 0z"/><path class="c" d="m621 188.9l-0.8 2.2c-0.2 0.4-0.6 0.6-0.9 0.4-0.4-0.1-0.5-0.5-0.4-0.9l0.8-2.2c0.2-0.4 0.6-0.5 0.9-0.4 0.4 0.1 0.6 0.5 0.4 0.9q0 0 0 0z"/><path class="c" d="m617.8 196.2l-1.1 2.2c-0.2 0.3-0.5 0.4-0.9 0.2-0.3-0.1-0.4-0.5-0.2-0.8l1.1-2.1c0.1-0.4 0.5-0.5 0.8-0.3 0.4 0.1 0.5 0.5 0.3 0.8q0 0 0 0z"/><path class="c" d="m613.8 203.2l-1.3 2c-0.2 0.3-0.6 0.3-0.8 0.1-0.3-0.1-0.4-0.5-0.2-0.7v-0.1l1.3-1.9v-0.1c0.2-0.2 0.6-0.3 0.8-0.1 0.3 0.2 0.4 0.5 0.2 0.8q0 0 0 0z"/><path class="c" d="m609.1 209.6l-1.6 1.9c-0.2 0.2-0.5 0.2-0.7 0-0.3-0.2-0.3-0.5-0.1-0.7l1.5-1.8c0.2-0.3 0.6-0.3 0.8-0.1 0.2 0.2 0.2 0.5 0.1 0.7q0 0 0 0z"/><path class="c" d="m603.6 215.5l-1.8 1.6c-0.2 0.1-0.5 0.1-0.7-0.1-0.2-0.1-0.1-0.4 0.1-0.6l1.7-1.6c0.2-0.2 0.5-0.2 0.7 0 0.2 0.2 0.1 0.5 0 0.7q0 0 0 0z"/><path class="c" d="m597.4 220.6l-2 1.3c-0.2 0.1-0.4 0.1-0.6-0.1-0.1-0.2 0-0.4 0.1-0.5v-0.1l2-1.3c0.2-0.2 0.4-0.1 0.6 0.1 0.1 0.2 0.1 0.4-0.1 0.5q0 0 0 0.1z"/><path class="d" d="m517.4 334.4q26.8-169.7 119.8-264.9c6.3-6.4 19.7-4.4 23.7 3.5 26.7 52.8 86.6 213.8-143.5 261.4z"/><path class="e" d="m646.3 120.7c0.1-0.4 0.9-0.3 0.8 0.1-13.2 124.6-88.8 189.4-108.8 202.7-0.6 0.4-1.4-0.2-0.9-0.7 74.4-66.1 102.4-173.1 108.9-202.1z"/><path class="f" d="m114.8 491.5q-89-78-110.2-167.1c-1.4-6 4.7-13.1 10.7-12.6 40.6 3.9 156.4 28.2 99.5 179.7z"/><path class="b" d="m37.7 337.9c-0.2-0.2 0.2-0.6 0.4-0.4 67.7 53.4 77.7 121.2 78.1 137.8 0 0.5-0.7 0.7-0.7 0.3-11.2-67.7-63.3-123.3-77.8-137.7z"/><path class="g" d="m221 439.7l-123.5 2.3q-55.6-12.3-38.6-63.8c16.9-51.5 15.2-52.1-5.3-74.9-20.5-22.8-53.8-74.9-18.1-98.3 35.7-23.4 50.3 8.2 56.7 30.4 6.5 22.3 12.9 23.4 28.7 5.9 15.8-17.6 44.5 12.3 45.6 48.6q1.2 36.2 54.5 149.8z"/><path class="h" d="m592 176v287.2h-452.7v-287.2c0-6 4.9-10.9 10.9-10.9h430.9c6 0 10.9 4.9 10.9 10.9z"/><path class="c" d="m572.3 449.1h-412.8v-265.3h412.8z"/><path class="i" d="m640.5 490h-550.4l-27.2-10h604.7z"/><circle class="j" cx="365.2" cy="176.3" r="1.9"/><path class="i" d="m414.1 473.1h-98v-10h98z"/><path class="d" d="m667.6 463.1v16.9h-604.7v-16.9h261v3.6c0 2.5 2.1 4.5 4.6 4.5h73.3c2.5 0 4.5-2 4.5-4.5v-3.6z"/><path class="k" d="m449.9 104.9l91 12.9c6 0.9 10.3 5.6 9.3 10.5l-15.9 114.7c-1 4.5-6.2 7.4-11.8 6.5l-78.2-11.5c-5.4-0.8-9.5-4.8-9.4-9.2l3.1-116.1c0.2-5 5.6-8.6 11.9-7.8z"/><path class="k" d="m453.3 110.8l83.2 11.7c5.6 0.8 9.5 5.3 8.6 9.8l-14.4 107.7c-0.9 4.2-5.6 6.9-10.8 6.2l-72.1-10.7c-5-0.7-8.7-4.4-8.6-8.6l3.2-108.8c0.2-4.7 5.2-8.1 10.9-7.3z"/><path class="l" d="m453.3 110.8l83.2 11.7c5.6 0.8 9.5 5.3 8.6 9.8l-14.4 107.7c-0.9 4.2-5.6 6.9-10.8 6.2l-72.1-10.7c-5-0.7-8.7-4.4-8.6-8.6l3.2-108.8c0.2-4.7 5.2-8.1 10.9-7.3z"/><path class="c" d="m517.7 160.4c-2 13.6-15.2 22.9-29.4 20.8-14.3-2.1-24.2-14.8-22.2-28.4 2-13.5 15.1-22.8 29.4-20.7 14.3 2.1 24.2 14.8 22.2 28.3z"/><path class="c" d="m523.6 202.8l-66-7.7 0.5-4.8 66 7.6z"/><path class="c" d="m522 217l-66-7.7 0.5-4.8 66 7.6z"/><path class="c" d="m520.5 230l-66-7.6 0.6-4.9 66 7.7z"/><path class="k" d="m186.4 120.7l91.9-0.6c6.1 0 11.1 4.1 10.8 9l0.9 115.8c-0.2 4.6-5 8.2-10.7 8.2h-79c-5.5 0-10.1-3.3-10.6-7.8l-13.9-115.2c-0.6-5 4.3-9.4 10.6-9.4z"/><path class="k" d="m190.7 125.9l84-0.5c5.6 0 10.1 3.8 9.9 8.4l1.5 108.7c-0.3 4.3-4.6 7.7-9.8 7.7h-72.9c-5 0-9.3-3.2-9.7-7.3l-12.7-108.1c-0.6-4.7 3.9-8.8 9.7-8.9z"/><path class="l" d="m190.7 125.9l84-0.5c5.6 0 10.1 3.8 9.9 8.4l1.5 108.7c-0.3 4.3-4.6 7.7-9.8 7.7h-72.9c-5 0-9.3-3.2-9.7-7.3l-12.7-108.1c-0.6-4.7 3.9-8.8 9.7-8.9z"/><ellipse class="c" cx="232.1" cy="161.3" rx="26.1" ry="24.8"/><path class="c" d="m270.2 202.3l-66.5 2.1-0.1-4.9 66.4-2.1z"/><path class="c" d="m270.6 216.6l-66.4 2-0.1-4.9 66.4-2z"/><path class="c" d="m271.1 229.7l-66.4 2.1-0.2-4.9 66.4-2.1z"/><path class="k" d="m317.6 145.5l91.9-0.6c6.2 0 11.1 4.1 10.8 9l0.9 115.8c-0.2 4.6-4.9 8.2-10.7 8.2h-79c-5.5 0-10.1-3.3-10.6-7.7l-13.9-115.3c-0.6-5 4.3-9.4 10.6-9.4z"/><path class="k" d="m321.9 150.7l84-0.5c5.6 0 10.1 3.8 9.9 8.4l1.5 108.7c-0.3 4.3-4.6 7.7-9.8 7.7h-72.9c-5 0-9.3-3.2-9.7-7.3l-12.7-108.1c-0.6-4.7 3.9-8.8 9.7-8.9z"/><path class="l" d="m321.9 150.7l84-0.5c5.6 0 10.1 3.8 9.9 8.4l1.5 108.7c-0.3 4.3-4.6 7.7-9.8 7.7h-72.9c-5 0-9.3-3.2-9.7-7.3l-12.7-108.1c-0.6-4.7 3.9-8.8 9.7-8.9z"/><ellipse class="c" cx="366.5" cy="189.1" rx="26.1" ry="24.8"/><path class="c" d="m404.5 230.1l-66.4 2.1-0.1-4.9 66.4-2.1z"/><path class="c" d="m405 244.4l-66.4 2-0.1-4.8 66.4-2.1z"/><path class="c" d="m405.5 257.5l-66.4 2.1-0.2-4.9 66.4-2.1z"/><path class="e" d="m537.3 408.7q31.3-99.8 110-125.9c56.2-18.5 84.7-31.2 96.4-37 2.4-1.2 5 1.2 4.1 3.7-12.9 32.4-73.3 162.7-210.5 159.2z"/><path class="d" d="m553 394.9q33.1-46.4 84.2-76c3.3-1.9 6.2 2.9 3.1 5-23.6 15.4-54.8 38.6-87.3 71z"/><path class="m" d="m476.3 298.5h-240v-10.9h240z"/><path class="m" d="m476.3 318.8h-240v-10.9h240z"/><path class="m" d="m476.3 403.5h-240v-10.9h240z"/><path class="m" d="m476.3 423.8h-240v-10.9h240z"/><path class="m" d="m476.3 374.9h-240v-36.2h240z"/><path class="d" d="m453.3 267.7l101.6 14.4c6.7 1 11.3 7.4 10 14.1l-30.9 158.1c-1.2 6.2-7.2 10.4-13.5 9.5l-79.1-11.9c-6.1-0.9-10.5-6.3-10.2-12.4l8.5-160.6c0.4-7 6.7-12.2 13.6-11.2z"/><path class="c" d="m458.7 275.4l89.9 12.7c6 0.9 10.1 6.9 8.8 13.2l-28.5 147.8c-1.1 5.8-6.4 9.8-12 9l-70.1-10.5c-5.4-0.8-9.2-5.8-8.9-11.6l8.7-150.1c0.4-6.5 6-11.4 12.1-10.5z"/><path class="n" d="m522 428.9q-0.1 0-0.2 0c-1-0.2-1.7-1.1-1.5-2.1l19.3-122.4c0.4-2.9-1.6-5.7-4.5-6.2l-65-10.6c-1-0.1-1.6-1.1-1.5-2 0.2-1 1.1-1.7 2.1-1.5l65 10.6c4.8 0.8 8.2 5.4 7.4 10.3l-19.3 122.4c-0.1 0.9-0.9 1.5-1.8 1.5z"/><path class="o" d="m507.5 443.5q-0.1 0-0.3 0l-52.3-7.5c-5-0.7-8.6-5-8.4-9.9 2.3-55.5 5-121.7 5.2-122.9 0.1-1 1-1.7 2-1.5 1 0.1 1.6 1 1.5 2-0.2 2.1-2.7 64.6-5.1 122.5-0.1 3.1 2.2 5.9 5.3 6.3l52.3 7.4c1 0.2 1.7 1.1 1.5 2-0.1 0.9-0.8 1.6-1.7 1.6z"/><path fill-rule="evenodd" class="p" d="m466.6 297.9h-3.7l-1.2-4.7h-5.4l-1.3 4.6-3.8-0.1 5.4-18.3h5zm-7.5-15.3h-0.1l-2 7.7h4z"/><path fill-rule="evenodd" class="q" d="m512.4 430.1l3.8 0.3 0.8 4.7 5.5 0.5 1.5-4.5 3.8 0.3-6.6 17.9-5-0.4zm6.4 15.9h0.1l2.6-7.6-4-0.3z"/><path class="r" d="m459.2 347.1c-1.4-2.8-1.4-5.9-0.1-8.6 2.1-4.3 6.4-10 14.2-10.4q12.7-0.6 17.6 10.6c20.4-17.9 35.1-1.6 33.5 8.5-1.4 8.3-26.6 40.6-35.2 51.3-1.1 1.5-4 1.2-4.8-0.5z"/><path class="d" d="m368.6 292.1l95.5-0.7c6.4-0.1 11.5 5.2 11.2 11.6l-6.6 149.8c-0.3 5.9-5.2 10.6-11.1 10.6h-74.5c-5.7 0-10.5-4.3-11.1-10l-14.4-149.1c-0.6-6.5 4.5-12.2 11-12.2z"/><path class="c" d="m373 298.9l87.4-0.7c5.8 0 10.5 4.9 10.2 10.9l-6 140.5c-0.3 5.6-4.8 10-10.2 10h-68.1c-5.3 0-9.6-4.1-10.2-9.4l-13.1-139.9c-0.6-6.1 4.1-11.4 10-11.4z"/><path class="s" d="m453.9 431.2q0 0 0 0c-1 0-1.8-0.8-1.8-1.8l0.9-115.4c0-2.7-2.2-4.9-4.9-4.9l-61.3-0.8c-1 0-1.8-0.8-1.7-1.8 0-1 0.8-1.8 1.8-1.8l61.3 0.8c4.6 0.1 8.4 3.9 8.3 8.5l-0.8 115.4c0 1-0.8 1.8-1.8 1.8z"/><path fill-rule="evenodd" class="s" d="m393.2 447c-4.7 0-8.6-3.5-9.1-8.1-5.6-51.3-12.2-112.8-12.2-113.9 0-0.9 0.8-1.7 1.8-1.7 0.9 0 1.7 0.7 1.7 1.7 0.2 2 6.4 59.9 12.3 113.5 0.3 2.8 2.7 5 5.5 5q0 0 0.1 0l49.2-0.4q0 0 0 0c1 0 1.8 0.8 1.8 1.7 0 1-0.8 1.8-1.8 1.8l-49.2 0.4q-0.1 0-0.1 0zm-17.8-122z"/><path fill-rule="evenodd" class="s" d="m383.2 318.4l-0.5 0.1c-0.7 0-1.3-0.3-1.6-0.9l-0.8-2.1c-0.3-0.6-0.9-0.9-1.5-0.9l-2.9 0.4c-0.6 0.1-1.1 0.6-1.2 1.3l-0.3 2.2c0 0.7-0.5 1.2-1.2 1.3h-0.5c-0.9 0.2-1.7-0.7-1.6-1.6l2-14.7c0.1-0.6 0.6-1.1 1.2-1.2l2.5-0.4c0.6-0.1 1.2 0.3 1.5 0.9l6 13.6c0.4 0.8-0.2 1.9-1.1 2zm-7.2-13.4h-0.1l-0.6 5.6c-0.1 0.9 0.7 1.7 1.7 1.6 0.9-0.2 1.5-1.1 1.1-2z"/><path fill-rule="evenodd" class="s" d="m447.4 433.4h0.5c0.6-0.1 1.2 0.3 1.4 0.9l0.7 2.1c0.2 0.7 0.8 1.1 1.5 1l2.8-0.2c0.7 0 1.2-0.5 1.4-1.2l0.4-2.1c0.1-0.7 0.6-1.2 1.3-1.2h0.5c0.9-0.1 1.7 0.8 1.5 1.7l-3 14.5c-0.2 0.7-0.7 1.1-1.3 1.2l-2.5 0.1c-0.6 0.1-1.2-0.3-1.4-0.9l-5.1-14c-0.3-0.9 0.3-1.8 1.3-1.9zm6.2 13.8l1-5.5c0.2-0.9-0.6-1.7-1.5-1.7-0.9 0.1-1.6 1-1.3 1.9z"/><path class="s" d="m439.3 377.2c1.2 2.6 1.5 5.6 0.7 8.3-1.3 4.3-4 10.2-9.8 11.3q-9.4 1.8-13.9-8.5c-13.8 19.2-25.9 4.9-25.4-4.9 0.3-8.2 16.7-41.6 22.3-52.7 0.7-1.5 2.8-1.5 3.6 0z"/><path class="s" d="m417.2 393.4c2.2 14.1 5.8 25.1 8.3 29.1 0.8 1.2 0.1 2.9-1.1 2.9h-17.3c-1.3 0-2-1.9-1.1-3 5-6.6 8.5-20.6 9.6-29 0.1-1.1 1.4-1.1 1.6 0z"/><g clip-path="url(#cp1)"><path class="t" d="m368.7 169.3c0-0.4 1.1-4.8 7.9-3.9q-3.4-0.2-4.2 1.2 2.6-1.4 4.3-0.5c1.8 0.9 2.3 4.3 2.1 5.4-0.1 1-1.8 4.3-3 4.4-0.5 0-1-0.1-1.4-0.3q0.3 0.8 0.6 1.8c1.8 6-2 10.9-4.2 9.9q-1.3-0.6-2.2 1.8l-12.2-14q7.1-9.9 12.3-5.8z"/><path class="u" d="m360 198.5q0 0 0 0 0.4-0.1 0.9-0.2c0.4-0.4 0.3-2.1 0.2-3.8q-0.2-2.2-0.5-4.6l7.4-2 0.5-0.1c0.3 5.1 1.9 8.4 2.9 9.2 0.6 0.1 1.4 0.1 2 0.2 0.7 0.1 1.9 0.2 3.2 1-1.3 5.4-4.9 13.4-14.3 11.2-2.6-0.6-4.6-1.5-6.2-2.6 1.7-4.6 3.8-8.1 3.9-8.3z"/><path class="v" d="m368 187.9c-0.7 2.2-2.7 6.2-6.9 6.6q-0.2-2.2-0.5-4.6z"/><path class="u" d="m355.2 179.6c0.4-2.1 1.5-4.5 7.9-4.6 6.3-0.1 5.3 4.2 5.8 10.4q0.4 6.2-9.5 6.7c-2.7 0-4.5-10.3-4.2-12.5z"/><path class="t" d="m355.3 176.2c1.4-2 2.6-1.7 3.3-1.2q5.2-3.3 9 0.8 1 4.4 4.4 6.8-1.7 1.2-6 0.4c-1.3-0.2-2.5-1-3.5-2.1q1.9 2.8 4.3 4.6c-5.2-1.9-7.7-8.7-7.9-9.4-0.6 0.5-1.7 1.8-2 3-0.4 1.6-0.4 4.9-1.3 4.8q-2.4-4.8-0.3-7.7z"/><path class="u" d="m356.8 217.4c0.5-6.1 0.1-12.8 0.9-19.4q16.3-3.9 23.4 1.9l-1.4 18.2c-7.6 0.6-15.3 0.1-22.9-0.7z"/><path class="w" d="m345.5 214.3c1.2-4 2.6-8.5 4.1-11.3q2.3-4.4 8.4-5 2.6 4 8.8 3.5 6.1-0.6 7.3-4.4 5.5 0.7 7.2 2.1c0.3 0.2 3 7 1.9 14.7q-0.2 1.8-0.6 3.6-1.4 0.3-2.7 0.6c-9.8 0.7-19.7-0.2-29.5-1.4q-1.9-0.3-3.7-0.8-0.2-0.2-0.4-0.5-0.4-0.5-0.8-1.1z"/><path class="x" d="m377.8 218.2q2.9-2.8 5.4-4.3-0.2 1.8-0.6 3.6-1.4 0.3-2.7 0.6-1.1 0.1-2.1 0.1z"/><path class="w" d="m380.5 212.1l-6.4-15q7.9 0.9 10.1 4.4c1.5 2.2 4.8 7.2 7.7 12q-2.2 1.4-4.4 2.6-1.3 0.4-2.5 0.7z"/></g><g clip-path="url(#cp2)"><path class="y" d="m493.7 182c-4.4-8-2.4-10.6 0.2-11 3.5-0.6 11.7 2.2 13.1 2.5 0.9 0.2 2 0.5 3.1 0.9q-2 2.5-4.2 4.9c-0.2 0.2-2.3 2.3-2.9 2.9q-1.9 1.7-3.9 3.3-0.5 0.4-0.9 0.8c-1.8-0.5-3-1.5-4.5-4.3z"/><path class="z" d="m465.6 177.7c-0.1-1.6-0.1-3.1 0.5-3.6 1-0.8 4.1-1.6 5.4-2.1 2.5-1 6.6-1.8 8.2-4.1l15.8 3.6c2.6 1.2 5.3 0.3 6.2 4.2 0.6 2.3 0.6 4.7 0.6 7.1q-1.5 1.4-3.2 2.7-3.1 2.6-6.4 4.8-0.8 0.4-1.7 0.7-0.8-0.3-1.6-0.7-0.1-0.1-0.3-0.2-0.6-0.3-1.1-0.6c-4.4-2.6-8.9-4.7-13.4-7-3-1.5-5.9-3.3-9-4.8z"/><path class="A" d="m494.8 166.6c-0.3 0.7-1.1 2.7-1.2 4-0.1 0.5-0.3 1.3-0.5 2.3q-1.4 10.4-2.4 10.4-2.6-5.1-7.8-7.1c-3.7-1.5-4.1-4.8-2.6-8.7 0.3-0.7 0.8-1.8 1.2-3.1 1-3.1 2.1-7.2 1-8.8z"/><path class="B" d="m494.8 166.6c-0.3 0.7-1.1 2.7-1.2 4-0.1 0.5-0.2 1.4-0.5 2.3-1.2 0.1-2.5-0.1-3.7-0.6-4-1.5-6.3-4.2-7.9-7.9 1-3.1 2.1-7.2 1-8.8z"/><path class="z" d="m482.3 177.8l0.3-0.1q-0.2 0-0.3 0.1z"/><path class="z" d="m491.7 185.9q0 0.1 0 0.2-0.1-0.4-0.4-0.9c-0.9-1.9-3.4-4.9-4.3-5.6-0.5-0.4-3.6-1.8-4.4-1.9l4.2-1.9c1.2 1.3 2.9 4.2 4 6.7q0 0 0 0.1 0.1 0.2 0.2 0.4 0.2 0.4 0.3 0.7c0.3 0.9 0.5 1.7 0.4 2.2z"/><path class="z" d="m496.8 176.2c-0.7 0.3-3.1 4.7-5.7 6.7q0 0.1-0.1 0.1 0 0-0.1 0.1-0.1 0.1-0.2 0.2 0.1-0.3 0.1-0.6 0-0.1 0-0.1 0.1-0.3 0.1-0.6c0.1-1.3-0.1-3.1 1.3-6.5z"/><path class="C" d="m487.3 175.9c-1.5 0.4-6 4.2-7.4 4.2-0.1-1.3-2.9-9.7-1.9-10.7 1.2-1.3 1.9-2.1 2.8-3.2 0.9 2.3 4.7 9.1 6.5 9.7z"/><path class="C" d="m493.9 167.4c0.7 0.6 1 1 1.6 1.8 0.8 0.9 2.1 7.3 2.2 8.7-1 0.1-2.4-2.1-5.9-1.7 0.6-2.5 1.5-5.2 2.1-8.8z"/><path class="A" d="m499 156c0.6-0.9 1.7-1 2.3 0.1 0.7 1.3-0.1 3.5-0.7 4.5-0.6 1.1-1.9 2.6-2.9 1.5-1-1.2 1-5.6 1.3-6.1z"/><path class="D" d="m495.5 146.3l4.7-1.3c1.2 0.9 1.7 2.8 1.6 4.2 0 1.9-0.9 7.7-2.1 9.2 0.3-3.6-1.2-9.8-4.2-12.1z"/><path class="A" d="m481.3 155.9c3.3-15.7 13.3-15.7 15.8-12.8 3.7 4.2 4.2 6.5 3.2 11.8-0.4 2.1-0.8 1.8-0.7 5.9 0.1 1-1.3 4.6-3 8.3-0.9 1.9-2.9 0.7-3.6 1-1.4 0.4-3.3 0.2-4.7-0.5-2.4-1.3-8.5-6.6-7-13.7z"/><path class="D" d="m480.3 143.6q0.3-1.3 1.1-2.3 0.3-0.4 0.8-0.8 0.2-0.1 0.4-0.2 5.5-3.2 21.5-0.6c1.1 2.1-0.3 5.5-2.3 7.1-2.3 1.9-7.4 0.7-10.1 1q-1.2 0.1-2.3 0.3c-4.2 0.8-6 3-6.8 11.1-1.3-3.7-3.5-11-2.3-15.6z"/><path class="E" d="m483.5 139.1q0.1 0 0.1 0 0 0-0.1 0 0 0 0 0z"/><path class="F" d="m483.6 139.1q0 0-0.1 0 0 0 0 0 0.1 0 0.1 0z"/><path class="A" d="m482.4 160.4c-1.5 0.7-2.7-1.2-3.3-2.5-0.5-1.2-1-3.6 0.2-4.6 1.1-0.9 2.6-0.4 3.1 0.7 0.3 0.6 1.7 5.7 0 6.4z"/><path class="C" d="m490.8 182.7q0-0.1 0-0.2 0 0 0 0.1 0.1-0.3 0.1-0.6 0.1 0.5 0.2 0.9 0.1 0.4 0.2 0.8 0.2 1.1 0.4 2.2 0.4 2.2 0.7 4.5-0.1 0.1-0.2 0.1c-0.3-1.8-0.5-3.6-0.9-5.3q-0.2-1.1-0.4-2.1 0-0.2-0.1-0.4z"/><path class="y" d="m497.7 186.6c-0.5-5.3-1.2-10.7-2-16.2l2.5 1 1.2 0.4c4.1 1.5 4.9 5.1 4.9 9.2-0.6 0.5-1 0.9-1.3 1.2q-1.9 1.7-3.9 3.3-0.7 0.6-1.4 1.1z"/><path class="G" d="m497.7 186.6c-0.5-5.3-1.2-10.7-2-16.2l2.5 1c1 0.7 1.8 1.5 2.1 2.1 1 2.1 1.1 5.7 1.3 8.1-0.9 0.4-1.7 0.7-2.3 1.4 0.9 0.1 1.5 0.4 1.9 0.7q-1 1-2.1 1.8-0.7 0.6-1.4 1.1z"/><path class="y" d="m463.2 176.6c0.8-1.4 2.2-2.8 3.4-3.4 2.5-1.3 5.2-2.1 8.1-2.9l0.4-0.2 4-2.2c1.3 0.5 4.1 5.9 6.7 20.3-3.7-2-7.4-3.8-11.2-5.7-3.7-1.9-7.5-4.2-11.4-5.9z"/><path class="G" d="m475.1 170.1l4-2.2c1.3 0.5 4.1 5.9 6.7 20.3-2.4-1.3-4.8-2.5-7.3-3.7 0.4-1.2 1.1-3.1 2-5-1.4 0.3-2.6 0.9-3.8 1.4-0.4-2.2-0.3-9.1-1.6-10.8z"/><path class="y" d="m462.8 176.4c1.9-1.8 4-3.5 5.5-4.1 2.5-0.9 5.5 0.3 5.7 9.6q0 0.1 0 0.2c-3.7-1.9-7.4-4.1-11.2-5.7z"/><path class="C" d="m490.1 184.3c0.1 0.3-0.1 0.6-0.3 0.6-0.2 0.1-0.5-0.2-0.5-0.5-0.1-0.3 0.1-0.6 0.3-0.6 0.3-0.1 0.5 0.2 0.5 0.5z"/></g><g clip-path="url(#cp3)"><path class="H" d="m212.5 179q-0.1 0-0.1 0 0.1-0.1 0.1-0.1 0.1-0.1 0.1-0.1c2.2-1.9 5.5-4 8.8-6.6l17-1.5c2.6 1.4 6.8 2.1 9.2 3.1-0.6 4.2-0.2 9.2-0.1 13.8-6.6 2.4-13.3 4.4-20.2 5.8-3.6-1.2-7.1-2.6-10.6-4-1.2-3.6-2.6-7-4.2-10.4z"/><path class="I" d="m216.7 189.4c-1.2-3.6-2.6-7-4.2-10.4v-0.1l0.1-0.1q0 0 0 0c1.4 0.5 4.9 4.6 5.6 6.4 0.7 1.5 1.1 3.4 1.5 5.4q-1.5-0.6-3-1.2z"/><path class="A" d="m238.2 172.7c-0.5 1.3-0.4 3.7-2 5.7-1-0.5-1.9-1-2.3-0.9-0.5 0.1-2 1.5-3.3 2.5q-0.8 0.2-1.3 0.4c-2.8-2.6-5-5.3-7.9-8.2 1.8-0.4 1.6 0.5 2.7-0.9q0.2-0.2 0.3-0.9c0.3-1.2 0.6-3.2 0.8-5.4 0.3-2.8 0.3-5.8-0.2-6.9l12.3 7.2c-0.5 1-0.9 2.8-0.6 4.3q0 0.2 0.1 0.3 0.1 0.6 0.4 1.1c1 1.8-1.3 1.2 1 1.7z"/><path class="B" d="m236.7 169.6c1.7 7.8-11.3 0.6-11.5-4.6 0.3-2.8 0.3-5.8-0.2-6.9l12.3 7.2c-0.5 1-0.9 2.8-0.6 4.3z"/><path class="J" d="m233.9 177.5q-0.1 0-0.4 0.2c-0.6 0.4-1.4 1.1-2.3 1.8q-0.3 0.3-0.6 0.5-0.6 0.4-1.2 0.7c-2.3 1-3.4 1.6-4.5 2.3 1.1-4.2-3-7.2-3.5-10.8l0.4-0.4 2.7-2.5q2.6 4.9 7 7.2 1.1 0.6 2.4 1z"/><path class="J" d="m240.2 179.6c-0.8-0.2-2.2-0.2-3.9-1.2q-0.1 0-0.1 0c-0.7-0.4-1.4-0.8-1.9-0.9q-0.2-0.1-0.4 0 0.3-0.6 0.7-1.1c1.2-1.8 2.3-3.2 2.1-6.5h0.1l1.9 0.6c0.1 1.1 0.2 2 0.2 2.8 0.2 1.9 0.5 3.5 1.3 6.3z"/><path class="K" d="m232.5 178.1c0.4-0.2 0.7-0.3 1-0.4-0.7 0.5-1.9 1.5-2.9 2.3q-0.6 0.4-1.2 0.7c-2.3 1-3.4 1.6-4.5 2.3 1.1-4.2-3-7.2-3.5-10.8l0.4-0.4c0.1 1.5 1.3 2.8 2 4 1 1.5 1.6 2.9 2.3 4.6 0.8-0.4 1.7-1.1 2.6-1.4 1.1-0.4 2.6-0.4 3.8-0.9z"/><path class="K" d="m240.2 179.6c-0.8-0.2-2.2-0.2-4-1.2-0.7-0.4-1.4-0.8-1.9-0.9 0.3 0 0.5 0 1 0.1 1.2 0.1 2.4 0.5 3.6 0.5-0.3-1.6-0.2-3.3 0-4.8 0.2 1.9 0.5 3.5 1.3 6.3z"/><path class="A" d="m241 157.1c0.5-0.8 1.6-0.9 2.2 0.1 0.6 1.2-0.1 3.3-0.6 4.2-0.6 1-1.7 2.5-2.6 1.5-1-1.1 0.7-5.3 1-5.8z"/><path class="A" d="m225.2 159.4c1.3-3.5 0.5-7.1 1-10.8l0.5-2.8c1.1-5.4 9.1-3 11.5-0.4 3.5 3.8 3.7 6.8 2.8 11.7-0.3 2-0.3 0.8-0.1 4.6 0.1 1-1.1 4.4-2.7 7.8-0.8 1.8-1.9 2.1-2.6 2.3-1.3 0.5-2.9-0.2-4.2-0.9-2.2-1.1-8.5-5.1-6.2-11.5z"/><path class="L" d="m241.1 156.1c0.1-1.4 0.2-4.7-0.4-5.8-0.8-1.7-0.5-0.3-2 0.1-3.2 0.9-4.9-2.6-7.2-4.1-3.2-0.4-3.7 1.6-4.4 4.1-0.5 1.8-1.3 4.1-1.3 6l-2-1.6c0.3-1.6-0.3-2.8-1.4-4.1-1.2-1.5-1.1-1.8-0.5-3.6q0.2-0.7 0.5-1.4c0.4-0.9 1-1.8 1.6-2.6 1.1-1.5 1.8-1.2 3.6-1.1 0.1-0.5-0.1-1-0.1-1.5 1.9-1.5 6.5-0.8 8.7-0.2 1.2 0.4 2.9 1 3.8 2 0.9 1.1 0.9 2.1 1 3.3q0.8-0.3 1.6-0.6c0.1 0.5 0.2 1.2 0.2 2.1 0 3-0.7 7.5-1.7 9z"/><path class="M" d="m240.9 158.7c0-1.5 0.4-7.3-0.2-8.4-0.8-1.7-0.5-0.3-2 0.1-3.2 0.9-4.9-2.6-7.2-4.1-3.2-0.4-3.5 2.3-4.2 4.7-0.5 1.8 0.2 10.5-2 9.8l-1.5-6c0.3-1.6-0.3-2.8-1.4-4.1-1.2-1.5-1.1-1.8-0.5-3.6q0.2-0.7 0.5-1.4c0.3 0.8 0.9 1.3 2 1.4 1.4 0.1 2.1-0.5 2.9-1.5 0.8-1.1 1.8-1.1 2.9-1.5 0-0.7-0.6-1.3-1-1.8 1.3 0.2 1.7 1.5 2.7 2 0.1-0.4-0.1-1-0.1-1.4 0.9 0.6 1.4 1.7 2.3 2.4 0.7 0.6 1.5 1.2 2.3 1.7 0.7 0.4 1.5 1 2.4 1.2 1.1 0.2 1.4-0.8 1.9-1.6 0.3 0.4 0.3 0.9 0.5 1.3 0.6 0 1.1-0.4 1.6-0.8 0 3-0.9 10.1-1.9 11.6z"/><path class="A" d="m225.4 162.4c-1.4 0.7-2.6-1.1-3.1-2.3-0.5-1.1-1.1-3.4 0.1-4.3 0.9-0.8 2.3-0.4 2.8 0.6 0.3 0.6 1.8 5.3 0.2 6z"/><path class="B" d="m236.5 158.6q-0.1 0-0.1 0 0 0 0 0z"/><path class="H" d="m208.9 186.3c0.5-2.8 0.9-5.1 1.2-5.7 1.3-4.2 4.5-4.2 7.5-5.4l1.1 15c-3.2-1.3-6.5-2.7-9.8-3.9z"/><path class="H" d="m244.2 187.7l-3.1-14.9c3.2 0.4 6.3-0.5 8.8 3.2 0.5 0.8 2.6 4.8 4.4 8.7q-1.8 0.9-3.5 1.7-3.1 1.2-6.3 2.3-0.2-0.6-0.3-1z"/></g><path class="m" d="m215.1 276.9c0.1 0 0.2 0.3 0.2 0.5v27.8h3.6c0.1 0 0.2 0.3 0.2 0.6v7.8c0 0.4-0.1 0.5-0.2 0.5h-15.6c-0.1 0-0.2-0.5-0.2-0.7v-7.7c0-0.3 0.2-0.5 0.2-0.5h3.7v-15.4h-3.6c-0.2 0-0.3-0.2-0.3-0.5v-7.1c0-0.3 0.1-0.9 0.2-0.9h5.5c0.8 0 1.2-2.4 1.6-3.9 0-0.2 0.2-0.5 0.2-0.5z"/><path class="m" d="m211.5 339.7c-0.9 0-1.8 0.9-2.5 3.4-0.6 2.5-2.2 6.7-3.6 6.7-1.5 0-2.5-1.4-2.5-4.9 0-12.7 5.7-14.3 9.6-14.3h3.3c3.8 0 8.4 2.5 8.4 10.7 0 9.7-7.6 13.6-9.1 14.1-3.4 1.2-4.8 2-5.6 4.6h8.2v-2.7c0-0.3 0.1-0.6 0.2-0.6h5.9c0.1 0 0.2 0.2 0.2 0.5v9.8c0 0.3-0.1 0.8-0.3 0.8h-20.6c-0.2 0-0.3-0.4-0.3-0.9v-5.7c0-0.2 0.1-0.6 0.2-0.8 1.1-3.1 2.6-5.6 4.2-8 2.7-4.3 7.8-5.4 7.8-9.6 0-2.6-1.2-3.1-2-3.1z"/><path class="N" d="m289.4 164.9h14.1l-13.7 81.4z"/><path class="N" d="m420.7 164.9l15.6 0.4-15.3 104.9z"/><path class="N" d="m545.3 164.6l18.9 0.7-30.3 78.9z"/><path class="O" d=""/><path class="a" d="m307.3 521.1c0 6.8-60.9 12.4-136.1 12.4q-9.2 0-18.1-0.1-22.5-0.3-22.7-0.5c-55.2-1.6-95.3-6.3-95.3-11.8 0-6.9 60.9-12.4 136.1-12.4 75.2 0 136.1 5.5 136.1 12.4z"/><path class="P" d="m50 391.2c14-21.3 37.5-25 58.4-25 25.6 0 51.4 1.4 76.8 5.3 12 1.9 24.1 3.4 35.7 7.6 3.5 1.3 7 3 10.4 4.9 3.5 1.9 6.9 4.2 10.1 6.7q0.6 0.5 1.1 0.9 0.3 0.3 0.7 0.5 0.4 0.4 0.8 0.8 0.4 0.3 0.8 0.7 0.5 0.4 0.9 0.8 1.2 1.1 2.4 2.4 0.8 0.8 1.5 1.6 1.2 1.2 2.2 2.5c4.4 5.2 8.1 11.2 10.8 17.9 8.7 21.1 7.7 48.8-0.9 69.6-8.7 20.7-26.9 29.2-44.9 31.5-22.1 2.8-44.3 1.1-66.3-0.8-25.5-2.3-56.8 1.6-79.2-16-18.8-14.8-30.3-41.7-31.6-68.7-0.8-15.3 2.4-31.2 10.3-43.2z"/><path class="Q" d="m230.2 419.9q20.4 2.5 9.7 20.5c-10.6 18 7.2 24.9-29.7 28.6-12.1 1.2-42.1-1.1-70.7-8.8l-46-2.9q-20.8-11.3-12.8-35.6-20.9-11.8-5.9-25.7 15-13.9-0.5-1.8l62.9-0.4q25.7 5.5 31.2 8.4c5.5 3 17.9 6.3 22.3 9.2q4.5 2.9 14.4 8.5z"/><path class="R" d="m211.7 389.5c3.2-3.8 9.6-3.7 6.7-0.6q-3 3-8.6 8.3-1.3-3.9 1.9-7.7z"/><path class="S" d="m111.4 425.1c-16.2-6.3-27.5-13-34-17.5-4.2-2.9-6.3-8-5.5-13l8.4-48.7c0.8-5 4.1-9.2 8.8-11.2 13.4-5.8 26.4-9 37.9-10.6q6.5-0.6 14.7 0.3c5.4 0.5 17.8 4.1 25.7 6.6 4.4 1.4 8 4.7 9.7 9 3.3 8.5 8.6 22.9 10.3 30.7q5.9 26.8 5 24.8l6.1 41.2-64.8 3.6-16.5-7.5z"/><path class="T" d="m133.9 299.1l-17-3.9c-9.1-19.9 2.1-37.8 12.6-31.8q17-5.9 33.1 9.7z"/><path class="R" d="m143.8 307.6v23.2c0 5.4-4.4 9.8-9.8 9.8-7.4 0-13.3-5.9-13.3-13.3v-19.7z"/><path class="U" d="m143.8 317.2v12.7q-21.8-3.2-20.7-17.9z"/><path class="R" d="m153.7 302.9c-1.1 3.1-0.9 9-2.2 11.9-2.2 5.1-5.9 10.7-11.1 10.8q-12.2 0.3-21.5-18.8l1.9-22.7 9.3-10.3 25.4 15.7q1.7 3.6-1.8 13.4z"/><path class="T" d="m117.4 288.8l3-14.1 18.1-5.8 14.4 1.7c12.5-2.5 18.3 13.3 4.9 21.3q-13.4 8-27.8-6.1-8.7 6.6-9.6 14.4z"/><path class="V" d="m115.3 406q-5.5-8.9-20.2-10.3l4.3-4.9 5.7-10.1 4.1-17.6c0 4.1-2.2 16.4 3.8 28 4.1 7.9 9.8-5.1 20.8 18.6z"/><path class="W" d="m166.2 351.9q1.3 6.2 2.5 12.4c0.8 4.2 1.5 8.4 2.3 12.5q1.1 6.3 2.1 12.5l1 6.3c0.4 2.1 0.7 4.1 1 6.2l-0.5 0.1c-0.4-2-0.8-4.1-1.3-6.2l-1.2-6.2q-1.1-6.2-2.3-12.5c-0.7-4.2-1.4-8.3-2.1-12.5q-1.1-6.2-2-12.5z"/><path class="V" d="m179.5 425.1l-28.6 1.7-9.3-8.8c29.9 3.6 28.4-39.3 27.6-46.9z"/><path class="R" d="m131.8 417.3c13-5.6 15.4-5.3 17.2-5.3q5.9 0.3 14.5 12.2l-0.2 2.2h-32.6z"/><path class="X" d="m206.1 422.1l-20.9 5.8 4.7-39.9 21.6-6.9z"/><path class="s" d="m206.8 422.5l-20.9 5.8 4.7-39.8 21.7-6.9z"/><path class="R" d="m210.8 414.1c-0.4 2.9-0.5 7.2-9.6 6.7l-2.7-1.4 2.5-2.8 5.5-2.8z"/><path class="R" d="m211.7 406.1q5 6.5 0 8.6-5.5 2.1-10.7 1.9 2.3-6.5 9.9-6.1z"/><path class="R" d="m211.9 401.9q6.8 6.4 0.4 8.2-9 2.5-11.8 2.7-0.5-4.8 8.5-7.9z"/><path class="R" d="m210.4 396.4q9.4 5.7 0.6 8.9-8.8 3.2-10.9 3.1-0.4-4.8 9-6.4z"/><path class="X" d="m147.4 505.4l24.1 6.9c-18.7 13.8-35.5 10.1-36.6 10.7z"/><path class="X" d="m148.5 438.2q54.3-25.9 72-24.7c17.7 1.2 17.2 23.2 10.5 32.8-6.7 9.6-22.4 22.4-80.1 18.6z"/><path class="Y" d="m84.3 397.7c1.8-0.7 3.7-1.3 5.7-1.8q1.4-0.4 2.9-0.7 0.7-0.1 1.5-0.3 0.3 0 0.7 0 0.5-0.1 0.8 0c2.1 0.2 4 0.9 5.9 1.5q2.8 1.1 5.5 2.4 2.7 1.3 5.3 2.8 2.6 1.5 5 3.2c3.3 2.2 6.5 4.7 9.2 7.6l-0.4 0.4q-2.2-2-4.5-3.7-2.4-1.8-4.9-3.4c-3.3-2.1-6.7-4-10.2-5.8q-2.7-1.3-5.4-2.4c-1.8-0.7-3.7-1.4-5.5-1.6q-0.4-0.1-0.7-0.1-0.4 0-0.7 0.1-0.7 0.1-1.5 0.2-1.4 0.2-2.8 0.6-2.9 0.6-5.8 1.5z"/><path class="Q" d="m93.4 468.5l29-7.2 7.2 10.3q-13.1-1.2-18 0.5c-4.7 1.7-11.1 1.2-17.7 1.6z"/><path class="X" d="m94.2 454.7c-6.6-10.7-6.6-31.9 1.8-41.5 9.6-10.9 30.2-15.1 40.9-2.3 10.8 12.8 30.5 69.7 34.6 101.4q-21.8-7.3-36.6 10.7-19.5-54.6-23.5-70.9l-11.1 8.7z"/><path class="c" d="m117 468.7l-8.6 0.5q-1.6 0.1-3.1 0.7c1.1-2.8-0.3-6.4-0.9-9.2-0.4-2.1-0.3-4.6-0.4-7q0.3 0 0.4 0.1 4.1-2.8 7-1.7z"/><path class="R" d="m122.6 310c-10.3-2.9-13.1-13.1-7.8-15.1q5.2-1.9 7.6 5.9z"/><path class="T" d="m106.6 433.6l2.5 8.8c0.8 2.9 1.6 5.8 2.5 8.8q1.3 4.3 2.7 8.7 0.7 2.2 1.4 4.3c0.2 0.8 0.5 1.5 0.7 2.2q0.4 1.1 0.8 2.2l-0.4 0.1q-1-2-1.9-4.2-0.8-2.1-1.6-4.3c-1-2.9-1.9-5.8-2.8-8.7-0.8-3-1.6-5.9-2.4-8.9-0.7-2.9-1.4-5.9-2-8.9z"/><path class="T" d="m137.5 301.2c-0.1 0.6-0.5 1-1 1-0.4-0.1-0.7-0.7-0.6-1.3 0.1-0.7 0.5-1.1 1-1 0.5 0 0.8 0.6 0.6 1.3z"/><path class="T" d="m150.4 300.9c-0.1 0.7-0.6 1.1-1 1.1-0.5-0.1-0.8-0.7-0.7-1.3 0.1-0.7 0.6-1.1 1.1-1.1 0.4 0.1 0.7 0.7 0.6 1.3z"/><path class="U" d="m144.2 302.1q0.5 4 1.8 7.2-1.2 1.5-3.9 1.3l2.4-1.9z"/><path class="T" d="m131.3 297.4q4.6-4.3 8 0.8-3.1-2.2-8-0.8z"/><path class="T" d="m155 297.4q-4.7-4.2-8.1 0.8 3.2-2.2 8.1-0.8z"/><path class="U" d="m114 300.7q-1.2-4.3 2.2-4.5 3.4-0.3 4.2 5.4 0.7 5.6-0.3-0.1-1.1-5-4.2-4.3-1.9 0.1-1.9 3.5z"/><path class="c" d="m147.5 527.5l-3.4-12.2q5.4-4.7 19.4-4.5l5.1 15.4-2.4 11.1q-6.5 1.4-6.9 1.4c-0.5 0-4-1-5.9-2-2-1-4.3-1.9-4.4-2.3-0.1-0.4-1-2.2-1-2.6q0-0.3-0.5-4.3z"/><path class="h" d="m198.7 551.5c-1.2 2.3-6.4 3.7-11.1 4.6-4.6 0.9-15.5 0-19.3-3-3.7-3-7.9-6.6-10.9-6.9-3-0.2-8.9-2.8-10.7-4.8-0.1-1.6-2-10.6 0.8-13.9 1.7 3 5 3.7 5.9 2.7 0.9-1.1 2.8-5.9 4.3-7.3 1.4-1.4 5.4-2.6 7.8-2.2 2.3 0.4 4.5 2.5 5.9 4.8 1.2 2.3 7.4 9.6 10.6 12.3 3.3 2.6 14.9 12.1 16.2 13.1q0.3 0.2 0.5 0.6z"/><path class="X" d="m146.7 541.4c0.6 0.6 1.5 1.2 2.5 1.8 2.6 1.5 6.1 2.8 8.2 3 3 0.3 7.2 3.9 10.9 6.9 3.8 3 14.6 3.9 19.3 3q0.4-0.1 0.7-0.1c4.5-0.9 9.3-2.3 10.4-4.5 0.8 1.3 0.7 4 0.2 5.8q-0.2 0.3-0.4 0.7c-0.4 0.5-0.9 1-1.5 1.5-2.1 1.5-5.3 2.9-8.6 3.3-4.8 0.5-16.1-0.8-18.7-2.4-2.7-1.5-10.2-7.5-12.2-7.7-1.9-0.1-10.1-2.3-11.1-3.9-1.1-1.5-1-5.8 0.3-7.4z"/><path class="h" d="m82.8 497.4c-2.1-1.2-3-6.1-3.5-10.5-0.5-4.4 1.2-14.3 4.2-17.6 3.1-3.3 6.7-6.8 7.2-9.6 0.5-2.7 3.3-7.9 5.2-9.5 1.5 0 10-1.1 12.9 1.8-3 1.3-3.9 4.3-3 5.2 0.9 0.9 5.2 3.1 6.4 4.5 1.2 1.4 2 5.2 1.5 7.4-0.6 2.1-2.7 4-4.9 5-2.3 1.1-9.5 6.2-12.1 9-2.7 2.8-12.3 12.8-13.4 13.9q-0.2 0.3-0.5 0.4z"/><path class="X" d="m95.9 450.2c-0.5 0.5-1.2 1.3-1.8 2.2-1.6 2.2-3.1 5.4-3.4 7.3-0.5 2.8-4.1 6.3-7.2 9.6-3 3.3-4.7 13.2-4.2 17.6q0.1 0.3 0.1 0.6c0.5 4.3 1.4 8.8 3.4 9.9-1.3 0.7-3.8 0.4-5.4-0.2q-0.3-0.2-0.6-0.4-0.7-0.6-1.3-1.6c-1.3-1.9-2.3-5.1-2.4-8.1-0.1-4.5 1.9-14.8 3.6-17.1 1.6-2.3 7.7-8.8 8-10.6 0.3-1.8 2.9-9.3 4.4-10.1 1.5-0.8 5.5-0.4 6.8 0.9z"/><path class="V" d="m134.3 344.5q-0.2 0-0.2 0c-5.1 0-9.2-1.5-12.1-4.6-5.2-5.6-4.7-14.1-4.7-14.4l2 0.1c0 0.1-0.4 8 4.2 12.9 2.5 2.7 6.1 4 10.6 4 0.1 0 5.7 0.2 9-3.7 2.4-3 3.1-7.5 1.8-13.5l1.9-0.4c1.4 6.6 0.7 11.7-2.2 15.2-3.6 4.2-9.1 4.4-10.3 4.4z"/><path class="T" d="m120.9 296.4q0.9 11.7 8.7 16.2c1.4 0.9 3.4 1.5 13.8-0.6 3-0.7 4.5 1.9 8.6 1.2l-3.3 11.6c-0.9 2.9-7.5 2.5-10.4 1.7-12.5-3.6-14.2-7.9-17.2-16.8l-0.6-4.5z"/><path class="R" d="m139.3 316.7l8.6 0.2q-3.8 3.6-8.6-0.2z"/><path class="X" d="m211.5 381.1l0.8 0.5-1.8 0.6-2.7 0.4q0.6-0.1 0.6-0.2 0-0.1 0.4-0.1 0.5-0.3 0.6-0.3 0.2-0.1 2.1-0.9z"/><path class="Y" d="m108.3 350.5q7.1 25.4-12.4 44.4 14.6-16.8 12.4-44.4z"/><path class="Y" d="m165.7 352q10.6 34.1-2.1 55.3 8.6-22.1 2.1-55.3z"/><path class="T" d="m122.6 294.1q-1.7 3.7-0.5 8-0.6 0.1-0.6-0.1 0-0.2-0.5-5.8l0.3-1.8z"/><path class="O" d="m129.9 264.9q14.1-7 32.5 9.4 6.1 9.1-5.9 16.5-6.5 4.7-21.5-3.1 15.1 5.7 21.5-1.6-13.4 5.9-26.6-4.7 15.9 7 24.1 0.8c8.2-6.1-45.2-0.9-24.1-17.3z"/><path class="O" d="m116.4 291.3q-5.9-18.9 4.8-26.1 3.3-2.4 7.5-0.6-6 1.4-5.9 5.9 0.1 4.6 3.4 6.7 7 5.4-0.3 10.9-3.5 1.8-5 6.4-1.1-6.4 4-9.1-4.3-1.3-5.9 1.5-0.3-4.5 3-8.1-7.2 0.7-5.6 12.5z"/><path class="R" d="m604.4 504.2c0.4 2.8 0.7 6 0.7 9q0 1.5-0.1 3.1c-3.6 4.6-12 4.8-16.2 1.7q-0.6-0.3-1.1-0.8-0.3-0.3-0.5-0.6-0.1-0.2-0.2-0.3-0.1-0.1-0.1-0.2-0.1-0.2-0.3-0.4-0.1-0.3-0.2-0.5-0.1-0.4-0.2-0.8c3.5-7.4 6.3-14.7 6.3-20.2 0-3.6-2.1-13.2-4.3-25.9 6 0.2 12.1 0.9 17.7 1.1q0.2 0 0.4 0c-1.5 15.3-2.6 30.2-1.9 34.8z"/><path class="X" d="m583.4 520.3q1.5-2.9 2.8-5.9c1.2 6.5 14.3 7.7 18.9-1.2 0.9 8.6-1.9 13.8-5 14.9-4.1 1.4-11.9 1.2-15.6-1.5-1.5-1-1.9-4.7-1.1-6.3z"/><path class="R" d="m615.6 465.3q0.2 0 0.4 0c5.9-0.3 12.3-1 18.5-1.2-2.3 13.3-4.5 23.3-4.5 27 0 5.8 3 13.5 6.6 21.2q-0.1 0.4-0.3 0.8 0 0.2-0.2 0.5-0.1 0.2-0.2 0.4 0 0.1-0.1 0.2-0.1 0.2-0.3 0.3-0.2 0.4-0.5 0.7-0.5 0.5-1.1 0.9c-4.4 3.1-13.1 2.9-16.9-1.9q-0.1-1.6-0.1-3.2c0-3.2 0.2-6.5 0.7-9.4 0.7-4.8-0.4-20.4-2-36.3z"/><path class="X" d="m638.4 525c-3.9 2.8-12 3-16.3 1.6-3.2-1.1-6.1-6.6-5.2-15.6 4.7 9.3 18.4 8 19.7 1.3q1.4 3 2.9 6.1c0.8 1.6 0.4 5.5-1.1 6.6z"/><path class="S" d="m643.7 323.4q8.1 25-4.2 95.4 1.7 52-7.7 80.1l-16.2-1.6-3.2-99.5 0.7-45.2-7.5 143.4-3.6 0.7-4.3 0.2h-4.3l-2.9-0.6q-8.1-49.4-5.2-82.7-14.9-63.6-4.9-86.2z"/><path class="Z" d="m587.3 472.5c-1.9-17.3-3.7-41.2-2.1-59.9q-14.9-63.6-4.8-86.2l11-0.7q-8.5 25.3-0.8 80.9c-3.8 20.8-3.8 48.4-3.3 65.9z"/><path class="T" d="m589.2 182.7q0.3-0.5 11.9-1.8l4.7 0.6 18.2 8.4q0.5 7.5 3.3 38l-51.5 10q-2.1-18.4 3.3-49.9 9.7-4.9 10.1-5.3z"/><path class="O" d="m621.4 186.1l3.5 39.5q-6.1-29.3-3.5-39.5z"/><path class="O" d="m617.2 177.2l3.5 39.5q-6.1-29.3-3.5-39.5z"/><path class="O" d="m615.5 188.6l3.5 39.5q-6.1-29.3-3.5-39.5z"/><path class="O" d="m613.6 194.8l3.5 39.5q-6.2-29.3-3.5-39.5z"/><path class="O" d="m589 190.9l3.5 39.4q-6.2-29.3-3.5-39.4z"/><path class="O" d="m585.6 178.5l3.5 39.5q-6.2-29.3-3.5-39.5z"/><path class="O" d="m584.3 186.2l3.5 39.5q-6.2-29.3-3.5-39.5z"/><path class="O" d="m580.5 184.7l3.5 39.5q-6.2-29.3-3.5-39.5z"/><path class="O" d="m578.8 201l3.5 39.5q-6.2-29.3-3.5-39.5z"/><path class="O" d="m609.6 185.1l3.5 39.5q-6.1-29.3-3.5-39.5z"/><path class="R" d="m585.6 299.8q0 1 0.2 2 0 0.5 0 1-0.3 1.3-0.5 2.6-0.2 0.7-0.3 1.5-0.9 1.1-1.5 2.4 0 0.1-0.1 0.1 0 0 0.1-0.1-0.1 0.1-0.2 0.1-0.1 0.1-0.2 0.2c-2 1.2-5.5 1.9-7.5 1.7-3.5-2.7-6.8-5.3-9.3-7.5q-0.9-0.8-1.7-1.5c-0.7-0.6-2.4-1.7-4.9-3.2 2.3-2.5 3.9-5.7 5.2-8.9 2.2 1.6 4 2.8 5.1 3.1q0.4 0.1 0.7 0.1c4.1 0 9.5-0.1 12.6 1.5 0.5 0.3 0.9 0.7 1.2 1.4q0.2 0.4 0.3 0.9c0.1 0.3 0.2 0.7 0.2 1v0.1c0.1 0.7 0.2 1.6 0.2 2.5q0-0.7 0-1.3 0-0.3 0.1-0.6 0-0.5-0.1-0.9 0-0.3 0-0.6 0-0.3-0.1-0.6 0.1 0.2 0.1 0.5 0.1 1.2 0.4 2.5z"/><path class="R" d="m570.5 223.7c1.1-0.3 2.3-0.6 3.5-0.8 4.8-1.1 10.1-1.9 12-2.3 1.4-0.3 3-1.6 4.3-3.4q0 0 0-0.1c0 0 0 0 0 0 1.2-1.7 2.2-3.9 2.5-6.2q0-0.4 0-0.7 0.1-0.1 0.1-0.3 0-0.1 0-0.1v-0.1q0-0.5 0-1 0-0.2 0-0.5 0 0 0-0.1 0-0.3-0.1-0.6h4.2q1.8 0 3.2 0 0.5 0 1.2 0 0.4 0 0.8 0 0.6-0.1 1.2 0 0.7-0.1 1.4 0 0.6 0 1.1 0 0.5 0 1 0 0 0.9 0.1 1.8 0 0.3 0.1 0.7 0 0.3 0.1 0.5 0 0.2 0.1 0.5v0.1c0.5 2.3 1.4 4.5 2.5 6.3 0.5 0.8 1 1.5 1.5 2.2 0.5 0.6 1.4 1.1 2.5 1.6 3.1 1.5 7.9 2.5 10.8 3.1q0.7 0.1 1.2 0.2 0.1 0 0.3 0 0.1 0.3 0.3 0.8c0.1 0.7 0.3 1.8 0.5 3.2-3 3.7-4.9 8.3-4.9 13.4q-0.2 0.4-0.3 0.9c-0.6 1.3-1.3 2.4-2 3.6-1.4-0.1-2.8 0-4.2 0.6-4.9 2-9.4 1.7-14.5 1.1-4.3-0.5-9.8-0.5-13.1-2.6-3-1.9-6.4-7.8-9.1-10.9-1.4-1.7-2.9-3.3-4.4-5 0.2 0.3-1.4-1.8-1.8-2.2-0.4-0.8-1.6-3.1-0.8-0.9q-0.5-1.5-1.3-2.8z"/><path class="U" d="m592.8 208q3.4 0 7.4 0 4.3-0.2 6.7 0 0 1.8 0.4 3.6c-2 3.2-5.8 6.3-7.1 6.3-1.4 0-5.7-2.1-7.4-6.5q0.2-1.7 0-3.4z"/><path class="a0" d="m625 272.5v-0.2q-0.1-2.3-0.3-4.9-0.2-5.7-0.3-11-0.1-0.7-0.1-1.4c-0.2-14.2 0.5-24.9 1.6-29.7h0.5c3.4 0.2 8.5 3.2 10.6 9.1 0.8 2.1 1.2 4.6 0.9 7.5-0.4 5-0.5 10.7-0.3 16.2 0.1 6.9 0.7 13.3 1.8 17.3 1.1 4.5 2.9 10.8 4.7 16.1-3 2.7-5.7 6.1-9.6 7-1.1 0.2-2 1-2.7 1.9-3.2-5.9-5.7-14-6.8-27.9z"/><path class="b" d="m630.9 300.4c-1.8-3.6-3.5-8.1-4.7-14.1q-0.1-0.1-0.1-0.2c-0.7-3.4-1.3-7.3-1.7-11.8-0.2-2.2-0.3-4.4-0.4-6.8q-0.2-3-0.3-5.8 0-0.9 0-1.7-0.1-0.8-0.1-1.4v-0.4c-0.4-16.5 0.4-28.2 1.6-33.1l0.1-0.6h0.8c2.7 0 6.1 1.7 8.5 4.3 1.1 1.2 2.3 3 3.2 5.3 0.7 2.1 1.2 4.7 0.9 7.8-0.2 3-0.4 6.3-0.4 9.5-0.1 9.3 0.5 18.8 1.8 23.8 1.3 5 3 10.9 4.7 15.8-3.3 2.7-6.1 6.5-10.3 7.5-1.4 0.3-2.5 1.4-3.1 2.7q-0.2-0.4-0.4-0.7 0-0.1-0.1-0.1z"/><path class="a1" d="m579.1 324.3c19.4 3.6 47.1-2.2 62.4-8.1 2 3.8 2.4 8.3 3.4 13-14.2 5.9-49.8 7.9-65.2 0.4 0.2-3.7-1.1-2-0.6-5.3z"/><path class="a2" d="m585 298.2q-0.1-1.1-0.5-1.9 0.3 0.9 0.5 1.9z"/><path class="b" d="m526 266.3c4.9-7.6 25.3-25.3 27.1-26.9 1.8-1.6 9.9-11 12.5-13.6 1.2-1.1 4.6-2.1 8.4-2.9 8 7.7 18.9 23.6 27.6 23.6 8.5 0 15.2-14.3 22.1-22.4 1 0.2 1.7 0.3 2.3 0.4 0.8 1.4 1.6 10.3 1.5 21.3q-0.1 3.1-0.2 6.3c-0.2 5.6-0.7 11.5-1.6 17.1-0.6 0.8-0.8 3.5-0.6 7 0.1 2.9 0.5 6.2 1 9.4 0.4 3.3 1 6.6 1.7 9.1 1.4 6 12 13.5 16.8 28.5-15.7 12.9-56.6 10.9-66.5 5.4 0.4-3.8 2-6.8 2.6-10.1 0.5-2.9 2-6.2 2.8-9.2q-0.2 0.2-0.4 0.3c1.6-2.8 2.3-5.5 2.3-8.2q0-1-0.2-1.9c0.1-1.5 0-2.9-0.4-4.2-0.2-0.9-0.6-2-1.1-3.3q0 0 0-0.1-0.5-1.3-1.2-3c-4.1-10.3-12.1-27.8-14.2-35.3q0-0.2-0.1-0.4-0.1 0.1-0.2 0.2c-4.4 2.8-19.2 14.8-24 17.6 2.7 2.7 20.8 20.8 26 22.3-0.4 3-2 7.2-3.7 10.5q-0.9-0.8-1.7-1.5c-2.6-2.4-23.8-13.8-32.4-19.1-8.6-5.2-11.2-9.3-6.2-16.9z"/><path class="a1" d="m592.9 205.4q3.4 0 7.3 0 4.4-0.3 6.7 0 0.1 1.8 0.5 3.5c-2.8 2.4-5.8 4.4-7.2 4.4-1.4 0-4.5-2.1-7.4-4.6q0.3-1.6 0.1-3.3z"/><path class="a0" d="m585 181.2c0.4-4.3 4.4-11.5 15.2-11.5 10.9 0 14.8 7.2 15.2 11.5 0.4 4.4-0.2 17.3-2.5 20.8-2.4 3.5-10.2 10-12.7 10-2.5 0-10.3-6.5-12.6-10-2.4-3.5-3-16.4-2.6-20.8z"/><path class="a3" d="m597.3 202.7c0.7-0.6 1.6-0.9 1.9-0.9 0.2-0.1 0.8 0.2 1 0.2 0.3 0 0.8-0.3 1.1-0.2 0.2 0 1.2 0.3 1.9 0.9 0.6 0.6 1.1 1.1 1.5 1.2-0.2 0-0.5 0.1-0.8 0.1-0.4-0.1-0.9-0.1-1.2-0.3-0.6-0.4-1-0.6-1.4-0.6-0.2-0.1-0.6 0.2-1.1 0.2-0.5 0-0.8-0.3-1.1-0.2-0.3 0-0.8 0.2-1.4 0.6-0.3 0.2-0.7 0.2-1.1 0.3-0.4 0-0.7-0.1-0.9-0.1 0.5-0.1 1-0.6 1.6-1.2z"/><path class="c" d="m597.7 203.7c0.6-0.4 1.1-0.6 1.4-0.6 0.3-0.1 0.6 0.2 1.1 0.2 0.5 0 0.9-0.3 1.1-0.2 0.4 0 0.8 0.2 1.4 0.6 0.3 0.2 0.8 0.2 1.2 0.3q-0.5 0-0.9 0.1c-0.7 0.1-1.4 0.8-2.8 0.8-1.4 0-2-0.7-2.8-0.8q-0.3-0.1-0.8-0.1c0.4-0.1 0.8-0.1 1.1-0.3z"/><path class="a4" d="m596.6 204q0.5 0 0.8 0.1c0.8 0.1 1.4 0.8 2.8 0.8 1.4 0 2.1-0.7 2.8-0.8q0.4-0.1 0.9-0.1 0.3-0.1 0.8-0.1c-0.3 0.2-1.5 1.8-2.2 2.3-0.8 0.4-2 0.5-2.3 0.5-0.3 0-1.5-0.1-2.2-0.5-0.8-0.5-1.9-2.1-2.3-2.3q0.5 0 0.9 0.1z"/><path class="a5" d="m600.2 198.7c0.9-0.3 1.8-0.3 2.7-0.2-0.9 0.1-1.8 0.4-2.5 0.9-0.1 0-0.2 0.1-0.3 0-0.7-0.5-1.6-0.8-2.5-0.9 0.8-0.1 1.7-0.1 2.6 0.2z"/><path class="a6" d="m595.3 186.9c-0.6-0.2-2.6-1-3.4-1.3-0.9-0.3-2.9 0-4.2 0.2 0.3-0.4 1.6-1.1 3.4-1.1 1.8-0.1 3.3 0.7 4.3 1.2 1.8 0.8 2.6 1.3 2.4 1.8-0.2 0.3-2-0.6-2.5-0.8z"/><path class="c" d="m593.4 192.1c-0.9-0.1-2.6-1.2-3.4-2.7 0.6-0.3 2.6-1.5 3.9-1.4 2.4 0.4 3.2 1.8 3.9 3.1-1.8 1-3.5 1.1-4.4 1z"/><circle class="a7" cx="593.9" cy="190.1" r="2"/><path  d="m593.9 189.1c0.6 0 1 0.4 1 1 0 0.5-0.4 0.9-1 0.9-0.5 0-0.9-0.4-0.9-0.9 0-0.6 0.4-1 0.9-1z"/><path class="c" d="m594.2 189.8c-0.1 0-0.3-0.1-0.3-0.3 0-0.1 0.2-0.3 0.3-0.3 0.2 0 0.3 0.2 0.3 0.3 0 0.2-0.1 0.3-0.3 0.3z"/><path class="a8" d="m590 188.8c0.8-0.2 1.3-0.4 2-0.7q0.6-0.3 1.2-0.4 0.3 0 0.7 0 0.3 0 0.6 0.1c0.8 0.2 1.6 0.6 2.1 1.2 0.6 0.6 1 1.3 1.2 2.1-0.4-0.7-0.9-1.3-1.5-1.8-0.5-0.4-1.2-0.7-2-0.9q-0.2 0-0.5 0-0.2-0.1-0.5 0-0.5 0-1.1 0.2c-0.7 0.3-1.4 0.6-2.1 1h-0.1c-0.8-0.3-0.7-0.6-1.4-0.9 0.7 0.1 0.7 0.3 1.4 0.1z"/><path class="a6" d="m602.6 187.7c-0.2-0.5 0.7-1 2.4-1.8 1-0.5 2.6-1.3 4.4-1.2 1.8 0 3 0.7 3.3 1.1-1.3-0.2-3.2-0.5-4.1-0.2-0.9 0.3-2.9 1.1-3.4 1.3-0.6 0.2-2.4 1.1-2.6 0.8z"/><path class="c" d="m602.6 191.1c0.7-1.3 1.5-2.7 3.9-3.1 1.3-0.1 3.4 1.1 3.9 1.4-0.7 1.5-2.4 2.6-3.3 2.7-0.9 0.1-2.7 0-4.5-1z"/><circle class="a7" cx="606.5" cy="190.1" r="2"/><path  d="m607.5 190.1c0 0.5-0.5 0.9-1 0.9-0.5 0-1-0.4-1-0.9 0-0.6 0.5-1 1-1 0.5 0 1 0.4 1 1z"/><path class="c" d="m605.9 189.5c0-0.1 0.1-0.3 0.3-0.3 0.2 0 0.3 0.2 0.3 0.3 0 0.2-0.1 0.3-0.3 0.3-0.2 0-0.3-0.1-0.3-0.3z"/><path class="a8" d="m611.9 188.7c-0.8 0.3-0.7 0.6-1.4 0.9h-0.1-0.1c-0.7-0.4-1.4-0.7-2.1-1q-0.5-0.2-1-0.2-0.3-0.1-0.6 0-0.2 0-0.5 0c-0.7 0.2-1.4 0.5-2 0.9-0.6 0.5-1 1.1-1.5 1.8 0.3-0.8 0.6-1.5 1.2-2.1 0.6-0.6 1.4-1 2.2-1.2q0.3-0.1 0.6-0.1 0.3 0 0.6 0 0.7 0.1 1.2 0.4c0.8 0.3 1.3 0.5 2 0.7 0.8 0.2 0.7 0 1.5-0.1z"/><path class="a6" d="m592.2 177.6c-1.7 5-5.6 9.6-7.5 11.5-2.6-2.7-1.7-14 2.4-16.3q4-2.3 5.1 4.8z"/><path class="a0" d="m583.9 198.7c-2.5 0.7-5.1-1.8-5.7-6.3-0.6-4.6 2.8-5.1 3.1-5.1 0.4-0.1 3.7-1.1 5.1 3.2 1.4 4.4 0 7.8-2.5 8.2z"/><path class="a0" d="m613.5 190.8c1.4-4.3 4.7-3.3 5-3.2 0.3 0 3.7 0.6 3.1 5.1-0.6 4.5-3.2 7-5.7 6.3-2.5-0.4-3.9-3.8-2.4-8.2z"/><path class="R" d="m582.1 184.3c1.7-19.1 16.2-18 17.6-17.9 1.3-0.1 15.8-1.2 17.6 17.9 1.7 19.1-8.7 27.1-17.5 29-5 0-19.5-9.9-17.7-29z"/><path class="R" d="m648.1 275.3c2.9-2.5 7.9-1.6 5.2 0.3q-2.7 2-7.6 5.3-0.6-3.2 2.4-5.6z"/><path class="X" d="m639.5 299.5l-16.7 1.7 8.7-29.9 17.6-2.5z"/><path class="s" d="m640 299.9l-16.7 1.7 8.7-29.9 17.6-2.4z"/><path class="X" d="m649.1 268.8l0.5 0.5-1.4 0.2h-2.2q0.5-0.1 0.5-0.1 0-0.1 0.3-0.1 0.4-0.1 0.5-0.1 0.1-0.1 1.8-0.4z"/><path class="R" d="m645.4 290.5q2.5 4.6-0.9 5.4-3.6 0.7-6.8 0 2.1-3.8 6.8-2.7z"/><path class="R" d="m646 286.8q4.4 5.8-0.7 6.4-7.3 0.7-9.4 0.5 0.2-3.7 7.5-5z"/><path class="R" d="m645.6 282.4q6.5 5.6-0.7 6.9-7.2 1.3-8.7 1 0.2-3.8 7.7-3.8z"/><path class="R" d="m646.3 279.7q6.5 5.6-0.7 6.9-7.2 1.3-8.7 1 0.2-3.7 7.7-3.7z"/><path class="a9" d="m603.4 190.5c0.4 0.4 0.6 0.9 0.9 1.3q0.3 0.7 0.5 1.4 0.4 1.4 0.5 2.9v0.4l-0.2 0.2q-0.6 0.5-1.3 0.9c-0.4 0.3-0.9 0.7-1.4 0.9 0.3-0.5 0.6-1 0.8-1.4q0.5-0.7 1-1.3l-0.2 0.5q-0.5-1.3-0.7-2.8-0.1-0.7-0.1-1.5c0.1-0.5 0.1-1 0.2-1.5z"/><path class="a9" d="m595.6 202c-2.9-3.9 9.4 3.2 13.9 0.2q-9.1 6.2-13.9-0.2z"/><path class="aa" d="m614.8 183.9q-0.6-0.4-1.4-0.9c-0.2-0.1-0.5-0.2-0.7-0.4q-0.4-0.2-0.8-0.3c-0.3-0.2-0.6-0.2-0.8-0.3-0.3-0.1-0.6-0.2-0.9-0.1l-0.5-0.1-0.4 0.1c-0.3 0-0.6 0.1-0.9 0.1-0.3 0.1-0.5 0.2-0.8 0.3-0.2 0.1-0.4 0.3-0.6 0.4-0.3 0.1-0.5 0.2-0.6 0.3q-0.3 0.2-0.4 0.3-0.3 0.2-0.4 0.3 0-0.2 0.2-0.4c0.2-0.3 0.4-0.7 0.8-1 0.2-0.2 0.4-0.4 0.7-0.6 0.2-0.1 0.5-0.3 0.8-0.4 0.4-0.1 0.7-0.3 1.1-0.3l0.5-0.1 0.6 0.1c0.3 0 0.7 0.1 1 0.2 0.4 0.1 0.7 0.2 1 0.4q0.4 0.2 0.8 0.5c0.2 0.2 0.4 0.4 0.6 0.6q0.8 0.7 1.1 1.3z"/><path class="aa" d="m596.5 183.9q-0.6-0.4-1.4-0.9c-0.2-0.1-0.5-0.2-0.7-0.4q-0.4-0.2-0.8-0.3c-0.3-0.2-0.6-0.2-0.8-0.3-0.3-0.1-0.6-0.2-0.9-0.1l-0.5-0.1-0.4 0.1c-0.3 0-0.6 0.1-0.9 0.1-0.3 0.1-0.5 0.2-0.8 0.3-0.2 0.1-0.4 0.3-0.6 0.4-0.3 0.1-0.5 0.2-0.6 0.3q-0.3 0.2-0.4 0.3-0.3 0.2-0.4 0.3 0-0.2 0.2-0.4c0.2-0.3 0.4-0.7 0.8-1 0.2-0.2 0.4-0.4 0.7-0.6 0.2-0.1 0.5-0.3 0.8-0.4 0.4-0.1 0.7-0.3 1.1-0.3l0.5-0.1 0.6 0.1c0.3 0 0.7 0.1 1 0.2 0.4 0.1 0.7 0.2 1 0.4q0.4 0.2 0.8 0.5c0.2 0.2 0.4 0.4 0.6 0.6q0.8 0.7 1.1 1.3z"/><path class="aa" d="m596.1 189.3q-0.3-0.5-0.9-0.9c-0.3-0.3-0.7-0.5-1.1-0.7-0.4-0.2-0.8-0.3-1.3-0.3q-0.3 0-0.7 0.1-0.4 0.1-0.7 0.2-0.7 0.2-1.1 0.5-0.6 0.4-0.9 0.9 0-0.1 0.1-0.4c0.1-0.2 0.2-0.5 0.5-0.8 0.3-0.3 0.7-0.6 1.2-0.9q0.3-0.1 0.8-0.2 0.3-0.1 0.8-0.1 0.4 0 0.9 0.1 0.4 0.1 0.7 0.3c0.5 0.3 0.8 0.6 1.1 1q0.5 0.6 0.6 1.2z"/><path class="aa" d="m612.3 189.1q-0.2-0.4-0.7-0.8-0.4-0.3-1-0.5-0.3-0.1-0.6-0.1-0.3-0.1-0.6-0.1c-0.2 0-0.4 0-0.6 0-0.2 0-0.4 0-0.6 0.1q-0.5 0.1-0.9 0.4c-0.2 0.2-0.4 0.4-0.5 0.5q-0.2 0.2-0.2 0.3 0-0.1 0-0.3c0.1-0.2 0.2-0.6 0.4-0.8 0.2-0.3 0.6-0.6 1-0.8 0.3-0.1 0.5-0.1 0.7-0.1q0.4-0.1 0.8 0c0.5 0 0.9 0.1 1.4 0.3 0.4 0.2 0.7 0.5 0.9 0.8q0.5 0.6 0.5 1.1z"/><path class="T" d="m591.7 165.9l2.3 6.6q-15 4.9-8.6 43.6c-3.8-15.2-16.6-57.6 6.3-50.2z"/><path class="T" d="m603 157.8c14.5 1.8 18.7 15.1 19.9 17.5 3.3 6.7 5.2 48.5 3.7 49.1-1.1 0.4-11.8-2.1-12.8-3.4 0.6-2.2 2.8-34.7 1.9-39.7-2.8 0-11.2-7.2-15.2-9 1.1 1.2 6 5.5 6.8 7.1-3.5-0.4-16-7-18.6-9.2 1-4 4.8-13.6 14.3-12.4z"/><path class="e" d="m625.1 276.2c-2.2-12.4-14-7-22-5.4-9.3 1.7-22.5 1.5-16.8 15.9q5.7 14.5 1 24.6-5.6 13.5 0.3 15.2 11.4 6.2 35.5 5.1-32 4.3-45-3 0.5-3.3 3.3-12.7 6-13.6 3.2-21.5-7.6-17.8-16.6-41l0.2-0.2 5.7 7.7c10.5 16.5 28.6 4.6 29.2 4.9q28.9 5.4 24.4-20 2.5 8.9-2.4 30.4z"/><path class="e" d="m568 253.4q2.8-5.3 3.5-10.2 0.7 4.9-3.2 10.4"/><path class="e" d="m627.6 246.4q-1.6-6.5-0.5-9.8-0.6 4.8 0.5 9.8z"/><path class="O" d="m591.9 165.1q9.8-16.7 27.3 4 5.4 9.9 4.9 25.7-0.7-28.7-17.8-31.8 12.2 4.7 13.8 18.8-6.3-15.8-20-16.9 12.8 6 15.8 13.8-15.6-12.8-24-13.6z"/><path class="O" d="m594.9 165.9q5 7.3 8.5 10.9-16.1-7.9-11.5-11.7l3.5-1.4 0.3 0.2z"/><path class="O" d="m592.7 171.9q-7.7 0.1-9.7 16.3-0.1-17 5.7-18-13.6-1.9-5.5 35.1l-1.1-7.1q-8-36.4 7.1-31.6 1.6 3.9 3.5 5.3z"/><path class="O" d="m618.7 182.3l3.5 39.5q-6.2-29.3-3.5-39.5z"/><path class="O" d="m621.9 183.9l3.6 39.5q-6.2-29.3-3.6-39.5z"/><path class="S" d="m593.6 493.6q0.2-0.2 0.8-0.3 3.8-0.2 3.9-0.2 0 0 4.8 0.8l2.5 2.1q-9.7 3.1-15.1 0.3 2.9-2.4 3.1-2.7z"/><path class="S" d="m620.2 494.6c0.4-0.2 2.3-0.2 2.4-0.2q0.2 0 5.9 0.9l3.3 3.6q-10.5 1.8-16.2-1.6 4.3-2.5 4.6-2.7z"/><path class="Z" d="m612.8 355.3q4.9 135.7 8.3 143.7-4.4-1.1-5.5-1.7-4-99.1-2.8-142z"/><g style="mix-blend-mode:multiply"><path class="ab" d="m374.9 112.4q-14.2 3.2-27.7 9.4-7.7-12.6-17.7-23.2 14.2-3.1 27.6-9.4 7.7 12.7 17.8 23.2z"/></g><g style="mix-blend-mode:multiply"><path class="ab" d="m709.1 225.7q-2.4 14.4-1.7 29.2-14.6 2.4-28.2 7.7 2.5-14.3 1.7-29.2 14.7-2.3 28.2-7.7z"/></g><g style="mix-blend-mode:multiply"><path class="ab" d="m51.1 136q-2.3-9.5 3.2-14.6c5.9-5.5 16.4 2.5 16.6 17.1 0.1 10.5-2.1 19.5-3.4 23.7-3.8 0.2-11.7 0.2-20.2-3-11.7-4.5-15.2-18.6-9-23.7q5.7-4.8 12.8 0.5z"/></g><g style="mix-blend-mode:multiply"><path class="ab" d="m451 33.9c5.5 3.1 6.2 9 6.1 12.3 1.6-3.5 4.4-9.8 4.9-13.1l7.1 4.6c-2.8 1.8-7.5 6.9-10.1 9.8 3.1-1.4 8.7-3.1 13.8 0.7 8.1 6.1 6.7 21.3-9.8 22.8-10.5 1-16 1.4-25.1 6.5 1.2-10.4-0.7-15.5-4-25.6-5.1-15.7 8.3-23 17.1-18z"/></g><g style="mix-blend-mode:multiply"><path class="ab" d="m579 74.6c5.5 4 6.8 11.6 3.1 17.1-3.4 4.5-9.1 6.1-14.1 4.3 4.1 2.1 13.2 6.7 17.9 7.6l-6.5 9c-2.3-4.1-9.6-11.2-13-14.4 3.3 4.1 3.7 10.1 0.6 14.7-4.1 5.4-11.7 6.6-17.2 2.6-5.5-3.9-6.8-11.5-3.1-17.1 1.1-1.4 2.5-2.5 4-3.4-3.4 0.8-7 0.2-10.1-1.9-5.5-4-6.8-11.6-3-17.1 4-5.4 11.6-6.6 17.1-2.7 3.1 2.1 4.8 5.4 5.2 8.8 0.3-1.7 0.9-3.3 1.9-4.8 4.1-5.4 11.7-6.6 17.2-2.7z"/></g><g style="mix-blend-mode:multiply"><path class="ab" d="m126.7 211.5c-2.3 3.8-7.3 5-11.2 2.7-3.1-2-4.4-5.7-3.4-9.1-1.3 2.8-3.9 9-4.3 12.1l-6.3-3.9c2.7-1.7 7.1-6.8 9.1-9.2-2.7 2.4-6.6 2.9-9.8 1-3.7-2.5-4.8-7.5-2.5-11.3 2.4-3.8 7.4-5 11.3-2.8 1 0.7 1.8 1.5 2.4 2.5-0.7-2.2-0.4-4.6 0.9-6.7 2.4-3.9 7.4-5.1 11.2-2.8 3.8 2.5 4.9 7.5 2.5 11.3-1.3 2.1-3.4 3.4-5.6 3.8 1.1 0.1 2.2 0.5 3.3 1.1 3.7 2.4 4.8 7.4 2.4 11.3z"/></g></svg>