<svg version="1.2" xmlns="http://www.w3.org/2000/svg" viewBox="0 0 391 419" width="391" height="419"><defs><linearGradient id="P" gradientUnits="userSpaceOnUse"/><linearGradient id="g1" x1="296.3" y1="30.2" x2="296.3" y2="387" href="#P"><stop stop-color="#fff"/><stop offset="1" stop-color="#cbd2d0"/></linearGradient><linearGradient id="g2" x1="173.7" y1="193" x2="231.2" y2="193" href="#P"><stop stop-color="#fff"/><stop offset="1" stop-color="#cbd2d0"/></linearGradient><linearGradient id="g3" x1="195.6" y1="80.2" x2="212" y2="80.2" href="#P"><stop stop-color="#fff"/><stop offset="1" stop-color="#cbd2d0"/></linearGradient><linearGradient id="g4" x1="189.3" y1="99.4" x2="218.3" y2="99.4" href="#P"><stop stop-color="#fff"/><stop offset="1" stop-color="#cbd2d0"/></linearGradient></defs><style>.a{fill:#292540}.b{fill:url(#g1)}.c{fill:url(#g2)}.d{fill:#fff}.e{fill:url(#g3)}.f{fill:url(#g4)}.g{fill:#d9ffff}.h{fill:#612f4b}.i{fill:#f74040}.j{fill:#de3e42}.k{fill:#f9b384}.l{fill:#151823}.m{fill:#232032}.n{fill:#933547}.o{fill:#f2f2f2}.p{fill:#c53b44}.q{fill:#e28b6d}.r{fill:#352836}.s{fill:#4d4d4d}.t{fill:#808080}.u{opacity:.2;mix-blend-mode:multiply;fill:#666}.v{fill:#666}.w{fill:#2e294e}</style><path  d="m108.8 386l2.8-366c0.1-10.6 8-19.2 17.7-19.2l154.8 0.5c9.6 0.1 17.5 8.7 17.5 19.3l0.6 364.2c0 11-8 20-17.8 20l-157.8 1.1c-9.9 0-17.9-8.9-17.8-19.9z"/><path class="a" d="m111 386.2l2.8-366.3c0-4.4 1.6-8.5 4.4-11.6 2.7-3.1 6.3-4.8 10.2-5q0.4 0 0.7 0l154.8 0.6c8.3 0.1 15.1 7.6 15.1 16.9l0.5 363.8c0 9.6-6.9 17.5-15.3 17.5l-157.8 1.2q-1 0-2-0.1c-7.7-1-13.4-8.3-13.4-17z"/><path class="b" d="m293.8 21.7l0.5 364-177.7 1 2.6-365z"/><rect class="c" x="173.7" y="195" width="57.4" height="13.5" rx="5.8"></rect><path class="d" d="m140.3 151.5c0-3.7 3.1-6.7 6.8-6.7h113.6c3.7 0 6.7 3 6.7 6.7 0 3.8-3 6.8-6.7 6.8h-113.6c-3.7 0-6.8-3-6.8-6.8z"/><rect class="d" x="140.3" y="166.6" width="127.1" height="13.5" rx="5.8"></rect><circle class="d" cx="203.8" cy="99.8" r="26.1"/><path class="e" d="m203.8 98.7c-2.6 0-4.9-1.2-6.4-3.1-1.1-1.4-1.8-3.2-1.8-5.1 0-4.5 3.7-8.3 8.2-8.3 4.6 0 8.2 3.8 8.2 8.3 0 1.9-0.6 3.7-1.7 5.1-1.5 1.9-3.9 3.1-6.5 3.1z"/><path class="f" d="m189.3 107.3c2.4-8.6 27.9-8.2 29 0v6.1c0 5.2-29 5.2-29 0z"/><path class="g" d="m-3.8 197.7q0-0.4 0-0.4 0 0 0 0.4z"/><path class="g" d="m-3.8 197.7q0-0.4 0-0.4 0 0 0 0.4z"/><path class="g" d="m165.1 198.5q0-0.4 0-0.5 0 0.1 0 0.5z"/><path class="g" d="m165.1 198.5q0-0.4 0-0.5 0 0.1 0 0.5z"/><path class="h" d="m160.7 202.2c0 2.1 0 13.9-0.3 68.4-0.3 72.6-70.3 108-80.7 112.8-10.7-5.4-79.8-40.9-79.5-113.6 0.2-54.4 0.3-66.2 0.3-68.3 31.9-7 61.7-23.4 80.4-43.5 18.5 20.2 48 36.9 79.8 44.2z"/><path class="i" d="m80.9 166.1v211.9q-0.5 0.3-1.1 0.5c-8.2-4.2-24.3-13.7-39.7-29-23.3-23.2-35.1-50-35-79.7l0.3-64.7c29.4-7.6 56.1-21.5 75.4-39.2q0 0.1 0.1 0.2z"/><path class="j" d="m155.7 205.7l-0.2 64.8c-0.2 29.6-12.2 56.4-35.8 79.4-14.8 14.5-30.3 23.6-38.8 28.1v-211.9c19.1 17.7 45.6 31.8 74.8 39.6z"/><path class="d" d="m143.8 238.9c-41.5 20.5-62.3 58.6-70.4 74.6l-19.1-3c-1.8-15.6-14.8-30.9-26.8-36.3l19.2-19.3c6.3 2.3 18.4 12.9 21.1 24.4 19.2-24.5 49.6-44.9 72-48.3 0.3 0.4 3.2 4.7 4 7.9z"/><path class="k" d="m302 376.3c-0.5 3.2-3.4 7.3-1.8 14.8 1.4 6.7 1.1 7.2 0.8 11.5-0.2 1.9-14.7 5.1-17.6 4.9-2.9-0.2-12.1-0.3-3.8-7 8.2-6.8 9-20.9 8.8-28.1q14.1 0.6 13.6 3.9z"/><path class="l" d="m289.6 413.2c-6.1 4.2-21.4 8.2-24.7 3.4q-5.1-7.4 8.1-13.5 2.7-0.4 5-5c3.2-6.4 14.1 0.1 12.8 5.9q4.5 5.4-1.2 9.2z"/><path class="l" d="m301 395.1c3.2 6.2 2.3 12.2 0.5 13-1.7 0.8-5.4-0.7-13.2 5.5q-2.5 2-5.7-5.3 10-6.9 13.8-7.5 3.1-0.6 4.6-5.7z"/><path class="k" d="m351.9 371.2c-0.2 7.2 0.6 21.3 8.9 28.1 8.2 6.7-1 6.8-3.9 7-2.9 0.2-17.4-3-17.6-4.9-0.3-4.3-0.6-4.8 0.8-11.5 1.6-7.5-1.3-11.6-1.8-14.8q-0.5-3.3 13.6-3.9z"/><path class="l" d="m349.5 402.8c-1.3-5.8 9.6-12.3 12.8-5.9q2.3 4.6 5 5 13.2 6.1 8.1 13.5c-3.3 4.8-18.6 0.8-24.7-3.4q-5.7-3.8-1.2-9.2z"/><path class="l" d="m344 399.6q3.8 0.6 13.7 7.4-3.2 7.4-5.7 5.4c-7.8-6.2-11.4-4.7-13.2-5.5-1.8-0.8-2.7-6.9 0.5-13q1.5 5.1 4.7 5.7z"/><path class="j" d="m361.9 99.3c3.4-0.5 6.8 4.7 9.9 11.6 3.8 8.8 11.6 28 16.8 40.7 3.9 9.6 1 17.2-1.8 18.3-2.8 1.1-11.5-0.3-14.6-6-3.7-6.8-9.7-21.3-13.7-29.4-2.3-11.3-1.9-30.5 3.4-35.2z"/><path class="m" d="m345.5 194.9l8.7 45.7 5.1 149.8-10.9 3.1-12.4-1.5-12.6-142.2-2.8-1.5-4.2-53.2z"/><path class="m" d="m320.6 195.1v53.2l-1.7 2.4-13.3 142.5-12.5 0.6-11.3-1 3-155.5 6.7-42.4z"/><path class="a" d="m307.9 196.5l12.7-1.4v53.2l-1.7 2.4-13.3 142.5-12.7 0.5 8.3-145.4z"/><path class="a" d="m345.5 194.9l8.7 45.7 5.1 149.8-10.5 2.9-9.5-148.8-8.2-49.5z"/><path class="k" d="m334.9 93.2l-16.4 16.7-7.4-16.8c0.1-6.3 0-12.5 0-18.8h23.2z"/><path class="j" d="m298.6 142.3c-1.8 8.4-5.8 14.6-9 21.5-1.4 3-17.5 7.5-15.7-3.8 1.7-11.1-0.3-23.1 1.7-33.7 1.5-8.2 2.1-17.8 7-23.2 1.2-1.3 3.7-2.3 5.7-3.2z"/><path class="d" d="m315.2 102.4l2.1 0.5 8.6-2.3 9.1-9.4 5.1 2.7 3.3 24.1-16.3 79.7c-7.8 1.9-25.6 1.9-29.6-1.2l2.9-37.4 2.5-57.3 6-9.3z"/><path class="j" d="m335.3 87.3l9.2 6.6 19.9 6c-5.2 39.6-12.6 57.1-11.3 76.8 1 14.9 3.1 28.9 8.3 58.5-37.9 7.9-32.2 9.4-39.7-29.8l-6.5-33.9c1.8-33.9 17.6-59.3 20.1-84.2z"/><path class="n" d="m335.3 87.3l8.2 5.9 1 8.2-6.6 5.2 6.5 1-11.8 30.7-15.5 24.8-1.7 5.1c2.7-32.4 17.4-56.8 19.9-80.9z"/><path class="j" d="m302.5 162.5c-2.9 21.9-5 41.5-8.1 63.5-1.9 11.5-7.9 11.2-10.3 6.5-1.5-1.2-2.1-6.8-1.8-9.3 2.3-20.4 1.7-40 8.5-54.6 3.9-8.3-3.1-19.1-4.4-29.6-1.5-11.5-2.9-22.6-0.8-31.1 1.1-4.8 0.4-6.8 3.9-7.9 1.8-0.6 4.7-1.4 5.4-1.6 5.8-1.5 7.5-2.6 15.6-7.2-8.5 21.4-7.4 48.2-8 71.3z"/><path class="n" d="m302.5 162.5q-0.5 3.6-1 7.1c-6.8-24.5-8-36.2-6.1-62.7l6.3-1.3-3.5-2.5c1.7-2.5 3.1-5 4.4-7.5 2-1 4.3-2.4 7.9-4.4-8.5 21.4-7.4 48.2-8 71.3z"/><path class="o" d="m335.8 87.7c-1.7 9.5-5.5 16.4-11.3 24.3-1.7-5-4.3-7.5-6.5-9.3 7.6-6.2 12.3-10.3 16.9-17.9z"/><path class="o" d="m311.2 88.7c0 1.1 1.9 8.3 6.8 14-2.1 2.5-3.9 5.7-5.6 9.2-3.9-7.6-3.9-14.8-3.3-20.1z"/><path class="p" d="m301.9 175.4c0.7 2.7-3.2 4.4-5.8 5.2-7.2 2-22.2-3-21.5-16.5 0.8-13.7 13.1-4.9 24.3-5.9h0.2c2.2 6.7 1 10.4 2.8 17.2z"/><path class="k" d="m336.3 69.1c-2.6 8.3-7.9 16.2-14.4 15.9-2.5-0.1-4.9-1.4-6.9-3.3q-0.1 0-0.1-0.1-0.8-0.8-1.6-1.7-0.3-0.3-0.5-0.7-0.4-0.5-0.8-1.1-0.4-0.5-0.7-1.1-0.1-0.3-0.3-0.5c-1.2-2.2-3.3-5.6-4-8.2-0.8-0.3-2.7-2.6-3.2-5.9-0.5-3.5-1.1-6.2 1.6-6.3 0.2 0-0.9-2.7-0.7-2.7 0.4-8 4.1-12.4 13.6-13.8q0 0 0 0.1c1.5-0.3 3.3-0.4 5.3-0.3 13.5 0.4 15 8.3 14.8 17.7 2.5 0.4 2.2 3.4 1.8 7.1-0.2 2.8-2.1 4-3.9 4.9z"/><path class="a" d="m336.9 63.7q-1 14.7-2.3 17.3c-1.4 2.6-6.6 6.7-9.2 7.6q-2.5 1-5.3 0.8-1.5-8.1-0.5-8.3c3.3-0.6 5.9-1.6 7.1-2.4 1.1-0.7 4.4-3.2 5.2-4.6q1.6-3.1 4.4-13.8z"/><path class="a" d="m306.5 58.8c0.9 0.9 1.9 14 5.7 17.3q4.1 3.5 9.4 4.7-0.8 8.4-1.5 8.6c-0.7 0.2-8.2-3-11-8-0.8-1.6-2.9-12.4-2.7-13.4q-0.7-10 0.1-9.2z"/><path class="a" d="m339.3 42.1c0.8 2.7 1 7.8 0.1 12.3-0.5 2.2-1.4 5.7-2.8 10.7 0.1-4.3-1.6-8.3-2.3-9.8-0.8-1.4-3.4-3.9-2.7-8.3-3.1 2.2-10.1 4.3-13.6 4-2.7-0.3-8.1-0.7-9.1-1.3 0.5 2.5-1.9 12.4-1.8 16.8-0.2-1.6-2.1-4.5-2.9-9.9-0.3-2.4-1.1-11.1 0.3-16 1.2-4.3 3.4-5.2 4.1-5.6 6.3-4.1 13-2.4 17-2.1 4.1 0.3 8.3 0.9 8.2 6.3 0.9-0.3 4.6 0.2 5.5 2.9z"/><path class="q" d="m320.9 64.5q0.1 0.6 0.1 1.2 0 1.2-0.3 2.3l-0.2-0.5q0.4 0.5 0.8 1c0.3 0.4 0.6 0.7 0.8 1.1-0.5-0.1-0.9-0.3-1.2-0.5q-0.6-0.3-1.2-0.7l-0.1-0.1-0.1-0.4q-0.1-1.2 0.1-2.3 0.1-0.6 0.4-1.2 0.2-0.5 0.5-1.1 0.3 0.6 0.4 1.2z"/><path class="q" d="m317.5 76.3c2.1 2.3 4.8 1.7 7.5-0.2q-3.8 1.1-7.5 0.2z"/><path class="r" d="m310.3 57.8q0.3-0.4 0.9-0.9 0.5-0.4 1.2-0.7 0.7-0.4 1.5-0.5c0.6 0 1.2 0.1 1.7 0.3q0.2 0.1 0.4 0.2 0.1 0.1 0.2 0.2 0.2 0.2 0.3 0.3 0.1 0.1 0.2 0.2c0.3 0.4 0.4 0.7 0.5 0.9q0 0.2 0.1 0.3-0.1 0-0.3-0.2-0.1-0.1-0.3-0.3c-0.1-0.1-0.3-0.1-0.4-0.3q-0.2-0.1-0.5-0.2-0.1-0.1-0.2-0.2-0.2 0-0.3-0.1c-0.2 0-0.4 0-0.6-0.1q-0.4 0-0.7 0-0.7 0.1-1.3 0.3-0.7 0.2-1.2 0.4-0.7 0.3-1.2 0.4z"/><path class="r" d="m324.8 58.9q0-0.2 0.1-0.4c0-0.3 0.1-0.6 0.3-1q0.2-0.3 0.4-0.6c0.2-0.2 0.4-0.4 0.7-0.6q0.3-0.3 0.8-0.4c0.3-0.2 0.6-0.2 0.9-0.3 0.3 0.1 0.6 0 0.9 0.1q0.5 0.1 0.9 0.3c0.2 0.1 0.5 0.2 0.7 0.3q0.3 0.2 0.6 0.4c0.3 0.3 0.6 0.5 0.8 0.7q0.1 0.2 0.2 0.3-0.1 0-0.4-0.1c-0.2-0.1-0.5-0.3-0.9-0.4q-0.3-0.1-0.6-0.2c-0.2-0.1-0.5-0.1-0.7-0.2-0.2-0.1-0.5-0.1-0.7-0.1-0.3-0.1-0.5 0-0.7-0.1-0.3 0.1-0.5 0.1-0.7 0.2q-0.2 0-0.4 0.1l-0.3 0.1c-0.4 0.3-0.7 0.5-1 0.8q-0.6 0.6-0.9 1.1z"/><path class="a" d="m330.9 78.3l-4 1.1-2.2-4.4-6.9 0.1-1.7 5-4.1-3.4 2.8-4.1 6.2-1.8 6.9 1.5 2.9 3.2z"/><path class="l" d="m327.8 59.6c0.5-0.1 0.9 0.3 1 0.8 0.1 0.4-0.3 0.9-0.8 0.9-0.4 0.1-0.9-0.3-0.9-0.7-0.1-0.5 0.3-0.9 0.7-1z"/><path class="l" d="m314.7 59.6c0.4 0 0.9 0.3 0.9 0.8 0.1 0.5-0.3 0.9-0.7 0.9-0.5 0.1-0.9-0.3-1-0.7-0.1-0.5 0.3-0.9 0.8-1z"/><path class="a" d="m322.3 77.4l1.4 3.7-1.5 0.9-2.8-1 0.6-3.3q1.3 0.2 2.3-0.3z"/><path class="s" d="m270.3 164.9l8.3-14.7 76.5 3.7-15.7 17.9z"/><path class="t" d="m273.6 163.5l6.3-11 70.6 3.4-12.1 13.7z"/><path class="k" d="m317 154.7l-2.3-4.4-0.2-4 3.3-3c1.9-1.7 4.2-4.1 6-3.1 2-1.2 2.6-0.8 4.6 0.8 1.8-0.5 2.6 0 4.1 1.7 1.3 0.9 2.8 1.4 3.9 2.5 3.3 3.2 4.1 5 8.9 6.9l1.9 6.5c-6 0-9 1.7-12.4 0.5-2.5-0.9-4.9-2.2-8.5-4.2z"/><path class="k" d="m314.9 153.1l-0.8-4.3 0.4-4.4 3.3-3.1c1.9-1.7 4.2-4.1 6-3.1 2-1.2 2.6-0.8 4.6 0.8 1.8-0.5 2.6 0 4.1 1.8 1.3 0.8 2.8 1.3 3.9 2.4 0.7 0.7 4.5 5.6 5.1 6.2-2.3 1.4-7.9-1.6-10.6-1.3l-1.6 2.2c-0.1 1.5-0.2 4.5-1 5.7-0.8 1.3-2.4 2.4-3.1 0-1.5 1.9-3.3 0.6-3.4-1.5-1 3.5-3.7 0.7-3.5-1.6-0.3 2.7-2.2 2-3.4 0.2z"/><path class="u" d="m340.3 160.1h3.8l9.1 5.3q-0.2 1.5-0.3 6.8l-15.8-11.8z"/><path class="j" d="m365.6 150c11 1.6 24.8 1.8 24.7 14.5 0 12.5-16.5 9.1-23.3 6.8-9.6-3.1-20-7.3-29.9-10.9 4.3-5.5 3.1-9.5 2.4-13.8z"/><path class="s" d="m263.9 121l71.2 5 4.3 45.8-69.1-6.9z"/><path class="k" d="m283.4 171.7q-1.3-1.9-7.1-3.2-3-3.3 3.8-2.8 5.1 0.3 6.9 0.9-1.3-6.4-0.6-9.6 1.3-4.8 2.8-0.5l1.5 7.9q-0.3-9.4 0.3-9.8 2.7-1.5 4 1.3 2.8-0.8 3.3 1.7 2.1-0.8 2 2.6 1.3-0.9 1.7 0.8 2.7 10.1-1.7 13.6-8.6 6.1-15-1.1z"/><ellipse class="v" cx="298.9" cy="145.3" rx="3.9" ry="3.9"/><path class="u" d="m365.6 150q8.7-0.3 13.5 6.4-3.3-3-7.2-3.9 2.6 2 3.4 3.3-5-3.4-7-3.8 1.3 0.8 2.1 2.2-3.4-2.2-5.2-3.3l-7-1.6z"/><path class="u" d="m358.1 137.1q-4.2-6.4-2-19.8-1.1 11.5 2.5 17.4z"/><path class="w" d="m331.5 44.7q-4.8 8.3-23.4 3.1 13.1 2.1 20.1-2.4-7.9 3.3-18 0.1 10.1 0.8 17.3-2.6-9.1 1.7-15.7 1.1 13.9-1.4 17-3.5 3.1-2.1-15.1 2.3-8.9 2.5-7.2-3.3 4.6-9.5 19.3-4.7 8.8 1.7 5.7 9.9z"/><path class="w" d="m333.7 42.3q7.3-6.2 5.1 12.2 0.5-8.8-1.6-10.1 1 2.5 1 7.6-0.9-5.9-2.5-7.1 2.4 5 2 10.8c-0.3 5.8-4.4-4-4.2-5.1 0.2-1.1-2.3-5.5 0.2-8.3z"/></svg>